<svg width="329" height="279" viewBox="0 0 329 279" fill="none" xmlns="http://www.w3.org/2000/svg">
<circle cx="137.767" cy="121.683" r="121.683" fill="#244038"/>
<path opacity="0.47" d="M57.8933 131.064C57.8933 131.5 57.5395 131.869 57.0892 131.869C56.6389 131.869 56.2852 131.5 56.2852 131.064C56.2852 130.629 56.6389 130.26 57.0892 130.26C57.5395 130.26 57.8933 130.629 57.8933 131.064Z" fill="white"/>
<path opacity="0.47" d="M32.1638 70.4915C32.1638 70.9265 31.81 71.2946 31.3597 71.2946C30.9095 71.2946 30.5557 70.9265 30.5557 70.4915C30.5557 70.0566 30.9095 69.6885 31.3597 69.6885C31.81 69.6551 32.1638 70.0231 32.1638 70.4915Z" fill="white"/>
<path opacity="0.92" d="M58.9643 95.6851C58.9643 96.1318 58.5048 96.4891 57.8922 96.4891C57.3178 96.4891 56.8201 96.1318 56.8201 95.6851C56.8201 95.2383 57.2795 94.881 57.8922 94.881C58.4665 94.881 58.9643 95.2383 58.9643 95.6851Z" fill="white"/>
<path opacity="0.47" d="M72.902 184.133C72.902 184.58 72.4425 184.937 71.8299 184.937C71.2173 184.937 70.7578 184.58 70.7578 184.133C70.7578 183.686 71.2173 183.329 71.8299 183.329C72.4043 183.329 72.902 183.686 72.902 184.133Z" fill="white"/>
<path opacity="0.47" d="M102.386 96.489C102.386 97.092 101.899 97.5611 101.314 97.5611C100.729 97.5611 100.242 97.092 100.242 96.489C100.242 95.8859 100.729 95.4169 101.314 95.4169C101.899 95.4169 102.386 95.8859 102.386 96.489Z" fill="white"/>
<path opacity="0.47" d="M132.406 30.5553C132.406 30.8569 132.186 31.0914 131.87 31.0914C131.586 31.0914 131.334 30.8569 131.334 30.5553C131.334 30.2538 131.555 30.0193 131.87 30.0193C132.154 30.0193 132.406 30.2873 132.406 30.5553Z" fill="white"/>
<path opacity="0.92" d="M97.7145 143.763L98.1191 144.976C98.254 145.381 98.5574 145.684 98.9282 145.785L100.142 146.19C100.277 146.224 100.277 146.426 100.142 146.493L98.9282 146.898C98.5237 147.033 98.2202 147.336 98.1191 147.707L97.7145 148.921C97.6808 149.056 97.4448 149.056 97.4111 148.921L97.0065 147.707C96.8717 147.303 96.5683 146.999 96.1974 146.898L94.9837 146.493C94.8489 146.46 94.8489 146.257 94.9837 146.19L96.1974 145.785C96.602 145.651 96.9054 145.347 97.0065 144.976L97.4111 143.763C97.4448 143.628 97.6471 143.628 97.7145 143.763Z" fill="white"/>
<path opacity="0.92" d="M60.7238 43.5211L61.1284 44.7348C61.2632 45.1393 61.5667 45.4428 61.9375 45.5439L63.1512 45.9485C63.2861 45.9822 63.2861 46.1845 63.1512 46.2519L61.9375 46.6565C61.5329 46.7913 61.2295 47.0947 61.1284 47.4656L60.7238 48.6793C60.6901 48.8141 60.4541 48.8141 60.4204 48.6793L60.0158 47.4656C59.881 47.061 59.5775 46.7576 59.2067 46.6565L57.993 46.2519C57.8581 46.2182 57.8581 46.0159 57.993 45.9485L59.2067 45.5439C59.6112 45.409 59.9147 45.1056 60.0158 44.7348L60.4204 43.5211C60.4878 43.3862 60.6901 43.3862 60.7238 43.5211Z" fill="white"/>
<path opacity="0.92" d="M182.943 27.9758L183.342 29.1895C183.476 29.594 183.775 29.8975 184.175 29.9986L185.373 30.4032C185.507 30.4369 185.507 30.6392 185.373 30.7066L184.175 31.1112C183.775 31.246 183.476 31.5494 183.342 31.9203L182.943 33.134C182.91 33.2688 182.677 33.2688 182.643 33.134L182.244 31.9203C182.11 31.5157 181.811 31.2123 181.411 31.1112L180.213 30.7066C180.079 30.6729 180.079 30.4706 180.213 30.4032L181.411 29.9986C181.811 29.8637 182.11 29.5603 182.244 29.1895L182.643 27.9758C182.677 27.8409 182.876 27.8409 182.943 27.9758Z" fill="white"/>
<path opacity="0.47" d="M133.254 70.8076L133.381 71.1668C133.413 71.2974 133.509 71.3627 133.636 71.3954L133.986 71.526C134.018 71.526 134.018 71.5913 133.986 71.624L133.636 71.7546C133.509 71.7872 133.445 71.8852 133.381 71.9831L133.254 72.3423C133.254 72.375 133.19 72.375 133.158 72.3423L133.031 71.9831C132.999 71.8525 132.904 71.7872 132.776 71.7546L132.426 71.624C132.394 71.624 132.394 71.5587 132.426 71.526L132.776 71.3954C132.904 71.3627 132.967 71.2648 133.031 71.1668L133.158 70.8076C133.19 70.7423 133.254 70.7423 133.254 70.8076Z" fill="white"/>
<path opacity="0.47" d="M225.23 87.4312L225.48 88.1621C225.551 88.3814 225.73 88.5642 225.98 88.6373L226.695 88.8931C226.766 88.9297 226.766 89.0393 226.695 89.0759L225.98 89.3317C225.73 89.4048 225.551 89.5875 225.48 89.8068L225.23 90.5378C225.194 90.6109 225.087 90.6109 225.051 90.5378L224.801 89.8068C224.729 89.5875 224.551 89.4048 224.301 89.3317L223.586 89.0759C223.514 89.0393 223.514 88.9297 223.586 88.8931L224.301 88.6373C224.515 88.5642 224.729 88.3814 224.801 88.1621L225.051 87.4312C225.051 87.3581 225.194 87.3581 225.23 87.4312Z" fill="white"/>
<path opacity="0.47" d="M94.4343 37.5691L94.6845 38.1783C94.7559 38.361 94.9346 38.5133 95.1848 38.5742L95.8995 38.7874C95.971 38.8179 95.971 38.9092 95.8995 38.9397L95.1848 39.1529C94.9704 39.2138 94.7559 39.3661 94.6845 39.5489L94.4343 40.158C94.3986 40.2189 94.2914 40.2189 94.2556 40.158L94.0055 39.5489C93.934 39.3661 93.7553 39.2138 93.5052 39.1529L92.7904 38.9397C92.7189 38.9092 92.7189 38.8179 92.7904 38.7874L93.5052 38.5742C93.7196 38.5133 93.934 38.361 94.0055 38.1783L94.2556 37.5691C94.2914 37.5082 94.3986 37.5082 94.4343 37.5691Z" fill="white"/>
<path d="M173.589 7.56051C173.556 7.43127 173.492 7.26972 173.427 7.17279C173.427 7.17279 173.427 7.14048 173.395 7.14048C173.363 7.10817 173.363 7.07586 173.33 7.04355C173.33 7.04355 173.33 7.04355 173.33 7.01124C173.201 6.84969 173.04 6.75276 172.878 6.68814L167.71 5.13727L166.289 3.74794C165.998 1.6478 164.028 0 161.637 0C159.247 0 157.277 1.61549 156.986 3.74794H156.922L155.5 5.13727H155.468L150.3 6.68814C150.074 6.75276 149.88 6.91431 149.719 7.14048C149.686 7.2051 149.622 7.30203 149.622 7.36665C149.622 7.39896 149.589 7.43127 149.589 7.46358V7.49589C149.589 7.5282 149.589 7.56051 149.557 7.56051V7.59282C149.557 7.62513 149.557 7.65744 149.557 7.65744V7.68975C149.557 7.72206 149.557 7.75436 149.557 7.78667C149.557 8.07746 149.654 8.33594 149.783 8.5298C149.816 8.56211 149.816 8.59442 149.848 8.62673C150.042 8.8529 150.268 8.98214 150.558 8.98214H155.565L156.922 10.4038H158.311L159.086 11.9223H164.157L164.932 10.4038H166.321L167.678 8.98214H169.713H172.684C172.717 8.98214 172.749 8.98214 172.781 8.98214H172.813C172.846 8.98214 172.846 8.98214 172.878 8.98214H172.91C172.943 8.98214 172.943 8.98214 172.975 8.94983C173.007 8.94983 173.04 8.91752 173.04 8.91752C173.04 8.91752 173.072 8.91752 173.072 8.88521C173.104 8.88521 173.104 8.8529 173.104 8.8529C173.104 8.8529 173.136 8.8529 173.136 8.82059C173.169 8.82059 173.169 8.78828 173.169 8.78828L173.201 8.75597C173.233 8.75597 173.233 8.72366 173.266 8.72366L173.298 8.69135L173.33 8.65905L173.363 8.62673C173.363 8.62673 173.363 8.59442 173.395 8.59442C173.427 8.5298 173.459 8.49749 173.492 8.43287V8.40057C173.492 8.36826 173.524 8.36826 173.524 8.33595V8.30363C173.589 8.14209 173.621 7.98053 173.621 7.78667C173.621 7.75436 173.621 7.65744 173.589 7.56051Z" fill="#2D2B2F"/>
<path d="M39.5681 97.2716C39.5035 97.0454 39.4389 96.8193 39.3097 96.5931C39.3097 96.5608 39.2774 96.5608 39.2774 96.5285C39.2451 96.4639 39.2128 96.4315 39.1805 96.3992C39.1805 96.3992 39.1805 96.3669 39.1482 96.3669C38.9544 96.1084 38.6959 95.9469 38.3729 95.85L29.8456 93.2975L27.4877 91.0358C27.0032 87.5463 23.7408 84.8646 19.8002 84.8646C15.8595 84.8646 12.6295 87.5463 12.1127 91.0358H12.0804L9.72244 93.2975H9.69014L1.19512 95.85C0.807515 95.9792 0.484513 96.2377 0.25841 96.5931C0.193809 96.7223 0.129206 96.8516 0.0646048 96.9808V97.0131C0.0646048 97.0454 0.0323024 97.1101 0.0323024 97.1424V97.1747C0.0323024 97.207 0 97.2716 0 97.3039C0 97.3362 0 97.3362 0 97.3685C0 97.4008 0 97.4655 0 97.4978C0 97.5301 0 97.5301 0 97.5624C0 97.627 0 97.6916 0 97.7563C0 98.2409 0.129204 98.6609 0.355307 98.984C0.387607 99.0486 0.419904 99.081 0.452204 99.1133C0.742908 99.4687 1.16282 99.6948 1.61502 99.6948H9.85164L12.0481 102.021H14.3091L15.5688 104.509H23.9023L25.1621 102.021H27.4231L29.6195 99.6948H32.9465H37.8561C37.9207 99.6948 37.953 99.6948 38.0176 99.6948H38.0499C38.0822 99.6948 38.1145 99.6948 38.1468 99.6625H38.1791C38.2114 99.6625 38.2437 99.6302 38.3083 99.6302C38.3083 99.6302 38.3083 99.6302 38.3406 99.6302C38.3729 99.5979 38.4375 99.5979 38.4698 99.5656L38.5021 99.5333C38.5344 99.5333 38.5667 99.501 38.5667 99.501C38.599 99.501 38.599 99.4687 38.6313 99.4687C38.6636 99.4364 38.6959 99.4364 38.6959 99.404C38.7283 99.404 38.7282 99.3717 38.7605 99.3394C38.7928 99.3071 38.8252 99.2748 38.8575 99.2748C38.8898 99.2425 38.8897 99.2425 38.922 99.2102C38.922 99.1779 38.9543 99.1779 38.9543 99.1456C38.9866 99.1133 38.9867 99.1133 39.019 99.081L39.0512 99.0486C39.1158 98.9517 39.1805 98.8548 39.2127 98.7579C39.2127 98.7579 39.2128 98.7256 39.2451 98.7256C39.2451 98.6932 39.2774 98.6609 39.2774 98.6286V98.5963C39.3743 98.3378 39.4389 98.047 39.4389 97.7563C39.6004 97.5947 39.6004 97.4332 39.5681 97.2716Z" fill="#16392B"/>
<path d="M39.1706 168.355L30.8163 159.327L42.8208 156.601L39.1706 168.355Z" fill="#FECA39"/>
<path d="M221.922 73.5445L209.817 75.862L213.835 64.2368L221.922 73.5445Z" fill="#FECA39"/>
<path d="M145.084 255.408L148.492 266.05L137.565 263.681L145.084 255.408Z" stroke="#FECA39" stroke-width="2"/>
<path d="M179.706 224.387C178.102 226.062 178.161 228.72 179.836 230.325C181.512 231.929 184.17 231.872 185.774 230.197C187.378 228.522 187.32 225.863 185.644 224.259C183.969 222.655 181.31 222.712 179.706 224.387Z" stroke="#43BA84" stroke-width="2"/>
<path d="M224.925 87.4622C223.321 89.1373 223.379 91.7957 225.055 93.4C226.73 95.0044 229.389 94.947 230.992 93.272C232.596 91.5969 232.538 88.9385 230.863 87.3342C229.187 85.7298 226.529 85.7872 224.925 87.4622Z" stroke="#43BA84" stroke-width="2"/>
<path d="M26.556 153.547C24.0268 156.189 24.1185 160.381 26.7607 162.911C29.4029 165.441 33.5951 165.35 36.1242 162.709C38.6533 160.067 38.5617 155.875 35.9195 153.345C33.2773 150.815 29.0851 150.906 26.556 153.547Z" stroke="#43BA84" stroke-width="2"/>
<g clip-path="url(#clip0_1_1192)">
<path d="M132.856 268.446L128.476 265.922C127.129 265.127 127.129 263.834 128.476 263.04L187.64 229.032C188.412 228.638 189.268 228.432 190.136 228.432C191.004 228.432 191.859 228.638 192.632 229.032L197.005 231.55C198.386 232.345 198.386 233.638 197.005 234.432L137.842 268.446C137.069 268.838 136.215 269.042 135.349 269.042C134.482 269.042 133.628 268.838 132.856 268.446Z" fill="#E0E0E0"/>
<path d="M231.165 196.27L213.35 185.989C213.173 185.927 213.02 185.812 212.912 185.66C212.803 185.507 212.745 185.325 212.745 185.138C212.745 184.95 212.803 184.768 212.912 184.615C213.02 184.463 213.173 184.348 213.35 184.286L263.458 155.375C263.916 155.143 264.423 155.021 264.937 155.021C265.451 155.021 265.958 155.143 266.416 155.375L284.223 165.67C284.4 165.731 284.553 165.846 284.662 165.999C284.77 166.152 284.829 166.334 284.829 166.521C284.829 166.708 284.77 166.891 284.662 167.043C284.553 167.196 284.4 167.311 284.223 167.373L234.116 196.284C233.656 196.511 233.151 196.628 232.638 196.626C232.126 196.623 231.621 196.502 231.165 196.27Z" fill="#E0E0E0" fill-opacity="0.2"/>
<path d="M75.2104 267.234L240.215 172.043V32.5847L75.2104 127.784V267.234Z" fill="white"/>
<path d="M68.4861 123.907L75.2117 127.784L240.216 32.5848L246.942 20.9453L68.4861 123.907Z" fill="#37474F"/>
<path d="M246.943 175.896V20.9124L240.218 32.5849V172.043L246.943 175.896Z" fill="#37474F"/>
<path d="M68.4861 123.907L75.2117 127.784V267.235L68.4861 278.882V123.907Z" fill="#37474F"/>
<path d="M75.2117 267.235L240.216 172.044L246.942 175.921L68.4861 278.883L75.2117 267.235Z" fill="#37474F"/>
<g opacity="0.5">
<path opacity="0.5" d="M68.4868 123.907L75.2124 127.784L240.217 32.5849L246.942 20.9454L68.4868 123.907Z" fill="#455A64"/>
</g>
<g opacity="0.5">
<path opacity="0.5" d="M75.2124 267.235L240.217 172.044L246.942 175.921L68.4868 278.883L75.2124 267.235Z" fill="#455A64"/>
</g>
<path d="M246.941 20.9456L242.457 18.3582L64.0015 121.319L68.4852 123.907L246.941 20.9456Z" fill="#455A64"/>
<path d="M64.0015 121.319L68.4852 123.907V278.882L64.0015 276.294V121.319Z" fill="#263238"/>
<g style="mix-blend-mode:multiply" opacity="0.1">
<g style="mix-blend-mode:multiply" opacity="0.1">
<path d="M240.214 32.5857L237.972 33.8836V170.746L75.2092 264.647V267.235L240.214 172.044V32.5857Z" fill="black"/>
</g>
</g>
<path opacity="0.1" d="M115.224 113.011L78.3943 134.257L78.4026 186.543L115.224 165.298V113.011Z" fill="black"/>
<path d="M79.8218 135.067L116.643 113.822L119.48 115.459L82.651 136.704L79.8218 135.067Z" fill="#FAFAFA"/>
<path d="M79.8218 135.066V187.353L82.651 188.99V136.703L79.8218 135.066Z" fill="#E0E0E0"/>
<path d="M119.474 115.458L82.6445 136.704V188.99L119.474 167.745V115.458Z" fill="#F5F5F5"/>
<path d="M85.4817 138.332L116.636 120.36V159.577L85.4817 177.549V138.332Z" fill="#42CA90"/>
<path opacity="0.75" d="M85.4817 138.332L116.636 120.36V159.577L85.4817 177.549V138.332Z" fill="#F5F7F9"/>
<path d="M85.4817 164.472L97.6175 146.484L110.639 155.04L106.502 150.468L110.572 144.103L116.636 148.683V159.578L85.4817 177.55V164.472Z" fill="#42CA90"/>
<path d="M106.632 133.818C105.807 134.356 105.12 135.079 104.627 135.931C104.134 136.783 103.849 137.738 103.794 138.721C103.794 140.531 105.068 141.258 106.632 140.374C107.456 139.836 108.141 139.112 108.633 138.261C109.124 137.409 109.408 136.454 109.461 135.472C109.494 133.645 108.229 132.917 106.632 133.818Z" fill="#42CA90"/>
<path d="M103.429 131.71L103.363 131.777C103.315 131.833 103.256 131.878 103.189 131.909C103.056 131.992 102.99 131.909 102.866 131.834L101.898 131.264C101.501 131.033 101.071 130.76 100.533 130.437C99.9956 130.115 99.5075 129.817 98.9864 129.487C98.8292 129.379 99.1187 128.867 99.2924 128.949L100.889 129.776L102.279 130.553L103.255 131.107C103.371 131.181 103.487 131.19 103.487 131.347C103.494 131.418 103.494 131.49 103.487 131.562L103.429 131.71Z" fill="#455A64"/>
<path d="M104.434 132.413C103.681 133.711 102.456 134.414 101.174 133.719L101.1 133.678C100.912 133.532 100.765 133.341 100.671 133.123C100.577 132.905 100.54 132.666 100.562 132.43C100.593 131.75 100.785 131.087 101.121 130.495C101.457 129.903 101.929 129.399 102.498 129.024C102.686 128.893 102.903 128.808 103.13 128.778C103.358 128.748 103.589 128.773 103.805 128.85L103.879 128.892L103.995 128.966C105.186 129.743 105.178 131.132 104.434 132.413Z" fill="#37474F"/>
<path d="M106.003 134.984L107.451 132.504C106.346 131.934 105.32 131.222 104.398 130.388L104.34 130.339V130.289C104.2 130.189 104.032 130.136 103.86 130.136C103.688 130.136 103.521 130.189 103.38 130.289C103.009 130.531 102.7 130.856 102.479 131.24C102.257 131.624 102.13 132.054 102.106 132.496C102.088 132.655 102.113 132.815 102.179 132.961C102.244 133.106 102.348 133.231 102.479 133.323C102.553 133.364 102.634 133.389 102.719 133.397C103.881 133.774 104.986 134.308 106.003 134.984Z" fill="#455A64"/>
<path d="M108.697 132.984C108.697 132.579 108.537 132.192 108.252 131.905C107.967 131.619 107.58 131.457 107.175 131.454C106.988 131.455 106.802 131.491 106.629 131.562H106.571C106.489 131.595 106.409 131.634 106.331 131.678C105.881 131.97 105.507 132.364 105.238 132.828C104.969 133.291 104.814 133.812 104.784 134.348C104.782 134.479 104.799 134.61 104.834 134.736C104.89 135.12 105.091 135.469 105.396 135.71C105.7 135.951 106.086 136.066 106.473 136.032C106.86 135.999 107.219 135.818 107.478 135.528C107.736 135.238 107.873 134.86 107.862 134.472C107.862 134.422 107.862 134.381 107.862 134.331C108.111 134.205 108.322 134.012 108.469 133.775C108.616 133.537 108.695 133.263 108.697 132.984Z" fill="#37474F"/>
<path d="M107.176 132.207C108.003 131.719 108.715 132.116 108.715 133.1C108.686 133.636 108.532 134.157 108.265 134.622C107.997 135.088 107.624 135.484 107.176 135.778C106.349 136.266 105.629 135.869 105.629 134.885C105.658 134.349 105.813 133.827 106.082 133.361C106.35 132.896 106.725 132.5 107.176 132.207Z" fill="#455A64"/>
<path opacity="0.1" d="M126.642 113.07L225.78 55.8645V140.854L126.642 198.051V113.07Z" fill="black"/>
<path d="M130.803 115.459L229.949 58.2534V143.235L130.803 200.44V115.459Z" fill="#F5F5F5"/>
<path d="M127.962 113.822V198.803L130.799 200.44V115.459L127.962 113.822Z" fill="#E0E0E0"/>
<path d="M229.946 58.2527L227.109 56.6241L127.962 113.821L130.799 115.458L229.946 58.2527Z" fill="#42CA90"/>
<g opacity="0.8">
<path opacity="0.8" d="M229.949 58.2539L227.112 56.6254L127.965 113.822L130.803 115.459L229.949 58.2539Z" fill="#F5F7F9"/>
</g>
<path d="M127.962 113.822L130.799 115.459V131.802L127.962 130.165V113.822Z" fill="#42CA90"/>
<g opacity="0.5">
<path opacity="0.5" d="M127.965 113.822L130.803 115.459V131.802L127.965 130.165V113.822Z" fill="#F5F7F9"/>
</g>
<path d="M130.803 131.802L229.949 74.5966V58.2534L130.803 115.459V131.802Z" fill="#42CA90"/>
<g opacity="0.65">
<path opacity="0.65" d="M130.802 131.802L229.949 74.597V58.2538L130.802 115.459V131.802Z" fill="#F5F7F9"/>
</g>
<path d="M174.248 94.7512L171.659 96.2392C171.637 96.2573 171.609 96.2672 171.58 96.2672C171.551 96.2672 171.524 96.2573 171.502 96.2392C171.457 96.1832 171.436 96.112 171.444 96.0408V95.2141C171.443 95.1227 171.463 95.0323 171.502 94.9496C171.538 94.8749 171.592 94.8098 171.659 94.7595L175.092 92.7755C175.114 92.7573 175.142 92.7474 175.17 92.7474C175.199 92.7474 175.227 92.7573 175.249 92.7755C175.271 92.8015 175.288 92.8318 175.298 92.8645C175.308 92.8972 175.311 92.9316 175.307 92.9656V98.0992C175.331 99.0289 175.138 99.9515 174.744 100.794C174.377 101.523 173.801 102.127 173.09 102.53C172.799 102.719 172.467 102.835 172.122 102.869C171.882 102.894 171.642 102.826 171.452 102.679C171.263 102.515 171.125 102.299 171.055 102.059C170.959 101.751 170.906 101.431 170.898 101.108C170.893 101.014 170.913 100.92 170.956 100.835C170.99 100.763 171.044 100.703 171.113 100.662L171.75 100.29C171.77 100.28 171.793 100.274 171.816 100.274C171.839 100.274 171.861 100.28 171.882 100.29C171.923 100.29 171.948 100.348 171.965 100.414C171.982 100.556 172.018 100.695 172.072 100.827C172.118 100.938 172.192 101.035 172.287 101.108C172.385 101.174 172.501 101.206 172.618 101.199C172.787 101.178 172.948 101.119 173.09 101.026C173.455 100.814 173.745 100.493 173.917 100.108C174.126 99.655 174.228 99.16 174.215 98.6613L174.248 94.7512Z" fill="#455A64"/>
<path d="M176.391 94.502C176.393 94.41 176.416 94.3197 176.457 94.2374C176.486 94.1626 176.538 94.099 176.606 94.0556L177.202 93.7084C177.222 93.6909 177.249 93.6813 177.276 93.6813C177.303 93.6813 177.33 93.6909 177.351 93.7084C177.374 93.7355 177.392 93.767 177.403 93.801C177.415 93.835 177.419 93.871 177.417 93.9068V96.9902C177.391 97.3514 177.46 97.7131 177.615 98.0401C177.756 98.255 177.971 98.2716 178.277 98.0897C178.585 97.9029 178.812 97.6082 178.914 97.263C179.069 96.8483 179.145 96.408 179.137 95.9652V92.8817C179.141 92.7899 179.163 92.6997 179.204 92.6172C179.233 92.5424 179.285 92.4787 179.353 92.4353L179.948 92.0881C179.969 92.0706 179.995 92.061 180.023 92.061C180.05 92.061 180.076 92.0706 180.097 92.0881C180.122 92.1141 180.141 92.1454 180.153 92.1797C180.164 92.2141 180.168 92.2506 180.163 92.2865V97.9409C180.165 98.036 180.142 98.13 180.097 98.2137C180.066 98.2872 180.014 98.3503 179.948 98.3956L179.353 98.7428C179.332 98.7603 179.305 98.7698 179.278 98.7698C179.251 98.7698 179.224 98.7603 179.204 98.7428C179.179 98.7178 179.161 98.6878 179.15 98.655C179.138 98.6222 179.134 98.5872 179.137 98.5526V98.2716C179.007 98.5383 178.858 98.7952 178.691 99.0404C178.517 99.2822 178.294 99.4849 178.037 99.6356C177.794 99.8002 177.503 99.8815 177.21 99.867C177.107 99.8502 177.009 99.812 176.923 99.7551C176.836 99.6981 176.762 99.6236 176.705 99.5364C176.565 99.307 176.475 99.0507 176.441 98.7841C176.382 98.4401 176.354 98.0915 176.358 97.7425L176.391 94.502Z" fill="#455A64"/>
<path d="M185.102 95.1304C185.102 95.2217 185.082 95.3119 185.044 95.3949C185.015 95.4697 184.963 95.5334 184.895 95.5768L184.291 95.924C184.27 95.9415 184.244 95.9511 184.217 95.9511C184.19 95.9511 184.163 95.9415 184.142 95.924C184.119 95.8969 184.101 95.8654 184.089 95.8314C184.078 95.7973 184.074 95.7614 184.076 95.7256V92.6504C184.104 92.2899 184.03 91.9288 183.861 91.6088C183.712 91.4021 183.48 91.3939 183.174 91.6088C182.869 91.802 182.638 92.0936 182.521 92.4355C182.352 92.8497 182.27 93.2944 182.281 93.7416V96.7837C182.278 96.8756 182.255 96.9657 182.215 97.0483C182.186 97.1231 182.133 97.1867 182.066 97.2301L181.462 97.5773C181.441 97.5948 181.415 97.6044 181.388 97.6044C181.36 97.6044 181.334 97.5948 181.313 97.5773C181.268 97.5213 181.248 97.4501 181.255 97.3789V91.7245C181.254 91.633 181.273 91.5424 181.313 91.46C181.342 91.383 181.394 91.3166 181.462 91.2699L182.066 90.9227C182.087 90.9052 182.113 90.8956 182.14 90.8956C182.168 90.8956 182.194 90.9052 182.215 90.9227C182.238 90.948 182.257 90.978 182.268 91.0107C182.279 91.0435 182.284 91.0782 182.281 91.1128V91.3938C182.412 91.1023 182.572 90.8252 182.761 90.5672C182.937 90.3321 183.16 90.1353 183.414 89.9885C183.656 89.8198 183.947 89.7356 184.242 89.7488C184.346 89.764 184.446 89.8004 184.536 89.8559C184.625 89.9113 184.703 89.9846 184.763 90.0712C184.914 90.2937 185.01 90.5485 185.044 90.8152C185.103 91.1564 185.131 91.5023 185.127 91.8485L185.102 95.1304Z" fill="#455A64"/>
<path d="M185.95 91.8238C185.952 91.3683 185.999 90.9142 186.09 90.468C186.17 90.0336 186.297 89.6094 186.471 89.2032C186.63 88.8288 186.835 88.476 187.083 88.1534C187.307 87.8599 187.588 87.6152 187.91 87.4342C188.155 87.2731 188.446 87.1975 188.738 87.2192C188.974 87.2432 189.193 87.3553 189.35 87.5334C189.536 87.7537 189.669 88.0139 189.739 88.2939C189.836 88.6522 189.883 89.0222 189.879 89.3934V89.939C189.877 90.0336 189.854 90.1266 189.813 90.2118C189.784 90.2866 189.732 90.3502 189.664 90.3936L187.025 91.9147C187.018 92.0671 187.044 92.2191 187.1 92.3611C187.138 92.4628 187.211 92.5477 187.306 92.6008C187.394 92.6501 187.496 92.6703 187.596 92.6587C187.716 92.6383 187.831 92.5962 187.935 92.5347C188.085 92.447 188.224 92.3415 188.349 92.2206C188.424 92.0952 188.485 91.9622 188.531 91.8238C188.573 91.7491 188.62 91.6773 188.671 91.6088C188.719 91.5613 188.771 91.5197 188.829 91.4848L189.457 91.1211C189.478 91.1036 189.504 91.094 189.532 91.094C189.559 91.094 189.585 91.1036 189.606 91.1211C189.631 91.147 189.651 91.1783 189.662 91.2127C189.673 91.2471 189.677 91.2836 189.672 91.3195C189.65 91.4918 189.609 91.661 189.548 91.8238C189.46 92.0758 189.343 92.3171 189.201 92.543C189.04 92.8177 188.852 93.0754 188.638 93.3118C188.414 93.5606 188.151 93.7726 187.861 93.94C187.616 94.1002 187.326 94.1783 187.033 94.1632C186.914 94.1568 186.798 94.1247 186.692 94.0691C186.586 94.0134 186.494 93.9356 186.421 93.8408C186.229 93.6001 186.099 93.3164 186.041 93.0142C185.963 92.6224 185.933 92.2228 185.95 91.8238ZM187.885 88.8891C187.738 88.9763 187.606 89.0881 187.497 89.2198C187.391 89.3499 187.299 89.4913 187.224 89.6414C187.15 89.7893 187.092 89.9445 187.05 90.1043C187.05 90.2614 186.992 90.4019 186.975 90.5342L188.762 89.5008C188.751 89.3839 188.732 89.2679 188.704 89.1536C188.681 89.0498 188.633 88.9532 188.564 88.8726C188.531 88.8354 188.49 88.8059 188.444 88.7859C188.398 88.7659 188.349 88.756 188.299 88.7568C188.152 88.7564 188.008 88.7996 187.885 88.8808V88.8891Z" fill="#455A64"/>
<path d="M137.528 136.084C137.528 136.993 138.206 137.332 139.042 136.852L146.487 132.562C146.916 132.295 147.276 131.932 147.539 131.502C147.802 131.071 147.96 130.585 148.001 130.082C148.001 129.181 147.323 128.842 146.487 129.321L139.042 133.604C138.614 133.871 138.255 134.235 137.992 134.665C137.729 135.096 137.571 135.581 137.528 136.084Z" fill="#455A64"/>
<path d="M150.066 128.85C150.066 129.751 150.745 130.098 151.572 129.61L159.017 125.328C159.446 125.061 159.806 124.698 160.069 124.268C160.332 123.837 160.49 123.351 160.531 122.848C160.531 121.947 159.853 121.6 159.017 122.087L151.572 126.37C151.145 126.637 150.787 127.001 150.525 127.431C150.264 127.862 150.107 128.348 150.066 128.85Z" fill="#455A64"/>
<path d="M162.609 121.584C162.609 122.485 163.279 122.824 164.115 122.345L171.56 118.063C171.987 117.796 172.346 117.432 172.607 117.001C172.869 116.571 173.026 116.085 173.065 115.583C173.065 114.682 172.395 114.334 171.56 114.814L164.115 119.104C163.688 119.373 163.331 119.737 163.069 120.167C162.808 120.597 162.65 121.083 162.609 121.584Z" fill="#455A64"/>
<path d="M175.152 114.384C175.152 115.285 175.822 115.624 176.657 115.144L184.103 110.862C184.528 110.593 184.886 110.229 185.147 109.799C185.408 109.368 185.566 108.884 185.608 108.382C185.608 107.473 184.938 107.134 184.103 107.613L176.657 111.904C176.23 112.171 175.871 112.534 175.61 112.965C175.348 113.396 175.191 113.881 175.152 114.384Z" fill="#455A64"/>
<path d="M187.704 107.151C187.704 108.052 188.382 108.391 189.217 107.911L196.663 103.621C197.091 103.354 197.451 102.991 197.714 102.56C197.977 102.13 198.136 101.643 198.177 101.141C198.177 100.24 197.498 99.9007 196.663 100.38L189.217 104.671C188.789 104.937 188.428 105.3 188.165 105.731C187.902 106.161 187.744 106.648 187.704 107.151Z" fill="#455A64"/>
<path d="M200.228 99.9083C200.228 100.818 200.907 101.157 201.742 100.677L209.187 96.3867C209.616 96.1201 209.976 95.7569 210.239 95.3263C210.502 94.8956 210.66 94.4095 210.701 93.9067C210.701 93.0057 210.023 92.6667 209.187 93.1462L201.742 97.4283C201.315 97.696 200.955 98.0594 200.692 98.4898C200.43 98.9203 200.271 99.4059 200.228 99.9083Z" fill="#455A64"/>
<path d="M212.768 92.6501C212.768 93.5512 213.446 93.8984 214.273 93.4106L221.718 89.1285C222.147 88.8619 222.507 88.4987 222.77 88.0681C223.033 87.6374 223.191 87.1513 223.232 86.6485C223.232 85.7475 222.554 85.4003 221.718 85.888L214.273 90.1701C213.847 90.4387 213.489 90.8025 213.228 91.2329C212.967 91.6633 212.809 92.1484 212.768 92.6501Z" fill="#455A64"/>
<path d="M224.281 140.317C224.189 140.317 224.1 140.28 224.035 140.215C223.97 140.15 223.933 140.062 223.933 139.969V94.2135C223.933 94.1214 223.97 94.0331 224.035 93.968C224.1 93.9029 224.189 93.8663 224.281 93.8663C224.373 93.8663 224.461 93.9029 224.526 93.968C224.592 94.0331 224.628 94.1214 224.628 94.2135V139.969C224.628 140.062 224.592 140.15 224.526 140.215C224.461 140.28 224.373 140.317 224.281 140.317Z" fill="#E0E0E0"/>
<path d="M211.734 147.558C211.642 147.558 211.554 147.522 211.488 147.456C211.423 147.391 211.387 147.303 211.387 147.211V101.447C211.4 101.363 211.442 101.286 211.507 101.231C211.571 101.176 211.653 101.145 211.738 101.145C211.823 101.145 211.905 101.176 211.97 101.231C212.034 101.286 212.077 101.363 212.09 101.447V147.211C212.09 147.257 212.081 147.303 212.063 147.346C212.045 147.388 212.018 147.427 211.985 147.459C211.952 147.492 211.913 147.517 211.87 147.534C211.827 147.551 211.78 147.559 211.734 147.558Z" fill="#E0E0E0"/>
<path d="M199.192 154.79C199.1 154.79 199.011 154.754 198.946 154.689C198.881 154.624 198.844 154.535 198.844 154.443V108.687C198.844 108.595 198.881 108.507 198.946 108.442C199.011 108.377 199.1 108.34 199.192 108.34C199.284 108.34 199.372 108.377 199.437 108.442C199.503 108.507 199.539 108.595 199.539 108.687V154.443C199.539 154.535 199.503 154.624 199.437 154.689C199.372 154.754 199.284 154.79 199.192 154.79Z" fill="#E0E0E0"/>
<path d="M186.649 162.033C186.603 162.034 186.557 162.026 186.514 162.009C186.471 161.992 186.432 161.966 186.398 161.934C186.365 161.902 186.339 161.863 186.321 161.82C186.303 161.778 186.294 161.732 186.294 161.686V115.921C186.307 115.837 186.349 115.761 186.414 115.706C186.478 115.65 186.56 115.62 186.645 115.62C186.73 115.62 186.812 115.65 186.877 115.706C186.941 115.761 186.984 115.837 186.997 115.921V161.686C186.997 161.731 186.988 161.776 186.97 161.818C186.953 161.861 186.927 161.899 186.895 161.931C186.863 161.963 186.825 161.989 186.782 162.006C186.74 162.024 186.695 162.033 186.649 162.033Z" fill="#E0E0E0"/>
<path d="M174.103 169.266C174.011 169.266 173.922 169.229 173.857 169.164C173.792 169.099 173.755 169.011 173.755 168.919V123.163C173.755 123.071 173.792 122.982 173.857 122.917C173.922 122.852 174.011 122.816 174.103 122.816C174.195 122.816 174.283 122.852 174.349 122.917C174.414 122.982 174.45 123.071 174.45 123.163V168.919C174.45 169.011 174.414 169.099 174.349 169.164C174.283 169.229 174.195 169.266 174.103 169.266Z" fill="#E0E0E0"/>
<path d="M161.561 176.507C161.515 176.505 161.47 176.494 161.429 176.475C161.387 176.455 161.35 176.428 161.32 176.394C161.289 176.36 161.265 176.321 161.25 176.278C161.234 176.235 161.227 176.189 161.23 176.144V130.396C161.23 130.304 161.266 130.216 161.331 130.151C161.397 130.085 161.485 130.049 161.577 130.049C161.669 130.049 161.758 130.085 161.823 130.151C161.888 130.216 161.925 130.304 161.925 130.396V176.144C161.927 176.192 161.919 176.24 161.902 176.286C161.884 176.331 161.857 176.372 161.823 176.406C161.789 176.44 161.748 176.467 161.703 176.485C161.657 176.502 161.609 176.51 161.561 176.507Z" fill="#E0E0E0"/>
<path d="M149.009 183.741C148.917 183.741 148.829 183.704 148.763 183.639C148.698 183.574 148.662 183.485 148.662 183.393V137.637C148.661 137.591 148.669 137.545 148.686 137.502C148.703 137.459 148.728 137.42 148.761 137.387C148.793 137.353 148.832 137.327 148.874 137.309C148.917 137.291 148.963 137.282 149.009 137.282C149.056 137.282 149.101 137.291 149.144 137.309C149.187 137.327 149.225 137.353 149.258 137.387C149.29 137.42 149.316 137.459 149.333 137.502C149.35 137.545 149.358 137.591 149.357 137.637V183.393C149.357 183.485 149.32 183.574 149.255 183.639C149.19 183.704 149.101 183.741 149.009 183.741Z" fill="#E0E0E0"/>
<path d="M136.467 191.024C136.421 191.024 136.376 191.015 136.334 190.997C136.292 190.98 136.254 190.954 136.221 190.922C136.189 190.89 136.164 190.851 136.146 190.809C136.129 190.767 136.12 190.722 136.12 190.676V144.871C136.12 144.779 136.156 144.69 136.221 144.625C136.287 144.56 136.375 144.524 136.467 144.524C136.559 144.524 136.648 144.56 136.713 144.625C136.778 144.69 136.815 144.779 136.815 144.871V190.635C136.82 190.684 136.816 190.734 136.801 190.781C136.786 190.828 136.762 190.871 136.729 190.908C136.696 190.945 136.655 190.974 136.61 190.994C136.565 191.014 136.516 191.024 136.467 191.024Z" fill="#E0E0E0"/>
<path d="M136.47 156.659C136.408 156.66 136.347 156.644 136.293 156.614C136.239 156.583 136.195 156.539 136.164 156.485C136.119 156.405 136.108 156.311 136.133 156.223C136.157 156.134 136.216 156.059 136.296 156.014L224.101 105.348C224.14 105.324 224.183 105.309 224.228 105.302C224.273 105.296 224.319 105.298 224.363 105.31C224.407 105.322 224.448 105.342 224.484 105.37C224.52 105.397 224.55 105.432 224.572 105.472C224.596 105.511 224.612 105.555 224.618 105.601C224.625 105.646 224.623 105.693 224.611 105.738C224.599 105.782 224.579 105.824 224.551 105.861C224.523 105.898 224.488 105.928 224.448 105.951L136.643 156.618C136.589 156.643 136.53 156.657 136.47 156.659Z" fill="#E0E0E0"/>
<path d="M136.468 168.1C136.39 168.102 136.313 168.078 136.251 168.031C136.188 167.984 136.143 167.918 136.123 167.842C136.103 167.767 136.109 167.687 136.14 167.615C136.171 167.543 136.226 167.484 136.295 167.447L224.1 116.789C224.138 116.765 224.182 116.75 224.227 116.743C224.272 116.737 224.318 116.74 224.362 116.751C224.406 116.763 224.447 116.783 224.483 116.811C224.519 116.839 224.549 116.873 224.571 116.913C224.595 116.953 224.61 116.996 224.617 117.042C224.624 117.088 224.621 117.134 224.61 117.179C224.598 117.223 224.578 117.265 224.55 117.302C224.522 117.339 224.487 117.369 224.447 117.393L136.642 168.051C136.59 168.082 136.53 168.099 136.468 168.1Z" fill="#E0E0E0"/>
<path d="M136.468 179.541C136.39 179.543 136.313 179.519 136.251 179.472C136.188 179.425 136.143 179.359 136.123 179.283C136.103 179.208 136.109 179.128 136.14 179.056C136.171 178.984 136.226 178.925 136.295 178.888L224.1 128.197C224.138 128.173 224.182 128.158 224.227 128.151C224.272 128.145 224.318 128.148 224.362 128.159C224.406 128.171 224.447 128.191 224.483 128.219C224.519 128.247 224.549 128.281 224.571 128.321C224.595 128.361 224.61 128.404 224.617 128.45C224.624 128.496 224.621 128.542 224.61 128.587C224.598 128.631 224.578 128.673 224.55 128.71C224.522 128.747 224.487 128.777 224.447 128.8L136.642 179.492C136.59 179.523 136.53 179.54 136.468 179.541Z" fill="#E0E0E0"/>
<path d="M136.467 191.024C136.406 191.024 136.345 191.007 136.293 190.974C136.24 190.945 136.196 190.901 136.166 190.849C136.135 190.797 136.119 190.737 136.12 190.677V144.871C136.119 144.81 136.135 144.751 136.166 144.699C136.196 144.646 136.24 144.603 136.293 144.573L224.098 93.9071C224.152 93.8789 224.212 93.8641 224.272 93.8641C224.333 93.8641 224.392 93.8789 224.446 93.9071C224.498 93.9393 224.542 93.9842 224.572 94.0377C224.602 94.0912 224.619 94.1515 224.619 94.213V139.969C224.619 140.03 224.602 140.091 224.572 140.144C224.542 140.198 224.498 140.243 224.446 140.275L136.641 190.933C136.594 190.981 136.533 191.012 136.467 191.024ZM136.815 145.111V190.032L223.933 139.771V94.8164L136.815 145.111Z" fill="#E0E0E0"/>
<path d="M165.961 152.171L166.665 153.683C166.673 153.705 166.687 153.724 166.703 153.74C166.72 153.756 166.74 153.769 166.761 153.778C166.783 153.786 166.806 153.79 166.829 153.79C166.852 153.789 166.875 153.784 166.896 153.774L168.493 153.163C168.741 153.072 168.84 153.427 168.658 153.766L167.508 155.924C167.435 156.048 167.405 156.194 167.426 156.337L167.69 158.288C167.74 158.602 167.475 159.007 167.244 158.982L165.829 158.8C165.771 158.804 165.715 158.821 165.665 158.85C165.615 158.878 165.572 158.918 165.539 158.966L164.117 160.784C163.893 161.074 163.628 160.975 163.67 160.611L163.943 158.346C163.955 158.29 163.954 158.232 163.938 158.177C163.922 158.122 163.892 158.072 163.852 158.032L162.702 157.205C162.52 157.073 162.619 156.601 162.876 156.378L164.464 155.155C164.574 155.061 164.655 154.938 164.696 154.799L165.407 152.468C165.515 152.121 165.846 151.931 165.961 152.171Z" fill="#F2A38F"/>
<path d="M211.693 119.798C211.619 118.41 211.081 117.029 209.658 116.492C207.904 115.872 206.44 117.26 205.348 118.426C205.067 118.732 205.58 118.881 205.811 118.666C206.936 117.599 209.013 116.541 210.221 117.963C211.428 119.385 210.8 121.468 210.221 123.006C209.203 125.568 206.614 128.032 203.603 127.817C197.084 127.329 204.14 115.855 208.004 115.21C208.31 115.161 208.533 114.673 208.111 114.599C206.167 114.284 204.802 116.02 203.561 117.327C202.204 118.758 201.144 120.444 200.442 122.287C199.144 125.75 201.063 129.999 205.29 128.652C209.005 127.495 211.95 123.808 211.693 119.798Z" fill="#F2A38F"/>
<path d="M152.13 171.25C151.729 170.679 151.271 170.15 150.765 169.671C150.583 169.456 150.128 169.712 150.235 169.977C150.5 170.613 151.062 170.961 151.385 171.523L151.567 171.812C150.74 171.167 149.085 170.919 148.357 170.746C146.154 170.28 143.862 170.491 141.781 171.349C141.574 171.415 141.657 171.614 141.839 171.639C142.164 171.642 142.487 171.583 142.79 171.465C143.918 171.229 145.073 171.146 146.223 171.217C147.315 171.258 149.921 171.63 151.054 172.465C149.904 172.275 148.697 172.349 147.985 173.209C147.902 173.308 147.894 173.49 148.06 173.515C148.788 173.606 149.4 173.333 150.128 173.358C150.972 173.371 151.81 173.516 152.609 173.788C152.924 173.895 153.155 173.565 153.139 173.284C152.973 172.534 152.626 171.836 152.13 171.25Z" fill="#F2A38F"/>
<path d="M228.425 68.6772L228.351 68.7433C228.301 68.797 228.242 68.8417 228.177 68.8756C228.045 68.9582 227.979 68.8756 227.863 68.8012L226.887 68.2308L225.522 67.4041C225.025 67.0983 224.496 66.7841 223.975 66.4452C223.818 66.346 224.107 65.8252 224.281 65.9161L225.878 66.7428C226.39 67.0156 226.862 67.2884 227.267 67.5199L228.243 68.0737C228.359 68.1481 228.475 68.1564 228.475 68.3052C228.487 68.3791 228.487 68.4545 228.475 68.5284L228.425 68.6772Z" fill="#455A64"/>
<path d="M229.422 69.3471C228.67 70.6449 227.453 71.3476 226.163 70.6449H226.088C225.901 70.5011 225.753 70.3117 225.659 70.0947C225.564 69.8777 225.527 69.6403 225.551 69.4049C225.586 68.7263 225.781 68.0656 226.121 67.4766C226.46 66.8876 226.934 66.387 227.503 66.0156C227.691 65.8841 227.908 65.7996 228.135 65.7694C228.363 65.7392 228.594 65.7641 228.81 65.842H228.885L229 65.9164C230.175 66.6769 230.167 68.0657 229.422 69.3471Z" fill="#37474F"/>
<path d="M230.991 71.9095L232.438 69.4295C231.331 68.8657 230.305 68.1568 229.386 67.3215L229.328 67.2636C229.188 67.1639 229.02 67.1104 228.848 67.1104C228.676 67.1104 228.508 67.1639 228.368 67.2636C227.998 67.5039 227.689 67.8284 227.468 68.2105C227.246 68.5926 227.118 69.0216 227.094 69.4625C227.077 69.621 227.102 69.7812 227.168 69.9266C227.233 70.072 227.336 70.1972 227.467 70.2892C227.542 70.3261 227.623 70.3511 227.706 70.3636C228.867 70.7246 229.973 71.2449 230.991 71.9095Z" fill="#455A64"/>
<path d="M233.69 69.9088C233.69 69.709 233.65 69.5112 233.574 69.3267C233.497 69.1421 233.385 68.9745 233.244 68.8332C233.102 68.692 232.935 68.5799 232.75 68.5035C232.565 68.427 232.367 68.3877 232.167 68.3877C231.981 68.3898 231.797 68.4233 231.621 68.4869H231.564L231.324 68.5944C230.874 68.8886 230.5 69.2843 230.231 69.7495C229.962 70.2147 229.807 70.7365 229.777 71.2728C229.775 71.4039 229.792 71.5347 229.826 71.6613C229.882 72.0456 230.083 72.3939 230.388 72.6349C230.693 72.876 231.078 72.9914 231.465 72.9576C231.852 72.9237 232.212 72.7432 232.47 72.453C232.728 72.1628 232.866 71.7849 232.854 71.3968C232.854 71.3472 232.854 71.2976 232.854 71.2562C233.103 71.1286 233.312 70.9358 233.459 70.6984C233.606 70.461 233.686 70.188 233.69 69.9088Z" fill="#37474F"/>
<path d="M232.168 69.1406C232.996 68.6446 233.707 69.0497 233.707 70.0334C233.679 70.5691 233.524 71.0907 233.257 71.5559C232.99 72.0212 232.617 72.4171 232.168 72.7118C231.341 73.1996 230.621 72.8028 230.621 71.819C230.648 71.282 230.802 70.759 231.071 70.2932C231.34 69.8275 231.716 69.4324 232.168 69.1406Z" fill="#455A64"/>
<path d="M140.11 119.31L140.044 119.368C139.993 119.423 139.934 119.47 139.87 119.509C139.738 119.591 139.672 119.509 139.548 119.426L138.58 118.855C138.174 118.624 137.711 118.351 137.215 118.029L135.659 117.078C135.502 116.971 135.792 116.458 135.966 116.549C136.52 116.83 137.058 117.136 137.57 117.376C138.083 117.615 138.555 117.913 138.96 118.145L139.936 118.698C140.044 118.781 140.168 118.781 140.16 118.938C140.171 119.009 140.171 119.082 140.16 119.153L140.11 119.31Z" fill="#455A64"/>
<path d="M141.113 120.005C140.36 121.303 139.136 122.006 137.804 121.312H137.729C137.539 121.168 137.388 120.978 137.293 120.759C137.197 120.54 137.159 120.301 137.183 120.063C137.221 119.386 137.417 118.727 137.756 118.14C138.095 117.553 138.568 117.053 139.136 116.682C139.325 116.549 139.543 116.464 139.772 116.434C140.001 116.404 140.234 116.429 140.451 116.509H140.517C140.559 116.531 140.598 116.559 140.633 116.591C141.866 117.335 141.849 118.732 141.113 120.005Z" fill="#37474F"/>
<path d="M142.682 122.576L144.13 120.096C143.027 119.526 142.001 118.818 141.077 117.988C141.06 117.967 141.041 117.947 141.019 117.93L140.97 117.881C140.829 117.779 140.659 117.724 140.486 117.724C140.312 117.724 140.143 117.779 140.002 117.881C139.633 118.125 139.327 118.451 139.107 118.834C138.888 119.218 138.76 119.647 138.736 120.088C138.718 120.246 138.743 120.407 138.808 120.552C138.874 120.698 138.977 120.823 139.108 120.914C139.181 120.958 139.264 120.983 139.348 120.989C140.528 121.361 141.65 121.895 142.682 122.576Z" fill="#455A64"/>
<path d="M145.382 120.575C145.382 120.17 145.221 119.781 144.934 119.494C144.647 119.207 144.257 119.046 143.851 119.046C143.667 119.047 143.485 119.084 143.314 119.153H143.256C143.173 119.185 143.093 119.224 143.016 119.269C142.564 119.562 142.189 119.957 141.92 120.422C141.651 120.888 141.496 121.411 141.469 121.948C141.469 122.075 141.483 122.203 141.51 122.328C141.567 122.711 141.767 123.058 142.071 123.299C142.375 123.54 142.759 123.655 143.145 123.623C143.531 123.59 143.89 123.411 144.149 123.123C144.408 122.835 144.547 122.459 144.538 122.072C144.542 122.022 144.542 121.972 144.538 121.923C144.79 121.799 145.002 121.607 145.151 121.369C145.3 121.131 145.38 120.856 145.382 120.575Z" fill="#37474F"/>
<path d="M143.856 119.799C144.684 119.311 145.403 119.708 145.403 120.691C145.374 121.228 145.219 121.75 144.95 122.215C144.681 122.68 144.306 123.076 143.856 123.37C143.029 123.866 142.309 123.461 142.309 122.477C142.339 121.941 142.495 121.419 142.764 120.954C143.032 120.488 143.407 120.093 143.856 119.799Z" fill="#455A64"/>
<path opacity="0.1" d="M81.2314 205.689V248.179L116.456 227.851V185.361L81.2314 205.689Z" fill="black"/>
<path d="M120.513 229.952C120.513 229.952 99.7154 241.591 97.1013 243.038C94.4872 244.485 92.783 240.285 92.7665 237.739C90.1524 239.392 84.7917 240.45 84.4939 237.119L82.6409 212.914L117.865 192.587L120.513 229.952Z" fill="#455A64"/>
<path d="M117.869 192.586L82.6445 212.914V206.392L117.869 186.064V192.586Z" fill="#37474F"/>
<path d="M85.626 238.896L95.2718 243.153L92.2688 235.3L85.626 238.896Z" fill="#37474F"/>
<path d="M97.531 214.997C97.2663 215.989 96.7037 216.386 96.3232 215.783C96.1008 215.123 96.0218 214.424 96.0916 213.732C96.0916 212.029 96.0419 210.36 96.0419 208.657C96.0419 208.128 95.5869 208.582 95.5787 209.045C95.5787 210.566 95.5787 212.12 95.5787 213.641C95.2395 212.426 93.7752 213.906 93.1631 215.047C92.5509 216.188 91.6823 218.94 92.7494 219.221C93.6677 219.469 95.0823 217.667 95.7689 216.08C95.8176 216.359 95.9373 216.621 96.1164 216.841C96.712 217.444 97.8619 216.163 97.8702 214.84C97.8453 214.526 97.5723 214.741 97.531 214.997ZM95.3967 215.063C95.3743 215.429 95.2962 215.788 95.165 216.13C94.9606 216.649 94.6819 217.137 94.3378 217.576C94.1396 217.863 93.8865 218.107 93.5932 218.296C93.5416 218.333 93.4827 218.359 93.4203 218.373C93.3579 218.386 93.2934 218.386 93.231 218.373C93.1686 218.359 93.1097 218.333 93.0581 218.296C93.0065 218.258 92.9633 218.21 92.9314 218.155C92.7687 217.611 92.7979 217.027 93.0142 216.502C93.2292 215.644 93.6656 214.857 94.2799 214.22C94.7679 213.832 95.1816 213.782 95.3305 214.468C95.374 214.655 95.3907 214.847 95.3801 215.039L95.3967 215.063Z" fill="#FAFAFA"/>
<path d="M109.723 207.061C109.458 208.053 108.896 208.449 108.515 207.887C108.294 207.228 108.212 206.53 108.275 205.837C108.275 204.134 108.225 202.464 108.225 200.761C108.225 200.232 107.77 200.687 107.77 201.15C107.77 202.671 107.77 204.225 107.77 205.746C107.431 204.531 105.967 206.011 105.355 207.152C104.743 208.292 103.874 211.045 104.933 211.326C105.86 211.574 107.274 209.772 107.961 208.185C108.009 208.464 108.129 208.726 108.308 208.945C108.904 209.549 110.054 208.268 110.062 206.945C110.045 206.614 109.781 206.829 109.723 207.061ZM107.588 207.127C107.558 207.491 107.48 207.849 107.357 208.193C107.155 208.714 106.876 209.202 106.53 209.64C106.334 209.926 106.084 210.17 105.793 210.359C105.742 210.397 105.683 210.423 105.62 210.436C105.558 210.449 105.494 210.449 105.431 210.436C105.369 210.423 105.31 210.397 105.258 210.359C105.207 210.322 105.163 210.274 105.132 210.219C104.966 209.675 104.992 209.092 105.206 208.565C105.424 207.706 105.863 206.92 106.48 206.284C106.968 205.895 107.373 205.845 107.531 206.532C107.579 206.726 107.599 206.927 107.588 207.127Z" fill="#FAFAFA"/>
<path d="M100.417 212.865C100.003 213.584 99.7798 214.369 99.1842 214.774C98.9972 214.907 98.7764 214.984 98.5472 214.997C98.1253 214.997 98.1253 214.386 98.1419 213.774C98.675 213.506 99.0989 213.062 99.3414 212.517C99.6927 211.895 99.8672 211.189 99.846 210.475C99.7054 208.665 98.2577 210.806 97.9102 211.996C97.7842 212.475 97.7066 212.965 97.6786 213.46L97.6124 213.518C97.5049 213.625 97.3808 213.972 97.5545 213.939H97.6621C97.6621 214.195 97.6621 214.443 97.6621 214.683C97.6621 215.444 97.8937 215.865 98.3652 215.89C98.6926 215.855 99.006 215.738 99.2764 215.551C99.5467 215.363 99.7654 215.11 99.9122 214.815C100.351 214.249 100.621 213.569 100.69 212.856C100.673 212.666 100.508 212.716 100.417 212.865ZM98.2494 212.369C98.3404 211.947 99.1759 209.93 99.4076 210.914C99.6392 211.897 98.8119 212.617 98.1584 213.113C98.1652 212.862 98.1957 212.613 98.2494 212.369Z" fill="#FAFAFA"/>
<path d="M105.197 210.905C105.089 210.844 104.993 210.763 104.916 210.665L104.85 210.748C104.403 211.236 104.022 211.211 103.907 210.657C103.77 209.947 103.728 209.221 103.783 208.5V208.235V208.127C103.783 207.772 103.534 207.896 103.394 208.127C102.988 206.276 100.019 211.252 100.622 213.245C100.945 214.328 101.996 213.674 102.682 212.848C103.042 212.4 103.304 211.882 103.452 211.327C103.501 211.638 103.666 211.919 103.915 212.112C104.329 212.352 104.941 211.682 105.288 210.913L105.197 210.905ZM103.146 210.508C103.003 211.152 102.721 211.755 102.318 212.277C102.07 212.6 101.491 212.922 101.268 212.773C101.2 212.7 101.15 212.611 101.121 212.515C101.093 212.42 101.086 212.318 101.102 212.22C101.124 211.963 101.168 211.708 101.235 211.459C101.383 210.816 101.617 210.196 101.93 209.615C102.236 209.095 102.815 208.499 103.146 208.789C103.476 209.078 103.237 210.037 103.146 210.508Z" fill="#FAFAFA"/>
<path d="M107.125 218.758C106.703 219.469 106.48 220.263 105.893 220.66C105.705 220.792 105.485 220.869 105.256 220.883C104.826 220.883 104.826 220.271 104.842 219.668C105.372 219.401 105.798 218.965 106.05 218.428C106.394 217.803 106.568 217.099 106.555 216.386C106.406 214.575 104.958 216.717 104.619 217.915C104.487 218.39 104.406 218.878 104.379 219.37L104.321 219.428C104.205 219.535 104.081 219.883 104.255 219.85H104.362C104.362 220.103 104.362 220.351 104.362 220.594C104.362 221.354 104.586 221.776 105.057 221.809C105.391 221.77 105.71 221.648 105.984 221.455C106.259 221.261 106.481 221.002 106.629 220.701C107.07 220.136 107.337 219.456 107.398 218.742C107.374 218.56 107.208 218.601 107.125 218.758ZM104.95 218.254C105.049 217.833 105.885 215.824 106.108 216.799C106.331 217.775 105.512 218.502 104.859 218.998C104.878 218.748 104.917 218.499 104.975 218.254H104.95Z" fill="#FAFAFA"/>
<path d="M98.8044 225.041C98.8044 225.041 98.7299 225.041 98.6969 225.041C98.5314 225.198 98.3825 225.405 98.217 225.57C98.0516 225.736 97.8613 225.835 97.729 225.744C97.5966 225.653 97.5552 225.314 97.5387 225.008C97.5387 223.876 97.5387 222.718 97.5387 221.553C97.5387 220.991 97.5801 220.428 97.6214 219.858C97.6672 219.338 97.6366 218.815 97.5304 218.304C97.5304 218.188 97.3153 218.304 97.3071 218.469C97.0431 220.851 96.9574 223.25 97.0506 225.645C97.0506 226.298 97.2988 226.819 97.7703 226.595C98.0847 226.455 98.8788 225.694 98.8209 225.091C98.8181 225.074 98.8125 225.057 98.8044 225.041Z" fill="#FAFAFA"/>
<path d="M100.269 224.296C99.9959 224.354 99.8718 224.495 99.7808 224.123C99.7264 223.681 99.7264 223.234 99.7808 222.792C99.8827 221.969 99.9159 221.14 99.8801 220.312C99.8801 220.122 99.6154 220.386 99.5906 220.552C99.3573 221.858 99.263 223.185 99.3093 224.511C99.3672 225.272 100.004 225.57 100.352 224.569C100.368 224.454 100.36 224.28 100.269 224.296Z" fill="#FAFAFA"/>
<path d="M100.309 217.528C100.226 217.437 100.027 217.602 99.9365 217.792C99.8863 217.833 99.8418 217.88 99.8041 217.933C99.6324 218.193 99.57 218.511 99.6304 218.817C99.631 218.829 99.6343 218.84 99.64 218.85C99.6458 218.86 99.6538 218.869 99.6634 218.875C99.6731 218.882 99.6841 218.886 99.6956 218.887C99.7071 218.889 99.7187 218.887 99.7296 218.883C99.8658 218.833 99.9876 218.751 100.084 218.643C100.181 218.534 100.249 218.404 100.284 218.263C100.375 218.024 100.433 217.643 100.309 217.528Z" fill="#FAFAFA"/>
<path d="M103.727 221.651C103.727 220.866 103.727 220.081 103.727 219.295C103.727 218.684 103.794 217.824 103.322 217.865C102.387 217.948 101.907 219.907 101.601 221.602C101.601 220.874 101.552 220.139 101.469 219.436C101.469 219.18 101.171 219.477 101.155 219.717C101.08 221.114 101.155 222.536 101.237 223.85C101.237 224.239 101.585 223.9 101.651 223.586C101.85 222.652 101.941 221.751 102.164 220.8C102.258 220.286 102.402 219.782 102.594 219.295C103.165 218.138 103.289 219.006 103.289 219.667C103.289 220.329 103.289 220.858 103.289 221.453C103.228 221.991 103.253 222.535 103.363 223.065C103.363 223.148 103.463 223.197 103.537 223.164C103.652 223.071 103.729 222.938 103.752 222.792C103.768 222.644 103.768 222.494 103.752 222.346L103.727 221.651Z" fill="#FAFAFA"/>
<path d="M107.457 229.505C107.4 228.811 107.4 228.265 107.044 227.91C106.688 227.554 106.274 227.868 105.853 227.976C106.25 227.149 107.077 226.232 107.002 225.322C106.92 224.281 105.24 225.81 104.802 226.149C104.744 226.149 104.686 226.248 104.645 226.347C104.603 226.446 104.645 226.347 104.645 226.389C104.595 226.537 104.595 226.694 104.645 226.686C105.03 226.529 105.401 226.338 105.753 226.116C105.853 226.058 106.349 225.62 106.415 225.686C106.481 225.752 106.142 226.513 106.126 226.513C105.751 227.088 105.443 227.703 105.207 228.348C105.207 228.53 105.207 228.786 105.298 228.794C105.389 228.802 105.695 228.637 105.861 228.645C106.787 228.703 106.911 228.96 106.961 230.034C107.001 230.548 106.935 231.064 106.765 231.551C106.596 232.038 106.327 232.484 105.977 232.861C105.563 233.291 105.149 233.39 104.835 233.176C104.521 232.961 104.62 232.448 105.075 231.671C105.207 231.522 105.274 231.109 105.075 231.167C104.702 231.357 104.403 231.665 104.224 232.044C104.046 232.423 103.999 232.85 104.091 233.258C104.388 234.556 105.431 234.374 106.291 233.324C106.74 232.803 107.075 232.195 107.276 231.537C107.477 230.88 107.538 230.188 107.457 229.505Z" fill="#FAFAFA"/>
<path d="M103.51 234.622C103.485 234.565 103.441 234.519 103.386 234.49C103.171 234.358 102.749 234.68 102.558 234.787C101.953 235.212 101.317 235.591 100.656 235.92C100.82 235.307 101.021 234.706 101.26 234.118C101.64 233.192 102.021 232.291 102.36 231.34C102.699 230.39 103.369 228.926 102.889 228.174C102.41 227.422 101.475 228.43 101.16 228.811C100.823 229.213 100.559 229.672 100.383 230.166C100.276 230.347 100.195 230.542 100.143 230.745C100.143 230.96 100.317 231.092 100.507 230.943C100.578 230.882 100.634 230.806 100.672 230.72C100.772 230.547 100.863 230.373 100.945 230.191C101.036 229.947 101.15 229.712 101.284 229.489C101.436 229.285 101.611 229.099 101.806 228.935C101.979 228.769 102.285 228.587 102.476 228.827C102.666 229.067 102.575 229.406 102.525 229.654C102.333 230.387 102.081 231.103 101.773 231.795C101.45 232.622 101.069 233.448 100.722 234.275C100.479 234.947 100.272 235.631 100.101 236.325C100.002 236.614 100.101 236.896 100.25 236.854C100.663 236.71 101.057 236.518 101.425 236.284C101.978 235.929 102.55 235.603 103.138 235.308C103.213 235.287 103.285 235.256 103.353 235.217C103.439 235.148 103.5 235.052 103.529 234.945C103.557 234.838 103.55 234.725 103.51 234.622Z" fill="#FAFAFA"/>
<path d="M282.945 199.278L251.485 181.125L251.477 113.702L282.945 131.855V199.278Z" fill="#263238"/>
<path opacity="0.25" d="M282.945 154.382L251.477 161.946L251.485 181.125L282.945 199.278V154.382Z" fill="black"/>
<path d="M282.944 131.855L327.889 105.922V173.345L282.944 199.278V131.855Z" fill="#37474F"/>
<path d="M327.89 105.923L282.945 131.855L251.477 113.702L296.43 87.769L327.89 105.923Z" fill="#455A64"/>
<path d="M302.335 131.028L308.449 127.499C309.276 127.036 309.888 127.251 309.888 127.961C309.829 128.404 309.669 128.827 309.419 129.197C309.169 129.567 308.837 129.874 308.449 130.094L302.335 133.616C301.508 134.079 300.896 133.864 300.896 133.153C300.954 132.711 301.115 132.29 301.365 131.921C301.615 131.552 301.947 131.247 302.335 131.028Z" fill="#263238"/>
<path d="M286.608 166.046L322.569 145.305L323.396 145.776L322.561 170.27L323.388 170.75L287.436 191.499L286.608 191.02V166.046Z" fill="#263238"/>
<path d="M287.436 166.525L323.397 145.776L323.388 170.75L287.436 191.499V166.525Z" fill="#455A64"/>
<path d="M301.506 162.624L307.62 159.094C308.447 158.639 309.059 158.846 309.059 159.565C309.001 160.006 308.84 160.428 308.59 160.797C308.341 161.166 308.008 161.471 307.62 161.689L301.506 165.219C300.679 165.674 300.067 165.467 300.067 164.748C300.126 164.307 300.287 163.885 300.536 163.517C300.786 163.148 301.118 162.842 301.506 162.624Z" fill="#263238"/>
<path d="M286.608 134.988L322.569 114.239L323.396 114.718L322.561 139.212L323.388 139.692L287.436 160.433L286.608 159.953V134.988Z" fill="#263238"/>
<path d="M287.436 135.459L323.397 114.718L323.388 139.692L287.436 160.433V135.459Z" fill="#455A64"/>
<path opacity="0.25" d="M282.944 156.498L297.628 148.025C297.759 147.937 297.91 147.883 298.068 147.869C298.225 147.854 298.384 147.88 298.529 147.942L297.338 147.24C297.056 147.021 296.728 146.869 296.378 146.793C296.313 146.782 296.246 146.782 296.18 146.793H296.114C296.012 146.835 295.913 146.882 295.816 146.934L282.944 154.374V156.498Z" fill="black"/>
<path d="M301.506 131.566L307.62 128.036C308.447 127.573 309.059 127.788 309.059 128.499C309 128.942 308.839 129.364 308.59 129.734C308.34 130.104 308.008 130.412 307.62 130.632L301.506 134.179C300.679 134.641 300.067 134.427 300.067 133.716C300.122 133.27 300.28 132.843 300.53 132.47C300.78 132.096 301.115 131.787 301.506 131.566Z" fill="#263238"/>
<path d="M294.854 195.274L238.932 227.514L235.532 229.473L235.375 229.556C235.284 229.6 235.19 229.636 235.093 229.663C234.979 229.712 234.86 229.745 234.738 229.763C234.659 229.784 234.579 229.798 234.498 229.804H234.448H234.15C233.84 229.816 233.532 229.748 233.257 229.606C232.596 229.115 232.142 228.396 231.983 227.588L222.56 178.716C222.552 178.606 222.552 178.495 222.56 178.385C222.552 178.297 222.552 178.209 222.56 178.121C222.578 177.986 222.608 177.853 222.651 177.724C222.701 177.592 222.759 177.468 222.817 177.344C222.859 177.264 222.906 177.186 222.957 177.112C223.016 177.029 223.08 176.949 223.148 176.872C223.208 176.805 223.274 176.744 223.346 176.691C223.417 176.634 223.492 176.581 223.57 176.533L282.884 142.309L283.041 142.227L283.215 142.152H283.289C283.36 142.137 283.433 142.137 283.504 142.152C283.889 142.232 284.249 142.402 284.555 142.648L285.87 143.417C285.973 143.461 286.066 143.526 286.143 143.607C286.249 143.726 286.33 143.863 286.383 144.012C286.383 144.087 286.383 144.153 286.433 144.219L295.855 193.141C295.907 193.555 295.84 193.975 295.663 194.352C295.486 194.73 295.206 195.049 294.854 195.274Z" fill="#42CA90"/>
<path d="M294.854 195.274L238.932 227.514L235.532 229.473L235.375 229.556C235.284 229.6 235.19 229.636 235.093 229.663C234.979 229.712 234.86 229.745 234.738 229.763C234.659 229.784 234.579 229.798 234.498 229.804H234.448H234.15C233.84 229.816 233.532 229.748 233.257 229.606C232.596 229.115 232.142 228.396 231.983 227.588L222.56 178.716C222.552 178.606 222.552 178.495 222.56 178.385C222.552 178.297 222.552 178.209 222.56 178.121C222.578 177.986 222.608 177.853 222.651 177.724C222.701 177.592 222.759 177.468 222.817 177.344C222.859 177.264 222.906 177.186 222.957 177.112C223.016 177.029 223.08 176.949 223.148 176.872C223.208 176.805 223.274 176.744 223.346 176.691C223.417 176.634 223.492 176.581 223.57 176.533L282.884 142.309L283.041 142.227L283.215 142.152H283.289C283.36 142.137 283.433 142.137 283.504 142.152C283.889 142.232 284.249 142.402 284.555 142.648L285.87 143.417C285.973 143.461 286.066 143.526 286.143 143.607C286.249 143.726 286.33 143.863 286.383 144.012C286.383 144.087 286.383 144.153 286.433 144.219L295.855 193.141C295.907 193.555 295.84 193.975 295.663 194.352C295.486 194.73 295.206 195.049 294.854 195.274Z" fill="#42CA90"/>
<path opacity="0.45" d="M235.358 229.556C235.032 229.724 234.674 229.818 234.307 229.831C233.941 229.843 233.577 229.775 233.24 229.631C232.579 229.14 232.125 228.421 231.966 227.613L222.56 178.716C222.486 178.241 222.574 177.755 222.809 177.336L224.81 178.485C224.573 178.903 224.483 179.389 224.554 179.865L233.976 228.787C233.995 228.94 234.049 229.087 234.135 229.215C234.221 229.343 234.336 229.449 234.471 229.524C234.606 229.599 234.756 229.641 234.911 229.647C235.065 229.652 235.218 229.621 235.358 229.556Z" fill="black"/>
<path opacity="0.25" d="M284.549 142.598L285.864 143.367C285.704 143.3 285.529 143.273 285.356 143.288C285.183 143.304 285.017 143.362 284.871 143.458L225.557 177.682C225.234 177.879 224.975 178.166 224.813 178.509L222.811 177.359C222.853 177.279 222.9 177.202 222.951 177.128C223.01 177.045 223.074 176.964 223.141 176.888C223.265 176.755 223.407 176.641 223.563 176.549L282.878 142.325L283.208 142.168H283.283C283.354 142.153 283.427 142.153 283.498 142.168C283.877 142.229 284.236 142.376 284.549 142.598Z" fill="black"/>
<path d="M233.974 228.787L224.552 179.865C224.492 179.444 224.555 179.014 224.732 178.627C224.91 178.24 225.195 177.912 225.553 177.682L284.867 143.458C285.008 143.357 285.173 143.295 285.346 143.278C285.519 143.261 285.693 143.29 285.851 143.363C286.009 143.435 286.145 143.547 286.246 143.689C286.346 143.831 286.407 143.997 286.422 144.169L295.845 193.092C295.908 193.512 295.848 193.942 295.672 194.33C295.496 194.717 295.211 195.045 294.852 195.274L235.53 229.498C235.389 229.599 235.223 229.662 235.05 229.678C234.878 229.695 234.703 229.666 234.545 229.594C234.387 229.522 234.251 229.409 234.151 229.267C234.051 229.126 233.99 228.96 233.974 228.787Z" fill="#42CA90"/>
<path opacity="0.35" d="M233.974 228.787L224.552 179.865C224.492 179.444 224.555 179.014 224.732 178.627C224.91 178.24 225.195 177.912 225.553 177.682L284.867 143.458C285.008 143.357 285.173 143.295 285.346 143.278C285.519 143.261 285.693 143.29 285.851 143.363C286.009 143.435 286.145 143.547 286.246 143.689C286.346 143.831 286.407 143.997 286.422 144.169L295.845 193.092C295.908 193.512 295.848 193.942 295.672 194.33C295.496 194.717 295.211 195.045 294.852 195.274L235.53 229.498C235.389 229.599 235.223 229.662 235.05 229.678C234.878 229.695 234.703 229.666 234.545 229.594C234.387 229.522 234.251 229.409 234.151 229.267C234.051 229.126 233.99 228.96 233.974 228.787Z" fill="black"/>
<path d="M237.351 217.619C237.116 217.737 236.859 217.803 236.596 217.813C236.333 217.823 236.072 217.777 235.829 217.676C235.351 217.32 235.023 216.798 234.91 216.213L228.127 181.022C228.076 180.68 228.14 180.332 228.309 180.03L229.748 180.857C229.579 181.158 229.515 181.507 229.566 181.849L236.341 217.048C236.351 217.162 236.389 217.271 236.451 217.367C236.512 217.463 236.596 217.543 236.696 217.599C236.795 217.655 236.907 217.686 237.021 217.69C237.135 217.693 237.248 217.669 237.351 217.619Z" fill="#E0E0E0"/>
<path d="M284.167 148.435L285.119 148.989C285.004 148.939 284.879 148.919 284.754 148.931C284.63 148.942 284.511 148.985 284.407 149.055L230.313 180.27C230.084 180.409 229.898 180.61 229.775 180.848L228.336 180.022L228.435 179.856L228.576 179.683C228.663 179.59 228.764 179.509 228.873 179.443L282.968 148.22L283.199 148.104H283.257H283.414C283.685 148.163 283.941 148.276 284.167 148.435Z" fill="#FAFAFA"/>
<path d="M236.342 217.049L229.567 181.849C229.521 181.546 229.565 181.236 229.693 180.957C229.821 180.678 230.027 180.442 230.287 180.278L284.381 149.055C284.483 148.984 284.601 148.94 284.725 148.929C284.849 148.918 284.974 148.939 285.087 148.991C285.2 149.043 285.297 149.123 285.369 149.225C285.441 149.326 285.486 149.444 285.498 149.568L292.273 184.767C292.319 185.071 292.275 185.381 292.147 185.66C292.019 185.939 291.813 186.174 291.553 186.338L237.459 217.561C237.357 217.632 237.238 217.676 237.115 217.687C236.991 217.698 236.866 217.677 236.753 217.625C236.64 217.573 236.543 217.493 236.471 217.392C236.399 217.29 236.354 217.172 236.342 217.049Z" fill="#F5F5F5"/>
<path d="M297.251 148.724C297.263 148.566 297.235 148.408 297.17 148.264C297.105 148.119 297.005 147.994 296.879 147.898C296.852 147.875 296.821 147.859 296.788 147.848L294.869 146.724C294.719 146.655 294.553 146.627 294.389 146.643C294.225 146.659 294.068 146.719 293.934 146.815L255.483 168.969L254.383 164.439C254.301 164.134 254.102 163.872 253.828 163.712L251.827 162.554C251.643 162.444 251.433 162.385 251.218 162.385C251.004 162.385 250.794 162.444 250.61 162.554L234.239 172.02C233.852 172.271 233.529 172.61 233.298 173.01C233.067 173.409 232.933 173.857 232.907 174.318V228.828C232.892 228.985 232.917 229.143 232.979 229.287C233.041 229.432 233.139 229.558 233.263 229.655L235.323 230.854C235.472 230.912 235.634 230.932 235.792 230.911C235.951 230.891 236.103 230.832 236.233 230.738L295.944 196.291C296.33 196.039 296.651 195.699 296.881 195.3C297.111 194.901 297.244 194.453 297.268 193.993L297.251 148.724Z" fill="#42CA90"/>
<path opacity="0.1" d="M253.781 163.687C253.595 163.591 253.387 163.546 253.178 163.556C252.969 163.566 252.766 163.631 252.59 163.745L236.235 173.177C235.845 173.427 235.522 173.767 235.292 174.169L233.298 173.012C233.519 172.603 233.844 172.26 234.241 172.02L250.596 162.596C250.78 162.487 250.99 162.429 251.204 162.429C251.418 162.429 251.628 162.487 251.812 162.596L253.781 163.687Z" fill="black"/>
<path opacity="0.1" d="M296.787 147.832C296.643 147.784 296.489 147.77 296.338 147.792C296.188 147.813 296.044 147.869 295.919 147.956L257.435 170.143C257.278 170.247 257.099 170.311 256.912 170.331C256.725 170.35 256.537 170.324 256.362 170.255C256.188 170.186 256.032 170.076 255.909 169.934C255.786 169.793 255.7 169.623 255.656 169.441L255.474 168.953L293.925 146.798C294.102 146.689 294.305 146.629 294.512 146.625C294.633 146.621 294.753 146.649 294.86 146.707L296.787 147.832Z" fill="black"/>
<path d="M297.244 148.724V194.001C297.22 194.462 297.087 194.911 296.855 195.31C296.624 195.71 296.301 196.049 295.912 196.299L236.052 230.837C235.933 230.908 235.798 230.945 235.66 230.946C235.522 230.947 235.386 230.911 235.266 230.842C235.147 230.773 235.047 230.673 234.979 230.553C234.911 230.433 234.876 230.297 234.878 230.159V175.484C234.891 175.022 235.025 174.572 235.266 174.177C235.488 173.773 235.81 173.431 236.201 173.185L252.556 163.745C252.733 163.632 252.938 163.567 253.148 163.556C253.358 163.546 253.568 163.591 253.755 163.687C254.027 163.853 254.225 164.116 254.31 164.423L255.427 168.928L255.609 169.416C255.65 169.599 255.735 169.769 255.856 169.912C255.978 170.055 256.133 170.166 256.307 170.236C256.481 170.306 256.67 170.333 256.856 170.314C257.043 170.295 257.222 170.231 257.379 170.127L295.871 147.939C295.996 147.851 296.139 147.794 296.29 147.771C296.441 147.748 296.595 147.76 296.74 147.807H296.789C296.945 147.9 297.07 148.037 297.151 148.199C297.232 148.362 297.264 148.544 297.244 148.724Z" fill="#42CA90"/>
<path opacity="0.2" d="M297.244 148.724V194.001C297.22 194.462 297.087 194.911 296.855 195.31C296.624 195.71 296.301 196.049 295.912 196.299L236.052 230.837C235.933 230.908 235.798 230.945 235.66 230.946C235.522 230.947 235.386 230.911 235.266 230.842C235.147 230.773 235.047 230.673 234.979 230.553C234.911 230.433 234.876 230.297 234.878 230.159V175.484C234.891 175.022 235.025 174.572 235.266 174.177C235.488 173.773 235.81 173.431 236.201 173.185L252.556 163.745C252.733 163.632 252.938 163.567 253.148 163.556C253.358 163.546 253.568 163.591 253.755 163.687C254.027 163.853 254.225 164.116 254.31 164.423L255.427 168.928L255.609 169.416C255.65 169.599 255.735 169.769 255.856 169.912C255.978 170.055 256.133 170.166 256.307 170.236C256.481 170.306 256.67 170.333 256.856 170.314C257.043 170.295 257.222 170.231 257.379 170.127L295.871 147.939C295.996 147.851 296.139 147.794 296.29 147.771C296.441 147.748 296.595 147.76 296.74 147.807H296.789C296.945 147.9 297.07 148.037 297.151 148.199C297.232 148.362 297.264 148.544 297.244 148.724Z" fill="black"/>
<path opacity="0.45" d="M235.358 230.879H235.3L233.24 229.689C233.119 229.589 233.024 229.462 232.962 229.318C232.9 229.174 232.874 229.018 232.884 228.862V174.318C232.899 173.857 233.033 173.407 233.273 173.012L235.267 174.17C235.028 174.565 234.894 175.014 234.878 175.476V230.152C234.875 230.307 234.919 230.46 235.005 230.59C235.091 230.72 235.214 230.82 235.358 230.879Z" fill="black"/>
<path d="M209.205 225.985C209.111 224.164 208.587 222.391 207.677 220.811C206.767 219.231 205.496 217.888 203.968 216.891C202.537 216.065 201.247 215.982 200.295 216.511L147.765 246.833L155.21 259.638L207.708 229.332C208.651 228.828 209.205 227.654 209.205 225.985Z" fill="#F0F0F0"/>
<path d="M207.701 220.827C206.819 219.229 205.543 217.883 203.995 216.917C202.563 216.09 201.273 216.007 200.322 216.536L147.791 246.859L151.513 253.257L207.767 220.819L207.701 220.827Z" fill="#F5F5F5"/>
<path d="M150.053 250.825L206.009 218.585C205.418 217.942 204.738 217.385 203.991 216.932C203.842 216.849 203.701 216.775 203.552 216.709L148.631 248.395L150.053 250.825Z" fill="#FAFAFA"/>
<path d="M151.477 247.238C153.005 248.234 154.275 249.577 155.185 251.157C156.095 252.737 156.619 254.51 156.713 256.331C156.713 259.637 154.372 261.026 151.477 259.356C149.949 258.36 148.678 257.017 147.768 255.437C146.858 253.857 146.335 252.084 146.24 250.263C146.24 246.915 148.581 245.584 151.477 247.238Z" fill="#E0E0E0"/>
<path d="M203.514 231.787C204.465 231.242 205.044 230.068 205.044 228.398C204.95 226.577 204.426 224.804 203.516 223.224C202.606 221.644 201.335 220.301 199.808 219.304C198.376 218.478 197.086 218.395 196.143 218.924L197.632 218.098C198.575 217.577 199.865 217.659 201.297 218.486C202.826 219.482 204.098 220.824 205.01 222.404C205.921 223.985 206.446 225.758 206.541 227.579C206.541 229.233 205.954 230.415 205.011 230.961L203.514 231.787Z" fill="#E0E0E0"/>
<path d="M157.147 256.546C157.04 254.582 156.472 252.67 155.487 250.967C154.502 249.263 153.129 247.816 151.48 246.742C149.916 245.841 148.502 245.75 147.476 246.345L127.622 257.803L135.704 271.624L155.492 260.208C156.51 259.638 157.147 258.348 157.147 256.546Z" fill="#42CA90"/>
<path opacity="0.3" d="M153.778 248.668L133.924 260.1C133.249 259.346 132.462 258.699 131.591 258.182L151.445 246.733C152.315 247.258 153.102 247.91 153.778 248.668Z" fill="#F5F7F9"/>
<path opacity="0.05" d="M157.149 256.546C157.149 258.357 156.512 259.622 155.494 260.217L135.715 271.633C136.716 271.038 137.369 269.773 137.369 267.996C137.334 266.503 136.99 265.034 136.36 263.68L156.214 252.239C156.817 253.596 157.135 255.062 157.149 256.546Z" fill="black"/>
<path d="M131.649 258.184C133.299 259.258 134.672 260.705 135.656 262.408C136.641 264.112 137.21 266.024 137.316 267.988C137.316 271.592 134.776 273.056 131.649 271.253C130 270.18 128.627 268.732 127.642 267.029C126.658 265.325 126.089 263.414 125.983 261.449C125.983 257.837 128.522 256.373 131.649 258.184Z" fill="#42CA90"/>
<path opacity="0.1" d="M131.649 258.184C133.299 259.258 134.672 260.705 135.656 262.408C136.641 264.112 137.21 266.024 137.316 267.988C137.316 271.592 134.776 273.056 131.649 271.253C130 270.18 128.627 268.732 127.642 267.029C126.658 265.325 126.089 263.414 125.983 261.449C125.983 257.837 128.522 256.373 131.649 258.184Z" fill="black"/>
<path opacity="0.2" d="M131.647 260.464C129.629 259.307 127.991 260.249 127.991 262.581C128.06 263.847 128.427 265.079 129.062 266.176C129.698 267.274 130.583 268.206 131.647 268.896C133.666 270.062 135.304 269.111 135.304 266.788C135.235 265.521 134.868 264.288 134.233 263.189C133.597 262.09 132.712 261.157 131.647 260.464ZM131.647 267.632C130.904 267.146 130.285 266.493 129.841 265.725C129.397 264.957 129.14 264.095 129.091 263.209C129.091 261.556 130.241 260.919 131.647 261.737C132.392 262.221 133.012 262.874 133.456 263.642C133.901 264.411 134.157 265.274 134.204 266.16C134.204 267.822 133.095 268.475 131.647 267.665V267.632Z" fill="black"/>
<path d="M141.571 262.266L140.148 263.085L141.571 263.895L142.985 263.085L141.571 262.266Z" fill="#42CA90"/>
<path d="M159.455 255.836L158.032 255.009C157.829 254.914 157.604 254.875 157.38 254.895C157.156 254.916 156.942 254.995 156.759 255.125L141.57 263.879V268.789L156.759 260.027C157.285 259.683 157.723 259.22 158.038 258.676C158.353 258.132 158.535 257.521 158.57 256.894V256.712L158.736 256.811L159.455 255.836Z" fill="#42CA90"/>
<path d="M159.976 257.001V257.729C159.941 258.356 159.759 258.967 159.444 259.511C159.13 260.055 158.691 260.518 158.165 260.862L143.026 269.624V264.714L158.206 255.959C159.174 255.389 159.976 255.852 159.976 257.001Z" fill="#42CA90"/>
<path opacity="0.05" d="M159.976 257.001V257.729C159.941 258.356 159.759 258.967 159.444 259.511C159.13 260.055 158.691 260.518 158.165 260.862L143.026 269.624V264.714L158.206 255.959C159.174 255.389 159.976 255.852 159.976 257.001Z" fill="black"/>
<path d="M140.148 267.988V263.085L142.977 264.714L142.985 269.624L140.148 267.988Z" fill="#42CA90"/>
<path opacity="0.1" d="M140.148 267.988V263.085L142.977 264.714L142.985 269.624L140.148 267.988Z" fill="black"/>
<path d="M308.325 10.5624C307.562 9.34755 306.522 8.33016 305.29 7.59306C304.058 6.85597 302.67 6.42 301.237 6.32068C299.89 6.32068 298.994 6.75158 298.542 7.49219L297.619 9.04075C297.06 9.78809 297.053 10.8855 297.747 12.1244C298.516 13.3391 299.562 14.3552 300.798 15.0899C302.034 15.8247 303.427 16.2573 304.862 16.3526C306.277 16.3526 307.247 15.8409 307.638 15.006L308.561 13.4575C309.013 12.7169 308.965 11.6868 308.325 10.5624Z" fill="#42CA90"/>
<path d="M307.296 12.2591C308.583 14.555 307.492 16.3863 304.864 16.346C303.434 16.2507 302.046 15.8193 300.815 15.0868C299.583 14.3544 298.542 13.3417 297.776 12.1312C296.489 9.8353 297.581 8.00396 300.215 8.04436C301.644 8.13962 303.031 8.57107 304.261 9.30353C305.492 10.036 306.532 11.0487 307.296 12.2591Z" fill="#42CA90"/>
<path opacity="0.3" d="M307.296 12.2591C308.583 14.555 307.492 16.3863 304.864 16.346C303.434 16.2507 302.046 15.8193 300.815 15.0868C299.583 14.3544 298.542 13.3417 297.776 12.1312C296.489 9.8353 297.581 8.00396 300.215 8.04436C301.644 8.13962 303.031 8.57107 304.261 9.30353C305.492 10.036 306.532 11.0487 307.296 12.2591Z" fill="black"/>
<path d="M302.242 21.1062L300.396 19.9885C299.07 19.67 297.868 18.9673 296.94 17.9687L295.087 16.8645L298.719 10.8049C298.927 10.4669 299.228 10.1962 299.587 10.0254C299.946 9.85462 300.346 9.79097 300.74 9.84214C301.761 9.91181 302.752 10.2213 303.631 10.7454C304.51 11.2695 305.253 11.9934 305.8 12.8584C306.023 13.1795 306.152 13.5573 306.169 13.9481C306.187 14.3388 306.094 14.7267 305.901 15.0668L302.242 21.1062Z" fill="#37474F"/>
<path d="M304.42 17.3692L295.466 12.1984H295.398C290.945 9.63993 284.867 10.0304 278.157 13.9287C264.681 21.7186 253.706 40.6648 253.706 56.2514C253.706 63.9941 256.401 69.4477 260.787 72.0197L260.854 72.0601H260.888L269.842 77.2174L271.399 73.1306C273.766 72.5195 276.034 71.5765 278.136 70.3297C291.612 62.5398 302.594 43.5936 302.594 28.0071C302.617 25.5757 302.3 23.1531 301.651 20.8097L304.42 17.3692Z" fill="#455A64"/>
<path d="M304.505 57.3128C314.055 40.7832 314.056 22.9174 304.508 17.4086C294.959 11.8997 279.477 20.8338 269.927 37.3634C260.376 53.8931 260.375 71.7588 269.924 77.2677C279.472 82.7765 294.955 73.8425 304.505 57.3128Z" fill="#37474F"/>
<path d="M276.296 75.5479C269.922 75.5479 266.115 70.276 266.115 61.4493C266.115 46.9535 276.329 29.2731 288.888 22.0285C292.163 20.1366 295.363 19.1334 298.139 19.1334C304.513 19.1334 308.32 24.4052 308.32 33.232C308.32 47.7278 298.099 65.4082 285.54 72.6595C282.265 74.5447 279.065 75.5479 276.296 75.5479Z" fill="#263238"/>
<path d="M304.911 31.2727C304.911 25.9336 303.516 21.9141 301.009 19.5576C300.079 19.2754 299.112 19.1325 298.139 19.1334C295.363 19.1334 292.163 20.1366 288.888 22.0285C276.329 29.2731 266.115 46.94 266.115 61.4493C266.115 66.7817 267.51 70.8012 270.016 73.1644C270.948 73.4408 271.915 73.5814 272.887 73.5819C275.662 73.5819 278.863 72.5854 282.137 70.6935C294.723 63.449 304.911 45.7618 304.911 31.2727Z" fill="#FAFAFA"/>
<path d="M287.811 12.2659H285.163C283.549 11.7745 281.825 11.7745 280.211 12.2659H277.563V15.7872C277.482 16.6018 277.974 17.4367 279.052 18.0561C280.174 18.6272 281.415 18.9249 282.673 18.9249C283.932 18.9249 285.173 18.6272 286.295 18.0561C287.373 17.4367 287.865 16.6018 287.784 15.7872L287.811 12.2659Z" fill="#37474F"/>
<path d="M279.065 10.1787C277.044 11.33 277.044 13.2018 279.065 14.3531C280.187 14.9241 281.428 15.2218 282.687 15.2218C283.946 15.2218 285.187 14.9241 286.308 14.3531C288.33 13.2018 288.33 11.33 286.308 10.1787C285.187 9.60764 283.946 9.30994 282.687 9.30994C281.428 9.30994 280.187 9.60764 279.065 10.1787Z" fill="#263238"/>
<path d="M290.007 8.61686H286.301C284.041 7.92996 281.628 7.92996 279.368 8.61686H275.662V10.832C275.541 11.9766 276.228 13.1346 277.744 14.0099C279.315 14.8065 281.052 15.2217 282.814 15.2217C284.576 15.2217 286.313 14.8065 287.884 14.0099C289.4 13.1346 290.088 11.99 289.966 10.832L290.007 8.61686Z" fill="#42CA90"/>
<path opacity="0.2" d="M290.007 8.61686H286.301C284.041 7.92996 281.628 7.92996 279.368 8.61686H275.662V10.832C275.541 11.9766 276.228 13.1346 277.744 14.0099C279.315 14.8065 281.052 15.2217 282.814 15.2217C284.576 15.2217 286.313 14.8065 287.884 14.0099C289.4 13.1346 290.088 11.99 289.966 10.832L290.007 8.61686Z" fill="black"/>
<path d="M277.791 5.68793C274.988 7.30381 274.988 9.92289 277.791 11.5388C279.362 12.337 281.099 12.7531 282.861 12.7531C284.623 12.7531 286.361 12.337 287.931 11.5388C290.734 9.92289 290.734 7.30381 287.931 5.68793C286.36 4.89126 284.623 4.47607 282.861 4.47607C281.099 4.47607 279.362 4.89126 277.791 5.68793Z" fill="#42CA90"/>
<path d="M268.446 21.84L267.098 23.5232C265.972 24.3035 265.102 25.4 264.599 26.6741L263.251 28.3574L266.849 31.2121C267.156 31.4547 267.527 31.603 267.917 31.6389C268.307 31.6747 268.699 31.5966 269.046 31.4141C269.976 30.9872 270.793 30.3472 271.43 29.5459C272.067 28.7446 272.506 27.8046 272.711 26.8021C272.812 26.4263 272.802 26.0294 272.682 25.6591C272.563 25.2889 272.339 24.961 272.037 24.7149L268.446 21.84Z" fill="#37474F"/>
<path d="M267.253 18.5747L265.373 20.9379C263.789 22.0358 262.57 23.5806 261.869 25.3749L259.996 27.7314L261.411 28.8558C262.085 29.529 263.17 29.657 264.49 29.1385C265.792 28.5404 266.935 27.6441 267.826 26.5223C268.717 25.4005 269.331 24.0848 269.618 22.6817C269.827 21.2813 269.436 20.2512 268.647 19.753L267.253 18.5747Z" fill="#42CA90"/>
<path d="M259.195 24.8901C258.811 27.4889 260.475 28.8153 262.921 27.8458C264.224 27.25 265.368 26.3554 266.26 25.2346C267.152 24.1139 267.767 22.7986 268.055 21.3957C268.439 18.7968 266.768 17.4705 264.322 18.4333C263.02 19.0305 261.876 19.9266 260.985 21.0485C260.094 22.1704 259.481 23.4866 259.195 24.8901Z" fill="#42CA90"/>
<path opacity="0.2" d="M259.195 24.8901C258.811 27.4889 260.475 28.8153 262.921 27.8458C264.224 27.25 265.368 26.3554 266.26 25.2346C267.152 24.1139 267.767 22.7986 268.055 21.3957C268.439 18.7968 266.768 17.4705 264.322 18.4333C263.02 19.0305 261.876 19.9266 260.985 21.0485C260.094 22.1704 259.481 23.4866 259.195 24.8901Z" fill="#F5F7F9"/>
<path d="M286.678 44.9469C286.416 46.9667 285.082 48.9462 283.687 49.404C282.292 49.8619 281.376 48.6095 281.666 46.6032C281.955 44.5968 283.269 42.6039 284.617 42.146C285.964 41.6882 286.934 42.9472 286.678 44.9469Z" fill="#42CA90"/>
<path d="M284.435 46.2467L284.381 44.9001C284.381 44.9001 295.619 38.0393 295.639 38.4972C295.659 38.955 284.435 46.2467 284.435 46.2467Z" fill="#42CA90"/>
<path d="M271.236 46.536C271.259 46.533 271.282 46.5249 271.303 46.5124C271.323 46.4999 271.34 46.4833 271.354 46.4635C271.367 46.4438 271.376 46.4214 271.38 46.398C271.384 46.3745 271.383 46.3504 271.377 46.3273C271.374 46.2766 271.353 46.2287 271.317 46.1928C271.281 46.1569 271.233 46.1353 271.182 46.1321L269.316 46.1725C269.262 46.3139 269.215 46.4485 269.161 46.5832L271.236 46.536Z" fill="#263238"/>
<path d="M301.69 36.4907C301.783 36.5326 301.886 36.5466 301.987 36.5311C302.129 36.5012 302.264 36.444 302.384 36.3628C302.526 36.2723 302.655 36.1637 302.768 36.0396C302.892 35.9107 302.994 35.763 303.071 35.602C303.161 35.4385 303.229 35.2643 303.274 35.0836C303.316 34.8867 303.334 34.6855 303.327 34.4843C303.331 34.3244 303.298 34.1658 303.233 34.0198C303.189 33.9159 303.111 33.8303 303.011 33.7774C302.906 33.743 302.792 33.743 302.687 33.7774C302.55 33.81 302.42 33.867 302.303 33.9457C302.169 34.0274 302.049 34.1297 301.946 34.2487C301.887 34.3166 301.833 34.3886 301.785 34.4641L301.825 33.2051L302.997 32.4578C303.027 32.44 303.051 32.414 303.067 32.383C303.082 32.352 303.089 32.3172 303.085 32.2827V32.1952C303.085 32.1144 303.085 32.0942 302.991 32.1346L301.643 32.9829C301.614 33.0029 301.59 33.0302 301.575 33.0621C301.56 33.094 301.553 33.1294 301.555 33.1647L301.495 34.9893C301.489 34.9997 301.487 35.0113 301.487 35.023C301.487 35.0347 301.489 35.0462 301.495 35.0566C301.495 35.0566 301.535 35.0566 301.562 35.0566L301.636 35.0095C301.684 34.9768 301.724 34.9329 301.751 34.8816C301.785 34.8277 301.818 34.7671 301.865 34.6998C301.912 34.6227 301.966 34.5506 302.027 34.4843C302.098 34.4016 302.182 34.3311 302.276 34.2756C302.361 34.2153 302.457 34.174 302.559 34.1544C302.636 34.1144 302.725 34.1048 302.809 34.1275C302.882 34.169 302.941 34.2325 302.977 34.3093C303.021 34.4138 303.044 34.5259 303.044 34.6392C303.051 34.7862 303.038 34.9335 303.004 35.0768C302.97 35.2123 302.92 35.3433 302.856 35.4673C302.798 35.5853 302.723 35.6942 302.633 35.7905C302.553 35.8858 302.457 35.9676 302.351 36.0329C302.283 36.0788 302.211 36.1172 302.135 36.1473C302.069 36.1636 301.999 36.1636 301.933 36.1473C301.867 36.1338 301.807 36.0982 301.764 36.0463C301.71 35.9775 301.673 35.8967 301.657 35.8107C301.657 35.7703 301.657 35.7434 301.609 35.7434C301.6 35.7386 301.59 35.7362 301.579 35.7362C301.569 35.7362 301.558 35.7386 301.549 35.7434L301.468 35.7905C301.444 35.8098 301.424 35.8325 301.407 35.8578C301.397 35.8862 301.397 35.917 301.407 35.9454C301.411 36.0555 301.438 36.1635 301.488 36.2618C301.526 36.3599 301.598 36.4411 301.69 36.4907Z" fill="#263238"/>
<path d="M298.416 28.7409C298.439 28.7546 298.464 28.7619 298.491 28.7619C298.517 28.7619 298.542 28.7546 298.565 28.7409L300.364 26.4922C300.396 26.4508 300.413 26.3998 300.413 26.3474C300.413 26.295 300.396 26.244 300.364 26.2026C300.35 26.1845 300.332 26.1698 300.312 26.1597C300.291 26.1495 300.269 26.1443 300.246 26.1443C300.223 26.1443 300.2 26.1495 300.18 26.1597C300.16 26.1698 300.142 26.1845 300.128 26.2026L298.329 28.4514C298.298 28.4922 298.282 28.5418 298.282 28.5928C298.282 28.6438 298.298 28.6934 298.329 28.7342C298.357 28.7433 298.387 28.7456 298.416 28.7409Z" fill="#263238"/>
<path d="M300.691 33.5617L300.61 33.6155L300.556 33.6492L300.503 33.7165L299.667 35.1506C299.648 35.1817 299.634 35.2159 299.627 35.2516C299.622 35.2633 299.619 35.2759 299.619 35.2887C299.619 35.3014 299.622 35.314 299.627 35.3257L299.674 35.3728C299.714 35.4132 299.755 35.3728 299.802 35.3122L300.476 34.107L300.583 37.2984C300.583 37.3725 300.583 37.3927 300.678 37.3523L300.759 37.3051C300.788 37.2871 300.811 37.2609 300.825 37.2297C300.84 37.1986 300.845 37.164 300.839 37.1301L300.785 33.6223C300.785 33.5482 300.786 33.528 300.691 33.5617Z" fill="#263238"/>
<path d="M293.024 57.5445C293.048 57.5708 293.078 57.5896 293.112 57.5984C293.138 57.6086 293.166 57.6102 293.193 57.6029C293.22 57.5956 293.243 57.5798 293.26 57.558C293.291 57.5162 293.308 57.4654 293.308 57.4132C293.308 57.3611 293.291 57.3103 293.26 57.2685L292.216 56.0431C292.202 56.025 292.184 56.0103 292.164 56.0001C292.143 55.99 292.121 55.9847 292.098 55.9847C292.075 55.9847 292.053 55.99 292.032 56.0001C292.012 56.0103 291.994 56.025 291.98 56.0431C291.947 56.0829 291.929 56.1329 291.929 56.1845C291.929 56.2361 291.947 56.2861 291.98 56.3259L293.024 57.5445Z" fill="#263238"/>
<path d="M293.377 23.2406L292.339 25.799C292.322 25.8484 292.321 25.9018 292.337 25.9516C292.353 26.0013 292.384 26.0446 292.427 26.0751H292.467C292.503 26.0856 292.541 26.0816 292.574 26.0639C292.607 26.0463 292.631 26.0164 292.642 25.9808L293.68 23.4224C293.7 23.374 293.703 23.3203 293.688 23.2701C293.673 23.2198 293.642 23.1762 293.599 23.1463C293.579 23.1322 293.556 23.1234 293.532 23.1207C293.508 23.1181 293.484 23.1216 293.461 23.1311C293.439 23.1406 293.419 23.1556 293.405 23.1748C293.39 23.1939 293.38 23.2166 293.377 23.2406Z" fill="#263238"/>
<path d="M267.423 57.3825C267.423 57.4566 267.456 57.4768 267.517 57.4364L267.598 57.3892C267.627 57.3712 267.65 57.345 267.665 57.3138C267.679 57.2827 267.684 57.2481 267.679 57.2142V56.3726L268.056 56.1369C268.085 56.1167 268.107 56.0891 268.121 56.0571C268.136 56.0251 268.141 55.9899 268.137 55.9551V55.8744C268.137 55.7936 268.137 55.7734 268.043 55.8138L267.672 56.0494L267.591 53.7064C267.591 53.6323 267.591 53.6121 267.497 53.6458L267.328 53.7535C267.26 53.7986 267.208 53.8647 267.18 53.942L266.742 55.1068C266.675 55.4839 266.614 55.8542 266.553 56.2312L267.342 54.1373L267.409 56.211L266.473 56.8102C266.473 56.9314 266.439 57.0526 266.419 57.1738L267.423 56.5005V57.3825Z" fill="#263238"/>
<path d="M297.896 46.0444C297.9 46.0856 297.915 46.125 297.94 46.1582C297.965 46.1914 297.999 46.2172 298.037 46.2329H298.091L299.897 46.1723C299.92 46.1683 299.942 46.1596 299.962 46.1469C299.982 46.1341 299.999 46.1175 300.012 46.098C300.025 46.0785 300.034 46.0565 300.039 46.0335C300.043 46.0104 300.043 45.9866 300.038 45.9636C300.034 45.9133 300.012 45.8662 299.976 45.8305C299.94 45.7949 299.893 45.7728 299.843 45.7683L298.044 45.8289C298.019 45.832 297.996 45.8402 297.975 45.8531C297.954 45.8659 297.935 45.8831 297.921 45.9034C297.907 45.9238 297.898 45.9468 297.893 45.9711C297.889 45.9954 297.89 46.0204 297.896 46.0444Z" fill="#263238"/>
<path d="M270.61 62.7891C270.596 62.7709 270.578 62.7562 270.558 62.7461C270.537 62.736 270.515 62.7307 270.492 62.7307C270.469 62.7307 270.447 62.736 270.426 62.7461C270.406 62.7562 270.388 62.7709 270.374 62.7891L268.575 65.0378C268.545 65.079 268.53 65.1285 268.53 65.1792C268.53 65.23 268.545 65.2794 268.575 65.3206C268.6 65.3467 268.63 65.3674 268.663 65.3812C268.689 65.3887 268.718 65.3882 268.744 65.3798C268.77 65.3714 268.794 65.3556 268.811 65.3341L270.63 63.0786C270.66 63.035 270.674 62.9828 270.67 62.9303C270.666 62.8779 270.645 62.8282 270.61 62.7891Z" fill="#263238"/>
<path d="M285.37 62.6682C285.212 62.6678 285.057 62.7147 284.926 62.8029C284.753 62.8962 284.599 63.0219 284.474 63.1732C284.351 63.3164 284.251 63.4776 284.178 63.6512C284.104 63.8311 284.05 64.0185 284.016 64.21C283.983 64.4037 283.962 64.5994 283.955 64.7958C283.955 65.1055 283.955 65.4018 283.955 65.6913C283.953 65.8675 283.968 66.0435 284.003 66.2164C284.021 66.3553 284.074 66.4873 284.158 66.6002C284.189 66.6464 284.231 66.6845 284.281 66.7114C284.33 66.7383 284.384 66.7532 284.441 66.7551C284.6 66.7592 284.758 66.7146 284.892 66.6271C285.064 66.532 285.216 66.4065 285.343 66.2568C285.463 66.11 285.56 65.9467 285.633 65.7721C285.708 65.5949 285.762 65.4096 285.795 65.22C285.829 65.0241 285.849 64.8261 285.855 64.6275C285.855 64.338 285.855 64.0417 285.855 63.7387C285.855 63.5604 285.839 63.3825 285.808 63.2068C285.782 63.0721 285.73 62.9438 285.653 62.8298C285.62 62.785 285.577 62.7476 285.528 62.7198C285.48 62.692 285.426 62.6744 285.37 62.6682ZM285.606 64.3178C285.606 64.4457 285.606 64.5871 285.606 64.7419C285.605 65.0719 285.541 65.3986 285.417 65.7047C285.315 65.9599 285.13 66.1733 284.892 66.3107C284.656 66.4386 284.481 66.4319 284.373 66.3107C284.237 66.0814 284.178 65.8149 284.205 65.5499V65.0988C284.205 64.9708 284.205 64.8295 284.205 64.6813C284.21 64.3539 284.274 64.0301 284.393 63.7253C284.491 63.4659 284.677 63.2491 284.919 63.1126C285.155 62.9847 285.323 62.9914 285.438 63.1126C285.569 63.3414 285.63 63.6036 285.613 63.8667C285.613 64.0484 285.613 64.1898 285.606 64.3178Z" fill="#263238"/>
<path d="M286.078 28.9501C286.111 28.7539 286.133 28.5561 286.145 28.3576C286.145 28.0681 286.145 27.7651 286.145 27.4689C286.144 27.2906 286.128 27.1126 286.098 26.937C286.075 26.8013 286.022 26.6725 285.943 26.5599C285.91 26.5145 285.868 26.4767 285.819 26.4488C285.77 26.421 285.716 26.4038 285.66 26.3983C285.499 26.397 285.342 26.444 285.209 26.533C285.034 26.6242 284.881 26.7503 284.757 26.9033C284.634 27.0465 284.534 27.2077 284.461 27.3813C284.386 27.5608 284.331 27.7483 284.299 27.9402C284.264 28.1335 284.246 28.3295 284.245 28.5259C284.245 28.8356 284.245 29.1319 284.245 29.4214C284.246 29.5975 284.262 29.7732 284.292 29.9466C284.314 30.0846 284.367 30.2159 284.447 30.3303C284.482 30.3739 284.524 30.41 284.573 30.4367C284.622 30.4633 284.675 30.4798 284.73 30.4852C284.89 30.4893 285.048 30.4447 285.182 30.3573C285.354 30.2639 285.508 30.1382 285.633 29.987C285.752 29.8401 285.85 29.6769 285.923 29.5022C285.995 29.3247 286.047 29.1395 286.078 28.9501ZM285.903 28.0681C285.903 28.196 285.903 28.3374 285.903 28.4923C285.894 28.809 285.828 29.1216 285.707 29.4147C285.602 29.6684 285.414 29.8794 285.175 30.0139C284.939 30.1485 284.771 30.1418 284.656 30.0139C284.524 29.7833 284.465 29.5179 284.488 29.2531V28.8356C284.488 28.701 284.488 28.5663 284.488 28.4115C284.494 28.0863 284.557 27.7648 284.676 27.4621C284.777 27.2023 284.965 26.9856 285.209 26.8494C285.438 26.7148 285.613 26.7283 285.721 26.8494C285.856 27.0764 285.918 27.34 285.896 27.6035L285.903 28.0681Z" fill="#263238"/>
<path d="M283.208 27.8593C283.208 27.8593 283.208 27.8593 283.208 27.8121C283.216 27.7903 283.216 27.7666 283.208 27.7448C283.2 27.7377 283.189 27.7338 283.178 27.7338C283.167 27.7338 283.156 27.7377 283.148 27.7448L283.074 27.7852C283.037 27.8008 283.008 27.8297 282.993 27.866C282.98 27.8987 282.964 27.9302 282.946 27.9602L282.151 29.8656L282.077 30.0744C282.042 30.1601 282.013 30.2478 281.989 30.3369C281.989 30.4312 281.942 30.5322 281.922 30.6332C281.912 30.7384 281.912 30.8444 281.922 30.9496C281.914 31.0953 281.933 31.2411 281.975 31.3805C282.009 31.4922 282.069 31.5939 282.151 31.6768C282.235 31.75 282.342 31.7907 282.454 31.7912C282.601 31.7831 282.745 31.7392 282.872 31.6633C283.028 31.5743 283.169 31.4606 283.289 31.3267C283.409 31.1893 283.51 31.0378 283.592 30.8756C283.752 30.5644 283.839 30.2217 283.848 29.8724C283.851 29.7265 283.83 29.5811 283.788 29.4415C283.759 29.328 283.698 29.2252 283.613 29.1452C283.532 29.0707 283.426 29.0298 283.316 29.0308C283.112 29.0488 282.918 29.126 282.757 29.253C282.712 29.2833 282.669 29.317 282.629 29.3539L283.235 27.8929L283.208 27.8593ZM282.851 29.4819C282.933 29.4327 283.026 29.4028 283.121 29.3943C283.198 29.3849 283.276 29.4015 283.343 29.4415C283.417 29.4884 283.472 29.5599 283.498 29.6435C283.544 29.7613 283.562 29.8878 283.552 30.0138C283.552 30.1617 283.532 30.309 283.491 30.4514C283.453 30.5831 283.398 30.7096 283.33 30.8284C283.265 30.9397 283.188 31.0436 283.101 31.1381C283.021 31.2195 282.93 31.2897 282.831 31.3469C282.758 31.3893 282.678 31.4189 282.595 31.4344C282.517 31.4408 282.439 31.4219 282.373 31.3805C282.299 31.3336 282.244 31.2621 282.218 31.1785C282.172 31.0607 282.154 30.9341 282.164 30.8082C282.163 30.6602 282.184 30.5129 282.225 30.3706C282.263 30.2389 282.318 30.1124 282.386 29.9936C282.45 29.8832 282.527 29.7814 282.616 29.6906C282.683 29.6099 282.763 29.5395 282.851 29.4819Z" fill="#263238"/>
<path d="M276.067 36.4301C276.089 36.4566 276.117 36.4774 276.148 36.4907C276.176 36.4987 276.205 36.4985 276.233 36.4902C276.26 36.4818 276.285 36.4656 276.303 36.4436C276.334 36.4028 276.35 36.3532 276.35 36.3022C276.35 36.2512 276.334 36.2016 276.303 36.1608L275.34 35.0297C275.272 35.1239 275.212 35.2249 275.144 35.3259L276.067 36.4301Z" fill="#263238"/>
<path d="M270.05 52.3058C270.08 52.288 270.104 52.2621 270.119 52.231C270.135 52.2 270.141 52.1652 270.138 52.1307V52.0432C270.138 51.9624 270.097 51.9422 270.043 51.9826L268.696 52.8309C268.666 52.8509 268.643 52.8782 268.628 52.9101C268.612 52.942 268.605 52.9774 268.608 53.0127L268.547 54.8373C268.54 54.8469 268.536 54.8588 268.536 54.871C268.536 54.8832 268.54 54.8951 268.547 54.9047C268.547 54.9047 268.588 54.9047 268.615 54.9047L268.682 54.8575C268.734 54.8272 268.776 54.7829 268.803 54.7296C268.803 54.6757 268.871 54.6152 268.918 54.5478C268.979 54.4685 269.047 54.3942 269.12 54.3256C269.195 54.2463 269.278 54.1762 269.369 54.1169C269.458 54.0591 269.556 54.0181 269.659 53.9957C269.735 53.9679 269.819 53.9679 269.895 53.9957C269.969 54.0372 270.028 54.1008 270.063 54.1775C270.107 54.282 270.13 54.3941 270.131 54.5074C270.139 54.6549 270.123 54.8028 270.084 54.9451C270.052 55.0803 270.004 55.2113 269.942 55.3356C269.881 55.4519 269.807 55.5605 269.72 55.6587C269.639 55.754 269.543 55.8358 269.437 55.9011C269.367 55.9451 269.292 55.9813 269.214 56.0089C269.148 56.0251 269.079 56.0251 269.012 56.0089C268.946 55.9953 268.887 55.9597 268.844 55.9079C268.788 55.8424 268.751 55.7634 268.736 55.6789C268.731 55.6472 268.714 55.6186 268.689 55.5981C268.669 55.5924 268.648 55.5924 268.628 55.5981L268.547 55.6453L268.487 55.7126C268.477 55.741 268.477 55.7718 268.487 55.8001C268.49 55.9103 268.518 56.0183 268.568 56.1166C268.607 56.2048 268.676 56.2763 268.763 56.3186C268.856 56.3604 268.959 56.3745 269.06 56.359C269.202 56.329 269.337 56.2719 269.457 56.1906C269.599 56.1002 269.728 55.9915 269.841 55.8675C270.087 55.597 270.259 55.2677 270.34 54.9114C270.388 54.7154 270.408 54.5138 270.4 54.3122C270.403 54.1523 270.371 53.9937 270.306 53.8476C270.262 53.7437 270.183 53.6581 270.084 53.6052C269.979 53.5671 269.865 53.5671 269.76 53.6052C269.622 53.6322 269.492 53.6872 269.376 53.7668C269.242 53.8488 269.122 53.951 269.019 54.0698L268.851 54.2852L268.898 53.0262L270.05 52.3058Z" fill="#263238"/>
<path d="M282.893 67.6636C283.008 67.5478 283.11 67.4191 283.196 67.2799C283.285 67.1377 283.353 66.9835 283.398 66.822C283.447 66.6581 283.472 66.488 283.472 66.3171C283.481 66.1708 283.46 66.0243 283.411 65.8862C283.398 65.8384 283.376 65.7937 283.345 65.7546C283.315 65.7156 283.277 65.6829 283.233 65.6585C283.19 65.6342 283.143 65.6185 283.093 65.6125C283.044 65.6065 282.994 65.6103 282.947 65.6236C282.823 65.6543 282.705 65.7043 282.596 65.7717L282.515 65.8188L283.371 64.0414V63.9808C283.374 63.9607 283.374 63.9402 283.371 63.9202V63.8394C283.371 63.7586 283.337 63.7384 283.277 63.772L281.801 64.5935C281.772 64.6101 281.748 64.6349 281.733 64.6647C281.717 64.6946 281.71 64.7283 281.714 64.7618V64.8426C281.714 64.9234 281.714 64.9436 281.794 64.9099L282.994 64.2366L282.165 65.9872C282.162 66.0095 282.162 66.0321 282.165 66.0545C282.162 66.0813 282.162 66.1084 282.165 66.1353V66.2161C282.165 66.2901 282.165 66.3171 282.253 66.2834L282.603 66.0881C282.67 66.0375 282.748 66.0022 282.831 65.9848C282.914 65.9673 282.999 65.9681 283.081 65.9872C283.196 66.0343 283.256 66.1891 283.25 66.4517C283.25 66.5793 283.232 66.7063 283.196 66.8288C283.16 66.9445 283.111 67.0553 283.048 67.1587C282.985 67.2574 282.91 67.3479 282.825 67.428C282.739 67.5059 282.644 67.5737 282.542 67.63C282.475 67.6709 282.402 67.7026 282.327 67.7242C282.258 67.7398 282.187 67.7398 282.118 67.7242C282.054 67.7171 281.995 67.6886 281.949 67.6434C281.893 67.579 281.858 67.4992 281.848 67.4145C281.848 67.3674 281.848 67.3472 281.801 67.3404C281.781 67.3353 281.76 67.3353 281.741 67.3404H281.687L281.626 67.401C281.619 67.4298 281.619 67.4598 281.626 67.4886C281.623 67.5906 281.644 67.6919 281.687 67.7848C281.73 67.8647 281.795 67.9303 281.875 67.9733C281.966 68.0158 282.067 68.0299 282.165 68.0137C282.305 67.9891 282.44 67.9389 282.563 67.8656C282.679 67.8101 282.79 67.7424 282.893 67.6636Z" fill="#263238"/>
<path d="M274.57 69.3603C274.605 69.3711 274.643 69.368 274.676 69.3517C274.708 69.3354 274.733 69.3071 274.746 69.2728L275.783 66.7075C275.801 66.6589 275.803 66.6059 275.788 66.5562C275.774 66.5065 275.744 66.4628 275.702 66.4315C275.684 66.4173 275.663 66.4077 275.641 66.4035C275.619 66.3992 275.595 66.4005 275.574 66.4071C275.552 66.4137 275.532 66.4255 275.516 66.4415C275.499 66.4574 275.487 66.4771 275.48 66.4988L274.442 69.064C274.425 69.1127 274.423 69.1657 274.437 69.2154C274.452 69.265 274.482 69.3087 274.523 69.3401L274.57 69.3603Z" fill="#263238"/>
</g>
<defs>
<clipPath id="clip0_1_1192">
<rect width="264.826" height="274.524" fill="white" transform="translate(63.4092 4.47607)"/>
</clipPath>
</defs>
</svg>
