<svg width="282" height="282" viewBox="0 0 282 282" fill="none" xmlns="http://www.w3.org/2000/svg">
<circle cx="137.219" cy="127.144" r="121.199" fill="#244038"/>
<path opacity="0.47" d="M57.6645 136.488C57.6645 136.921 57.3121 137.289 56.8636 137.289C56.4151 137.289 56.0627 136.921 56.0627 136.488C56.0627 136.054 56.4151 135.687 56.8636 135.687C57.3121 135.687 57.6645 136.054 57.6645 136.488Z" fill="white"/>
<path opacity="0.47" d="M32.0361 76.1557C32.0361 76.5889 31.6837 76.9555 31.2352 76.9555C30.7867 76.9555 30.4343 76.5889 30.4343 76.1557C30.4343 75.7224 30.7867 75.3559 31.2352 75.3559C31.6837 75.3225 32.0361 75.6891 32.0361 76.1557Z" fill="white"/>
<path opacity="0.92" d="M58.7304 101.249C58.7304 101.694 58.2728 102.05 57.6626 102.05C57.0905 102.05 56.5947 101.694 56.5947 101.249C56.5947 100.804 57.0524 100.448 57.6626 100.448C58.2346 100.448 58.7304 100.804 58.7304 101.249Z" fill="white"/>
<path opacity="0.47" d="M72.6135 189.345C72.6135 189.79 72.1558 190.146 71.5456 190.146C70.9354 190.146 70.4778 189.79 70.4778 189.345C70.4778 188.9 70.9354 188.544 71.5456 188.544C72.1177 188.544 72.6135 188.9 72.6135 189.345Z" fill="white"/>
<path opacity="0.47" d="M101.977 102.05C101.977 102.65 101.492 103.117 100.91 103.117C100.327 103.117 99.8418 102.65 99.8418 102.05C99.8418 101.449 100.327 100.982 100.91 100.982C101.492 100.982 101.977 101.449 101.977 102.05Z" fill="white"/>
<path opacity="0.47" d="M131.879 36.3782C131.879 36.6785 131.66 36.9121 131.345 36.9121C131.063 36.9121 130.812 36.6785 130.812 36.3782C130.812 36.0778 131.031 35.8442 131.345 35.8442C131.628 35.8442 131.879 36.1112 131.879 36.3782Z" fill="white"/>
<path opacity="0.92" d="M97.3258 149.135L97.7288 150.344C97.8631 150.747 98.1653 151.049 98.5347 151.15L99.7436 151.553C99.8779 151.586 99.8779 151.788 99.7436 151.855L98.5347 152.258C98.1317 152.392 97.8295 152.694 97.7288 153.064L97.3258 154.273C97.2922 154.407 97.0572 154.407 97.0236 154.273L96.6207 153.064C96.4863 152.661 96.1841 152.359 95.8147 152.258L94.6059 151.855C94.4715 151.821 94.4715 151.62 94.6059 151.553L95.8147 151.15C96.2177 151.015 96.5199 150.713 96.6207 150.344L97.0236 149.135C97.0572 149.001 97.2587 149.001 97.3258 149.135Z" fill="white"/>
<path opacity="0.92" d="M60.4843 49.2929L60.8872 50.5018C61.0215 50.9047 61.3238 51.2069 61.6932 51.3077L62.902 51.7106C63.0363 51.7442 63.0363 51.9457 62.902 52.0128L61.6932 52.4158C61.2902 52.5501 60.988 52.8523 60.8872 53.2217L60.4843 54.4306C60.4507 54.5649 60.2156 54.5649 60.1821 54.4306L59.7791 53.2217C59.6448 52.8187 59.3426 52.5165 58.9732 52.4158L57.7643 52.0128C57.63 51.9793 57.63 51.7778 57.7643 51.7106L58.9732 51.3077C59.3761 51.1733 59.6784 50.8711 59.7791 50.5018L60.1821 49.2929C60.2492 49.1586 60.4507 49.1586 60.4843 49.2929Z" fill="white"/>
<path opacity="0.92" d="M182.217 33.8087L182.615 35.0176C182.748 35.4206 183.046 35.7228 183.444 35.8235L184.638 36.2265C184.771 36.2601 184.771 36.4615 184.638 36.5287L183.444 36.9317C183.046 37.066 182.748 37.3682 182.615 37.7376L182.217 38.9464C182.184 39.0808 181.952 39.0808 181.919 38.9464L181.521 37.7376C181.388 37.3346 181.089 37.0324 180.692 36.9317L179.498 36.5287C179.365 36.4951 179.365 36.2936 179.498 36.2265L180.692 35.8235C181.089 35.6892 181.388 35.387 181.521 35.0176L181.919 33.8087C181.952 33.6744 182.151 33.6744 182.217 33.8087Z" fill="white"/>
<path opacity="0.47" d="M132.722 76.4707L132.849 76.8284C132.881 76.9585 132.976 77.0235 133.103 77.0561L133.452 77.1862C133.483 77.1862 133.483 77.2512 133.452 77.2837L133.103 77.4138C132.976 77.4463 132.913 77.5439 132.849 77.6415L132.722 77.9992C132.722 78.0318 132.659 78.0318 132.627 77.9992L132.5 77.6415C132.468 77.5114 132.373 77.4463 132.246 77.4138L131.898 77.2837C131.866 77.2837 131.866 77.2187 131.898 77.1862L132.246 77.0561C132.373 77.0235 132.437 76.926 132.5 76.8284L132.627 76.4707C132.659 76.4056 132.722 76.4056 132.722 76.4707Z" fill="white"/>
<path opacity="0.47" d="M224.333 93.0277L224.582 93.7558C224.653 93.9742 224.831 94.1563 225.08 94.2291L225.792 94.4839C225.863 94.5203 225.863 94.6295 225.792 94.6659L225.08 94.9207C224.831 94.9935 224.653 95.1756 224.582 95.394L224.333 96.122C224.297 96.1949 224.19 96.1949 224.155 96.122L223.905 95.394C223.834 95.1756 223.656 94.9935 223.407 94.9207L222.695 94.6659C222.624 94.6295 222.624 94.5203 222.695 94.4839L223.407 94.2291C223.621 94.1563 223.834 93.9742 223.905 93.7558L224.155 93.0277C224.155 92.9549 224.297 92.9549 224.333 93.0277Z" fill="white"/>
<path opacity="0.47" d="M94.0613 43.3644L94.3105 43.9711C94.3817 44.1531 94.5597 44.3048 94.8088 44.3654L95.5207 44.5778C95.5919 44.6081 95.5919 44.6991 95.5207 44.7295L94.8088 44.9418C94.5953 45.0025 94.3817 45.1542 94.3105 45.3362L94.0613 45.9429C94.0258 46.0036 93.919 46.0036 93.8834 45.9429L93.6342 45.3362C93.563 45.1542 93.3851 45.0025 93.1359 44.9418L92.424 44.7295C92.3528 44.6991 92.3528 44.6081 92.424 44.5778L93.1359 44.3654C93.3495 44.3048 93.563 44.1531 93.6342 43.9711L93.8834 43.3644C93.919 43.3037 94.0258 43.3037 94.0613 43.3644Z" fill="white"/>
<path d="M172.898 13.4748C172.866 13.346 172.802 13.1851 172.737 13.0886C172.737 13.0886 172.737 13.0564 172.705 13.0564C172.673 13.0242 172.673 12.9921 172.641 12.9599C172.641 12.9599 172.641 12.9599 172.641 12.9277C172.512 12.7668 172.351 12.6702 172.19 12.6059L167.043 11.0612L165.627 9.67737C165.338 7.58558 163.375 5.94434 160.994 5.94434C158.614 5.94434 156.651 7.5534 156.362 9.67737H156.297L154.882 11.0612H154.85L149.702 12.6059C149.477 12.6702 149.284 12.8311 149.123 13.0564C149.091 13.1208 149.027 13.2173 149.027 13.2817C149.027 13.3139 148.994 13.346 148.994 13.3782V13.4104C148.994 13.4426 148.994 13.4748 148.962 13.4748V13.507C148.962 13.5391 148.962 13.5713 148.962 13.5713V13.6035C148.962 13.6357 148.962 13.6679 148.962 13.7C148.962 13.9897 149.059 14.2471 149.187 14.4402C149.22 14.4724 149.22 14.5046 149.252 14.5368C149.445 14.762 149.67 14.8908 149.959 14.8908H154.946L156.297 16.3067H157.681L158.453 17.8193H163.504L164.276 16.3067H165.659L167.011 14.8908H169.037H171.997C172.029 14.8908 172.062 14.8908 172.094 14.8908H172.126C172.158 14.8908 172.158 14.8908 172.19 14.8908H172.222C172.255 14.8908 172.255 14.8908 172.287 14.8586C172.319 14.8586 172.351 14.8264 172.351 14.8264C172.351 14.8264 172.383 14.8264 172.383 14.7942C172.416 14.7942 172.416 14.762 172.416 14.762C172.416 14.762 172.448 14.762 172.448 14.7298C172.48 14.7298 172.48 14.6977 172.48 14.6977L172.512 14.6655C172.544 14.6655 172.544 14.6333 172.576 14.6333L172.609 14.6011L172.641 14.5689L172.673 14.5368C172.673 14.5368 172.673 14.5046 172.705 14.5046C172.737 14.4402 172.769 14.408 172.802 14.3437V14.3115C172.802 14.2793 172.834 14.2793 172.834 14.2471V14.2149C172.898 14.054 172.93 13.8931 172.93 13.7C172.93 13.6679 172.93 13.5713 172.898 13.4748Z" fill="#2D2B2F"/>
<path d="M39.4107 102.829C39.3463 102.603 39.282 102.378 39.1533 102.153C39.1533 102.121 39.1211 102.121 39.1211 102.088C39.089 102.024 39.0568 101.992 39.0246 101.96C39.0246 101.96 39.0246 101.927 38.9924 101.927C38.7994 101.67 38.542 101.509 38.2203 101.413L29.7269 98.8703L27.3784 96.6176C26.8958 93.142 23.6464 90.4709 19.7214 90.4709C15.7964 90.4709 12.5792 93.142 12.0645 96.6176H12.0323L9.68377 98.8703H9.65159L1.19037 101.413C0.804303 101.541 0.482586 101.799 0.257382 102.153C0.193038 102.281 0.128692 102.41 0.0643479 102.539V102.571C0.0643479 102.603 0.0321739 102.668 0.0321739 102.7V102.732C0.0321739 102.764 0 102.829 0 102.861C0 102.893 0 102.893 0 102.925C0 102.957 0 103.022 0 103.054C0 103.086 0 103.086 0 103.118C0 103.183 0 103.247 0 103.311C0 103.794 0.12869 104.212 0.353894 104.534C0.386066 104.599 0.418234 104.631 0.450406 104.663C0.739954 105.017 1.15819 105.242 1.6086 105.242H9.81245L12.0002 107.559H14.2522L15.5069 110.037H23.8073L25.062 107.559H27.314L29.5017 105.242H32.8154H37.7056C37.7699 105.242 37.8021 105.242 37.8664 105.242H37.8986C37.9308 105.242 37.9629 105.242 37.9951 105.21H38.0273C38.0595 105.21 38.0916 105.178 38.156 105.178C38.156 105.178 38.156 105.178 38.1881 105.178C38.2203 105.146 38.2847 105.146 38.3168 105.113L38.349 105.081C38.3812 105.081 38.4133 105.049 38.4133 105.049C38.4455 105.049 38.4455 105.017 38.4777 105.017C38.5099 104.985 38.542 104.985 38.542 104.953C38.5742 104.953 38.5742 104.92 38.6064 104.888C38.6385 104.856 38.6707 104.824 38.7029 104.824C38.7351 104.792 38.7351 104.792 38.7672 104.759C38.7672 104.727 38.7994 104.727 38.7994 104.695C38.8316 104.663 38.8316 104.663 38.8638 104.631L38.8959 104.599C38.9603 104.502 39.0246 104.405 39.0568 104.309C39.0568 104.309 39.0568 104.277 39.089 104.277C39.089 104.245 39.1211 104.212 39.1211 104.18V104.148C39.2176 103.891 39.282 103.601 39.282 103.311C39.4428 103.15 39.4428 102.989 39.4107 102.829Z" fill="#16392B"/>
<path d="M39.0203 173.63L30.6991 164.638L42.6559 161.922L39.0203 173.63Z" fill="#FECA39"/>
<path d="M221.043 79.1964L208.986 81.5046L212.989 69.9257L221.043 79.1964Z" fill="#FECA39"/>
<path d="M144.51 260.336L147.905 270.936L137.021 268.577L144.51 260.336Z" stroke="#FECA39" stroke-width="2"/>
<path d="M178.994 229.439C177.396 231.107 177.454 233.755 179.123 235.353C180.792 236.951 183.44 236.894 185.037 235.225C186.635 233.557 186.577 230.909 184.908 229.311C183.239 227.713 180.591 227.77 178.994 229.439Z" stroke="#43BA84" stroke-width="2"/>
<path d="M224.033 93.0592C222.436 94.7276 222.494 97.3755 224.163 98.9734C225.831 100.571 228.479 100.514 230.077 98.8458C231.674 97.1774 231.616 94.5296 229.947 92.9316C228.279 91.3337 225.631 91.3908 224.033 93.0592Z" stroke="#43BA84" stroke-width="2"/>
<path d="M26.4545 158.881C23.9355 161.512 24.0267 165.687 26.6584 168.207C29.2901 170.727 33.4656 170.637 35.9847 168.006C38.5038 165.375 38.4125 161.199 35.7808 158.68C33.1491 156.16 28.9736 156.25 26.4545 158.881Z" stroke="#43BA84" stroke-width="2"/>
<g clip-path="url(#clip0_1_253)">
<path d="M38.1842 281.283L35.867 279.926C35.4962 279.692 35.1718 279.317 34.9401 278.943C34.7084 278.522 34.5693 278.101 34.5693 277.633V105.054C34.6157 104.586 34.7084 104.165 34.9401 103.744C35.1718 103.323 35.4962 102.995 35.867 102.761L141.948 40.9452C142.365 40.7581 142.829 40.6177 143.246 40.6177C143.709 40.6177 144.173 40.7113 144.543 40.9452L146.861 42.3023C147.231 42.5363 147.556 42.9106 147.787 43.285C148.019 43.7061 148.158 44.1273 148.158 44.5952V217.174C148.112 217.642 148.019 218.063 147.787 218.484C147.556 218.905 147.231 219.233 146.861 219.467L40.8258 281.283C40.4087 281.47 39.9452 281.61 39.5281 281.61C39.0647 281.61 38.6013 281.517 38.1842 281.283Z" fill="#37474F"/>
<path d="M148.157 44.3612C148.065 43.6593 147.508 43.4254 146.86 43.7997L40.8249 105.615C40.4541 105.849 40.1297 106.177 39.898 106.598L34.9392 103.744C35.1709 103.323 35.4953 102.995 35.8661 102.761L141.947 40.9452C142.364 40.7581 142.828 40.6177 143.245 40.6177C143.662 40.6177 144.172 40.7113 144.542 40.9452L146.86 42.3023C147.23 42.5363 147.508 42.8638 147.74 43.1914C147.972 43.5189 148.111 43.9401 148.157 44.3612Z" fill="#455A64"/>
<path d="M40.594 281.423C40.5477 281.423 40.5477 281.423 40.5014 281.423L40.3623 281.47H40.316C40.2233 281.47 40.1769 281.517 40.0843 281.517C39.5745 281.61 39.0183 281.563 38.5086 281.376C38.4159 281.329 38.3232 281.283 38.2305 281.236L35.867 279.879C35.4962 279.645 35.1718 279.27 34.9401 278.896C34.7084 278.475 34.5693 278.054 34.5693 277.586V105.054C34.5693 104.586 34.7084 104.118 34.9401 103.744L39.8989 106.598C39.6672 106.972 39.5281 107.44 39.5281 107.908V280.487C39.5281 280.721 39.5745 281.002 39.7135 281.189C39.8062 281.283 39.8989 281.376 40.0379 281.423C40.1769 281.47 40.316 281.47 40.455 281.423H40.594Z" fill="#263239"/>
<path d="M77.7625 98.1285C77.7161 97.9413 77.6698 97.8009 77.5307 97.6605L77.4381 97.5669C77.3917 97.5202 77.299 97.4734 77.2063 97.4734C77.1136 97.4734 77.021 97.4734 76.9283 97.5202C76.8819 97.5202 76.7892 97.567 76.7429 97.6137C76.4185 97.8477 76.1404 98.1753 76.0014 98.5028C75.816 98.924 75.677 99.3919 75.677 99.8599C75.6307 100.187 75.7697 100.562 75.9551 100.796C76.0477 100.889 76.1868 100.936 76.3258 100.936C76.4648 100.936 76.6039 100.889 76.6966 100.843C76.8356 100.749 76.9746 100.609 77.1136 100.468C77.2063 100.328 77.299 100.187 77.3917 100.047C77.6234 99.5791 77.7625 99.1112 77.7625 98.5964C77.8088 98.4561 77.8088 98.2689 77.7625 98.1285ZM95.0024 59.2421C94.6316 59.0081 94.1682 58.9146 93.7511 58.9146C92.9169 58.9613 92.0827 59.1953 91.3876 59.6633C89.3948 60.8799 87.8191 62.7517 86.9849 64.9979C86.8459 65.3254 86.7068 65.653 86.6141 65.9338C86.4751 66.2613 86.3824 66.5889 86.2897 66.9164C86.1971 67.244 86.058 67.5716 85.9653 67.8991C85.919 67.9927 85.919 68.1331 85.8726 68.2267L85.6873 68.8818C85.6873 68.9286 85.6873 68.9286 85.6873 68.9754C85.5946 69.3966 85.4555 69.8177 85.3629 70.2389C85.3165 70.4728 85.2702 70.7068 85.1775 70.894L84.9921 71.5491C84.7604 72.4382 84.5287 73.2805 84.2506 74.076L84.0652 74.544C83.9725 74.7779 83.9262 75.0119 83.8335 75.2459C83.7408 75.4799 83.6945 75.5735 83.6481 75.7606C83.5555 76.0414 83.4164 76.2754 83.2774 76.5561C83.1384 76.7901 83.1384 76.8837 83.0457 77.0241C81.1919 80.6273 78.9211 82.0311 77.6234 83.9029C76.4648 85.5407 76.1404 86.8042 74.6111 89.3779C74.1013 90.1734 73.4988 91.1561 72.711 92.2792C70.4865 95.4144 69.6523 96.9586 69.4206 97.8477C69.4206 97.8945 69.4206 97.8945 69.4206 97.9413C69.4206 98.0349 69.4206 98.0817 69.3742 98.1285V98.1753C69.3742 98.2221 69.3742 98.3157 69.3742 98.3625C69.3279 98.5496 69.3279 98.7368 69.3279 98.924V105.85L71.7841 107.3V100.375C71.7841 100 71.8304 99.6727 71.9231 99.2984C72.2012 98.3625 72.989 96.8182 75.2136 93.7298C76.0014 92.6067 76.6502 91.6708 77.1136 90.8285C78.643 88.2548 78.9674 86.9914 80.126 85.4003C81.4236 83.5285 83.6945 82.1247 85.5482 78.5215C85.8263 77.96 86.058 77.3984 86.2434 76.8369C87.4483 73.8888 87.9581 69.8645 89.4411 66.4953C90.2753 64.2959 91.851 62.4241 93.8438 61.2075C95.3268 60.3184 96.439 60.2716 97.2732 60.646L95.0024 59.2421ZM105.847 68.0863C105.661 67.9459 105.43 67.8991 105.198 67.8055C104.271 67.5716 102.881 68.1331 101.491 67.9459C103.437 70.5196 106.171 68.835 107.654 69.2094C107.886 69.2562 108.118 69.3498 108.303 69.4901L105.847 68.0863ZM111.084 77.5856C110.991 77.6324 110.945 77.6792 110.898 77.726L110.806 77.8196L110.713 77.9132C110.296 78.4279 110.064 79.1298 110.064 79.785C110.018 80.1125 110.157 80.4869 110.342 80.7209C110.389 80.7677 110.389 80.7677 110.435 80.8145C110.481 80.8613 110.574 80.908 110.667 80.908C110.759 80.908 110.852 80.908 110.898 80.8612C110.945 80.8612 111.037 80.8145 111.084 80.7677C111.176 80.7209 111.223 80.6741 111.315 80.6273C111.408 80.5337 111.501 80.3933 111.593 80.2997C111.964 79.785 112.15 79.1766 112.15 78.5683C112.103 77.726 111.64 77.2581 111.084 77.5856ZM112.706 71.3151C111.918 70.8472 111.037 70.5664 110.157 70.426C109.786 70.3324 109.415 70.2389 109.137 70.1453C110.11 71.0344 111.315 71.6427 112.613 71.8767C113.401 72.0171 114.142 72.2978 114.884 72.6254L112.706 71.3151Z" fill="#58B78B"/>
<path d="M115.068 72.7192L114.882 72.5788C114.141 72.2512 113.399 71.9705 112.612 71.8301C111.314 71.5961 110.109 70.9878 109.136 70.0987C108.904 69.8647 108.626 69.6775 108.348 69.4903C108.163 69.35 107.931 69.2564 107.699 69.2096C106.216 68.8352 103.482 70.473 101.535 67.9461L101.489 67.8525C100.145 65.9807 99.6353 61.816 97.5962 60.6462L97.4108 60.5058C96.5766 60.0846 95.4644 60.1782 93.9814 61.0673C88.5592 64.2493 88.3738 71.7365 86.4273 76.6967C84.4809 81.657 81.7003 83.2012 80.1709 85.3069C78.6879 87.4127 78.5489 89.0037 75.2121 93.6364C71.8754 98.2691 71.7363 99.4389 71.7363 100.328V107.254L116.18 81.2826V74.4506C116.226 74.0762 116.134 73.7487 115.948 73.4211C115.67 73.0935 115.392 72.8596 115.068 72.7192ZM76.7878 100.843C76.1853 101.17 75.7219 100.749 75.7219 99.8133C75.7219 99.3921 75.8146 98.971 76 98.5966C76.1853 98.2223 76.4634 97.8947 76.7878 97.6139C77.3903 97.2864 77.8074 97.7543 77.8074 98.6434C77.8074 99.0646 77.7147 99.4857 77.5293 99.8601C77.3903 100.234 77.1122 100.562 76.7878 100.843ZM93.8424 79.9723C93.5643 80.2063 93.2399 80.3467 92.9155 80.3935C92.5911 80.4403 92.2203 80.4403 91.8959 80.3467C91.5715 80.2531 91.2471 80.0659 91.0154 79.832C90.7837 79.598 90.5983 79.2704 90.4592 78.9429C90.0885 78.0538 89.9031 77.1179 89.9031 76.1352C89.9031 72.7192 91.6642 68.9288 93.8424 67.6654C94.1204 67.4782 94.4448 67.3378 94.8156 67.291C96.5303 66.9634 97.8279 68.6012 97.8279 71.5025C97.7816 74.9185 96.0205 78.7089 93.8424 79.9723ZM111.082 80.8614C110.48 81.189 110.016 80.7679 110.016 79.832C110.016 79.4108 110.109 78.9897 110.294 78.6153C110.48 78.2409 110.758 77.9134 111.082 77.6326C111.685 77.3051 112.148 77.773 112.148 78.6621C112.148 79.0832 112.055 79.5044 111.87 79.8788C111.685 80.2531 111.407 80.5807 111.082 80.8614Z" fill="#58B78B"/>
<path opacity="0.1" d="M115.068 72.7192L114.882 72.5788C114.141 72.2512 113.399 71.9705 112.612 71.8301C111.314 71.5961 110.109 70.9878 109.136 70.0987C108.904 69.8647 108.626 69.6775 108.348 69.4903C108.163 69.35 107.931 69.2564 107.699 69.2096C106.216 68.8352 103.482 70.473 101.535 67.9461L101.489 67.8525C100.145 65.9807 99.6353 61.816 97.5962 60.6462L97.4108 60.5058C96.5766 60.0846 95.4644 60.1782 93.9814 61.0673C88.5592 64.2493 88.3738 71.7365 86.4273 76.6967C84.4809 81.657 81.7003 83.2012 80.1709 85.3069C78.6879 87.4127 78.5489 89.0037 75.2121 93.6364C71.8754 98.2691 71.7363 99.4389 71.7363 100.328V107.254L116.18 81.2826V74.4506C116.226 74.0762 116.134 73.7487 115.948 73.4211C115.67 73.0935 115.392 72.8596 115.068 72.7192ZM76.7878 100.843C76.1853 101.17 75.7219 100.749 75.7219 99.8133C75.7219 99.3921 75.8146 98.971 76 98.5966C76.1853 98.2223 76.4634 97.8947 76.7878 97.6139C77.3903 97.2864 77.8074 97.7543 77.8074 98.6434C77.8074 99.0646 77.7147 99.4857 77.5293 99.8601C77.3903 100.234 77.1122 100.562 76.7878 100.843ZM93.8424 79.9723C93.5643 80.2063 93.2399 80.3467 92.9155 80.3935C92.5911 80.4403 92.2203 80.4403 91.8959 80.3467C91.5715 80.2531 91.2471 80.0659 91.0154 79.832C90.7837 79.598 90.5983 79.2704 90.4592 78.9429C90.0885 78.0538 89.9031 77.1179 89.9031 76.1352C89.9031 72.7192 91.6642 68.9288 93.8424 67.6654C94.1204 67.4782 94.4448 67.3378 94.8156 67.291C96.5303 66.9634 97.8279 68.6012 97.8279 71.5025C97.7816 74.9185 96.0205 78.7089 93.8424 79.9723ZM111.082 80.8614C110.48 81.189 110.016 80.7679 110.016 79.832C110.016 79.4108 110.109 78.9897 110.294 78.6153C110.48 78.2409 110.758 77.9134 111.082 77.6326C111.685 77.3051 112.148 77.773 112.148 78.6621C112.148 79.0832 112.055 79.5044 111.87 79.8788C111.685 80.2531 111.407 80.5807 111.082 80.8614Z" fill="#010202"/>
<path opacity="0.25" d="M71.7818 99.2985C71.6891 99.6261 71.6428 100 71.6428 100.375V107.3L69.1865 105.85V98.9242C69.1865 98.737 69.1865 98.5498 69.2329 98.3626C69.2329 98.3159 69.2329 98.2223 69.2329 98.1755V98.1287C69.2329 98.0819 69.2329 97.9883 69.2792 97.9415V97.8479L71.7818 99.2985Z" fill="#010202"/>
<path opacity="0.25" d="M80.0328 85.3536C78.8742 86.9447 78.5498 88.2549 77.0204 90.7818L74.5642 89.3312C76.0936 86.7575 76.418 85.494 77.5766 83.8562L80.0328 85.3536Z" fill="#010202"/>
<path opacity="0.25" d="M89.4394 66.402C87.9564 69.7712 87.4466 73.7019 86.2416 76.7436C86.0099 77.3519 85.7319 77.9135 85.4538 78.5218L82.9976 77.0712C83.0902 76.9308 83.1366 76.7436 83.2293 76.6032C83.322 76.4628 83.461 76.0885 83.6 75.8077C83.6464 75.6673 83.7391 75.4801 83.7854 75.293C83.8318 75.1058 83.9708 74.825 84.0171 74.591L84.2025 74.1231C84.4806 73.3276 84.7123 72.4853 84.944 71.5962L85.1294 70.9411C85.1757 70.7071 85.2221 70.5199 85.3148 70.2859C85.4538 69.8648 85.5465 69.4436 85.6392 69.0225C85.6392 68.9757 85.6392 68.9757 85.6392 68.9289L85.8245 68.2738C85.8709 68.1802 85.8709 68.0398 85.9172 67.9462C86.0099 67.6186 86.1026 67.2911 86.2416 66.9635C86.3343 66.6359 86.4734 66.3084 86.566 65.9808C86.7051 65.6533 86.7978 65.3257 86.9368 65.0449L89.4394 66.402Z" fill="#010202"/>
<path d="M76.0474 98.5029C75.862 98.9241 75.723 99.392 75.723 99.86C75.6767 100.188 75.8157 100.562 76.0011 100.796C75.7694 100.515 75.6767 100.188 75.723 99.86C75.723 99.3452 75.862 98.9241 76.0474 98.5029ZM77.8085 98.5965C77.8085 98.4561 77.8085 98.269 77.7621 98.1286C77.8085 98.269 77.8085 98.4561 77.8085 98.5965C77.8085 99.1113 77.6695 99.5792 77.4377 100.047C77.7158 99.5792 77.8085 99.1113 77.8085 98.5965ZM110.388 80.8613C110.435 80.9081 110.527 80.9549 110.62 80.9549C110.713 80.9549 110.805 80.9549 110.852 80.9081C110.759 80.9549 110.666 80.9549 110.62 80.9081C110.527 80.9549 110.481 80.9081 110.388 80.8613Z" fill="#58B78B"/>
<path d="M97.783 71.5025C97.783 74.9185 96.0219 78.7089 93.7974 79.9723C93.5194 80.1595 93.1949 80.2999 92.8705 80.3935C92.5461 80.4403 92.1754 80.4403 91.851 80.3467C91.5266 80.2531 91.2022 80.0659 90.9704 79.8319C90.7387 79.598 90.507 79.3172 90.4143 78.9428C90.7387 78.8492 91.0631 78.7557 91.3875 78.5685C93.612 77.305 95.3268 73.5146 95.3268 70.0986C95.3731 69.1627 95.1877 68.1801 94.7706 67.291C96.5317 66.9166 97.783 68.6012 97.783 71.5025Z" fill="#58B78B"/>
<path opacity="0.3" d="M97.783 71.5025C97.783 74.9185 96.0219 78.7089 93.7974 79.9723C93.5194 80.1595 93.1949 80.2999 92.8705 80.3935C92.5461 80.4403 92.1754 80.4403 91.851 80.3467C91.5266 80.2531 91.2022 80.0659 90.9704 79.8319C90.7387 79.598 90.507 79.3172 90.4143 78.9428C90.7387 78.8492 91.0631 78.7557 91.3875 78.5685C93.612 77.305 95.3268 73.5146 95.3268 70.0986C95.3731 69.1627 95.1877 68.1801 94.7706 67.291C96.5317 66.9166 97.783 68.6012 97.783 71.5025Z" fill="#010202"/>
<path d="M77.4377 100.047C77.345 100.188 77.2524 100.328 77.1597 100.469C77.067 100.609 76.9279 100.749 76.7426 100.843C76.6499 100.936 76.5109 100.936 76.3718 100.936C76.2328 100.936 76.0938 100.89 76.0011 100.796C75.7694 100.515 75.6767 100.188 75.723 99.8602C75.723 99.3922 75.8157 98.9243 76.0474 98.5031C76.1864 98.1288 76.4645 97.8012 76.7889 97.614C76.8353 97.5672 76.9279 97.5672 76.9743 97.5204C77.067 97.4737 77.206 97.4737 77.2987 97.5204C77.3914 97.5672 77.4841 97.614 77.5768 97.6608C77.7158 97.8012 77.7621 97.9884 77.8085 98.1288C77.8548 98.2692 77.8548 98.4563 77.8548 98.5967C77.8085 99.1115 77.6694 99.5794 77.4377 100.047Z" fill="#37474F"/>
<path d="M112.102 78.6152C112.102 79.2236 111.917 79.8319 111.546 80.3466C111.453 80.487 111.36 80.5806 111.268 80.6742C111.175 80.721 111.129 80.7678 111.036 80.8146C110.99 80.8614 110.897 80.8614 110.851 80.9082C110.758 80.955 110.665 80.955 110.526 80.9082C110.434 80.8614 110.341 80.8146 110.248 80.7678C110.016 80.487 109.924 80.1595 109.97 79.8319C109.97 79.13 110.202 78.4748 110.619 77.9601L110.712 77.8665L110.804 77.7729C110.851 77.7261 110.943 77.6793 110.99 77.6325C111.638 77.2582 112.102 77.7261 112.102 78.6152Z" fill="#37474F"/>
<path d="M47.7283 121.76L139.999 67.946C140.231 67.8056 140.509 67.7588 140.787 67.7588C141.065 67.7588 141.343 67.8056 141.575 67.946L142.455 68.4607C142.687 68.6011 142.872 68.8351 143.011 69.069C143.15 69.303 143.243 69.5838 143.243 69.8645V212.027C143.243 212.308 143.15 212.588 143.011 212.822C142.872 213.056 142.687 213.243 142.455 213.431L50.1845 267.244C49.9528 267.385 49.6747 267.432 49.3967 267.432C49.1186 267.432 48.8405 267.385 48.6088 267.244L47.7283 266.73C47.4966 266.589 47.3112 266.355 47.1721 266.121C47.0331 265.887 46.9404 265.607 46.9404 265.326V123.164C46.9404 122.883 47.0331 122.602 47.1721 122.368C47.3112 122.134 47.4966 121.947 47.7283 121.76Z" fill="#F5F4F5"/>
<path d="M143.198 69.6306C143.106 69.303 142.781 69.2094 142.457 69.3966L50.1398 123.21C49.9081 123.351 49.7227 123.585 49.5837 123.819L47.1274 122.368C47.2665 122.134 47.4518 121.9 47.6836 121.76L139.954 67.946C140.186 67.8056 140.464 67.7588 140.742 67.7588C141.02 67.7588 141.298 67.8056 141.53 67.946L142.41 68.4607C142.596 68.6011 142.781 68.7415 142.92 68.9755C143.059 69.2094 143.152 69.3966 143.198 69.6306Z" fill="#FBFBFB"/>
<path d="M50.0036 267.291C49.9109 267.338 49.8182 267.338 49.7255 267.385H49.5865C49.4474 267.385 49.2621 267.385 49.123 267.385C49.0303 267.385 48.9377 267.338 48.845 267.291L48.6596 267.198L47.7791 266.683C47.5473 266.543 47.362 266.309 47.2229 266.075C47.0839 265.841 46.9912 265.56 46.9912 265.279V123.164C46.9912 122.883 47.0839 122.602 47.2229 122.368L49.6792 123.819C49.5401 124.053 49.4474 124.334 49.4474 124.614V266.73C49.4011 267.151 49.6328 267.385 50.0036 267.291Z" fill="#E0E0E0"/>
<path d="M86.4738 89.1436L86.3347 89.3307C86.0567 89.7987 85.825 90.3602 85.6859 90.9218C85.6859 90.9685 85.6859 90.9685 85.6859 91.0153V91.0621L84.2029 99.6256L83.7395 102.34C83.7395 102.433 83.6931 102.574 83.6468 102.667C83.6005 102.761 83.6005 102.901 83.5541 102.995C83.5541 103.088 83.5078 103.135 83.4614 103.229L85.9176 104.679C86.0567 104.399 86.103 104.118 86.1957 103.79L86.6592 101.076L88.1421 92.5128C88.2348 91.8109 88.5129 91.1557 88.93 90.5942L86.4738 89.1436Z" fill="#58B78B"/>
<path d="M69.4655 116.753C69.2338 117.174 69.002 117.548 68.724 117.969C68.6313 118.157 68.5386 118.344 68.4459 118.531C68.3532 118.718 68.2142 119.046 68.1215 119.28C68.0288 119.514 67.8898 119.841 67.7971 120.122C67.7044 120.403 67.6117 120.684 67.519 120.964C67.4263 121.245 67.2873 121.619 67.241 121.947C67.1946 122.181 67.1019 122.368 67.0556 122.602C66.9166 123.117 66.7775 123.678 66.6848 124.193C66.6848 124.38 66.5922 124.568 66.5922 124.755C66.5458 124.942 66.4995 125.223 66.4531 125.457C66.4531 125.457 66.4531 125.457 66.4531 125.503C66.4531 125.691 66.4531 125.784 66.5458 125.831H66.5922H66.6385L68.7703 124.146L69.0947 123.866L69.2801 123.725L69.4655 123.585L69.6045 123.491L69.7435 123.398C70.346 121.152 71.4119 118.999 72.8022 117.127L70.346 115.677C69.9289 116.004 69.6972 116.378 69.4655 116.753Z" fill="#58B78B"/>
<path d="M96.1595 70.2856C96.0205 70.4728 95.9278 70.66 95.8351 70.8472C95.7887 70.9408 95.696 71.0812 95.6497 71.1747C95.557 71.3151 95.5107 71.5023 95.418 71.6427C95.3253 71.7831 95.279 71.9235 95.2326 72.017C95.0936 72.251 95.0009 72.5318 94.9082 72.7658C94.8155 72.9997 94.6765 73.3273 94.5838 73.6081C94.4911 73.842 94.3984 74.076 94.3057 74.3568C94.1667 74.7311 94.074 75.1055 93.9813 75.4798C93.935 75.667 93.8886 75.8542 93.8423 76.0882V76.135C93.8423 76.2286 93.796 76.3222 93.796 76.4157C93.7496 76.6497 93.7033 76.8837 93.6569 77.1177C93.6106 77.3516 93.5642 77.492 93.5179 77.6792C93.4716 77.8664 93.4252 78.0536 93.3789 78.2407C93.3325 78.4279 93.2398 78.6151 93.1935 78.8023C93.1935 78.8023 93.1935 78.8023 93.1935 78.8491C93.1008 79.0362 93.0545 79.2702 92.9618 79.4574C92.8691 79.6446 92.8227 79.8785 92.6837 80.0657C92.6374 80.1125 92.6374 80.1593 92.6374 80.2529C92.5447 80.3933 92.4983 80.5805 92.4056 80.7208L92.0349 81.4696C91.9422 81.6567 91.8495 81.7971 91.7568 81.9843L94.2131 83.4349C95.0936 81.9375 95.7424 80.2529 96.1595 78.5683C96.6229 76.135 97.5034 73.7952 98.7547 71.6895L96.1595 70.2856Z" fill="#58B78B"/>
<path d="M110.849 75.8543C110.71 75.7607 110.571 75.7139 110.432 75.7139C110.664 76.0882 110.988 76.4158 111.359 76.6497C111.73 76.8837 112.193 77.0709 112.61 77.1177C112.842 77.1177 113.027 77.1645 113.213 77.2581L110.849 75.8543Z" fill="#58B78B"/>
<path opacity="0.4" d="M110.849 75.8543C110.71 75.7607 110.571 75.7139 110.432 75.7139C110.664 76.0882 110.988 76.4158 111.359 76.6497C111.73 76.8837 112.193 77.0709 112.61 77.1177C112.842 77.1177 113.027 77.1645 113.213 77.2581L110.849 75.8543Z" fill="#F6F8F9"/>
<path d="M120.027 86.6633C119.656 86.4762 119.192 86.3826 118.775 86.3826C118.358 86.3826 117.941 86.523 117.524 86.7101C114.651 87.9736 113.399 88.5819 111.916 89.1903C111.638 91.1088 112.751 91.296 113.307 91.0621C115.392 90.2197 116.458 89.705 119.98 88.1608C120.351 87.9268 120.768 87.8332 121.185 87.8332C121.602 87.8332 122.019 87.9268 122.437 88.114L120.027 86.6633Z" fill="#58B78B"/>
<path opacity="0.4" d="M120.027 86.6633C119.656 86.4762 119.192 86.3826 118.775 86.3826C118.358 86.3826 117.941 86.523 117.524 86.7101C114.651 87.9736 113.399 88.5819 111.916 89.1903C111.638 91.1088 112.751 91.296 113.307 91.0621C115.392 90.2197 116.458 89.705 119.98 88.1608C120.351 87.9268 120.768 87.8332 121.185 87.8332C121.602 87.8332 122.019 87.9268 122.437 88.114L120.027 86.6633Z" fill="#F6F8F9"/>
<path d="M85.9193 104.633C85.4095 105.803 84.6217 106.879 83.6948 107.768L75.9553 113.617C74.7041 114.647 73.5918 115.77 72.6186 117.08L70.1624 115.629C71.1356 114.366 72.2478 113.196 73.4991 112.167L81.2386 106.317C82.1654 105.428 82.8606 104.352 83.4167 103.182L85.9193 104.633Z" fill="#58B78B"/>
<path opacity="0.4" d="M85.9193 104.633C85.4095 105.803 84.6217 106.879 83.6948 107.768L75.9553 113.617C74.7041 114.647 73.5918 115.77 72.6186 117.08L70.1624 115.629C71.1356 114.366 72.2478 113.196 73.4991 112.167L81.2386 106.317C82.1654 105.428 82.8606 104.352 83.4167 103.182L85.9193 104.633Z" fill="#F6F8F9"/>
<path d="M94.1209 83.5285C93.055 85.5407 91.7573 87.3657 90.228 89.0035C89.7645 89.4715 89.3011 89.9862 88.9304 90.5945L86.4741 89.1439C86.8449 88.5823 87.262 88.0208 87.7718 87.5529C89.3011 85.9151 90.5987 84.0433 91.6646 82.0779L94.1209 83.5285Z" fill="#58B78B"/>
<path opacity="0.4" d="M94.1209 83.5285C93.055 85.5407 91.7573 87.3657 90.228 89.0035C89.7645 89.4715 89.3011 89.9862 88.9304 90.5945L86.4741 89.1439C86.8449 88.5823 87.262 88.0208 87.7718 87.5529C89.3011 85.9151 90.5987 84.0433 91.6646 82.0779L94.1209 83.5285Z" fill="#F6F8F9"/>
<path d="M108.025 65.0912C107.098 64.6232 105.894 64.67 104.457 65.4655C102.325 66.5886 100.193 68.9751 98.5712 71.7828L96.115 70.2854C97.737 67.4777 99.8688 65.0912 102.001 63.9681C102.696 63.5938 103.484 63.3598 104.271 63.313C104.735 63.313 105.198 63.4066 105.615 63.6405L108.025 65.0912Z" fill="#58B78B"/>
<path opacity="0.4" d="M108.025 65.0912C107.098 64.6232 105.894 64.67 104.457 65.4655C102.325 66.5886 100.193 68.9751 98.5712 71.7828L96.115 70.2854C97.737 67.4777 99.8688 65.0912 102.001 63.9681C102.696 63.5938 103.484 63.3598 104.271 63.313C104.735 63.313 105.198 63.4066 105.615 63.6405L108.025 65.0912Z" fill="#F6F8F9"/>
<path opacity="0.15" d="M72.6625 117.08C71.2722 118.952 70.2527 121.105 69.6038 123.351L69.4648 123.444L69.3721 123.585L69.1868 123.725L69.0014 123.866L68.677 124.146L66.5915 125.831H66.5452H66.4988C66.4061 125.784 66.3598 125.644 66.4061 125.503C66.4061 125.503 66.4061 125.503 66.4061 125.457C66.4061 125.223 66.4988 124.989 66.5452 124.755C66.5915 124.521 66.6378 124.38 66.6378 124.193C66.7305 123.632 66.8696 123.117 67.0086 122.602C67.0549 122.368 67.1476 122.134 67.194 121.947C67.2867 121.619 67.3793 121.292 67.472 120.964C67.5647 120.637 67.6574 120.403 67.7501 120.122C67.8428 119.841 67.9818 119.56 68.0745 119.28C68.2135 118.999 68.3062 118.765 68.3989 118.531C68.5379 118.297 68.5843 118.157 68.677 117.969C68.9087 117.548 69.1404 117.174 69.4185 116.753C69.6965 116.332 69.8819 116.004 70.16 115.677L72.6625 117.08Z" fill="#010202"/>
<path opacity="0.15" d="M88.93 90.548C88.5129 91.1096 88.2812 91.7647 88.1421 92.4666L86.6592 101.03L86.1957 103.744C86.1494 104.072 86.0567 104.352 85.9176 104.633L83.4614 103.183C83.4614 103.089 83.5078 103.042 83.5541 102.949C83.6005 102.855 83.6468 102.715 83.6468 102.621C83.6468 102.481 83.6931 102.387 83.7395 102.293L84.2029 99.5794L85.6859 91.016V90.9692C85.6859 90.9692 85.6859 90.9224 85.6859 90.8756C85.825 90.3141 86.0103 89.7993 86.3347 89.2846L86.4738 89.0974L88.93 90.548Z" fill="#010202"/>
<path opacity="0.15" d="M98.6163 71.7361C97.3651 73.8419 96.4845 76.1816 96.0211 78.6149C95.6503 80.3463 95.0015 81.9841 94.0746 83.4816L91.6184 82.0309C91.7111 81.8437 91.8038 81.7034 91.8965 81.5162L92.2672 80.7675C92.3599 80.6271 92.4063 80.4399 92.4989 80.2995C92.4989 80.2527 92.5453 80.2059 92.5453 80.1124C92.638 79.9252 92.7307 79.6912 92.8234 79.504C92.916 79.3168 93.0087 79.0829 93.0551 78.8957V78.8489C93.1014 78.6617 93.1941 78.4745 93.2404 78.2874C93.2868 78.1002 93.3331 77.913 93.3795 77.7258C93.4258 77.5386 93.4722 77.3515 93.5185 77.1643C93.5649 76.9771 93.6112 76.6963 93.6575 76.4624C93.6575 76.3688 93.7039 76.2752 93.7039 76.1816V76.1348C93.7502 75.9476 93.7966 75.7605 93.8429 75.5265C93.9356 75.1521 94.0746 74.7778 94.1673 74.4034C94.26 74.1694 94.3064 73.8887 94.4454 73.6547C94.5381 73.3739 94.6771 73.0932 94.7698 72.8124C94.9088 72.5316 95.0015 72.2976 95.0942 72.0637C95.1405 71.9233 95.2332 71.7829 95.2796 71.6893C95.3259 71.5489 95.4186 71.3618 95.5113 71.2214C95.5576 71.1278 95.604 70.9874 95.6967 70.8938C95.7894 70.7066 95.8821 70.5195 96.0211 70.3323L98.6163 71.7361Z" fill="#010202"/>
<path d="M66.5474 125.831L68.6329 124.146C67.7987 124.801 66.6864 125.69 66.5474 125.831Z" fill="#58B78B"/>
<path d="M122.484 88.1143C122.114 87.9271 121.697 87.8335 121.233 87.8335C120.816 87.8335 120.399 87.9739 120.028 88.1611C116.506 89.7521 115.44 90.2669 113.355 91.0624C112.799 91.2963 111.686 91.1092 111.964 89.1906C111.964 89.1438 111.964 89.097 111.964 89.0502L112.428 86.3361L113.772 78.8958C113.772 78.8958 114.05 77.7259 113.308 77.258H113.262C113.077 77.1644 112.845 77.1176 112.66 77.1176C112.196 77.0708 111.779 76.8836 111.408 76.6496C111.037 76.4156 110.713 76.0881 110.481 75.6669C110.064 75.0586 109.786 74.3567 109.647 73.608C109.508 72.8593 109.508 72.1105 109.647 71.4086C110.203 68.2266 109.601 65.9804 108.164 65.1381L108.071 65.0445C107.145 64.5766 105.94 64.6234 104.503 65.4189C100.749 67.3843 96.9489 73.2804 96.0221 78.615C95.4196 81.9374 92.1292 87.0848 90.1827 89.0034C88.2363 90.922 88.1436 92.4662 88.1436 92.4662L86.6606 101.03L86.1972 103.744C85.8264 105.803 83.7873 107.768 83.7873 107.768L76.0015 113.571C72.8965 116.051 70.672 119.467 69.6524 123.304C69.6524 123.304 66.7327 125.55 66.5474 125.737L67.5206 125.176L120.909 94.1976C120.909 94.1976 121.511 93.8701 121.65 93.7765C121.789 93.6829 123.921 91.6239 123.921 91.6239C123.921 89.9393 123.411 88.6758 122.484 88.1143ZM107.098 72.3913C106.542 75.6669 104.225 79.2701 101.908 80.4868C100.332 81.3291 99.1271 80.8143 98.7564 79.3169C98.571 78.4746 98.571 77.6323 98.7564 76.79C99.3125 73.5144 101.676 69.9112 103.947 68.6945C104.179 68.5541 104.364 68.4606 104.596 68.4138C106.496 67.8522 107.562 69.49 107.098 72.3913Z" fill="#58B78B"/>
<path d="M66.5471 125.831L120.955 94.2446L121.696 93.8235C121.835 93.7299 123.967 91.6709 123.967 91.6709L69.6058 123.351C69.6521 123.398 66.3617 125.971 66.5471 125.831Z" fill="#58B78B"/>
<path opacity="0.3" d="M66.5471 125.831L120.955 94.2446L121.696 93.8235C121.835 93.7299 123.967 91.6709 123.967 91.6709L69.6058 123.351C69.6521 123.398 66.3617 125.971 66.5471 125.831Z" fill="#010202"/>
<path d="M104.64 68.4607C104.409 68.5543 104.177 68.6479 103.992 68.7415C101.674 69.9581 99.3573 73.5613 98.8011 76.837C98.6158 77.6793 98.6158 78.5216 98.8011 79.3639C99.1719 80.8613 100.377 81.376 101.953 80.5337C104.27 79.3171 106.587 75.6671 107.143 72.4383C107.56 69.4902 106.494 67.8524 104.64 68.4607ZM98.8938 79.2703C98.7085 78.4748 98.7085 77.6325 98.8938 76.837C99.45 73.6081 101.767 70.0517 104.038 68.8351C104.223 68.7415 104.409 68.6479 104.64 68.5543C104.779 69.3498 104.779 70.1453 104.64 70.9408C104.084 74.2165 101.767 77.8196 99.45 79.0363C99.2646 79.1767 99.0792 79.2703 98.8938 79.2703Z" fill="#58B78B"/>
<path opacity="0.4" d="M104.64 68.4607C104.409 68.5543 104.177 68.6479 103.992 68.7415C101.674 69.9581 99.3573 73.5613 98.8011 76.837C98.6158 77.6793 98.6158 78.5216 98.8011 79.3639C99.1719 80.8613 100.377 81.376 101.953 80.5337C104.27 79.3171 106.587 75.6671 107.143 72.4383C107.56 69.4902 106.494 67.8524 104.64 68.4607ZM98.8938 79.2703C98.7085 78.4748 98.7085 77.6325 98.8938 76.837C99.45 73.6081 101.767 70.0517 104.038 68.8351C104.223 68.7415 104.409 68.6479 104.64 68.5543C104.779 69.3498 104.779 70.1453 104.64 70.9408C104.084 74.2165 101.767 77.8196 99.45 79.0363C99.2646 79.1767 99.0792 79.2703 98.8938 79.2703Z" fill="#010202"/>
<path d="M61.7733 167.712C61.6343 167.712 61.5416 167.666 61.4489 167.619C61.3098 167.525 61.2172 167.432 61.1708 167.291C61.1245 167.151 61.0781 167.01 61.0781 166.87V163.688C61.0781 163.407 61.1708 163.126 61.3098 162.892C61.4489 162.658 61.6343 162.425 61.866 162.284L64.6003 160.693C64.693 160.6 64.832 160.553 64.971 160.553C65.1101 160.553 65.2491 160.6 65.3418 160.646C65.4808 160.693 65.5735 160.833 65.6198 160.927C65.6662 161.067 65.7125 161.161 65.7125 161.301V164.483C65.7125 164.764 65.6198 165.045 65.4808 165.279C65.3418 165.513 65.1564 165.747 64.9247 165.887L62.1904 167.478C62.0977 167.666 61.9587 167.712 61.7733 167.712ZM65.1101 161.255C65.0637 161.255 65.0174 161.301 64.971 161.301L62.2367 162.892C62.0977 162.986 62.005 163.126 61.9123 163.267C61.8196 163.407 61.7733 163.594 61.7733 163.735V166.917C61.7733 166.964 61.7733 167.01 61.7733 167.057C61.8196 167.057 61.866 167.057 61.9123 167.01L64.6466 165.419C64.7856 165.326 64.8783 165.185 64.971 165.045C65.0637 164.905 65.1101 164.717 65.1101 164.577V161.395C65.1101 161.348 65.1101 161.301 65.1101 161.255Z" fill="#455A64"/>
<path d="M68.122 160.272L78.9201 153.955C79.2908 153.767 79.5689 153.908 79.5689 154.329V155.171C79.5689 155.405 79.4762 155.592 79.3835 155.826C79.2908 156.014 79.1055 156.201 78.9201 156.294L68.122 162.612C67.7512 162.799 67.4731 162.658 67.4731 162.237V161.395C67.4731 161.161 67.5658 160.974 67.6585 160.74C67.7512 160.553 67.9366 160.366 68.122 160.272Z" fill="#E0E0E0"/>
<path d="M88.5592 152.129C88.4201 152.129 88.3275 152.083 88.2348 152.036C88.0957 151.942 88.0031 151.849 87.9567 151.708C87.9104 151.568 87.864 151.427 87.864 151.287V148.105C87.864 147.824 87.9567 147.543 88.0957 147.309C88.2348 147.075 88.4201 146.842 88.6982 146.701L91.4325 145.11C91.5252 145.017 91.6642 144.97 91.8033 144.97C91.9423 144.97 92.0813 145.017 92.2204 145.063C92.3594 145.157 92.4521 145.25 92.4984 145.344C92.5448 145.484 92.5911 145.625 92.5911 145.765V148.947C92.5911 149.228 92.4984 149.509 92.3594 149.743C92.2204 149.977 92.035 150.211 91.8033 150.351L89.069 151.942C88.8372 152.083 88.6982 152.129 88.5592 152.129ZM91.8496 145.672C91.8033 145.672 91.7569 145.718 91.7106 145.718L88.9763 147.309C88.8372 147.403 88.7446 147.543 88.6519 147.684C88.5592 147.824 88.5128 148.011 88.5128 148.152V151.334C88.5128 151.381 88.5128 151.427 88.5128 151.474C88.5592 151.474 88.6055 151.427 88.6519 151.427L91.3862 149.836C91.5252 149.743 91.6179 149.602 91.7106 149.462C91.8033 149.322 91.8496 149.134 91.8496 148.994V145.812C91.8496 145.765 91.8496 145.718 91.8496 145.672Z" fill="#455A64"/>
<path d="M94.8619 144.689L105.66 138.372C106.031 138.184 106.309 138.325 106.309 138.746V139.588C106.309 139.822 106.216 140.009 106.124 140.243C106.031 140.477 105.845 140.618 105.66 140.711L94.8619 147.029C94.4912 147.216 94.2131 147.075 94.2131 146.654V145.812C94.2131 145.578 94.3058 145.391 94.3985 145.157C94.5375 144.97 94.6766 144.782 94.8619 144.689Z" fill="#E0E0E0"/>
<path d="M115.298 136.547C115.159 136.547 115.066 136.5 114.974 136.453C114.835 136.36 114.742 136.266 114.696 136.126C114.649 135.985 114.603 135.845 114.603 135.705V132.523C114.603 132.242 114.696 131.961 114.835 131.727C114.974 131.493 115.159 131.259 115.391 131.119L118.125 129.528C118.218 129.434 118.357 129.387 118.496 129.387C118.635 129.387 118.774 129.434 118.913 129.481C119.052 129.528 119.145 129.668 119.191 129.762C119.237 129.902 119.284 130.043 119.284 130.183V133.365C119.284 133.646 119.191 133.927 119.052 134.16C118.913 134.394 118.728 134.628 118.45 134.769L115.715 136.36C115.623 136.453 115.437 136.547 115.298 136.547ZM115.715 131.727C115.576 131.821 115.484 131.961 115.391 132.102C115.298 132.242 115.252 132.429 115.252 132.569V135.752C115.252 135.798 115.252 135.845 115.252 135.892C115.298 135.892 115.345 135.892 115.391 135.845L118.125 134.254C118.264 134.16 118.357 134.02 118.45 133.88C118.542 133.739 118.589 133.552 118.589 133.412V130.23C118.589 130.183 118.589 130.136 118.589 130.089C118.589 130.089 118.542 130.089 118.45 130.136L115.715 131.727Z" fill="#455A64"/>
<path d="M121.601 129.059L132.399 122.742C132.77 122.555 133.048 122.695 133.048 123.116V123.959C133.048 124.193 132.955 124.38 132.863 124.614C132.77 124.801 132.585 124.988 132.399 125.082L121.601 131.399C121.23 131.586 120.952 131.446 120.952 131.025V130.182C120.952 129.948 121.045 129.761 121.138 129.527C121.277 129.387 121.416 129.2 121.601 129.059Z" fill="#E0E0E0"/>
<path d="M68.1221 144.642V145.906C68.1221 146.608 68.5855 146.842 69.188 146.514L132.355 109.733C132.679 109.546 132.911 109.265 133.096 108.938C133.282 108.61 133.374 108.236 133.421 107.908V106.645C133.421 105.99 132.957 105.709 132.355 106.037L69.188 142.817C68.8636 143.004 68.6319 143.285 68.4465 143.613C68.2611 143.94 68.1684 144.315 68.1221 144.642Z" fill="#E0E0E0"/>
<path d="M63.3494 134.956V136.22C63.3494 136.922 63.8128 137.156 64.4153 136.828L127.536 100.048C127.86 99.8604 128.092 99.5796 128.277 99.2521C128.463 98.9245 128.555 98.5501 128.602 98.2226V96.9123C128.602 96.2572 128.138 95.9764 127.536 96.304L64.4153 133.131C64.0909 133.319 63.8591 133.599 63.6738 133.927C63.4421 134.208 63.3494 134.582 63.3494 134.956Z" fill="#455A64"/>
<path d="M68.1221 152.224V153.487C68.1221 154.142 68.5855 154.423 69.188 154.095L132.355 117.315C132.679 117.128 132.911 116.847 133.096 116.519C133.282 116.192 133.374 115.817 133.421 115.49V114.226C133.421 113.571 132.957 113.29 132.355 113.618L69.188 150.399C68.8636 150.586 68.6319 150.867 68.4465 151.194C68.2611 151.475 68.1684 151.849 68.1221 152.224Z" fill="#E0E0E0"/>
<path d="M61.218 152.831C62.8863 151.194 63.3034 150.492 63.3034 149.883C63.3034 149.275 63.0717 148.947 62.3302 149.369C62.0058 149.556 61.7277 149.837 61.5424 150.117C61.3107 150.445 61.1716 150.772 61.1253 151.147L59.3179 151.568C59.4569 150.632 59.8277 149.696 60.3838 148.901C60.9399 148.105 61.6351 147.403 62.4229 146.888C64.2303 145.859 65.2962 146.608 65.2962 148.386C65.2035 150.071 64.462 151.708 63.2571 152.878V154.329L61.3107 155.452V152.831H61.218Z" fill="#455A64"/>
<path d="M61.2168 157.652C61.2168 157.277 61.3095 156.95 61.4949 156.622C61.6802 156.295 61.912 156.061 62.2364 155.874C62.8852 155.499 63.2096 155.827 63.2096 156.482C63.2096 156.856 63.1169 157.184 62.9779 157.511C62.7925 157.839 62.5608 158.073 62.2364 158.26C61.5412 158.681 61.2168 158.307 61.2168 157.652Z" fill="#455A64"/>
<path d="M62.2355 163.735L63.0234 164.343L62.2819 165.747C62.2355 165.84 62.1892 165.934 62.1892 166.028C62.1892 166.121 62.2355 166.215 62.2819 166.308C62.4209 166.402 62.6063 166.308 62.7453 166.074L63.4868 164.671L64.2746 165.279C64.4137 165.372 64.5527 165.279 64.6917 165.092C64.7381 164.998 64.7844 164.904 64.7844 164.858C64.7844 164.764 64.7381 164.671 64.6917 164.624L63.9039 164.015L64.6454 162.612C64.6917 162.518 64.7381 162.424 64.7381 162.331C64.7381 162.237 64.6917 162.144 64.6454 162.05C64.5064 161.956 64.321 162.05 64.1819 162.284L63.4404 163.688L62.6526 163.079C62.5136 162.986 62.3745 163.079 62.2355 163.267C62.1892 163.36 62.1428 163.454 62.1428 163.501C62.1428 163.594 62.1428 163.641 62.2355 163.735Z" fill="#58B78B"/>
<path d="M61.7733 195.883C61.6806 195.883 61.5416 195.836 61.4489 195.789C61.3098 195.696 61.2172 195.602 61.1708 195.462C61.1245 195.321 61.0781 195.181 61.0781 195.041V191.859C61.0781 191.578 61.1708 191.297 61.3098 191.063C61.4489 190.829 61.6343 190.595 61.866 190.455L64.6003 188.864C64.693 188.77 64.832 188.723 64.971 188.723C65.1101 188.723 65.2491 188.77 65.3418 188.817C65.4808 188.864 65.5735 189.004 65.6198 189.098C65.6662 189.238 65.7125 189.332 65.7125 189.472V192.654C65.7125 192.935 65.6198 193.216 65.4808 193.45C65.3418 193.684 65.1564 193.918 64.9247 194.058L62.1904 195.649C62.0977 195.836 61.9587 195.883 61.7733 195.883ZM65.1101 189.425C65.0637 189.425 65.0174 189.472 64.971 189.472L62.2367 191.063C62.0977 191.157 62.005 191.297 61.9123 191.437C61.8196 191.578 61.7733 191.765 61.7733 191.905V195.088C61.7733 195.134 61.7733 195.181 61.7733 195.228C61.8196 195.228 61.866 195.228 61.9123 195.181L64.6466 193.59C64.7856 193.496 64.8783 193.356 64.971 193.216C65.0637 193.075 65.1101 192.888 65.1101 192.748V189.566C65.1101 189.519 65.1101 189.472 65.1101 189.425Z" fill="#455A64"/>
<path d="M68.122 188.396L78.9201 182.125C79.2908 181.938 79.5689 182.078 79.5689 182.499V183.342C79.5689 183.576 79.4762 183.81 79.3835 183.997C79.2908 184.184 79.1055 184.371 78.9201 184.465L68.122 190.782C67.7512 190.969 67.4731 190.829 67.4731 190.408V189.565C67.4731 189.331 67.5658 189.097 67.6585 188.91C67.7512 188.723 67.9366 188.536 68.122 188.396Z" fill="#E0E0E0"/>
<path d="M88.5592 180.3C88.4665 180.3 88.3275 180.253 88.2348 180.206C88.0957 180.113 88.0031 180.019 87.9567 179.879C87.9104 179.738 87.864 179.598 87.864 179.458V176.276C87.864 175.995 87.9567 175.714 88.0957 175.48C88.2348 175.246 88.4201 175.012 88.6982 174.872L91.4325 173.281C91.5252 173.187 91.6642 173.14 91.8033 173.14C91.9423 173.14 92.0813 173.187 92.2204 173.234C92.3594 173.328 92.4521 173.421 92.4984 173.515C92.5448 173.655 92.5911 173.796 92.5911 173.936V177.118C92.5911 177.399 92.4984 177.679 92.3594 177.913C92.2204 178.147 92.035 178.381 91.8033 178.522L89.069 180.113C88.8372 180.206 88.6982 180.3 88.5592 180.3ZM91.8496 173.796C91.8033 173.796 91.7569 173.842 91.7106 173.842L88.9763 175.433C88.8372 175.527 88.7446 175.667 88.6519 175.808C88.5592 175.948 88.5128 176.135 88.5128 176.276V179.458C88.5128 179.504 88.5128 179.551 88.5128 179.598C88.5592 179.598 88.6055 179.598 88.6519 179.551L91.3862 177.96C91.5252 177.867 91.6179 177.726 91.7106 177.586C91.8033 177.445 91.8496 177.258 91.8496 177.118V173.936C91.8496 173.889 91.8496 173.842 91.8496 173.796Z" fill="#455A64"/>
<path d="M94.8619 172.813L105.66 166.542C106.031 166.355 106.309 166.495 106.309 166.916V167.759C106.309 167.993 106.216 168.227 106.124 168.414C106.031 168.601 105.845 168.788 105.66 168.882L94.8619 175.152C94.4912 175.339 94.2131 175.152 94.2131 174.778V173.936C94.2131 173.702 94.3058 173.514 94.3985 173.28C94.5375 173.093 94.6766 172.953 94.8619 172.813Z" fill="#E0E0E0"/>
<path d="M115.298 164.718C115.205 164.718 115.066 164.671 114.974 164.624C114.835 164.531 114.742 164.437 114.696 164.297C114.649 164.156 114.603 164.016 114.603 163.876V160.694C114.603 160.413 114.696 160.132 114.835 159.898C114.974 159.664 115.159 159.43 115.391 159.29L118.125 157.699C118.218 157.605 118.357 157.558 118.496 157.558C118.635 157.558 118.774 157.605 118.867 157.652C119.006 157.699 119.098 157.839 119.145 157.933C119.191 158.073 119.237 158.213 119.237 158.354V161.536C119.237 161.817 119.145 162.097 119.006 162.331C118.867 162.565 118.681 162.799 118.403 162.94L115.669 164.531C115.623 164.624 115.437 164.671 115.298 164.718ZM115.715 159.851C115.576 159.945 115.484 160.085 115.391 160.226C115.298 160.366 115.252 160.553 115.252 160.694V163.876C115.252 163.922 115.252 163.969 115.252 164.016C115.298 164.016 115.345 163.969 115.391 163.969L118.125 162.378C118.264 162.285 118.357 162.144 118.45 162.004C118.542 161.863 118.589 161.676 118.589 161.536V158.354C118.589 158.307 118.589 158.26 118.589 158.213C118.542 158.213 118.496 158.26 118.45 158.26L115.715 159.851Z" fill="#455A64"/>
<path d="M121.601 157.23L132.399 150.96C132.77 150.773 133.048 150.913 133.048 151.334V152.176C133.048 152.41 132.955 152.598 132.863 152.832C132.77 153.019 132.585 153.206 132.399 153.299L121.601 159.617C121.23 159.804 120.952 159.664 120.952 159.242V158.4C120.952 158.166 121.045 157.932 121.138 157.745C121.277 157.511 121.416 157.371 121.601 157.23Z" fill="#E0E0E0"/>
<path d="M68.1221 172.813V174.077C68.1221 174.732 68.5855 175.012 69.188 174.685L132.355 137.904C132.679 137.717 132.911 137.436 133.096 137.109C133.282 136.781 133.374 136.407 133.421 136.079V134.816C133.421 134.161 132.957 133.88 132.355 134.208L69.188 170.988C68.8636 171.175 68.6319 171.456 68.4465 171.784C68.2611 172.111 68.1684 172.439 68.1221 172.813Z" fill="#E0E0E0"/>
<path d="M68.1221 180.347V181.611C68.1221 182.266 68.5855 182.547 69.188 182.219L132.355 145.438C132.679 145.251 132.911 144.971 133.096 144.643C133.282 144.315 133.374 143.941 133.421 143.613V142.35C133.421 141.648 132.957 141.414 132.355 141.742L69.188 178.522C68.8636 178.709 68.6319 178.99 68.4465 179.318C68.2611 179.645 68.1684 179.973 68.1221 180.347Z" fill="#E0E0E0"/>
<path d="M61.218 181.002C62.8863 179.364 63.3034 178.662 63.3034 178.053C63.3034 177.445 63.0717 177.118 62.3302 177.539C62.0058 177.726 61.7277 178.007 61.5424 178.287C61.3107 178.615 61.1716 178.943 61.1253 179.317L59.3179 179.738C59.4569 178.802 59.8277 177.866 60.3838 177.071C60.9399 176.275 61.6351 175.573 62.4229 175.059C64.2303 173.982 65.2962 174.778 65.2962 176.556C65.2035 178.241 64.462 179.878 63.2571 181.048V182.499L61.3107 183.622V181.002H61.218Z" fill="#455A64"/>
<path d="M61.2168 185.822C61.2168 185.448 61.3095 185.12 61.4949 184.792C61.6802 184.465 61.912 184.231 62.2364 184.044C62.8852 183.669 63.2096 183.997 63.2096 184.652C63.2096 185.026 63.1169 185.354 62.9779 185.682C62.7925 186.009 62.5608 186.243 62.2364 186.43C61.5412 186.851 61.2168 186.477 61.2168 185.822Z" fill="#455A64"/>
<path d="M88.9761 176.275L89.764 176.883L89.0225 178.287C88.9761 178.381 88.9298 178.474 88.9298 178.568C88.9298 178.662 88.9761 178.755 89.0225 178.849C89.1615 178.942 89.3469 178.849 89.4859 178.615L90.2274 177.211L91.0153 177.819C91.1543 177.913 91.2933 177.819 91.386 177.632C91.4324 177.539 91.4787 177.445 91.4787 177.398C91.4787 177.351 91.4324 177.211 91.386 177.164L90.5982 176.556L91.3397 175.152C91.386 175.059 91.4324 174.965 91.4324 174.871C91.4324 174.778 91.386 174.684 91.2933 174.591C91.1543 174.497 90.9689 174.591 90.8299 174.825L90.0884 176.228L89.3005 175.62C89.2079 175.526 89.0225 175.62 88.9298 175.807C88.8835 175.901 88.8371 175.994 88.8835 176.088C88.8835 176.135 88.8835 176.182 88.9761 176.275Z" fill="#58B78B"/>
<path d="M61.7733 224.053C61.6343 224.053 61.5416 224.006 61.4489 223.96C61.3098 223.866 61.2172 223.772 61.1708 223.679C61.1245 223.538 61.0781 223.398 61.0781 223.258V220.076C61.0781 219.795 61.1708 219.514 61.3098 219.28C61.4489 219.046 61.6343 218.812 61.866 218.672L64.6003 217.081C64.693 216.987 64.832 216.94 64.971 216.94C65.1101 216.94 65.2491 216.987 65.3418 217.034C65.4808 217.081 65.5735 217.221 65.6198 217.315C65.6662 217.455 65.7125 217.596 65.7125 217.689V220.871C65.7125 221.152 65.6198 221.433 65.4808 221.667C65.3418 221.901 65.1564 222.135 64.9247 222.275L62.1904 223.866C62.0977 224.006 61.9587 224.053 61.7733 224.053ZM65.1101 217.549C65.0637 217.549 65.0174 217.596 64.971 217.596L62.2367 219.187C62.0977 219.28 62.005 219.421 61.9123 219.561C61.8196 219.701 61.7733 219.888 61.7733 220.029V223.211C61.7733 223.258 61.7733 223.304 61.7733 223.351C61.8196 223.351 61.866 223.304 61.9123 223.304L64.6466 221.713C64.7856 221.62 64.8783 221.479 64.971 221.339C65.0637 221.199 65.1101 221.012 65.1101 220.871V217.689C65.1101 217.642 65.1101 217.596 65.1101 217.549Z" fill="#455A64"/>
<path d="M68.122 216.566L78.9201 210.249C79.2908 210.062 79.5689 210.202 79.5689 210.623V211.465C79.5689 211.699 79.4762 211.933 79.3835 212.121C79.2908 212.308 79.1055 212.495 78.9201 212.589L68.122 218.906C67.7512 219.093 67.4731 218.953 67.4731 218.532V217.689C67.4731 217.455 67.5658 217.221 67.6585 217.034C67.7512 216.847 67.9366 216.707 68.122 216.566Z" fill="#E0E0E0"/>
<path d="M88.515 208.47C88.376 208.47 88.2833 208.423 88.1906 208.377C88.0515 208.33 87.9589 208.189 87.9125 208.096C87.8662 207.956 87.8198 207.815 87.8198 207.675V204.493C87.8198 204.212 87.9125 203.931 88.0515 203.697C88.1906 203.463 88.376 203.229 88.654 203.089L91.3883 201.498C91.481 201.404 91.62 201.357 91.7591 201.357C91.8981 201.357 92.0371 201.357 92.1761 201.451C92.3152 201.545 92.4079 201.638 92.4542 201.779C92.5006 201.919 92.5469 202.059 92.5469 202.2V205.382C92.5469 205.663 92.4542 205.943 92.3152 206.177C92.1761 206.411 91.9908 206.645 91.7591 206.786L89.0248 208.377C88.8394 208.423 88.7004 208.47 88.515 208.47ZM91.8517 201.966C91.8054 201.966 91.7591 202.013 91.7127 202.013L88.9784 203.604C88.8394 203.697 88.7467 203.838 88.654 203.978C88.5613 204.118 88.515 204.305 88.515 204.446V207.628C88.515 207.675 88.515 207.722 88.515 207.768C88.5613 207.768 88.6077 207.722 88.654 207.722L91.4346 206.131C91.5737 206.037 91.6664 205.897 91.7591 205.756C91.8517 205.616 91.8981 205.429 91.8981 205.288V202.106C91.8981 202.059 91.8517 202.013 91.8517 201.966Z" fill="#455A64"/>
<path d="M94.8619 200.983L105.66 194.666C106.031 194.479 106.309 194.619 106.309 195.04V195.882C106.309 196.116 106.216 196.35 106.124 196.538C106.031 196.725 105.845 196.912 105.66 197.006L94.8619 203.323C94.4912 203.51 94.2131 203.37 94.2131 202.948V202.106C94.2131 201.872 94.3058 201.685 94.3985 201.451C94.5375 201.264 94.6766 201.123 94.8619 200.983Z" fill="#E0E0E0"/>
<path d="M115.298 192.841C115.159 192.841 115.066 192.794 114.974 192.747C114.835 192.653 114.742 192.56 114.696 192.466C114.649 192.326 114.603 192.185 114.603 192.045V188.863C114.603 188.582 114.696 188.302 114.835 188.068C114.974 187.834 115.159 187.6 115.391 187.459L118.125 185.868C118.218 185.775 118.357 185.728 118.496 185.728C118.635 185.728 118.774 185.728 118.913 185.821C119.052 185.868 119.145 186.009 119.191 186.102C119.237 186.243 119.284 186.383 119.284 186.523V189.705C119.284 189.986 119.191 190.267 119.052 190.501C118.913 190.735 118.728 190.969 118.45 191.109L115.715 192.7C115.623 192.794 115.437 192.841 115.298 192.841ZM115.715 188.021C115.576 188.114 115.484 188.255 115.391 188.395C115.298 188.535 115.252 188.723 115.252 188.863V192.045C115.252 192.092 115.252 192.139 115.252 192.185C115.298 192.185 115.345 192.139 115.391 192.139L118.125 190.548C118.264 190.454 118.357 190.314 118.45 190.173C118.542 190.033 118.589 189.846 118.589 189.705V186.477C118.589 186.43 118.589 186.383 118.589 186.336C118.542 186.336 118.496 186.383 118.45 186.383L115.715 188.021Z" fill="#455A64"/>
<path d="M121.601 185.4L132.399 179.083C132.77 178.896 133.048 179.083 133.048 179.458V180.3C133.048 180.534 132.955 180.721 132.863 180.955C132.77 181.142 132.585 181.329 132.399 181.423L121.601 187.74C121.23 187.927 120.952 187.787 120.952 187.366V186.477C120.952 186.243 121.045 186.056 121.138 185.868C121.277 185.681 121.416 185.494 121.601 185.4Z" fill="#E0E0E0"/>
<path d="M68.1221 200.984V202.247C68.1221 202.902 68.5855 203.183 69.188 202.855L132.355 166.075C132.679 165.888 132.911 165.607 133.096 165.279C133.282 164.952 133.374 164.624 133.421 164.25V162.986C133.421 162.331 132.957 162.05 132.355 162.378L69.188 199.159C68.8636 199.346 68.6319 199.627 68.4465 199.954C68.2611 200.235 68.1684 200.609 68.1221 200.984Z" fill="#E0E0E0"/>
<path d="M68.1221 208.517V209.78C68.1221 210.436 68.5855 210.716 69.188 210.389L132.355 173.608C132.679 173.421 132.911 173.14 133.096 172.813C133.282 172.485 133.374 172.111 133.421 171.783V170.52C133.421 169.818 132.957 169.584 132.355 169.911L69.188 206.692C68.8636 206.879 68.6319 207.16 68.4465 207.488C68.2611 207.815 68.1684 208.143 68.1221 208.517Z" fill="#E0E0E0"/>
<path d="M61.218 209.172C62.8863 207.534 63.3034 206.832 63.3034 206.224C63.3034 205.615 63.0717 205.288 62.3302 205.709C62.0058 205.896 61.7277 206.177 61.5424 206.458C61.3107 206.785 61.1716 207.113 61.1253 207.487L59.3179 207.908C59.4569 206.972 59.8277 206.036 60.3838 205.241C60.8936 204.445 61.6351 203.744 62.4229 203.229C64.2303 202.199 65.2962 202.948 65.2962 204.726C65.2035 206.411 64.462 208.049 63.2571 209.219V210.669L61.3107 211.792V209.172H61.218Z" fill="#455A64"/>
<path d="M61.2168 213.992C61.2168 213.618 61.3095 213.29 61.4949 212.963C61.6802 212.635 61.912 212.401 62.2364 212.214C62.8852 211.84 63.2096 212.167 63.2096 212.869C63.2096 213.244 63.1169 213.571 62.9779 213.899C62.7925 214.226 62.5608 214.46 62.2364 214.647C61.5412 214.975 61.2168 214.694 61.2168 213.992Z" fill="#455A64"/>
<path d="M115.716 188.817L116.504 189.426L115.763 190.829C115.716 190.923 115.67 191.017 115.67 191.11C115.67 191.204 115.716 191.344 115.763 191.391C115.902 191.484 116.087 191.391 116.226 191.157L116.968 189.753L117.756 190.361C117.895 190.455 118.034 190.361 118.126 190.174C118.173 190.081 118.219 189.987 118.219 189.94C118.219 189.847 118.173 189.753 118.126 189.706L117.338 189.098L118.08 187.694C118.126 187.6 118.173 187.507 118.173 187.413C118.173 187.32 118.126 187.226 118.08 187.133C117.941 187.039 117.756 187.133 117.617 187.367L116.875 188.77L116.087 188.162C115.948 188.068 115.809 188.162 115.716 188.349C115.67 188.443 115.624 188.536 115.67 188.63C115.624 188.677 115.67 188.77 115.716 188.817Z" fill="#58B78B"/>
<path d="M61.7733 252.224C61.6343 252.224 61.5416 252.177 61.4489 252.13C61.3098 252.036 61.2172 251.943 61.1708 251.849C61.1245 251.709 61.0781 251.568 61.0781 251.428V248.246C61.0781 247.965 61.1708 247.685 61.3098 247.451C61.4489 247.217 61.6343 246.983 61.866 246.842L64.6003 245.251C64.7393 245.158 64.832 245.111 64.971 245.111C65.11 245.111 65.2491 245.111 65.3881 245.204C65.5271 245.298 65.6198 245.392 65.6662 245.532C65.7125 245.672 65.7589 245.813 65.7589 245.953V249.135C65.7589 249.416 65.6662 249.697 65.5271 249.931C65.3881 250.165 65.2027 250.399 64.971 250.539L62.2367 252.13C62.0977 252.177 61.9587 252.224 61.7733 252.224ZM65.11 245.719C65.0637 245.719 65.0174 245.719 64.971 245.766L62.2367 247.357C62.0977 247.451 62.005 247.591 61.9123 247.731C61.8196 247.872 61.7733 248.059 61.7733 248.199V251.381C61.7733 251.428 61.7733 251.475 61.7733 251.522C61.8196 251.522 61.866 251.475 61.9123 251.475L64.6466 249.884C64.7856 249.79 64.8783 249.65 64.971 249.51C65.0637 249.369 65.11 249.182 65.11 249.042V245.86C65.11 245.813 65.11 245.766 65.11 245.719Z" fill="#455A64"/>
<path d="M68.122 244.736L78.9201 238.419C79.2908 238.232 79.5689 238.372 79.5689 238.794V239.636C79.5689 239.87 79.4762 240.104 79.3835 240.291C79.2908 240.478 79.1055 240.665 78.9201 240.759L68.122 247.076C67.7512 247.263 67.4731 247.076 67.4731 246.702V245.86C67.4731 245.626 67.5658 245.392 67.6585 245.204C67.7512 245.017 67.9366 244.877 68.122 244.736Z" fill="#E0E0E0"/>
<path d="M88.5118 236.594C88.3727 236.594 88.28 236.547 88.1874 236.5C88.0483 236.406 87.9556 236.313 87.9093 236.173C87.8629 236.032 87.8166 235.892 87.8629 235.751V232.569C87.8629 232.289 87.9556 232.008 88.0947 231.774C88.2337 231.54 88.4191 231.306 88.6971 231.165L91.4314 229.574C91.5241 229.481 91.6631 229.434 91.8022 229.434C91.9412 229.434 92.0802 229.481 92.1729 229.528C92.3119 229.574 92.4046 229.715 92.451 229.808C92.4973 229.949 92.5437 230.089 92.5437 230.23V233.412C92.5437 233.692 92.451 233.973 92.3119 234.207C92.1729 234.441 91.9875 234.675 91.7558 234.815L89.0215 236.406C88.8362 236.547 88.6971 236.594 88.5118 236.594ZM91.8485 230.136C91.8022 230.136 91.7558 230.183 91.7095 230.183L88.9752 231.774C88.8362 231.867 88.7435 232.008 88.6508 232.148C88.5581 232.289 88.5118 232.476 88.5118 232.616V235.798C88.5118 235.845 88.5118 235.892 88.5118 235.939C88.5581 235.939 88.6044 235.892 88.6508 235.892L91.3851 234.301C91.5241 234.207 91.6168 234.067 91.7095 233.926C91.8022 233.786 91.8485 233.599 91.8485 233.458V230.23C91.8485 230.23 91.8485 230.183 91.8485 230.136Z" fill="#455A64"/>
<path d="M94.8619 229.154L105.66 222.837C106.031 222.649 106.309 222.837 106.309 223.211V224.053C106.309 224.287 106.216 224.521 106.124 224.708C106.031 224.896 105.845 225.083 105.66 225.176L94.8619 231.494C94.4912 231.681 94.2131 231.54 94.2131 231.119V230.23C94.2131 229.996 94.3058 229.809 94.3985 229.622C94.5375 229.435 94.6766 229.247 94.8619 229.154Z" fill="#E0E0E0"/>
<path d="M115.298 221.011C115.159 221.011 115.066 220.965 114.974 220.918C114.835 220.824 114.742 220.731 114.696 220.637C114.649 220.497 114.603 220.356 114.603 220.216V217.034C114.603 216.753 114.696 216.472 114.835 216.238C114.974 216.004 115.159 215.77 115.391 215.63L118.125 214.039C118.264 213.945 118.357 213.899 118.496 213.899C118.635 213.899 118.774 213.899 118.913 213.992C119.052 214.086 119.145 214.179 119.191 214.32C119.237 214.46 119.284 214.601 119.284 214.741V217.923C119.284 218.204 119.191 218.485 119.052 218.719C118.913 218.952 118.728 219.186 118.45 219.327L115.715 220.918C115.576 221.011 115.437 221.011 115.298 221.011ZM115.715 216.192C115.576 216.285 115.484 216.426 115.391 216.566C115.298 216.706 115.252 216.894 115.252 217.034V220.216C115.252 220.263 115.252 220.31 115.252 220.356C115.298 220.356 115.345 220.31 115.391 220.31L118.125 218.719C118.264 218.625 118.357 218.485 118.45 218.344C118.542 218.204 118.589 218.017 118.589 217.876V214.694C118.589 214.647 118.589 214.601 118.589 214.554C118.542 214.554 118.496 214.601 118.45 214.601L115.715 216.192Z" fill="#455A64"/>
<path d="M121.601 213.571L132.399 207.253C132.77 207.066 133.048 207.207 133.048 207.628V208.47C133.048 208.704 132.955 208.938 132.863 209.125C132.77 209.312 132.585 209.5 132.399 209.593L121.601 215.91C121.23 216.098 120.952 215.91 120.952 215.536V214.694C120.952 214.46 121.045 214.273 121.138 214.039C121.277 213.851 121.416 213.664 121.601 213.571Z" fill="#E0E0E0"/>
<path d="M68.1221 229.153V230.417C68.1221 231.072 68.5855 231.353 69.188 231.025L132.355 194.244C132.679 194.057 132.911 193.776 133.096 193.449C133.282 193.121 133.374 192.794 133.421 192.419V191.156C133.421 190.454 132.957 190.22 132.355 190.548L69.188 227.328C68.8636 227.515 68.6319 227.796 68.4465 228.124C68.2611 228.404 68.1684 228.779 68.1221 229.153Z" fill="#E0E0E0"/>
<path d="M68.1221 236.687V237.951C68.1221 238.606 68.5855 238.887 69.188 238.559L132.355 201.778C132.679 201.591 132.911 201.31 133.096 200.983C133.282 200.655 133.374 200.328 133.421 199.953V198.69C133.421 197.988 132.957 197.754 132.355 198.082L69.188 234.862C68.8636 235.049 68.6319 235.33 68.4465 235.658C68.2611 235.938 68.1684 236.313 68.1221 236.687Z" fill="#E0E0E0"/>
<path d="M61.218 237.343C62.8863 235.705 63.3034 235.003 63.3034 234.395C63.3034 233.786 63.0717 233.459 62.3302 233.88C62.0058 234.067 61.7277 234.301 61.5424 234.629C61.3107 234.956 61.1716 235.284 61.1253 235.658L59.3179 236.079C59.4569 235.143 59.8277 234.208 60.3838 233.412C60.8936 232.617 61.6351 231.915 62.4229 231.4C64.2303 230.324 65.2962 231.119 65.2962 232.897C65.2035 234.582 64.462 236.22 63.2571 237.39V238.84L61.3107 239.963V237.343H61.218Z" fill="#455A64"/>
<path d="M61.2168 242.116C61.2168 241.741 61.3095 241.414 61.4949 241.086C61.6802 240.759 61.912 240.525 62.2364 240.338C62.8852 239.963 63.2096 240.291 63.2096 240.993C63.2096 241.367 63.1169 241.695 62.9779 242.022C62.7925 242.35 62.5608 242.584 62.2364 242.771C61.5412 243.145 61.2168 242.864 61.2168 242.116Z" fill="#455A64"/>
<path d="M115.716 217.127L116.504 217.736L115.763 219.139C115.716 219.233 115.67 219.327 115.67 219.42C115.67 219.514 115.716 219.654 115.763 219.701C115.902 219.795 116.087 219.701 116.226 219.467L116.968 218.063L117.756 218.671C117.895 218.765 118.034 218.671 118.126 218.484C118.173 218.391 118.219 218.344 118.219 218.25C118.219 218.157 118.173 218.063 118.126 218.016L117.338 217.408L118.08 216.004C118.126 215.911 118.173 215.817 118.173 215.723C118.173 215.63 118.126 215.536 118.08 215.443C117.941 215.349 117.756 215.443 117.617 215.677L116.875 217.08L116.087 216.472C115.948 216.379 115.809 216.472 115.716 216.659C115.67 216.753 115.624 216.846 115.67 216.94C115.624 216.94 115.67 217.034 115.716 217.127Z" fill="#58B78B"/>
<path d="M187.271 97.1459L181.895 94.0107L181.849 93.9639C179.161 92.4196 175.5 92.6536 171.422 95.0402C167.621 97.2863 164.146 100.983 161.504 105.241C158.492 110.202 156.592 115.911 156.592 121.011C156.592 125.784 158.26 129.153 160.902 130.698L166.37 133.88C169.058 135.611 172.905 135.471 177.122 132.991C185.325 128.218 191.998 116.566 191.998 107.02C191.952 102.059 190.145 98.5965 187.271 97.1459Z" fill="#58B78B"/>
<path opacity="0.1" d="M166.185 133.833L160.809 130.744C158.121 129.153 156.499 125.831 156.499 121.058C156.499 115.957 158.399 110.248 161.412 105.288L167.158 108.61C164.146 113.524 162.246 119.233 162.246 124.38C162.2 128.919 163.729 132.195 166.185 133.833Z" fill="#010202"/>
<path opacity="0.4" d="M187.132 97.0524C184.49 95.7422 180.968 96.0697 177.075 98.3627C173.182 100.609 169.799 104.306 167.158 108.611L161.411 105.288C164.052 100.983 167.528 97.2864 171.328 95.087C175.407 92.7005 179.068 92.4665 181.756 94.0107L181.802 94.0575L187.132 97.0524Z" fill="#F6F8F9"/>
<path d="M173.785 111.231C173.785 111.793 173.692 112.401 173.414 112.916C173.182 113.43 172.812 113.898 172.348 114.273C171.56 114.741 170.958 114.132 170.958 112.916C170.958 112.354 171.051 111.746 171.329 111.231C171.56 110.716 171.931 110.248 172.395 109.874C173.182 109.406 173.785 110.014 173.785 111.231Z" fill="#455A64"/>
<path d="M181.803 106.551C181.803 107.113 181.711 107.721 181.433 108.236C181.201 108.751 180.83 109.219 180.367 109.593C179.579 110.061 178.976 109.453 178.976 108.236C178.976 107.675 179.069 107.066 179.347 106.551C179.579 106.037 179.95 105.569 180.413 105.194C181.201 104.726 181.803 105.335 181.803 106.551Z" fill="#455A64"/>
<path d="M169.013 129.294C168.967 129.294 168.921 129.294 168.828 129.294C168.735 129.294 168.643 129.247 168.55 129.154C168.457 129.107 168.365 129.013 168.318 128.92C168.272 128.826 168.226 128.732 168.179 128.639C168.179 128.545 168.179 128.405 168.179 128.311C169.477 122.181 172.721 116.8 176.475 114.6C177.216 114.086 178.097 113.758 179.024 113.665C179.951 113.571 180.877 113.665 181.712 113.992C183.473 114.741 184.863 116.519 185.558 119.046C185.604 119.233 185.558 119.467 185.465 119.607C185.373 119.795 185.187 119.888 185.002 119.982C184.817 120.029 184.585 120.029 184.4 119.935C184.214 119.841 184.075 119.701 184.029 119.514C183.473 117.502 182.453 116.051 181.155 115.536C180.507 115.349 179.858 115.256 179.209 115.349C178.56 115.443 177.911 115.677 177.355 116.051C174.019 117.97 171.006 123.07 169.848 128.639C169.801 128.826 169.709 128.966 169.57 129.107C169.384 129.247 169.199 129.294 169.013 129.294Z" fill="#455A64"/>
<path d="M187.225 49.696L181.849 46.5608H181.803C179.115 45.0166 175.454 45.2505 171.375 47.6371C167.575 49.8832 164.053 53.58 161.458 57.8383C158.446 62.7986 156.545 68.5075 156.545 73.6081C156.545 78.3812 158.214 81.7504 160.855 83.2946L166.324 86.4767C169.012 88.2081 172.858 88.0677 177.076 85.5876C185.279 80.8145 191.952 69.1626 191.952 59.6165C191.952 54.6095 190.145 51.1467 187.225 49.696Z" fill="#58B78B"/>
<path opacity="0.1" d="M166.185 86.3834L160.809 83.2949C158.121 81.7039 156.499 78.3815 156.499 73.6084C156.499 68.5078 158.399 62.7989 161.412 57.8386L167.158 61.161C164.146 66.0745 162.246 71.7834 162.246 76.9309C162.2 81.4699 163.729 84.7456 166.185 86.3834Z" fill="#010202"/>
<path opacity="0.4" d="M187.132 49.6025C184.49 48.2922 180.968 48.6198 177.075 50.9127C173.182 53.1588 169.799 56.8556 167.158 61.1607L161.411 57.8383C164.052 53.5332 167.528 49.8364 171.328 47.6371C175.407 45.2505 179.068 45.0166 181.756 46.5608H181.802L187.132 49.6025Z" fill="#F6F8F9"/>
<path d="M173.693 79.504C172.998 79.504 172.303 79.3636 171.654 79.0829C169.754 78.2874 168.271 76.3688 167.529 73.6079C167.483 73.3739 167.529 73.1399 167.622 72.9528C167.715 72.7656 167.9 72.6252 168.132 72.5316C168.363 72.4848 168.595 72.4848 168.78 72.6252C168.966 72.7188 169.151 72.906 169.198 73.1399C169.8 75.3861 170.912 76.8367 172.303 77.445C172.998 77.679 173.739 77.7258 174.434 77.6322C175.13 77.5386 175.825 77.2579 176.427 76.8367C179.996 74.731 183.286 69.3028 184.491 63.2195C184.537 62.9855 184.676 62.7983 184.862 62.6579C185.047 62.5175 185.279 62.4708 185.511 62.5175C185.603 62.5643 185.742 62.5643 185.835 62.6579C185.928 62.7047 186.02 62.7983 186.067 62.8919C186.113 62.9855 186.159 63.0791 186.206 63.2195C186.206 63.3131 186.206 63.4534 186.206 63.547C184.815 70.1451 181.293 75.9476 177.261 78.3341C176.242 79.0829 174.991 79.4572 173.693 79.504Z" fill="#455A64"/>
<path d="M173.554 64.811C173.554 65.4194 173.415 66.0745 173.183 66.636C172.905 67.1976 172.534 67.7123 172.024 68.0867C171.19 68.5546 170.495 67.8995 170.495 66.5892C170.495 65.9809 170.634 65.3258 170.866 64.7642C171.144 64.2027 171.515 63.688 172.024 63.3136C172.859 62.8457 173.554 63.5008 173.554 64.811Z" fill="#455A64"/>
<path d="M182.222 59.7568C182.222 60.3652 182.083 60.9735 181.852 61.5818C181.574 62.1434 181.203 62.6581 180.693 63.0325C179.859 63.5004 179.164 62.8453 179.164 61.535C179.164 60.9267 179.303 60.3184 179.534 59.71C179.812 59.1485 180.183 58.6338 180.693 58.2594C181.527 57.7915 182.222 58.4466 182.222 59.7568Z" fill="#455A64"/>
<path d="M198.301 183.201L159.373 205.897C159.002 206.084 158.538 206.224 158.121 206.224C157.704 206.224 157.241 206.131 156.87 205.897L154.784 204.68C154.414 204.446 154.089 204.119 153.904 203.744C153.672 203.37 153.58 202.902 153.533 202.481V157.09C153.533 156.622 153.672 156.201 153.904 155.827C154.136 155.452 154.414 155.125 154.784 154.891L193.713 132.195C194.084 132.008 194.548 131.868 194.965 131.868C195.382 131.868 195.845 131.961 196.216 132.195L198.301 133.412C198.672 133.646 198.997 133.973 199.182 134.348C199.414 134.722 199.506 135.19 199.553 135.611V181.002C199.553 181.423 199.414 181.891 199.182 182.266C198.95 182.64 198.672 182.967 198.301 183.201Z" fill="#455A64"/>
<path d="M159.143 205.99C158.772 206.131 158.355 206.224 157.984 206.177C157.567 206.177 157.196 206.037 156.826 205.897L154.74 204.68C154.369 204.446 154.045 204.119 153.86 203.744C153.628 203.37 153.535 202.902 153.489 202.481V157.09C153.489 156.622 153.628 156.201 153.86 155.826L158.448 158.541C158.216 158.915 158.077 159.336 158.077 159.804V205.195C158.123 205.897 158.54 206.224 159.143 205.99Z" fill="#263239"/>
<path d="M198.301 183.201L159.373 205.896C158.677 206.317 158.121 205.99 158.121 205.148V159.804C158.121 159.336 158.26 158.915 158.492 158.54C158.724 158.166 159.002 157.838 159.373 157.604L198.301 134.909C198.997 134.488 199.553 134.815 199.553 135.658V181.048C199.506 181.47 199.414 181.891 199.182 182.312C198.95 182.639 198.672 182.967 198.301 183.201Z" fill="#37474F"/>
<path fill-rule="evenodd" clip-rule="evenodd" d="M177.772 171.877L167.205 186.992C171.886 191.765 180.877 188.162 187.272 178.99C191.119 173.468 193.204 167.525 193.204 162.004L180.413 169.444C179.394 170.099 178.467 170.941 177.772 171.877Z" fill="#58B78B"/>
<path opacity="0.3" fill-rule="evenodd" clip-rule="evenodd" d="M177.772 171.877L167.205 186.992C171.886 191.765 180.877 188.162 187.272 178.99C191.119 173.468 193.204 167.525 193.204 162.004L180.413 169.444C179.394 170.099 178.467 170.941 177.772 171.877Z" fill="#010202"/>
<path d="M166.648 186.618L177.214 171.503C178.002 170.473 178.975 169.584 180.041 168.882L192.832 161.442C192.925 161.395 193.064 161.348 193.157 161.348C193.249 161.348 193.388 161.395 193.481 161.442C193.574 161.489 193.666 161.582 193.713 161.676C193.759 161.77 193.805 161.91 193.805 162.004C193.805 167.712 191.72 173.749 187.781 179.411C183.517 185.494 178.048 189.378 173.182 189.8C172.024 189.94 170.819 189.8 169.707 189.425C168.594 189.051 167.575 188.396 166.741 187.553C166.648 187.46 166.555 187.319 166.555 187.179C166.555 187.039 166.555 186.898 166.648 186.758C166.602 186.664 166.648 186.664 166.648 186.618ZM192.508 163.173L180.736 170.052C179.81 170.661 178.975 171.409 178.327 172.298L168.085 186.898C168.78 187.46 169.568 187.881 170.448 188.162C171.329 188.396 172.209 188.489 173.09 188.396C177.539 188.021 182.776 184.278 186.715 178.616C187.41 177.68 188.012 176.697 188.568 175.714C190.839 171.924 192.183 167.619 192.508 163.173Z" fill="#F6F8F9"/>
<path fill-rule="evenodd" clip-rule="evenodd" d="M178.236 168.648L174.389 157.043C166.835 164.296 162.711 176.182 165.167 183.529C165.584 184.839 166.279 186.056 167.206 186.992L177.773 171.877C178.051 171.409 178.282 170.847 178.375 170.286C178.421 169.771 178.375 169.21 178.236 168.648Z" fill="#58B78B"/>
<path d="M173.923 156.575C174.016 156.481 174.108 156.435 174.201 156.388C174.294 156.341 174.433 156.341 174.525 156.388C174.618 156.435 174.711 156.481 174.803 156.528C174.896 156.622 174.942 156.715 174.989 156.809L178.835 168.414C179.021 169.069 179.067 169.724 178.974 170.379C178.882 171.035 178.65 171.69 178.279 172.251L167.713 187.366C167.666 187.46 167.574 187.506 167.481 187.553C167.388 187.6 167.296 187.647 167.203 187.647C167.11 187.647 167.018 187.647 166.925 187.6C166.832 187.553 166.74 187.506 166.693 187.46C165.674 186.43 164.932 185.167 164.469 183.763C162.708 178.381 164.283 170.754 168.084 164.062C169.706 161.348 171.652 158.774 173.923 156.575ZM177.213 171.503C177.445 171.128 177.63 170.66 177.677 170.192C177.723 169.724 177.723 169.256 177.584 168.835L174.062 158.26C167.157 165.372 163.449 176.416 165.766 183.342C166.044 184.278 166.508 185.167 167.11 185.962L177.213 171.503Z" fill="#F6F8F9"/>
<path fill-rule="evenodd" clip-rule="evenodd" d="M179.856 168.882L190.423 153.767C186.669 149.977 180.412 151.241 174.341 157.043L178.188 168.648C178.559 169.631 179.3 169.724 179.856 168.882Z" fill="#58B78B"/>
<path opacity="0.1" fill-rule="evenodd" clip-rule="evenodd" d="M179.856 168.882L190.423 153.767C186.669 149.977 180.412 151.241 174.341 157.043L178.188 168.648C178.559 169.631 179.3 169.724 179.856 168.882Z" fill="#010202"/>
<path d="M173.925 156.575C180.228 150.492 186.901 149.228 190.933 153.299C191.026 153.393 191.118 153.533 191.118 153.72C191.118 153.861 191.072 154.048 190.979 154.142L180.413 169.256C180.274 169.537 180.042 169.818 179.764 169.958C179.486 170.099 179.162 170.192 178.837 170.145C178.513 170.099 178.235 169.958 178.003 169.724C177.771 169.49 177.632 169.21 177.586 168.882L173.739 157.277C173.693 157.183 173.693 157.09 173.693 156.996C173.693 156.903 173.739 156.809 173.786 156.715C173.832 156.669 173.878 156.622 173.925 156.575ZM189.589 153.861C186.16 150.913 180.598 152.176 175.13 157.23L178.837 168.414C178.884 168.554 178.93 168.648 179.023 168.742C179.162 168.695 179.254 168.601 179.301 168.461L189.589 153.861Z" fill="#F6F8F9"/>
<path fill-rule="evenodd" clip-rule="evenodd" d="M180.413 169.444L193.204 162.05C193.204 158.354 192.324 155.733 190.47 153.814L179.904 168.929C179.301 169.725 179.533 169.959 180.413 169.444Z" fill="#58B78B"/>
<path opacity="0.2" fill-rule="evenodd" clip-rule="evenodd" d="M180.413 169.444L193.204 162.05C193.204 158.354 192.324 155.733 190.47 153.814L179.904 168.929C179.301 169.725 179.533 169.959 180.413 169.444Z" fill="#010202"/>
<path d="M179.348 168.508L189.914 153.393C189.96 153.299 190.053 153.253 190.146 153.206C190.239 153.159 190.331 153.112 190.424 153.112C190.517 153.112 190.609 153.112 190.702 153.159C190.795 153.206 190.887 153.253 190.934 153.299C192.926 155.358 193.853 158.119 193.853 162.003C193.853 162.144 193.807 162.237 193.761 162.331C193.714 162.424 193.622 162.518 193.529 162.565L180.738 170.005C180.46 170.146 179.626 170.66 179.116 170.099C178.977 169.912 178.884 169.678 178.884 169.444C178.884 169.21 178.977 168.976 179.116 168.789L179.348 168.508ZM190.517 154.844L181.109 168.321L192.556 161.629C192.463 158.681 191.814 156.482 190.517 154.844Z" fill="#F6F8F9"/>
<path d="M279.915 114.928C279.219 114.6 278.478 114.413 277.736 114.46C276.995 114.46 276.253 114.647 275.558 115.022L208.638 154.048C207.989 154.469 207.479 155.078 207.062 155.733C206.691 156.435 206.46 157.183 206.413 157.979V177.258C206.367 178.007 206.552 178.803 206.923 179.458C207.294 180.113 207.85 180.674 208.499 181.096C209.148 181.47 209.935 181.657 210.677 181.657C211.418 181.657 212.206 181.423 212.855 181.002L279.776 141.975C280.424 141.554 280.934 140.946 281.351 140.291C281.722 139.589 281.954 138.84 282 138.091V118.812C281.954 118.063 281.768 117.314 281.398 116.659C281.073 115.957 280.563 115.396 279.915 114.928Z" fill="#263239"/>
<path d="M282 118.391C281.814 117.268 280.887 116.846 279.775 117.501L251.876 133.739L212.855 156.481C212.206 156.903 211.65 157.464 211.279 158.166L207.062 155.733C207.432 155.031 207.988 154.469 208.637 154.048L275.604 115.021C276.207 114.647 276.948 114.413 277.643 114.366C278.385 114.319 279.08 114.507 279.729 114.834C280.378 115.162 280.934 115.676 281.304 116.285C281.721 116.94 281.953 117.642 282 118.391Z" fill="#455A64"/>
<path d="M210.629 160.413V179.692C210.629 181.143 211.649 181.704 212.854 181.002L279.774 141.976C280.423 141.554 280.933 140.946 281.35 140.291C281.721 139.589 281.953 138.84 281.999 138.092V118.812C281.999 117.362 280.979 116.8 279.774 117.502L251.875 133.787L212.854 156.529C212.205 156.95 211.649 157.558 211.278 158.213C210.907 158.868 210.676 159.617 210.629 160.413Z" fill="#37474F"/>
<path d="M222.03 157.558L223.142 159.897C223.142 159.944 223.189 159.944 223.189 159.991C223.235 160.038 223.235 160.038 223.281 160.038C223.328 160.038 223.328 160.038 223.374 160.038C223.42 160.038 223.467 160.038 223.467 159.991L225.923 159.055C226.294 158.915 226.479 159.476 226.201 159.991L224.44 163.36C224.347 163.547 224.301 163.781 224.301 164.015L224.718 167.057C224.764 167.525 224.394 168.18 224.023 168.133L221.798 167.852C221.706 167.852 221.613 167.899 221.567 167.946C221.474 167.993 221.428 168.04 221.381 168.133L219.157 170.941C218.832 171.409 218.415 171.222 218.462 170.66L218.879 167.151C218.879 167.057 218.879 166.963 218.879 166.87C218.832 166.776 218.832 166.729 218.74 166.636L216.979 165.326C216.701 165.138 216.84 164.39 217.257 164.109L219.713 162.19C219.898 162.05 219.991 161.863 220.084 161.629L221.196 158.026C221.381 157.511 221.845 157.23 222.03 157.558Z" fill="#58B78B"/>
<path d="M234.405 150.445L235.517 152.785C235.517 152.832 235.563 152.832 235.563 152.878C235.61 152.925 235.61 152.925 235.656 152.925C235.702 152.925 235.702 152.925 235.749 152.925C235.795 152.925 235.841 152.925 235.841 152.878L238.297 151.943C238.668 151.802 238.854 152.364 238.576 152.878L236.814 156.248C236.722 156.435 236.675 156.669 236.675 156.903L237.093 159.945C237.139 160.412 236.768 161.068 236.397 161.021L234.173 160.74C234.08 160.74 233.988 160.787 233.941 160.787C233.848 160.834 233.802 160.88 233.756 160.974L231.531 163.782C231.207 164.25 230.79 164.062 230.836 163.501L231.253 159.991C231.253 159.898 231.253 159.804 231.253 159.711C231.207 159.617 231.207 159.57 231.114 159.477L229.353 158.166C229.075 157.979 229.214 157.23 229.631 156.95L232.087 155.031C232.273 154.891 232.365 154.703 232.458 154.47L233.57 150.866C233.709 150.352 234.219 150.071 234.405 150.445Z" fill="#58B78B"/>
<path d="M246.778 143.286L247.89 145.625C247.89 145.672 247.937 145.672 247.937 145.719C247.983 145.766 247.983 145.766 248.029 145.766C248.076 145.766 248.076 145.766 248.122 145.766C248.168 145.766 248.215 145.766 248.215 145.719L250.671 144.783C251.042 144.643 251.227 145.204 250.949 145.719L249.188 149.088C249.095 149.275 249.049 149.509 249.049 149.743L249.466 152.785C249.512 153.253 249.141 153.908 248.771 153.861L246.546 153.581C246.454 153.581 246.361 153.627 246.314 153.674C246.222 153.721 246.175 153.768 246.129 153.861L243.905 156.669C243.58 157.137 243.163 156.95 243.209 156.388L243.627 152.879C243.627 152.785 243.627 152.691 243.627 152.598C243.627 152.504 243.58 152.457 243.488 152.364L241.726 151.054C241.448 150.866 241.587 150.118 242.005 149.837L244.461 147.918C244.646 147.778 244.739 147.591 244.831 147.357L245.944 143.754C246.083 143.192 246.593 142.911 246.778 143.286Z" fill="#58B78B"/>
<path d="M259.15 136.126L260.263 138.466C260.263 138.512 260.309 138.512 260.309 138.559C260.355 138.606 260.355 138.606 260.402 138.606C260.448 138.606 260.448 138.606 260.494 138.606C260.541 138.606 260.587 138.606 260.587 138.559L263.043 137.623C263.414 137.483 263.599 138.045 263.321 138.559L261.56 141.929C261.467 142.116 261.421 142.35 261.421 142.584L261.838 145.625C261.885 146.093 261.514 146.748 261.143 146.702L258.919 146.421C258.826 146.421 258.733 146.468 258.687 146.514C258.594 146.561 258.548 146.608 258.501 146.702L256.277 149.509C255.953 149.977 255.535 149.79 255.582 149.228L255.999 145.719C255.999 145.625 255.999 145.532 255.999 145.438C255.953 145.345 255.953 145.298 255.86 145.204L254.099 143.894C253.821 143.707 253.96 142.958 254.377 142.63L256.833 140.712C257.018 140.571 257.111 140.384 257.204 140.15L258.316 136.547C258.455 136.079 258.965 135.752 259.15 136.126Z" fill="#58B78B"/>
<path d="M271.524 128.966L272.636 131.306C272.636 131.353 272.682 131.353 272.682 131.399C272.729 131.446 272.729 131.446 272.775 131.446C272.821 131.446 272.821 131.446 272.868 131.446C272.914 131.446 272.96 131.446 272.96 131.399L275.417 130.464C275.787 130.323 275.973 130.885 275.695 131.399L273.934 134.769C273.841 134.956 273.795 135.19 273.795 135.424L274.212 138.465C274.258 138.933 273.887 139.589 273.517 139.542L271.292 139.261C271.199 139.261 271.107 139.308 271.06 139.355C270.968 139.401 270.921 139.448 270.875 139.542L268.65 142.349C268.326 142.817 267.909 142.63 267.955 142.069L268.372 138.559C268.372 138.465 268.372 138.372 268.372 138.278C268.326 138.185 268.326 138.138 268.233 138.044L266.472 136.781C266.194 136.594 266.333 135.845 266.75 135.564L269.207 133.646C269.392 133.505 269.485 133.318 269.577 133.084L270.69 129.481C270.829 128.873 271.292 128.592 271.524 128.966Z" fill="#58B78B"/>
<path d="M220.176 145.25L216.515 143.098C216.423 143.051 216.376 143.004 216.33 142.957L215.635 141.788L217.859 140.524L217.813 140.711L220.176 145.25Z" fill="#58B78B"/>
<path opacity="0.2" d="M220.176 145.25L216.515 143.098C216.423 143.051 216.376 143.004 216.33 142.957L215.635 141.788L217.859 140.524L217.813 140.711L220.176 145.25Z" fill="#010202"/>
<path d="M217.49 140.665L220.038 145.11C220.085 145.157 220.131 145.204 220.177 145.251C220.224 145.298 220.316 145.298 220.409 145.298C220.502 145.298 220.548 145.251 220.595 145.204C220.641 145.157 220.687 145.11 220.734 145.017L223.422 137.202L217.49 140.665Z" fill="#58B78B"/>
<path d="M281.582 78.7091C281.536 78.1007 281.351 77.4924 281.073 76.9309C280.748 76.4161 280.331 75.9482 279.821 75.6206C279.265 75.3398 278.663 75.1995 278.06 75.1995C277.458 75.1995 276.855 75.3398 276.299 75.6206L208.266 115.256C207.757 115.583 207.34 116.051 207.015 116.613C206.691 117.174 206.552 117.736 206.505 118.391V140.993C206.552 141.601 206.737 142.209 207.015 142.771C207.34 143.332 207.757 143.754 208.266 144.128C208.823 144.409 209.425 144.549 210.028 144.549C210.63 144.549 211.232 144.409 211.789 144.128L280.007 104.353C281.582 103.417 281.629 102.528 281.629 101.404L281.582 78.7091Z" fill="#58B78B"/>
<path opacity="0.2" d="M206.457 140.946C206.504 141.554 206.689 142.162 206.967 142.724C207.292 143.285 207.709 143.706 208.219 144.081C208.728 144.315 209.284 144.502 209.841 144.502C210.397 144.549 210.953 144.455 211.463 144.221C210.628 144.549 209.98 144.034 209.98 143.051V120.449C209.98 119.841 210.165 119.233 210.489 118.671L206.921 116.612C206.596 117.127 206.411 117.735 206.411 118.39V140.946H206.457Z" fill="#010202"/>
<path opacity="0.4" d="M281.49 78.1943C281.305 77.4456 280.609 77.2116 279.775 77.6796L211.742 117.315C211.233 117.642 210.769 118.11 210.491 118.672L206.969 116.613C207.247 116.051 207.711 115.63 208.22 115.256L276.253 75.6206C276.809 75.3398 277.412 75.1995 278.014 75.1995C278.617 75.1995 279.219 75.3398 279.775 75.6206C280.239 75.9014 280.609 76.2757 280.887 76.7437C281.212 77.1648 281.397 77.6796 281.49 78.1943Z" fill="#F6F8F9"/>
<path d="M214.753 120.777L275.834 85.0725C276.437 84.7449 276.9 84.8853 276.9 85.4468C276.854 85.7744 276.715 86.102 276.529 86.3827C276.344 86.6635 276.112 86.8975 275.788 87.0378L214.707 122.695C214.104 123.023 213.641 122.883 213.641 122.368C213.687 122.04 213.826 121.713 214.012 121.432C214.243 121.198 214.475 120.964 214.753 120.777Z" fill="#F6F8F9"/>
<path d="M214.753 130.885L267.168 100.328C267.771 100 268.234 100.141 268.234 100.655C268.188 100.983 268.049 101.311 267.863 101.591C267.678 101.872 267.446 102.106 267.122 102.246L214.707 132.803C214.104 133.131 213.641 132.991 213.641 132.429C213.687 132.101 213.826 131.774 214.012 131.493C214.243 131.306 214.475 131.072 214.753 130.885Z" fill="#F6F8F9"/>
<path d="M214.754 135.799L274.631 100.843C275.233 100.515 275.697 100.656 275.697 101.217C275.65 101.545 275.511 101.872 275.326 102.153C275.14 102.434 274.909 102.668 274.631 102.808L214.754 137.717C214.152 138.045 213.688 137.904 213.688 137.39C213.735 137.062 213.874 136.734 214.059 136.454C214.245 136.173 214.476 135.939 214.754 135.799Z" fill="#F6F8F9"/>
<path d="M214.753 125.69L274.629 90.7348C275.232 90.4073 275.695 90.5476 275.695 91.1092C275.649 91.4367 275.51 91.7643 275.325 92.0451C275.139 92.3258 274.907 92.5598 274.583 92.7002L214.707 127.656C214.104 127.983 213.641 127.843 213.641 127.281C213.687 126.954 213.78 126.626 213.965 126.346C214.243 126.112 214.475 125.878 214.753 125.69Z" fill="#F6F8F9"/>
<path d="M279.915 39.8222C279.219 39.4947 278.478 39.3075 277.736 39.3543C276.995 39.3543 276.253 39.5415 275.558 39.9158L208.638 78.9426C207.989 79.3637 207.479 79.9721 207.062 80.6272C206.691 81.3291 206.46 82.0778 206.413 82.8265V102.106C206.367 102.855 206.552 103.65 206.923 104.305C207.294 104.96 207.85 105.522 208.499 105.943C209.148 106.317 209.935 106.505 210.677 106.505C211.418 106.505 212.206 106.271 212.855 105.85L279.776 66.8228C280.424 66.4016 280.934 65.7933 281.351 65.1382C281.722 64.4362 281.954 63.6875 282 62.9388V43.6594C281.954 42.9107 281.768 42.162 281.398 41.5068C281.073 40.8049 280.563 40.2434 279.915 39.8222Z" fill="#263239"/>
<path d="M282 43.2378C281.814 42.1148 280.887 41.6936 279.775 42.3487L251.876 58.5865L212.855 81.3287C212.206 81.7498 211.65 82.3114 211.279 83.0133L207.062 80.58C207.432 79.8781 207.988 79.3165 208.637 78.8954L275.604 39.9154C276.207 39.5411 276.948 39.3071 277.643 39.2603C278.385 39.2135 279.08 39.4007 279.729 39.7282C280.378 40.0558 280.934 40.5705 281.304 41.1789C281.721 41.7872 281.953 42.5359 282 43.2378Z" fill="#455A64"/>
<path d="M210.629 85.3066V104.586C210.629 106.037 211.649 106.598 212.854 105.896L279.774 66.8695C280.423 66.4484 280.933 65.8401 281.35 65.1849C281.721 64.483 281.953 63.7343 281.999 62.9856V43.6594C281.999 42.2087 280.979 41.6472 279.774 42.3491L251.875 58.5869L212.854 81.3291C212.205 81.7502 211.649 82.3586 211.278 83.0137C210.907 83.7624 210.676 84.5111 210.629 85.3066Z" fill="#37474F"/>
<path d="M222.03 82.4519L223.142 84.7916C223.142 84.8384 223.189 84.8384 223.189 84.8852C223.235 84.932 223.235 84.932 223.281 84.932C223.328 84.932 223.328 84.932 223.374 84.932C223.42 84.932 223.467 84.932 223.467 84.8852L225.923 83.9493C226.294 83.8089 226.479 84.3705 226.201 84.8852L224.44 88.2544C224.347 88.4416 224.301 88.6756 224.301 88.9096L224.718 91.9512C224.764 92.4192 224.394 93.0743 224.023 93.0275L221.798 92.7467C221.706 92.7467 221.613 92.7935 221.567 92.8403C221.474 92.8871 221.428 92.9339 221.381 93.0275L219.157 95.8352C218.832 96.3031 218.415 96.116 218.462 95.5544L218.879 92.0448C218.879 91.9512 218.879 91.8576 218.879 91.764C218.832 91.6705 218.832 91.6237 218.74 91.5301L216.979 90.2198C216.701 90.0326 216.84 89.2839 217.257 88.9564L219.713 87.0378C219.898 86.8974 219.991 86.7102 220.084 86.4762L221.196 82.873C221.381 82.4051 221.845 82.0775 222.03 82.4519Z" fill="#58B78B"/>
<path d="M234.405 75.3392L235.517 77.6789C235.517 77.7257 235.563 77.7257 235.563 77.7725C235.61 77.8193 235.61 77.8193 235.656 77.8193C235.702 77.8193 235.702 77.8193 235.749 77.8193C235.795 77.8193 235.841 77.8193 235.841 77.7725L238.297 76.8366C238.668 76.6962 238.854 77.2577 238.576 77.7725L236.814 81.1417C236.722 81.3289 236.675 81.5628 236.675 81.7968L237.093 84.8385C237.139 85.3064 236.768 85.9615 236.397 85.9147L234.173 85.634C234.08 85.634 233.988 85.6808 233.941 85.7276C233.848 85.7744 233.802 85.8212 233.756 85.9147L231.531 88.7224C231.207 89.1904 230.79 89.0032 230.836 88.4417L231.253 84.9321C231.253 84.8385 231.253 84.7449 231.253 84.6513C231.207 84.5577 231.207 84.5109 231.114 84.4173L229.353 83.1071C229.075 82.9199 229.214 82.1712 229.631 81.8904L232.087 79.9718C232.273 79.8314 232.365 79.6443 232.458 79.4103L233.57 75.8071C233.709 75.2456 234.219 74.9648 234.405 75.3392Z" fill="#58B78B"/>
<path d="M246.778 68.1802L247.89 70.52C247.89 70.5668 247.937 70.5668 247.937 70.6136C247.983 70.6604 247.983 70.6603 248.029 70.6603C248.076 70.6603 248.076 70.6603 248.122 70.6603C248.168 70.6603 248.215 70.6604 248.215 70.6136L250.671 69.6777C251.042 69.5373 251.227 70.0988 250.949 70.6136L249.188 73.9828C249.095 74.17 249.049 74.4039 249.049 74.6379L249.466 77.6796C249.512 78.1475 249.141 78.8026 248.771 78.7558L246.546 78.4751C246.454 78.4751 246.361 78.5219 246.314 78.5219C246.222 78.5687 246.175 78.6155 246.129 78.709L243.905 81.5167C243.58 81.9847 243.163 81.7975 243.209 81.236L243.627 77.7264C243.627 77.6328 243.627 77.5392 243.627 77.4456C243.58 77.352 243.58 77.3052 243.488 77.2116L241.726 75.9014C241.448 75.7142 241.587 74.9655 242.005 74.6847L244.461 72.7661C244.646 72.6257 244.739 72.4385 244.831 72.2046L245.944 68.6014C246.083 68.0866 246.593 67.8059 246.778 68.1802Z" fill="#58B78B"/>
<path d="M259.15 61.0206L260.263 63.3603C260.263 63.4071 260.309 63.4071 260.309 63.4539C260.355 63.5007 260.355 63.5007 260.402 63.5007C260.448 63.5007 260.448 63.5007 260.494 63.5007C260.541 63.5007 260.587 63.5007 260.587 63.4539L263.043 62.518C263.414 62.3776 263.599 62.9391 263.321 63.4539L261.56 66.8231C261.467 67.0103 261.421 67.2442 261.421 67.4782L261.838 70.5199C261.885 70.9878 261.514 71.6429 261.143 71.5961L258.919 71.3154C258.826 71.3154 258.733 71.3622 258.687 71.409C258.594 71.4558 258.548 71.5026 258.501 71.5961L256.277 74.4038C255.953 74.8718 255.535 74.6846 255.582 74.1231L255.999 70.6135C256.045 70.5199 256.045 70.4263 255.999 70.3327C255.999 70.2391 255.953 70.1455 255.86 70.0987L254.099 68.7885C253.821 68.6013 253.96 67.8526 254.377 67.5718L256.833 65.6532C257.018 65.5128 257.111 65.3257 257.204 65.0917L258.316 61.4885C258.455 60.927 258.965 60.6462 259.15 61.0206Z" fill="#58B78B"/>
<path d="M271.524 53.8609L272.636 56.2006C272.636 56.2474 272.682 56.2474 272.682 56.2942C272.729 56.341 272.729 56.341 272.775 56.341C272.821 56.341 272.821 56.341 272.868 56.341C272.914 56.341 272.96 56.341 272.96 56.2942L275.417 55.3583C275.787 55.2179 275.973 55.7795 275.695 56.2942L273.934 59.6634C273.841 59.8506 273.795 60.0846 273.795 60.3186L274.212 63.3602C274.258 63.8281 273.887 64.4833 273.517 64.4365L271.292 64.1557C271.199 64.1557 271.107 64.2025 271.06 64.2493C270.968 64.2961 270.921 64.3429 270.875 64.4365L268.65 67.2442C268.326 67.7121 267.909 67.5249 267.955 66.9634L268.372 63.4538C268.372 63.3602 268.372 63.2666 268.372 63.173C268.326 63.0794 268.326 63.0326 268.233 62.939L266.472 61.6288C266.194 61.4416 266.333 60.6929 266.75 60.3653L269.207 58.4468C269.392 58.3064 269.485 58.1192 269.577 57.8852L270.69 54.282C270.829 53.7673 271.292 53.4865 271.524 53.8609Z" fill="#455A64"/>
<path d="M220.176 70.1457L216.515 67.9931C216.423 67.9463 216.376 67.8995 216.33 67.8528L215.635 66.6829L217.859 65.4194L217.813 65.6066L220.176 70.1457Z" fill="#58B78B"/>
<path opacity="0.2" d="M220.176 70.1457L216.515 67.9931C216.423 67.9463 216.376 67.8995 216.33 67.8528L215.635 66.6829L217.859 65.4194L217.813 65.6066L220.176 70.1457Z" fill="#010202"/>
<path d="M217.49 65.5597L220.038 70.0052C220.085 70.052 220.131 70.0988 220.177 70.1456C220.224 70.1924 220.316 70.1924 220.409 70.1924C220.502 70.1924 220.548 70.1456 220.595 70.0988C220.641 70.052 220.687 70.0052 220.734 69.9117L223.422 62.0969L217.49 65.5597Z" fill="#58B78B"/>
<path d="M281.582 3.55639C281.536 2.94806 281.35 2.33973 281.072 1.7782C280.748 1.21666 280.331 0.795509 279.821 0.421152C279.265 0.140384 278.662 0 278.06 0C277.457 0 276.855 0.140384 276.299 0.421152L208.22 40.103C207.71 40.4306 207.293 40.8985 206.968 41.4601C206.644 42.0216 206.505 42.5831 206.458 43.2383V65.8401C206.505 66.4484 206.69 67.0567 206.968 67.6183C207.293 68.1798 207.71 68.601 208.22 68.9753C208.776 69.2561 209.378 69.3965 209.981 69.3965C210.583 69.3965 211.186 69.2561 211.742 68.9753L279.96 29.1999C281.536 28.3108 281.582 27.3749 281.582 26.2518V3.55639Z" fill="#58B78B"/>
<path opacity="0.2" d="M206.457 65.84C206.504 66.4483 206.689 67.0566 206.967 67.6182C207.292 68.1797 207.709 68.6008 208.219 68.9752C208.728 69.2092 209.284 69.3964 209.841 69.3964C210.397 69.4431 210.953 69.3496 211.463 69.1156C210.628 69.4431 209.98 68.9752 209.98 67.9457V45.2971C209.98 44.6888 210.165 44.0805 210.489 43.5189L206.921 41.46C206.596 41.9747 206.411 42.583 206.411 43.2382V65.84H206.457Z" fill="#010202"/>
<path opacity="0.4" d="M281.49 3.08853C281.305 2.33981 280.609 2.10584 279.775 2.57379L211.742 42.2089C211.233 42.5364 210.769 43.0044 210.491 43.5659L206.969 41.507C207.247 40.9454 207.711 40.5243 208.22 40.1499L276.253 0.468027C276.809 0.187259 277.412 0.046875 278.014 0.046875C278.617 0.046875 279.219 0.187259 279.775 0.468027C280.239 0.748795 280.609 1.12315 280.887 1.5911C281.212 2.05905 281.397 2.52699 281.49 3.08853Z" fill="#F6F8F9"/>
<path d="M214.753 45.6718L275.834 9.96749C276.437 9.63993 276.9 9.78031 276.9 10.3418C276.854 10.6694 276.715 10.997 276.529 11.2777C276.344 11.5585 276.112 11.7925 275.788 11.9329L214.707 47.6372C214.104 47.9648 213.641 47.8244 213.641 47.3096C213.687 46.9821 213.826 46.6545 214.012 46.3737C214.243 46.093 214.475 45.859 214.753 45.6718Z" fill="#F6F8F9"/>
<path d="M214.753 55.7793L267.168 25.2224C267.771 24.8948 268.234 25.0352 268.234 25.5499C268.188 25.8775 268.095 26.205 267.863 26.4858C267.678 26.7666 267.446 27.0005 267.122 27.1409L214.707 57.6978C214.104 58.0254 213.641 57.885 213.641 57.3235C213.687 56.9959 213.826 56.6684 214.012 56.3876C214.243 56.1536 214.475 55.9196 214.753 55.7793Z" fill="#F6F8F9"/>
<path d="M214.753 60.6932L274.629 25.7844C275.232 25.4568 275.695 25.5972 275.695 26.1119C275.649 26.4395 275.51 26.7671 275.325 27.0478C275.139 27.3286 274.907 27.5626 274.583 27.7497L214.707 62.6585C214.104 62.9861 213.641 62.8457 213.641 62.331C213.687 62.0034 213.826 61.6759 214.012 61.3951C214.243 61.0675 214.475 60.8336 214.753 60.6932Z" fill="#F6F8F9"/>
<path d="M214.754 50.6319L274.631 15.6762C275.233 15.3487 275.697 15.489 275.697 16.0506C275.65 16.3781 275.511 16.7057 275.326 16.9865C275.14 17.2672 274.909 17.5012 274.631 17.6416L214.754 52.5504C214.152 52.878 213.688 52.7376 213.688 52.2229C213.735 51.8953 213.874 51.5677 214.059 51.287C214.245 51.0062 214.476 50.7722 214.754 50.6319Z" fill="#F6F8F9"/>
<path d="M240.152 186.851L265.873 181.751C266.058 181.704 266.197 181.751 266.336 181.798C266.475 181.891 266.614 181.985 266.707 182.125C266.8 182.266 266.8 182.453 266.8 182.593C266.8 182.78 266.707 182.921 266.614 183.061L249.189 203.042L240.152 186.851Z" fill="#F4A6A7"/>
<path d="M266.658 183.108C266.751 182.967 266.843 182.827 266.843 182.64C266.843 182.452 266.843 182.312 266.751 182.172C266.658 182.031 266.565 181.891 266.38 181.844C266.241 181.751 266.055 181.751 265.916 181.797L260.865 182.827C261.56 183.248 262.116 183.856 262.487 184.605C262.858 185.354 262.997 186.149 262.95 186.992V187.46L266.658 183.108Z" fill="#58B78B"/>
<path d="M153.209 258.634L155.295 257.417L157.844 255.92L249.141 203.042C249.975 200.187 249.697 197.099 248.4 194.432C246.592 190.314 243.024 187.038 240.104 186.851L148.853 239.729L143.987 242.536C147.277 240.899 156.454 256.949 153.209 258.634Z" fill="#37474F"/>
<path d="M161.227 254.001L165.908 251.287C167.298 250.539 166.51 247.076 164.888 243.519C162.756 238.793 158.493 234.207 156.685 235.19L153.209 237.202L152.004 237.951C153.858 236.968 158.075 241.554 160.207 246.28C161.737 249.696 162.571 253.019 161.366 253.908C161.366 253.955 161.32 254.001 161.227 254.001Z" fill="#EBEBEB"/>
<path d="M162.431 253.346C165.675 251.615 156.406 235.565 153.209 237.296L148.482 240.01C151.726 238.279 160.948 254.329 157.704 256.061L162.431 253.346Z" fill="#58B78B"/>
<path d="M153.21 258.634L157.844 255.967C161.042 254.282 152.237 238.699 148.9 239.729C148.853 239.729 148.761 239.776 148.714 239.822L144.034 242.536C147.278 240.899 156.454 256.949 153.21 258.634Z" fill="#EBEBEB"/>
<path opacity="0.15" d="M266.754 182.219L265.873 181.751L247.197 192.046L150.662 248.012C150.477 247.731 150.338 247.685 150.199 247.919C152.933 252.224 155.019 257.699 153.211 258.635L155.297 257.418L157.846 255.92L249.143 203.043L266.615 183.061C266.707 182.968 266.8 182.827 266.8 182.64C266.846 182.5 266.846 182.359 266.754 182.219Z" fill="#010202"/>
<path d="M133.513 270.005L153.256 258.587C154.646 257.839 153.858 254.47 152.282 250.913C150.151 246.187 145.933 241.554 144.08 242.49L124.291 253.908C120.351 256.201 123.966 264.811 128.369 268.648C129.945 270.193 131.798 270.848 133.513 270.005Z" fill="#F28F8F"/>
<path opacity="0.1" d="M134.67 263.828C133.558 259.336 129.943 254.937 126.653 254.001C126.19 253.814 125.633 253.767 125.124 253.861C124.614 253.908 124.104 254.142 123.687 254.422C120.767 257.183 124.197 265.091 128.321 268.741C129.897 270.145 131.704 270.8 133.419 270.052C134.856 269.209 135.458 266.87 134.67 263.828Z" fill="#010202"/>
</g>
<defs>
<clipPath id="clip0_1_253">
<rect width="247.431" height="281.61" fill="white" transform="translate(34.5693)"/>
</clipPath>
</defs>
</svg>
