<svg width="76" height="76" viewBox="0 0 76 76" fill="none" xmlns="http://www.w3.org/2000/svg">
<g clip-path="url(#clip0_1_2665)">
<path d="M65.1345 45.6327C62.1923 48.9323 58.1409 50.8883 53.7271 51.1412C49.3186 51.3937 45.0657 49.9121 41.7661 46.9695L28.8363 35.4397C25.6735 32.6192 20.8047 32.8972 17.9842 36.0607L17.4863 36.6188C14.6661 39.7816 14.9448 44.6497 18.1076 47.4706L30.5867 58.599L32.3668 56.6373C33.2175 55.6993 34.5054 55.2862 35.743 55.5543C36.9813 55.8224 37.9824 56.7305 38.3693 57.9373L42.6072 71.1525C42.7664 71.5557 42.854 71.9954 42.854 72.4557C42.854 74.4018 41.2863 75.9816 39.3448 76.0015C39.3303 76.0018 39.3157 76.0018 39.3008 76.0018C39.0512 76.0018 38.7998 75.9756 38.5505 75.9213L24.7608 72.9348C23.5225 72.6667 22.5214 71.7586 22.1345 70.5518C21.7476 69.3451 22.0338 68.0242 22.8852 67.0862L24.6289 65.1646L12.2065 54.0873C5.39517 48.0132 4.79552 37.5302 10.8693 30.7188L11.3672 30.1607C17.4406 23.3497 27.9232 22.7497 34.7352 28.8238L47.665 40.3539C50.8281 43.1745 55.6962 42.8965 58.5172 39.733C61.3377 36.5699 61.059 31.7022 57.8962 28.8812L45.0235 17.4007L43.2409 19.3653C42.5615 20.1142 41.6037 20.5284 40.615 20.5284C40.3654 20.5284 40.114 20.5022 39.8643 20.4479C38.6264 20.1798 37.6253 19.2717 37.2384 18.0649L32.9299 4.63017C32.543 3.42378 32.8292 2.1025 33.6806 1.16456C34.5313 0.226618 35.8196 -0.186503 37.0569 0.0815822L50.8466 3.06775C52.0849 3.33584 53.0859 4.24399 53.4728 5.45073C53.8597 6.65747 53.5735 7.97839 52.7221 8.91634L50.9806 10.8355L63.7969 22.2646C70.6086 28.3383 71.2086 38.8217 65.1345 45.6327Z" fill="#42CA90"/>
</g>
<defs>
<clipPath id="clip0_1_2665">
<rect width="76" height="76" fill="white"/>
</clipPath>
</defs>
</svg>
