<svg width="76" height="76" viewBox="0 0 76 76" fill="none" xmlns="http://www.w3.org/2000/svg">
<g clip-path="url(#clip0_1_2660)">
<path d="M73.7734 9.33954H69.8093L72.291 6.85781C73.1605 5.98827 73.1605 4.57855 72.291 3.70901C71.4216 2.83946 70.0117 2.83946 69.1422 3.70901L66.6605 6.19073V2.22656C66.6605 0.996906 65.6636 0 64.4339 0C63.2042 0 62.2073 0.996906 62.2073 2.22656V10.6439L57.9288 14.9224C51.5568 9.30109 43.458 6.22814 34.8859 6.22814C25.5676 6.22814 16.807 9.85684 10.2178 16.446C3.6287 23.0351 0 31.7958 0 41.1141C0 50.4324 3.6287 59.193 10.2178 65.7822C16.807 72.3713 25.5676 76 34.8859 76C44.2042 76 52.9649 72.3713 59.554 65.7822C66.1432 59.193 69.7719 50.4324 69.7719 41.1141C69.7719 32.542 66.6989 24.4432 61.0774 18.0712L65.356 13.7927H73.7734C75.0031 13.7927 76 12.7958 76 11.5661C76 10.3364 75.0031 9.33954 73.7734 9.33954ZM65.3187 41.1141C65.3187 57.8948 51.6666 71.5469 34.8859 71.5469C18.1052 71.5469 4.45312 57.8948 4.45312 41.1141C4.45312 24.3334 18.1052 10.6813 34.8859 10.6813C42.4767 10.6813 49.427 13.475 54.7633 18.088L49.3605 23.4908C45.4193 20.2481 40.3762 18.2985 34.8859 18.2985C22.3054 18.2985 12.0703 28.5335 12.0703 41.1142C12.0703 53.6949 22.3054 63.9298 34.8859 63.9298C47.4665 63.9298 57.7017 53.6947 57.7017 41.1142C57.7017 35.624 55.7521 30.5808 52.5093 26.6396L57.9121 21.2368C62.525 26.573 65.3187 33.5233 65.3187 41.1141ZM41.8286 41.1141C41.8286 44.9423 38.7143 48.0566 34.8859 48.0566C31.0577 48.0566 27.9434 44.9423 27.9434 41.1141C27.9434 37.2859 31.0577 34.1714 34.8859 34.1714C35.9893 34.1714 37.0326 34.4313 37.9599 34.8913L33.3115 39.5397C32.4419 40.4093 32.4419 41.819 33.3115 42.6885C33.7462 43.1233 34.3161 43.3408 34.8858 43.3408C35.4555 43.3408 36.0255 43.1235 36.4601 42.6885L41.1086 38.0401C41.5687 38.9674 41.8286 40.0107 41.8286 41.1141ZM41.211 31.6402C39.4001 30.4272 37.2244 29.7182 34.8859 29.7182C28.6023 29.7182 23.4902 34.8304 23.4902 41.1141C23.4902 47.3977 28.6023 52.5098 34.8859 52.5098C41.1697 52.5098 46.2818 47.3977 46.2818 41.1141C46.2818 38.7756 45.5728 36.5998 44.3598 34.789L49.3433 29.8055C51.7887 32.9249 53.2484 36.8523 53.2484 41.1141C53.2484 51.2391 45.011 59.4765 34.8858 59.4765C24.7606 59.4765 16.5235 51.2391 16.5235 41.1141C16.5235 30.989 24.7609 22.7515 34.8859 22.7515C39.1479 22.7515 43.0751 24.2112 46.1945 26.6566L41.211 31.6402Z" fill="#42CA90"/>
</g>
<defs>
<clipPath id="clip0_1_2660">
<rect width="76" height="76" fill="white"/>
</clipPath>
</defs>
</svg>
