<svg width="76" height="76" viewBox="0 0 76 76" fill="none" xmlns="http://www.w3.org/2000/svg">
<path d="M38.0009 72.6223C18.9099 72.6223 3.37878 57.0912 3.37878 38.0001C3.37878 18.9091 18.9099 3.37793 38.0009 3.37793C44.4681 3.37793 50.7763 5.17276 56.2444 8.56918C57.2001 9.1622 57.493 10.418 56.8999 11.3738C56.3059 12.3295 55.0501 12.6244 54.0953 12.0293C49.2732 9.03374 43.7077 7.45125 38.0009 7.45125C21.1561 7.45125 7.45194 21.1559 7.45194 38.0003C7.45194 54.8447 21.1561 68.5492 38.0009 68.5492C54.8453 68.5492 68.5499 54.8445 68.5499 38.0001C68.5499 34.6143 68.0004 31.2899 66.9165 28.1195C66.5526 27.0555 67.1212 25.8973 68.1852 25.5334C69.2512 25.1717 70.4074 25.7382 70.7712 26.8021C71.9996 30.398 72.6232 34.1657 72.6232 38.0003C72.6231 57.0912 57.092 72.6223 38.0009 72.6223Z" fill="#42CA90"/>
<path d="M37.9971 49.7488C37.4806 49.7488 36.981 49.5525 36.6029 49.1961L20.3101 33.891C19.4901 33.121 19.4498 31.8321 20.22 31.0122C20.9901 30.1933 22.2788 30.1509 23.0987 30.9232L37.8244 44.7561L64.5822 12.9915C65.3057 12.1312 66.5912 12.021 67.4514 12.7464C68.3117 13.4709 68.422 14.7554 67.6965 15.6156L39.5543 49.0244C39.1947 49.4518 38.6739 49.7128 38.1159 49.7457C38.0768 49.7477 38.0364 49.7488 37.9971 49.7488Z" fill="#42CA90"/>
</svg>
