<svg width="24" height="31" viewBox="0 0 24 31" fill="none" xmlns="http://www.w3.org/2000/svg">
<path d="M20.714 30.3532H3.64051C2.07227 30.3532 0.794922 29.0771 0.794922 27.5076V14.2282C0.794922 12.6587 2.07227 11.3826 3.64051 11.3826H20.714C22.2823 11.3826 23.5596 12.6587 23.5596 14.2282V27.5076C23.5596 29.0771 22.2823 30.3532 20.714 30.3532ZM3.64051 13.2796C3.11819 13.2796 2.69198 13.7046 2.69198 14.2282V27.5076C2.69198 28.0312 3.11819 28.4561 3.64051 28.4561H20.714C21.2364 28.4561 21.6626 28.0312 21.6626 27.5076V14.2282C21.6626 13.7046 21.2364 13.2796 20.714 13.2796H3.64051Z" fill="#33353D"/>
<path d="M18.8169 13.2794C18.2933 13.2794 17.8683 12.8545 17.8683 12.3309V7.58824C17.8683 4.4505 15.3149 1.89706 12.1772 1.89706C9.03943 1.89706 6.48599 4.4505 6.48599 7.58824V12.3309C6.48599 12.8545 6.06105 13.2794 5.53746 13.2794C5.01387 13.2794 4.58893 12.8545 4.58893 12.3309V7.58824C4.58893 3.40332 7.99225 0 12.1772 0C16.3621 0 19.7654 3.40332 19.7654 7.58824V12.3309C19.7654 12.8545 19.3405 13.2794 18.8169 13.2794Z" fill="#33353D"/>
<path d="M12.1763 21.5008C10.7813 21.5008 9.64685 20.3664 9.64685 18.9714C9.64685 17.5765 10.7813 16.442 12.1763 16.442C13.5712 16.442 14.7057 17.5765 14.7057 18.9714C14.7057 20.3664 13.5712 21.5008 12.1763 21.5008ZM12.1763 18.3391C11.8285 18.3391 11.5439 18.6224 11.5439 18.9714C11.5439 19.3205 11.8285 19.6038 12.1763 19.6038C12.5241 19.6038 12.8086 19.3205 12.8086 18.9714C12.8086 18.6224 12.5241 18.3391 12.1763 18.3391Z" fill="#33353D"/>
<path d="M12.1764 25.2939C11.6528 25.2939 11.2279 24.869 11.2279 24.3454V20.8675C11.2279 20.3439 11.6528 19.9189 12.1764 19.9189C12.7 19.9189 13.125 20.3439 13.125 20.8675V24.3454C13.125 24.869 12.7 25.2939 12.1764 25.2939Z" fill="#33353D"/>
</svg>
