<svg xmlns="http://www.w3.org/2000/svg" viewBox="0 0 330.75 515.58"><defs><style>.cls-1{fill:#1c1d22;}.cls-2{fill:#42ca90;}.cls-3{fill:none;stroke:#000;}.cls-4{fill:#25262d;}.cls-5{fill:#373943;}.cls-15,.cls-16,.cls-6{fill:#f5f7f9;}.cls-6{opacity:0.7;isolation:isolate;}.cls-7{fill:#5c5f63;}.cls-8{fill:#33353d;}.cls-9{fill:#8252e6;}.cls-10{fill:#82868d;}.cls-11{fill:#fabb18;}.cls-12{fill:#4cd964;}.cls-13{fill:#6fc6f6;}.cls-14{fill:#fa1826;}.cls-16{stroke:#f5f7f9;}</style></defs><g id="Layer_2" data-name="Layer 2"><g id="Layer_1-2" data-name="Layer 1"><path class="cls-1" d="M328.43,239h-.68V203h.68a5,5,0,0,1,1.64.24c.44.15.68.35.68.56v34.4c0,.21-.24.41-.68.56A5.26,5.26,0,0,1,328.43,239Z"/><path class="cls-2" d="M328.62,515.08V39.53A39.53,39.53,0,0,0,289.08,0H39.53A39.53,39.53,0,0,0,0,39.53V515.08Z"/><path class="cls-3" d="M322.92,515.08V39.86A34.18,34.18,0,0,0,288.74,5.68H39.84A34.18,34.18,0,0,0,5.66,39.86V515.08Z"/><path class="cls-1" d="M323.81,515.08V35.68a31,31,0,0,0-31-31H36.55a31,31,0,0,0-31,31v479.4Z"/><rect class="cls-4" x="25.92" y="86.98" width="277.52" height="37.34" rx="10"/><rect class="cls-5" x="32.71" y="92.07" width="85.72" height="27.16" rx="10"/><rect class="cls-6" x="25.92" y="151.48" width="87.41" height="21.22" rx="5"/><rect class="cls-7" x="117.58" y="160.82" width="50.07" height="11.88" rx="3"/><rect class="cls-6" x="25.92" y="381.48" width="113.72" height="21.22" rx="5"/><rect class="cls-7" x="142.19" y="390.81" width="50.07" height="11.88" rx="3"/><rect class="cls-4" x="25.92" y="186.28" width="277.52" height="42.43" rx="10"/><rect class="cls-8" x="36.11" y="200.71" width="13.58" height="13.58" rx="3"/><rect class="cls-9" x="241.49" y="207.5" width="51.77" height="11.88" rx="3"/><rect class="cls-10" x="55.63" y="197.31" width="50.07" height="10.18" rx="3"/><rect class="cls-10" x="55.63" y="210.89" width="32.25" height="6.79" rx="3"/><rect class="cls-4" x="25.92" y="235.5" width="277.52" height="42.43" rx="10"/><rect class="cls-8" x="36.11" y="249.93" width="13.58" height="13.58" rx="3"/><rect class="cls-11" x="241.49" y="256.72" width="51.77" height="11.88" rx="3"/><rect class="cls-10" x="55.63" y="246.54" width="50.07" height="10.18" rx="3"/><rect class="cls-10" x="55.63" y="260.11" width="32.25" height="6.79" rx="3"/><rect class="cls-4" x="25.92" y="284.73" width="277.52" height="42.43" rx="10"/><rect class="cls-8" x="36.11" y="299.15" width="13.58" height="13.58" rx="3"/><rect class="cls-12" x="241.49" y="305.94" width="51.77" height="11.88" rx="3"/><rect class="cls-10" x="55.63" y="295.76" width="50.07" height="10.18" rx="3"/><rect class="cls-10" x="55.63" y="309.34" width="32.25" height="6.79" rx="3"/><rect class="cls-4" x="25.92" y="417.97" width="277.52" height="42.43" rx="10"/><rect class="cls-8" x="36.11" y="432.4" width="13.58" height="13.58" rx="3"/><rect class="cls-13" x="241.49" y="439.19" width="51.77" height="11.88" rx="3"/><rect class="cls-10" x="55.63" y="429" width="50.07" height="10.18" rx="3"/><rect class="cls-10" x="55.63" y="442.58" width="32.25" height="6.79" rx="3"/><rect class="cls-4" x="25.92" y="467.19" width="277.52" height="42.43" rx="10"/><rect class="cls-8" x="36.11" y="481.62" width="13.58" height="13.58" rx="3"/><rect class="cls-14" x="241.49" y="488.41" width="51.77" height="11.88" rx="3"/><rect class="cls-10" x="55.63" y="478.23" width="50.07" height="10.18" rx="3"/><rect class="cls-10" x="55.63" y="491.81" width="32.25" height="6.79" rx="3"/><rect class="cls-15" x="48.83" y="100.56" width="53.47" height="9.34" rx="3"/><rect class="cls-10" x="137.95" y="100.56" width="53.47" height="9.34" rx="3"/><rect class="cls-10" x="227.06" y="100.56" width="53.47" height="9.34" rx="3"/><path class="cls-16" d="M40.53,48.12c.37,0,.59.26.71.79q.12,3.65.12,8c0,2.88,0,4.55,0,5a1.43,1.43,0,0,1-.3,1,1.21,1.21,0,0,1-.91.26c-.38,0-.58-.24-.58-.72V57.32c0-.82,0-1.67,0-2.53s0-1.41,0-1.64a6.63,6.63,0,0,1-2,2.16,4.93,4.93,0,0,1-2.79.85A3.23,3.23,0,0,1,32,54.87c-.06.88-.08,2-.08,3.22s0,2.56,0,3.94a1,1,0,0,1-.36.83,1.53,1.53,0,0,1-.85.24c-.4,0-.6-.24-.6-.74,0-1.35,0-3.49,0-6.41V49.59a1.19,1.19,0,0,1,.26-.74.75.75,0,0,1,.6-.37,1.22,1.22,0,0,1,.65.18.72.72,0,0,1,.32.57,8,8,0,0,0,.8,3.7,2,2,0,0,0,1.71,1.21,4,4,0,0,0,1.7-.32,4.38,4.38,0,0,0,1.16-.75,4.45,4.45,0,0,0,.89-1.2,21,21,0,0,0,1.17-2.76C39.67,48.46,40,48.12,40.53,48.12Z"/><path class="cls-16" d="M50.39,52.71a.92.92,0,0,1,.57.2.58.58,0,0,1,.28.45,69,69,0,0,1-1.91,7c-1.27,4.27-2.22,7.27-2.84,9-.14.41-.34.61-.63.61a.8.8,0,0,1-.66-.3A1.45,1.45,0,0,1,45,68.8,12.41,12.41,0,0,1,45.7,66c.51-1.47.81-2.41.91-2.82-.38-.62-1.63-3.76-3.81-9.44a1.21,1.21,0,0,1,0-.3A.72.72,0,0,1,43,53a.94.94,0,0,1,.74-.3.88.88,0,0,1,.76.46c.21.55.57,1.47,1,2.82s.85,2.32,1.11,2.9.5,1.23.74,1.88c.2-.71.57-2.08,1.09-4.11s.81-3.18.89-3.47S49.79,52.71,50.39,52.71Z"/><path class="cls-16" d="M58,48.5l9.1-.14c.44.14.64.34.64.65,0,.74-.3,1.12-.92,1.12-1.13,0-2.32,0-3.57.08-.08,1.29-.12,2.26-.12,2.9v1.25l.08,7.9c0,.46-.12.72-.36.8a2.13,2.13,0,0,1-.66.08c-.45,0-.67-.24-.73-.74-.08-1.15-.14-3.31-.14-6.47s0-5,.14-5.69c-.32,0-.78,0-1.39,0s-1.37,0-2.29,0a.76.76,0,0,1-.56-.23.72.72,0,0,1-.21-.54,1,1,0,0,1,.29-.64A1.51,1.51,0,0,1,58,48.5Z"/><path class="cls-16" d="M74.67,52.59c.66,0,1,.56,1,1.69v.38l0,1.58c0,.5,0,1,0,1.47l.34,5.07c0,.38-.38.56-1.14.56h-.33a.35.35,0,0,1-.36-.2.7.7,0,0,1,0-.5A.94.94,0,0,0,74,62a3.6,3.6,0,0,1-2.74,1.11q-3.16,0-3.16-4.89a6.92,6.92,0,0,1,1-4.11,3.4,3.4,0,0,1,2.94-1.39,5.13,5.13,0,0,1,1.79.32A.86.86,0,0,1,74.67,52.59Zm-2.34,2a2.37,2.37,0,0,0-1.91.75,4.36,4.36,0,0,0-.63,2.72c0,2.21.61,3.32,1.8,3.32a1.79,1.79,0,0,0,1-.42,2.45,2.45,0,0,0,.81-1,8,8,0,0,0,.42-2.66,4.89,4.89,0,0,0-.34-2.09A1.27,1.27,0,0,0,72.33,54.64Z"/><path class="cls-16" d="M78.53,53.34a3.28,3.28,0,0,1,2.2-.79,6.42,6.42,0,0,1,2.39.44c.77.31,1.15.71,1.15,1.19a.71.71,0,0,1-.3.61,1,1,0,0,1-.5.22,1.68,1.68,0,0,1-.35,0,3.92,3.92,0,0,1-.9-.43,3.27,3.27,0,0,0-1.43-.4,1.82,1.82,0,0,0-1.11.32,1.14,1.14,0,0,0-.46,1,1.16,1.16,0,0,0,.52,1,5.4,5.4,0,0,0,1.85.62,5.89,5.89,0,0,1,2,.73,2,2,0,0,1,.7,1.75,3.14,3.14,0,0,1-1,2.64,3.68,3.68,0,0,1-2.37.76,6.53,6.53,0,0,1-2.38-.38c-.64-.26-1-.65-1-1.15a.79.79,0,0,1,.88-.89,3.51,3.51,0,0,1,1,.33,4.09,4.09,0,0,0,1.51.32,1.4,1.4,0,0,0,1.15-.48,1.74,1.74,0,0,0,.4-1.11,1,1,0,0,0-.52-.91,5.63,5.63,0,0,0-1.57-.46,7.35,7.35,0,0,1-1.55-.38,2.3,2.3,0,0,1-1.35-2.4A2.75,2.75,0,0,1,78.53,53.34Z"/><path class="cls-16" d="M93.87,62.08c0,.7-.32,1-1,1-.26,0-.65-.66-1.11-2a7.2,7.2,0,0,0-1.87-3.06A12.09,12.09,0,0,1,89,59l-1,.89V62.1a1.53,1.53,0,0,1-.12.52.7.7,0,0,1-.31.34,1.16,1.16,0,0,1-.64.16c-.4,0-.6-.24-.6-.74q0-2.09-.19-6.49C86,53,85.94,50.34,85.94,48a.77.77,0,0,1,.35-.66,1.23,1.23,0,0,1,.72-.25c.34,0,.56.23.62.65v4c0,.48,0,.84,0,1.08s0,.61,0,1.09c0,1,.08,2.11.17,3.34a13.45,13.45,0,0,0,1.67-1.57,15,15,0,0,0,1.53-1.83c.54-.85,1-1.29,1.49-1.29a.78.78,0,0,1,.36.08c.32.18.46.38.46.63a2,2,0,0,1-.32.94,15.42,15.42,0,0,1-1.87,2.54,13.43,13.43,0,0,1,2,3.22A4.84,4.84,0,0,1,93.87,62.08Z"/><path class="cls-16" d="M96.49,53.34a3.26,3.26,0,0,1,2.19-.79,6.47,6.47,0,0,1,2.4.44c.76.31,1.15.71,1.15,1.19a.69.69,0,0,1-.31.61,1,1,0,0,1-.5.22,1.62,1.62,0,0,1-.34,0,4.09,4.09,0,0,1-.91-.43,3.2,3.2,0,0,0-1.43-.4,1.79,1.79,0,0,0-1.1.32,1.15,1.15,0,0,0-.47,1,1.16,1.16,0,0,0,.53,1,5.32,5.32,0,0,0,1.85.62,5.75,5.75,0,0,1,2,.73,1.94,1.94,0,0,1,.71,1.75,3.17,3.17,0,0,1-1,2.64,3.7,3.7,0,0,1-2.37.76,6.49,6.49,0,0,1-2.38-.38c-.64-.26-1-.65-1-1.15a.8.8,0,0,1,.89-.89,3.62,3.62,0,0,1,1,.33,4.05,4.05,0,0,0,1.51.32,1.38,1.38,0,0,0,1.14-.48,1.75,1.75,0,0,0,.41-1.11,1,1,0,0,0-.53-.91,5.42,5.42,0,0,0-1.57-.46,7.52,7.52,0,0,1-1.55-.38,2.31,2.31,0,0,1-1.35-2.4A2.83,2.83,0,0,1,96.49,53.34Z"/><path class="cls-2" d="M140.7,25.68a3.65,3.65,0,0,1-2.58-6.23,3.63,3.63,0,0,1,2.58-1.07h47a3.65,3.65,0,0,1,2.58,6.23,3.66,3.66,0,0,1-2.58,1.07Z"/><path class="cls-2" d="M115.51,25.68a3.65,3.65,0,0,1-2-.62,3.7,3.7,0,0,1-1.35-1.63,3.69,3.69,0,0,1,.79-4,3.68,3.68,0,0,1,1.87-1,3.62,3.62,0,0,1,2.11.21A3.59,3.59,0,0,1,118.54,20a3.66,3.66,0,0,1-3,5.68Z"/><path class="cls-2" d="M129,25.68a3.67,3.67,0,0,1-2-.62A3.65,3.65,0,1,1,132,20a3.65,3.65,0,0,1-3,5.68Z"/><path class="cls-2" d="M213.11,25.68a3.65,3.65,0,0,1-2-.62,3.7,3.7,0,0,1-1.35-1.63,3.69,3.69,0,0,1,.79-4,3.68,3.68,0,0,1,1.87-1,3.62,3.62,0,0,1,2.11.21A3.59,3.59,0,0,1,216.14,20a3.66,3.66,0,0,1-3,5.68Z"/><path class="cls-2" d="M199.65,25.68a3.64,3.64,0,0,1-2-.62,3.7,3.7,0,0,1-1.35-1.63,3.65,3.65,0,0,1,4.77-4.77A3.59,3.59,0,0,1,202.69,20a3.66,3.66,0,0,1-3,5.68Z"/><path class="cls-2" d="M329.08,184.73h-.48V110h.48a1.66,1.66,0,0,1,1.18.49,1.64,1.64,0,0,1,.49,1.18v71.39a1.64,1.64,0,0,1-.49,1.18A1.66,1.66,0,0,1,329.08,184.73Z"/></g></g></svg>