<svg width="1152" height="1160" viewBox="0 0 1152 1160" fill="none" xmlns="http://www.w3.org/2000/svg">
<path d="M112 0.000648101H-4V1159.5H1152V0.000608047L1142.75 0.000657731C1122.44 0.000788296 1074.21 0.00109849 1016.5 0.000608047C930.5 -0.000122786 848.708 0.00125025 730 0.000315269C618 -0.000566881 545.5 0.000691017 423 0.000608047L112 0.000648101Z" fill="#1C1D22"/>
<path opacity="0.47" d="M145.713 724.626C145.713 725.409 145.093 726.072 144.305 726.072C143.517 726.072 142.897 725.409 142.897 724.626C142.897 723.842 143.517 723.179 144.305 723.179C145.093 723.119 145.713 723.782 145.713 724.626Z" fill="white"/>
<path opacity="0.92" d="M189.518 768.505C189.518 769.409 188.842 770.133 187.941 770.133C187.096 770.133 186.365 769.409 186.365 768.505C186.365 767.601 187.04 766.878 187.941 766.878C188.786 766.878 189.518 767.601 189.518 768.505Z" fill="white"/>
<path opacity="0.47" d="M442.889 913.404C442.889 914.308 442.213 915.031 441.312 915.031C440.412 915.031 439.736 914.308 439.736 913.404C439.736 912.5 440.412 911.776 441.312 911.776C442.157 911.776 442.889 912.5 442.889 913.404Z" fill="white"/>
<path opacity="0.47" d="M261.194 770.132C261.194 771.217 260.349 772.061 259.336 772.061C258.322 772.061 257.478 771.217 257.478 770.132C257.478 769.047 258.322 768.204 259.336 768.204C260.349 768.204 261.194 769.047 261.194 770.132Z" fill="white"/>
<path opacity="0.47" d="M310.517 653.563C310.517 654.105 310.123 654.527 309.56 654.527C309.053 654.527 308.603 654.105 308.603 653.563C308.603 653.02 308.997 652.598 309.56 652.598C310.066 652.598 310.517 653.08 310.517 653.563Z" fill="white"/>
<path opacity="0.92" d="M253.199 853.672L253.874 855.842C254.1 856.565 254.606 857.108 255.226 857.288L257.253 858.012C257.478 858.072 257.478 858.434 257.253 858.554L255.226 859.278C254.55 859.519 254.043 860.061 253.874 860.724L253.199 862.894C253.143 863.135 252.748 863.135 252.692 862.894L252.016 860.724C251.791 860.001 251.284 859.458 250.665 859.278L248.638 858.554C248.413 858.494 248.413 858.132 248.638 858.012L250.665 857.288C251.341 857.047 251.848 856.505 252.016 855.842L252.692 853.672C252.748 853.431 253.086 853.431 253.199 853.672Z" fill="white"/>
<path opacity="0.92" d="M192.671 676.949L193.347 679.119C193.572 679.842 194.079 680.385 194.698 680.565L196.725 681.289C196.95 681.349 196.95 681.711 196.725 681.831L194.698 682.554C194.022 682.795 193.516 683.338 193.347 684.001L192.671 686.171C192.615 686.412 192.221 686.412 192.164 686.171L191.489 684.001C191.263 683.278 190.757 682.735 190.137 682.554L188.11 681.831C187.885 681.771 187.885 681.409 188.11 681.289L190.137 680.565C190.813 680.324 191.32 679.782 191.489 679.119L192.164 676.949C192.277 676.708 192.615 676.708 192.671 676.949Z" fill="white"/>
<path opacity="0.92" d="M416.089 730.171L416.765 732.341C416.99 733.064 417.497 733.607 418.172 733.787L420.199 734.511C420.425 734.571 420.425 734.933 420.199 735.053L418.172 735.777C417.497 736.018 416.99 736.56 416.765 737.223L416.089 739.393C416.033 739.634 415.639 739.634 415.582 739.393L414.907 737.223C414.682 736.5 414.175 735.957 413.499 735.777L411.472 735.053C411.247 734.993 411.247 734.631 411.472 734.511L413.499 733.787C414.175 733.546 414.682 733.004 414.907 732.341L415.582 730.171C415.639 729.93 415.977 729.93 416.089 730.171Z" fill="white"/>
<path opacity="0.92" d="M391.637 829.941L392.313 832.11C392.538 832.834 393.045 833.376 393.721 833.557L395.748 834.28C395.973 834.341 395.973 834.702 395.748 834.823L393.721 835.546C393.045 835.787 392.538 836.33 392.313 836.993L391.637 839.163C391.581 839.404 391.187 839.404 391.131 839.163L390.455 836.993C390.23 836.269 389.723 835.727 389.047 835.546L387.02 834.823C386.795 834.763 386.795 834.401 387.02 834.28L389.047 833.557C389.723 833.316 390.23 832.773 390.455 832.11L391.131 829.941C391.187 829.699 391.525 829.699 391.637 829.941Z" fill="white"/>
<path opacity="0.47" d="M311.981 724.686L312.207 725.349C312.263 725.59 312.432 725.711 312.657 725.771L313.276 726.012C313.333 726.012 313.333 726.133 313.276 726.193L312.657 726.434C312.432 726.494 312.319 726.675 312.207 726.856L311.981 727.519C311.981 727.579 311.869 727.579 311.812 727.519L311.587 726.856C311.531 726.615 311.362 726.494 311.137 726.434L310.517 726.193C310.461 726.193 310.461 726.072 310.517 726.012L311.137 725.771C311.362 725.711 311.475 725.53 311.587 725.349L311.812 724.686C311.869 724.566 311.981 724.566 311.981 724.686Z" fill="white"/>
<path opacity="0.47" d="M463.666 754.34L464.061 755.546C464.173 755.908 464.455 756.209 464.849 756.329L465.975 756.751C466.088 756.812 466.088 756.992 465.975 757.053L464.849 757.475C464.455 757.595 464.173 757.897 464.061 758.258L463.666 759.464C463.61 759.584 463.441 759.584 463.385 759.464L462.991 758.258C462.878 757.897 462.597 757.595 462.203 757.475L461.076 757.053C460.964 756.992 460.964 756.812 461.076 756.751L462.203 756.329C462.54 756.209 462.878 755.908 462.991 755.546L463.385 754.34C463.385 754.22 463.61 754.22 463.666 754.34Z" fill="white"/>
<path opacity="0.47" d="M248.357 665.979L248.751 667.185C248.863 667.546 249.145 667.848 249.539 667.968L250.665 668.39C250.778 668.45 250.778 668.631 250.665 668.691L249.539 669.113C249.201 669.234 248.863 669.535 248.751 669.897L248.357 671.102C248.3 671.223 248.131 671.223 248.075 671.102L247.681 669.897C247.568 669.535 247.287 669.234 246.893 669.113L245.767 668.691C245.654 668.631 245.654 668.45 245.767 668.39L246.893 667.968C247.231 667.848 247.568 667.546 247.681 667.185L248.075 665.979C248.131 665.859 248.3 665.859 248.357 665.979Z" fill="white"/>
<path d="M344.412 631.864C344.356 631.623 344.243 631.321 344.131 631.141C344.131 631.141 344.131 631.08 344.075 631.08C344.018 631.02 344.018 630.96 343.962 630.899C343.962 630.899 343.962 630.899 343.962 630.839C343.737 630.538 343.455 630.357 343.174 630.236L334.165 627.343L331.687 624.752C331.181 620.834 327.746 617.76 323.58 617.76C319.413 617.76 315.978 620.773 315.472 624.752H315.359L312.882 627.343H312.825L303.816 630.236C303.422 630.357 303.085 630.658 302.803 631.08C302.747 631.201 302.634 631.382 302.634 631.502C302.634 631.563 302.578 631.623 302.578 631.683V631.743C302.578 631.804 302.578 631.864 302.521 631.864V631.924C302.521 631.984 302.521 632.045 302.521 632.045V632.105C302.521 632.165 302.521 632.226 302.521 632.286C302.521 632.828 302.69 633.31 302.916 633.672C302.972 633.732 302.972 633.793 303.028 633.853C303.366 634.275 303.76 634.516 304.267 634.516H312.994L315.359 637.168H317.78L319.131 640.001H327.971L329.323 637.168H331.744L334.109 634.516H337.656H342.836C342.892 634.516 342.948 634.516 343.005 634.516H343.061C343.117 634.516 343.117 634.516 343.174 634.516H343.23C343.286 634.516 343.286 634.516 343.343 634.456C343.399 634.456 343.455 634.395 343.455 634.395C343.455 634.395 343.512 634.395 343.512 634.335C343.568 634.335 343.568 634.275 343.568 634.275C343.568 634.275 343.624 634.275 343.624 634.215C343.68 634.215 343.68 634.154 343.68 634.154L343.737 634.094C343.793 634.094 343.793 634.034 343.849 634.034L343.906 633.973L343.962 633.913L344.018 633.853C344.018 633.853 344.018 633.793 344.075 633.793C344.131 633.672 344.187 633.612 344.243 633.491V633.431C344.243 633.371 344.3 633.371 344.3 633.31V633.25C344.412 632.949 344.469 632.647 344.469 632.286C344.469 632.226 344.469 632.045 344.412 631.864Z" fill="#252A2E"/>
<path d="M142.793 839.905C142.68 839.483 142.568 839.061 142.343 838.639C142.343 838.579 142.286 838.579 142.286 838.519C142.23 838.398 142.174 838.338 142.117 838.278C142.117 838.278 142.117 838.217 142.061 838.217C141.723 837.735 141.273 837.434 140.71 837.253L125.845 832.491L121.735 828.272C120.89 821.763 115.204 816.76 108.334 816.76C101.465 816.76 95.8346 821.763 94.9337 828.272H94.8774L90.7671 832.491H90.7108L75.9026 837.253C75.227 837.494 74.6639 837.976 74.2698 838.639C74.1572 838.88 74.0446 839.121 73.932 839.362V839.423C73.932 839.483 73.8756 839.604 73.8756 839.664V839.724C73.8756 839.784 73.8193 839.905 73.8193 839.965C73.8193 840.025 73.8193 840.025 73.8193 840.086C73.8193 840.146 73.8193 840.267 73.8193 840.327C73.8193 840.387 73.8193 840.387 73.8193 840.447C73.8193 840.568 73.8193 840.689 73.8193 840.809C73.8193 841.713 74.0446 842.497 74.4387 843.099C74.495 843.22 74.5513 843.28 74.6076 843.341C75.1143 844.004 75.8463 844.426 76.6346 844.426H90.9924L94.8211 848.765H98.7625L100.958 853.406H115.485L117.681 848.765H121.622L125.451 844.426H131.25H139.809C139.921 844.426 139.978 844.426 140.09 844.426H140.147C140.203 844.426 140.259 844.425 140.316 844.365H140.372C140.428 844.365 140.484 844.305 140.597 844.305C140.597 844.305 140.597 844.305 140.653 844.305C140.71 844.245 140.822 844.245 140.879 844.184L140.935 844.124C140.991 844.124 141.048 844.064 141.048 844.064C141.104 844.064 141.104 844.004 141.16 844.004C141.216 843.943 141.273 843.943 141.273 843.883C141.329 843.883 141.329 843.823 141.385 843.762C141.442 843.702 141.498 843.642 141.554 843.642C141.611 843.582 141.611 843.582 141.667 843.521C141.667 843.461 141.723 843.461 141.723 843.401C141.779 843.341 141.779 843.341 141.836 843.28L141.892 843.22C142.005 843.039 142.117 842.858 142.174 842.678C142.174 842.678 142.174 842.617 142.23 842.617C142.23 842.557 142.286 842.497 142.286 842.436V842.376C142.455 841.894 142.568 841.352 142.568 840.809C142.849 840.508 142.849 840.206 142.793 839.905Z" fill="#25262D"/>
<path opacity="0.47" d="M501.798 727.21C501.798 727.994 501.178 728.657 500.39 728.657C499.602 728.657 498.982 727.994 498.982 727.21C498.982 726.427 499.602 725.764 500.39 725.764C501.178 725.703 501.798 726.366 501.798 727.21Z" fill="white"/>
<path opacity="0.92" d="M521.238 779.505C521.238 780.409 520.562 781.133 519.661 781.133C518.817 781.133 518.085 780.409 518.085 779.505C518.085 778.601 518.761 777.878 519.661 777.878C520.506 777.878 521.238 778.601 521.238 779.505Z" fill="white"/>
<path opacity="0.47" d="M808.249 924.404C808.249 925.308 807.573 926.031 806.672 926.031C805.771 926.031 805.095 925.308 805.095 924.404C805.095 923.5 805.771 922.776 806.672 922.776C807.517 922.776 808.249 923.5 808.249 924.404Z" fill="white"/>
<path opacity="0.47" d="M675.877 664.563C675.877 665.105 675.482 665.527 674.919 665.527C674.413 665.527 673.962 665.105 673.962 664.563C673.962 664.02 674.356 663.598 674.919 663.598C675.426 663.598 675.877 664.08 675.877 664.563Z" fill="white"/>
<path opacity="0.92" d="M618.558 864.672L619.234 866.842C619.459 867.565 619.966 868.108 620.585 868.288L622.612 869.012C622.837 869.072 622.837 869.434 622.612 869.554L620.585 870.278C619.91 870.519 619.403 871.061 619.234 871.724L618.558 873.894C618.502 874.135 618.108 874.135 618.051 873.894L617.376 871.724C617.151 871.001 616.644 870.458 616.024 870.278L613.998 869.554C613.772 869.494 613.772 869.132 613.998 869.012L616.024 868.288C616.7 868.047 617.207 867.505 617.376 866.842L618.051 864.672C618.108 864.431 618.446 864.431 618.558 864.672Z" fill="white"/>
<path opacity="0.92" d="M558.03 687.949L558.706 690.119C558.931 690.842 559.438 691.385 560.057 691.565L562.084 692.289C562.31 692.349 562.31 692.711 562.084 692.831L560.057 693.554C559.382 693.795 558.875 694.338 558.706 695.001L558.03 697.171C557.974 697.412 557.58 697.412 557.524 697.171L556.848 695.001C556.623 694.278 556.116 693.735 555.497 693.554L553.47 692.831C553.244 692.771 553.244 692.409 553.47 692.289L555.497 691.565C556.172 691.324 556.679 690.782 556.848 690.119L557.524 687.949C557.636 687.708 557.974 687.708 558.03 687.949Z" fill="white"/>
<path opacity="0.92" d="M758.866 701.941L759.541 704.11C759.767 704.834 760.273 705.376 760.949 705.557L762.976 706.28C763.201 706.341 763.201 706.702 762.976 706.823L760.949 707.546C760.273 707.787 759.767 708.33 759.541 708.993L758.866 711.163C758.809 711.404 758.415 711.404 758.359 711.163L757.683 708.993C757.458 708.269 756.951 707.727 756.276 707.546L754.249 706.823C754.024 706.763 754.024 706.401 754.249 706.28L756.276 705.557C756.951 705.316 757.458 704.773 757.683 704.11L758.359 701.941C758.415 701.699 758.753 701.699 758.866 701.941Z" fill="white"/>
<path opacity="0.47" d="M677.341 735.686L677.566 736.349C677.622 736.59 677.791 736.711 678.016 736.771L678.636 737.012C678.692 737.012 678.692 737.133 678.636 737.193L678.016 737.434C677.791 737.494 677.678 737.675 677.566 737.856L677.341 738.519C677.341 738.579 677.228 738.579 677.172 738.519L676.946 737.856C676.89 737.615 676.721 737.494 676.496 737.434L675.877 737.193C675.82 737.193 675.82 737.072 675.877 737.012L676.496 736.771C676.721 736.711 676.834 736.53 676.946 736.349L677.172 735.686C677.228 735.566 677.341 735.566 677.341 735.686Z" fill="white"/>
<path opacity="0.47" d="M789.78 788.34L790.175 789.546C790.287 789.908 790.569 790.209 790.963 790.329L792.089 790.751C792.202 790.812 792.202 790.992 792.089 791.053L790.963 791.475C790.569 791.595 790.287 791.897 790.175 792.258L789.78 793.464C789.724 793.584 789.555 793.584 789.499 793.464L789.105 792.258C788.992 791.897 788.711 791.595 788.317 791.475L787.19 791.053C787.078 790.992 787.078 790.812 787.19 790.751L788.317 790.329C788.654 790.209 788.992 789.908 789.105 789.546L789.499 788.34C789.499 788.22 789.724 788.22 789.78 788.34Z" fill="white"/>
<path opacity="0.47" d="M613.716 676.979L614.11 678.185C614.223 678.546 614.504 678.848 614.899 678.968L616.025 679.39C616.137 679.45 616.137 679.631 616.025 679.691L614.899 680.113C614.561 680.234 614.223 680.535 614.11 680.897L613.716 682.102C613.66 682.223 613.491 682.223 613.435 682.102L613.041 680.897C612.928 680.535 612.646 680.234 612.252 680.113L611.126 679.691C611.014 679.631 611.014 679.45 611.126 679.39L612.252 678.968C612.59 678.848 612.928 678.546 613.041 678.185L613.435 676.979C613.491 676.859 613.66 676.859 613.716 676.979Z" fill="white"/>
<path opacity="0.47" d="M263.67 72.7241C263.67 73.2666 263.276 73.6885 262.713 73.6885C262.206 73.6885 261.756 73.2666 261.756 72.7241C261.756 72.1817 262.15 71.7598 262.713 71.7598C263.22 71.7598 263.67 72.242 263.67 72.7241Z" fill="white"/>
<path opacity="0.92" d="M145.828 96.1105L146.503 98.2804C146.728 99.0037 147.235 99.5461 147.855 99.7269L149.882 100.45C150.107 100.511 150.107 100.872 149.882 100.993L147.855 101.716C147.179 101.957 146.672 102.5 146.503 103.163L145.828 105.332C145.771 105.574 145.377 105.574 145.321 105.332L144.645 103.163C144.42 102.439 143.913 101.897 143.294 101.716L141.267 100.993C141.042 100.932 141.042 100.571 141.267 100.45L143.294 99.7269C143.969 99.4858 144.476 98.9434 144.645 98.2804L145.321 96.1105C145.433 95.8694 145.771 95.8694 145.828 96.1105Z" fill="white"/>
<path opacity="0.92" d="M369.244 149.333L369.92 151.503C370.145 152.226 370.652 152.768 371.327 152.949L373.354 153.672C373.579 153.733 373.579 154.094 373.354 154.215L371.327 154.938C370.652 155.179 370.145 155.722 369.92 156.385L369.244 158.555C369.188 158.796 368.794 158.796 368.737 158.555L368.062 156.385C367.836 155.661 367.33 155.119 366.654 154.938L364.627 154.215C364.402 154.155 364.402 153.793 364.627 153.672L366.654 152.949C367.33 152.708 367.836 152.166 368.062 151.503L368.737 149.333C368.794 149.092 369.131 149.092 369.244 149.333Z" fill="white"/>
<path opacity="0.47" d="M265.138 143.848L265.363 144.511C265.419 144.752 265.588 144.872 265.813 144.933L266.433 145.174C266.489 145.174 266.489 145.294 266.433 145.355L265.813 145.596C265.588 145.656 265.475 145.837 265.363 146.018L265.138 146.681C265.138 146.741 265.025 146.741 264.969 146.681L264.743 146.018C264.687 145.776 264.518 145.656 264.293 145.596L263.674 145.355C263.617 145.355 263.617 145.234 263.674 145.174L264.293 144.933C264.518 144.872 264.631 144.692 264.743 144.511L264.969 143.848C265.025 143.727 265.138 143.727 265.138 143.848Z" fill="white"/>
<path opacity="0.47" d="M201.51 85.1407L201.904 86.3462C202.016 86.7078 202.298 87.0092 202.692 87.1298L203.818 87.5517C203.931 87.6119 203.931 87.7928 203.818 87.853L202.692 88.275C202.354 88.3955 202.016 88.6969 201.904 89.0585L201.51 90.264C201.453 90.3846 201.284 90.3846 201.228 90.264L200.834 89.0585C200.721 88.6969 200.44 88.3955 200.046 88.275L198.92 87.853C198.807 87.7928 198.807 87.6119 198.92 87.5517L200.046 87.1298C200.384 87.0092 200.721 86.7078 200.834 86.3462L201.228 85.1407C201.284 85.0202 201.453 85.0202 201.51 85.1407Z" fill="white"/>
<path opacity="0.47" d="M454.952 146.372C454.952 147.155 454.333 147.818 453.545 147.818C452.756 147.818 452.137 147.155 452.137 146.372C452.137 145.588 452.756 144.925 453.545 144.925C454.333 144.865 454.952 145.528 454.952 146.372Z" fill="white"/>
<path opacity="0.47" d="M629.029 83.7241C629.029 84.2666 628.635 84.6885 628.072 84.6885C627.565 84.6885 627.115 84.2666 627.115 83.7241C627.115 83.1817 627.509 82.7598 628.072 82.7598C628.579 82.7598 629.029 83.242 629.029 83.7241Z" fill="white"/>
<path opacity="0.92" d="M511.187 107.111L511.863 109.28C512.088 110.004 512.595 110.546 513.214 110.727L515.241 111.45C515.466 111.511 515.466 111.872 515.241 111.993L513.214 112.716C512.538 112.957 512.032 113.5 511.863 114.163L511.187 116.332C511.131 116.574 510.737 116.574 510.68 116.332L510.005 114.163C509.78 113.439 509.273 112.897 508.653 112.716L506.626 111.993C506.401 111.932 506.401 111.571 506.626 111.45L508.653 110.727C509.329 110.486 509.836 109.943 510.005 109.28L510.68 107.111C510.793 106.869 511.131 106.869 511.187 107.111Z" fill="white"/>
<path opacity="0.47" d="M566.869 96.1407L567.263 97.3462C567.376 97.7078 567.658 98.0092 568.052 98.1298L569.178 98.5517C569.29 98.6119 569.29 98.7928 569.178 98.853L568.052 99.275C567.714 99.3955 567.376 99.6969 567.263 100.059L566.869 101.264C566.813 101.385 566.644 101.385 566.588 101.264L566.194 100.059C566.081 99.6969 565.8 99.3955 565.405 99.275L564.279 98.853C564.167 98.7928 564.167 98.6119 564.279 98.5517L565.405 98.1298C565.743 98.0092 566.081 97.7078 566.194 97.3462L566.588 96.1407C566.644 96.0202 566.813 96.0202 566.869 96.1407Z" fill="white"/>
<path opacity="0.92" d="M703.678 43.1105L704.354 45.2804C704.579 46.0037 705.086 46.5461 705.705 46.7269L707.732 47.4502C707.958 47.5105 707.958 47.8722 707.732 47.9927L705.705 48.716C705.03 48.9571 704.523 49.4995 704.354 50.1626L703.678 52.3324C703.622 52.5735 703.228 52.5735 703.172 52.3324L702.496 50.1626C702.271 49.4393 701.764 48.8968 701.145 48.716L699.118 47.9927C698.892 47.9324 698.892 47.5708 699.118 47.4502L701.145 46.7269C701.82 46.4858 702.327 45.9434 702.496 45.2804L703.172 43.1105C703.284 42.8694 703.622 42.8694 703.678 43.1105Z" fill="white"/>
<path opacity="0.92" d="M927.095 96.3327L927.771 98.5025C927.996 99.2258 928.503 99.7683 929.178 99.9491L931.205 100.672C931.431 100.733 931.431 101.094 931.205 101.215L929.178 101.938C928.503 102.179 927.996 102.722 927.771 103.385L927.095 105.555C927.039 105.796 926.645 105.796 926.588 105.555L925.913 103.385C925.687 102.661 925.181 102.119 924.505 101.938L922.478 101.215C922.253 101.155 922.253 100.793 922.478 100.672L924.505 99.9491C925.181 99.708 925.687 99.1656 925.913 98.5025L926.588 96.3327C926.645 96.0916 926.982 96.0916 927.095 96.3327Z" fill="white"/>
<path opacity="0.47" d="M822.989 90.8477L823.214 91.5107C823.27 91.7518 823.439 91.8724 823.664 91.9327L824.284 92.1738C824.34 92.1738 824.34 92.2943 824.284 92.3546L823.664 92.5957C823.439 92.656 823.326 92.8368 823.214 93.0176L822.989 93.6806C822.989 93.7409 822.876 93.7409 822.82 93.6806L822.594 93.0176C822.538 92.7765 822.369 92.656 822.144 92.5957L821.525 92.3546C821.468 92.3546 821.468 92.234 821.525 92.1738L822.144 91.9327C822.369 91.8724 822.482 91.6916 822.594 91.5107L822.82 90.8477C822.876 90.7272 822.989 90.7272 822.989 90.8477Z" fill="white"/>
<path opacity="0.47" d="M759.361 32.1407L759.755 33.3462C759.867 33.7078 760.149 34.0092 760.543 34.1298L761.669 34.5517C761.782 34.6119 761.782 34.7928 761.669 34.853L760.543 35.275C760.205 35.3955 759.867 35.6969 759.755 36.0585L759.361 37.264C759.304 37.3846 759.135 37.3846 759.079 37.264L758.685 36.0585C758.572 35.6969 758.291 35.3955 757.897 35.275L756.77 34.853C756.658 34.7928 756.658 34.6119 756.77 34.5517L757.897 34.1298C758.234 34.0092 758.572 33.7078 758.685 33.3462L759.079 32.1407C759.135 32.0202 759.304 32.0202 759.361 32.1407Z" fill="white"/>
<path opacity="0.47" d="M1012.8 93.3718C1012.8 94.1553 1012.18 94.8183 1011.4 94.8183C1010.61 94.8183 1009.99 94.1553 1009.99 93.3718C1009.99 92.5882 1010.61 91.9252 1011.4 91.9252C1012.18 91.8649 1012.8 92.5279 1012.8 93.3718Z" fill="white"/>
<path opacity="0.92" d="M1069.04 54.1105L1069.71 56.2804C1069.94 57.0037 1070.45 57.5461 1071.07 57.7269L1073.09 58.4502C1073.32 58.5105 1073.32 58.8722 1073.09 58.9927L1071.07 59.716C1070.39 59.9571 1069.88 60.4995 1069.71 61.1626L1069.04 63.3324C1068.98 63.5735 1068.59 63.5735 1068.53 63.3324L1067.86 61.1626C1067.63 60.4393 1067.12 59.8968 1066.5 59.716L1064.48 58.9927C1064.25 58.9324 1064.25 58.5708 1064.48 58.4502L1066.5 57.7269C1067.18 57.4858 1067.69 56.9434 1067.86 56.2804L1068.53 54.1105C1068.64 53.8694 1068.98 53.8694 1069.04 54.1105Z" fill="white"/>
<path opacity="0.47" d="M1124.72 43.1407L1125.11 44.3462C1125.23 44.7078 1125.51 45.0092 1125.9 45.1298L1127.03 45.5517C1127.14 45.6119 1127.14 45.7928 1127.03 45.853L1125.9 46.275C1125.56 46.3955 1125.23 46.6969 1125.11 47.0585L1124.72 48.264C1124.66 48.3846 1124.49 48.3846 1124.44 48.264L1124.04 47.0585C1123.93 46.6969 1123.65 46.3955 1123.26 46.275L1122.13 45.853C1122.02 45.7928 1122.02 45.6119 1122.13 45.5517L1123.26 45.1298C1123.59 45.0092 1123.93 44.7078 1124.04 44.3462L1124.44 43.1407C1124.49 43.0202 1124.66 43.0202 1124.72 43.1407Z" fill="white"/>
<path opacity="0.47" d="M837.406 378.724C837.406 379.267 837.012 379.689 836.449 379.689C835.942 379.689 835.491 379.267 835.491 378.724C835.491 378.182 835.886 377.76 836.449 377.76C836.955 377.76 837.406 378.242 837.406 378.724Z" fill="white"/>
<path opacity="0.92" d="M719.564 402.111L720.239 404.28C720.465 405.004 720.971 405.546 721.591 405.727L723.618 406.45C723.843 406.511 723.843 406.872 723.618 406.993L721.591 407.716C720.915 407.957 720.408 408.5 720.239 409.163L719.564 411.332C719.507 411.574 719.113 411.574 719.057 411.332L718.381 409.163C718.156 408.439 717.649 407.897 717.03 407.716L715.003 406.993C714.778 406.932 714.778 406.571 715.003 406.45L717.03 405.727C717.706 405.486 718.212 404.943 718.381 404.28L719.057 402.111C719.169 401.869 719.507 401.869 719.564 402.111Z" fill="white"/>
<path opacity="0.92" d="M942.98 455.333L943.656 457.503C943.881 458.226 944.388 458.768 945.063 458.949L947.09 459.672C947.316 459.733 947.316 460.094 947.09 460.215L945.063 460.938C944.388 461.179 943.881 461.722 943.656 462.385L942.98 464.555C942.924 464.796 942.53 464.796 942.473 464.555L941.798 462.385C941.572 461.661 941.066 461.119 940.39 460.938L938.363 460.215C938.138 460.155 938.138 459.793 938.363 459.672L940.39 458.949C941.066 458.708 941.572 458.166 941.798 457.503L942.473 455.333C942.53 455.092 942.867 455.092 942.98 455.333Z" fill="white"/>
<path opacity="0.47" d="M838.874 449.848L839.099 450.511C839.155 450.752 839.324 450.872 839.55 450.933L840.169 451.174C840.225 451.174 840.225 451.294 840.169 451.355L839.55 451.596C839.324 451.656 839.212 451.837 839.099 452.018L838.874 452.681C838.874 452.741 838.761 452.741 838.705 452.681L838.48 452.018C838.423 451.776 838.254 451.656 838.029 451.596L837.41 451.355C837.354 451.355 837.354 451.234 837.41 451.174L838.029 450.933C838.254 450.872 838.367 450.692 838.48 450.511L838.705 449.848C838.761 449.727 838.874 449.727 838.874 449.848Z" fill="white"/>
<path opacity="0.47" d="M775.246 391.141L775.64 392.346C775.753 392.708 776.034 393.009 776.428 393.13L777.554 393.552C777.667 393.612 777.667 393.793 777.554 393.853L776.428 394.275C776.09 394.396 775.753 394.697 775.64 395.059L775.246 396.264C775.189 396.385 775.021 396.385 774.964 396.264L774.57 395.059C774.457 394.697 774.176 394.396 773.782 394.275L772.656 393.853C772.543 393.793 772.543 393.612 772.656 393.552L773.782 393.13C774.12 393.009 774.457 392.708 774.57 392.346L774.964 391.141C775.021 391.02 775.189 391.02 775.246 391.141Z" fill="white"/>
<path opacity="0.47" d="M1028.69 452.372C1028.69 453.155 1028.07 453.818 1027.28 453.818C1026.49 453.818 1025.87 453.155 1025.87 452.372C1025.87 451.588 1026.49 450.925 1027.28 450.925C1028.07 450.865 1028.69 451.528 1028.69 452.372Z" fill="white"/>
<path opacity="0.92" d="M1084.92 413.111L1085.6 415.28C1085.82 416.004 1086.33 416.546 1086.95 416.727L1088.98 417.45C1089.2 417.511 1089.2 417.872 1088.98 417.993L1086.95 418.716C1086.27 418.957 1085.77 419.5 1085.6 420.163L1084.92 422.332C1084.87 422.574 1084.47 422.574 1084.42 422.332L1083.74 420.163C1083.52 419.439 1083.01 418.897 1082.39 418.716L1080.36 417.993C1080.14 417.932 1080.14 417.571 1080.36 417.45L1082.39 416.727C1083.07 416.486 1083.57 415.943 1083.74 415.28L1084.42 413.111C1084.53 412.869 1084.87 412.869 1084.92 413.111Z" fill="white"/>
<path opacity="0.47" d="M122.572 417.724C122.572 418.267 122.178 418.689 121.615 418.689C121.108 418.689 120.657 418.267 120.657 417.724C120.657 417.182 121.052 416.76 121.615 416.76C122.121 416.76 122.572 417.242 122.572 417.724Z" fill="white"/>
<path opacity="0.92" d="M4.72963 441.111L5.4053 443.28C5.63052 444.004 6.13728 444.546 6.75664 444.727L8.78362 445.45C9.00884 445.511 9.00884 445.872 8.78362 445.993L6.75664 446.716C6.08098 446.957 5.57422 447.5 5.4053 448.163L4.72963 450.332C4.67333 450.574 4.27921 450.574 4.2229 450.332L3.54723 448.163C3.32201 447.439 2.81525 446.897 2.19589 446.716L0.168916 445.993C-0.0563053 445.932 -0.0563053 445.571 0.168916 445.45L2.19589 444.727C2.87156 444.486 3.37832 443.943 3.54723 443.28L4.2229 441.111C4.33551 440.869 4.67333 440.869 4.72963 441.111Z" fill="white"/>
<path opacity="0.92" d="M228.146 494.333L228.822 496.503C229.047 497.226 229.554 497.768 230.229 497.949L232.256 498.672C232.482 498.733 232.482 499.094 232.256 499.215L230.229 499.938C229.554 500.179 229.047 500.722 228.822 501.385L228.146 503.555C228.09 503.796 227.696 503.796 227.639 503.555L226.964 501.385C226.738 500.661 226.232 500.119 225.556 499.938L223.529 499.215C223.304 499.155 223.304 498.793 223.529 498.672L225.556 497.949C226.232 497.708 226.738 497.166 226.964 496.503L227.639 494.333C227.696 494.092 228.033 494.092 228.146 494.333Z" fill="white"/>
<path opacity="0.47" d="M124.04 488.848L124.265 489.511C124.321 489.752 124.49 489.872 124.716 489.933L125.335 490.174C125.391 490.174 125.391 490.294 125.335 490.355L124.716 490.596C124.49 490.656 124.378 490.837 124.265 491.018L124.04 491.681C124.04 491.741 123.927 491.741 123.871 491.681L123.646 491.018C123.589 490.776 123.42 490.656 123.195 490.596L122.576 490.355C122.52 490.355 122.52 490.234 122.576 490.174L123.195 489.933C123.42 489.872 123.533 489.692 123.646 489.511L123.871 488.848C123.927 488.727 124.04 488.727 124.04 488.848Z" fill="white"/>
<path opacity="0.47" d="M60.4118 430.141L60.8059 431.346C60.9185 431.708 61.2 432.009 61.5942 432.13L62.7203 432.552C62.8329 432.612 62.8329 432.793 62.7203 432.853L61.5942 433.275C61.2564 433.396 60.9185 433.697 60.8059 434.059L60.4118 435.264C60.3555 435.385 60.1866 435.385 60.1303 435.264L59.7361 434.059C59.6235 433.697 59.342 433.396 58.9479 433.275L57.8218 432.853C57.7092 432.793 57.7092 432.612 57.8218 432.552L58.9479 432.13C59.2857 432.009 59.6235 431.708 59.7361 431.346L60.1303 430.141C60.1866 430.02 60.3555 430.02 60.4118 430.141Z" fill="white"/>
<path opacity="0.47" d="M313.854 491.372C313.854 492.155 313.235 492.818 312.446 492.818C311.658 492.818 311.039 492.155 311.039 491.372C311.039 490.588 311.658 489.925 312.446 489.925C313.235 489.865 313.854 490.528 313.854 491.372Z" fill="white"/>
<path opacity="0.47" d="M487.931 428.724C487.931 429.267 487.537 429.689 486.974 429.689C486.468 429.689 486.017 429.267 486.017 428.724C486.017 428.182 486.411 427.76 486.974 427.76C487.481 427.76 487.931 428.242 487.931 428.724Z" fill="white"/>
<path opacity="0.92" d="M370.089 452.111L370.765 454.28C370.99 455.004 371.497 455.546 372.117 455.727L374.143 456.45C374.369 456.511 374.369 456.872 374.143 456.993L372.117 457.716C371.441 457.957 370.934 458.5 370.765 459.163L370.089 461.332C370.033 461.574 369.639 461.574 369.583 461.332L368.907 459.163C368.682 458.439 368.175 457.897 367.556 457.716L365.529 456.993C365.304 456.932 365.304 456.571 365.529 456.45L367.556 455.727C368.231 455.486 368.738 454.943 368.907 454.28L369.583 452.111C369.695 451.869 370.033 451.869 370.089 452.111Z" fill="white"/>
<path opacity="0.47" d="M425.771 441.141L426.166 442.346C426.278 442.708 426.56 443.009 426.954 443.13L428.08 443.552C428.193 443.612 428.193 443.793 428.08 443.853L426.954 444.275C426.616 444.396 426.278 444.697 426.166 445.059L425.771 446.264C425.715 446.385 425.546 446.385 425.49 446.264L425.096 445.059C424.983 444.697 424.702 444.396 424.307 444.275L423.181 443.853C423.069 443.793 423.069 443.612 423.181 443.552L424.307 443.13C424.645 443.009 424.983 442.708 425.096 442.346L425.49 441.141C425.546 441.02 425.715 441.02 425.771 441.141Z" fill="white"/>
<path opacity="0.47" d="M865.228 861.13C865.228 861.913 864.609 862.576 863.82 862.576C863.032 862.576 862.413 861.913 862.413 861.13C862.413 860.346 863.032 859.683 863.82 859.683C864.609 859.683 865.228 860.346 865.228 861.13Z" fill="white"/>
<path opacity="0.47" d="M799.809 777.626C799.809 778.409 799.19 779.072 798.402 779.072C797.613 779.072 796.994 778.409 796.994 777.626C796.994 776.842 797.613 776.179 798.402 776.179C799.19 776.119 799.809 776.782 799.809 777.626Z" fill="white"/>
<path opacity="0.47" d="M987.974 683.563C987.974 684.105 987.58 684.527 987.017 684.527C986.51 684.527 986.06 684.105 986.06 683.563C986.06 683.02 986.454 682.598 987.017 682.598C987.524 682.598 987.974 683.08 987.974 683.563Z" fill="white"/>
<path opacity="0.92" d="M967.186 915.941L967.862 918.11C968.087 918.834 968.594 919.376 969.213 919.557L971.24 920.28C971.465 920.341 971.465 920.702 971.24 920.823L969.213 921.546C968.537 921.787 968.031 922.33 967.862 922.993L967.186 925.163C967.13 925.404 966.736 925.404 966.679 925.163L966.004 922.993C965.779 922.269 965.272 921.727 964.652 921.546L962.625 920.823C962.4 920.763 962.4 920.401 962.625 920.28L964.652 919.557C965.328 919.316 965.835 918.773 966.004 918.11L966.679 915.941C966.736 915.699 967.074 915.699 967.186 915.941Z" fill="white"/>
<path opacity="0.92" d="M870.128 706.949L870.804 709.119C871.029 709.842 871.536 710.385 872.155 710.565L874.182 711.289C874.408 711.349 874.408 711.711 874.182 711.831L872.155 712.554C871.48 712.795 870.973 713.338 870.804 714.001L870.128 716.171C870.072 716.412 869.678 716.412 869.622 716.171L868.946 714.001C868.721 713.278 868.214 712.735 867.595 712.554L865.568 711.831C865.342 711.771 865.342 711.409 865.568 711.289L867.595 710.565C868.27 710.324 868.777 709.782 868.946 709.119L869.622 706.949C869.734 706.708 870.072 706.708 870.128 706.949Z" fill="white"/>
<path opacity="0.92" d="M1093.55 760.171L1094.22 762.341C1094.45 763.064 1094.95 763.607 1095.63 763.787L1097.66 764.511C1097.88 764.571 1097.88 764.933 1097.66 765.053L1095.63 765.777C1094.95 766.018 1094.45 766.56 1094.22 767.223L1093.55 769.393C1093.49 769.634 1093.1 769.634 1093.04 769.393L1092.36 767.223C1092.14 766.5 1091.63 765.957 1090.96 765.777L1088.93 765.053C1088.7 764.993 1088.7 764.631 1088.93 764.511L1090.96 763.787C1091.63 763.546 1092.14 763.004 1092.36 762.341L1093.04 760.171C1093.1 759.93 1093.43 759.93 1093.55 760.171Z" fill="white"/>
<path opacity="0.47" d="M967.947 785.686L968.172 786.349C968.228 786.59 968.397 786.711 968.622 786.771L969.242 787.012C969.298 787.012 969.298 787.133 969.242 787.193L968.622 787.434C968.397 787.494 968.284 787.675 968.172 787.856L967.947 788.519C967.947 788.579 967.834 788.579 967.778 788.519L967.552 787.856C967.496 787.615 967.327 787.494 967.102 787.434L966.483 787.193C966.426 787.193 966.426 787.072 966.483 787.012L967.102 786.771C967.327 786.711 967.44 786.53 967.552 786.349L967.778 785.686C967.834 785.566 967.947 785.566 967.947 785.686Z" fill="white"/>
<path opacity="0.47" d="M1141.12 784.34L1141.52 785.546C1141.63 785.908 1141.91 786.209 1142.31 786.329L1143.43 786.751C1143.54 786.812 1143.54 786.992 1143.43 787.053L1142.31 787.475C1141.91 787.595 1141.63 787.897 1141.52 788.258L1141.12 789.464C1141.07 789.584 1140.9 789.584 1140.84 789.464L1140.45 788.258C1140.34 787.897 1140.05 787.595 1139.66 787.475L1138.53 787.053C1138.42 786.992 1138.42 786.812 1138.53 786.751L1139.66 786.329C1140 786.209 1140.34 785.908 1140.45 785.546L1140.84 784.34C1140.84 784.22 1141.07 784.22 1141.12 784.34Z" fill="white"/>
<path opacity="0.47" d="M925.814 695.979L926.208 697.185C926.321 697.546 926.602 697.848 926.996 697.968L928.122 698.39C928.235 698.45 928.235 698.631 928.122 698.691L926.996 699.113C926.658 699.234 926.321 699.535 926.208 699.897L925.814 701.102C925.758 701.223 925.589 701.223 925.532 701.102L925.138 699.897C925.026 699.535 924.744 699.234 924.35 699.113L923.224 698.691C923.111 698.631 923.111 698.45 923.224 698.39L924.35 697.968C924.688 697.848 925.026 697.546 925.138 697.185L925.532 695.979C925.589 695.859 925.758 695.859 925.814 695.979Z" fill="white"/>
<path d="M831.479 679.864C831.422 679.623 831.31 679.321 831.197 679.141C831.197 679.141 831.197 679.08 831.141 679.08C831.085 679.02 831.085 678.96 831.028 678.899C831.028 678.899 831.028 678.899 831.028 678.839C830.803 678.538 830.522 678.357 830.24 678.236L821.231 675.343L818.754 672.752C818.247 668.834 814.813 665.76 810.646 665.76C806.479 665.76 803.045 668.773 802.538 672.752H802.425L799.948 675.343H799.892L790.883 678.236C790.489 678.357 790.151 678.658 789.869 679.08C789.813 679.201 789.701 679.382 789.701 679.502C789.701 679.563 789.644 679.623 789.644 679.683V679.743C789.644 679.804 789.644 679.864 789.588 679.864V679.924C789.588 679.984 789.588 680.045 789.588 680.045V680.105C789.588 680.165 789.588 680.226 789.588 680.286C789.588 680.828 789.757 681.31 789.982 681.672C790.038 681.732 790.038 681.793 790.095 681.853C790.432 682.275 790.827 682.516 791.333 682.516H800.061L802.425 685.168H804.847L806.198 688.001H815.038L816.389 685.168H818.81L821.175 682.516H824.722H829.902C829.959 682.516 830.015 682.516 830.071 682.516H830.127C830.184 682.516 830.184 682.516 830.24 682.516H830.296C830.353 682.516 830.353 682.516 830.409 682.456C830.465 682.456 830.522 682.395 830.522 682.395C830.522 682.395 830.578 682.395 830.578 682.335C830.634 682.335 830.634 682.275 830.634 682.275C830.634 682.275 830.691 682.275 830.691 682.215C830.747 682.215 830.747 682.154 830.747 682.154L830.803 682.094C830.859 682.094 830.859 682.034 830.916 682.034L830.972 681.973L831.028 681.913L831.085 681.853C831.085 681.853 831.085 681.793 831.141 681.793C831.197 681.672 831.254 681.612 831.31 681.491V681.431C831.31 681.371 831.366 681.371 831.366 681.31V681.25C831.479 680.949 831.535 680.647 831.535 680.286C831.535 680.226 831.535 680.045 831.479 679.864Z" fill="#252A2E"/>
<path d="M1151.97 908.905C1151.86 908.483 1151.75 908.061 1151.52 907.639C1151.52 907.579 1151.46 907.579 1151.46 907.519C1151.41 907.398 1151.35 907.338 1151.29 907.278C1151.29 907.278 1151.29 907.217 1151.24 907.217C1150.9 906.735 1150.45 906.434 1149.89 906.253L1135.02 901.491L1130.91 897.272C1130.07 890.763 1124.38 885.76 1117.51 885.76C1110.64 885.76 1105.01 890.763 1104.11 897.272H1104.05L1099.94 901.491H1099.89L1085.08 906.253C1084.4 906.494 1083.84 906.976 1083.45 907.639C1083.33 907.88 1083.22 908.121 1083.11 908.362V908.423C1083.11 908.483 1083.05 908.604 1083.05 908.664V908.724C1083.05 908.784 1083 908.905 1083 908.965C1083 909.025 1083 909.025 1083 909.086C1083 909.146 1083 909.267 1083 909.327C1083 909.387 1083 909.387 1083 909.447C1083 909.568 1083 909.689 1083 909.809C1083 910.713 1083.22 911.497 1083.62 912.099C1083.67 912.22 1083.73 912.28 1083.79 912.341C1084.29 913.004 1085.02 913.426 1085.81 913.426H1100.17L1104 917.765H1107.94L1110.14 922.406H1124.66L1126.86 917.765H1130.8L1134.63 913.426H1140.43H1148.99C1149.1 913.426 1149.16 913.426 1149.27 913.426H1149.32C1149.38 913.426 1149.44 913.425 1149.49 913.365H1149.55C1149.61 913.365 1149.66 913.305 1149.77 913.305C1149.77 913.305 1149.77 913.305 1149.83 913.305C1149.89 913.245 1150 913.245 1150.06 913.184L1150.11 913.124C1150.17 913.124 1150.23 913.064 1150.23 913.064C1150.28 913.064 1150.28 913.004 1150.34 913.004C1150.39 912.943 1150.45 912.943 1150.45 912.883C1150.51 912.883 1150.51 912.823 1150.56 912.762C1150.62 912.702 1150.68 912.642 1150.73 912.642C1150.79 912.582 1150.79 912.582 1150.84 912.521C1150.84 912.461 1150.9 912.461 1150.9 912.401C1150.96 912.341 1150.96 912.341 1151.01 912.28L1151.07 912.22C1151.18 912.039 1151.29 911.858 1151.35 911.678C1151.35 911.678 1151.35 911.617 1151.41 911.617C1151.41 911.557 1151.46 911.497 1151.46 911.436V911.376C1151.63 910.894 1151.75 910.352 1151.75 909.809C1152.03 909.508 1152.03 909.206 1151.97 908.905Z" fill="#25262D"/>
</svg>
