<svg width="1152" height="708" viewBox="0 0 1152 708" fill="none" xmlns="http://www.w3.org/2000/svg">
<rect width="1152" height="708" fill="url(#paint0_linear_78_57)"/>
<path opacity="0.92" d="M704.441 392.966C704.441 394.191 703.453 395.18 702.227 395.18C701.002 395.18 700.013 394.191 700.013 392.966C700.013 391.74 701.002 390.752 702.227 390.752C703.453 390.752 704.441 391.74 704.441 392.966Z" fill="white"/>
<path opacity="0.92" d="M357.972 49.8181C357.972 51.0441 356.976 52.032 355.759 52.032C354.541 52.032 353.545 51.0353 353.545 49.8181C353.545 48.5921 354.541 47.6042 355.759 47.6042C356.976 47.6042 357.972 48.6009 357.972 49.8181Z" fill="white"/>
<path opacity="0.47" d="M1002.2 282.826C1002.2 283.739 1001.21 284.487 999.991 284.487C998.774 284.487 997.777 283.739 997.777 282.826C997.777 281.914 998.774 281.166 999.991 281.166C1001.22 281.166 1002.2 281.903 1002.2 282.826Z" fill="white"/>
<path opacity="0.47" d="M953.499 157.19C953.499 158.407 953.25 159.404 952.946 159.404C952.641 159.404 952.392 158.407 952.392 157.19C952.392 155.973 952.641 154.976 952.946 154.976C953.253 154.976 953.499 155.973 953.499 157.19Z" fill="white"/>
<path opacity="0.47" d="M1071.94 110.146C1071.94 111.674 1071.2 112.913 1070.28 112.913C1069.36 112.913 1068.62 111.674 1068.62 110.146C1068.62 108.618 1069.36 107.378 1070.28 107.378C1071.2 107.378 1071.94 108.618 1071.94 110.146Z" fill="white"/>
<path opacity="0.47" d="M1034.31 194.272C1034.31 195.185 1033.31 195.933 1032.09 195.933C1030.88 195.933 1029.88 195.185 1029.88 194.272C1029.88 193.36 1030.88 192.612 1032.09 192.612C1033.31 192.612 1034.31 193.36 1034.31 194.272Z" fill="white"/>
<path opacity="0.47" d="M612.564 251.279C612.564 251.893 612.071 252.386 611.458 252.386C610.844 252.386 610.351 251.893 610.351 251.279C610.351 250.665 610.844 250.172 611.458 250.172C612.071 250.172 612.564 250.665 612.564 251.279Z" fill="white"/>
<path opacity="0.47" d="M499.658 195.933C499.658 196.541 498.661 197.04 497.445 197.04C496.228 197.04 495.231 196.541 495.231 195.933C495.231 195.324 496.228 194.826 497.445 194.826C498.661 194.826 499.658 195.324 499.658 195.933Z" fill="white"/>
<path opacity="0.47" d="M755.359 169.92C755.359 171.448 754.616 172.687 753.699 172.687C752.782 172.687 752.039 171.448 752.039 169.92C752.039 168.392 752.782 167.153 753.699 167.153C754.616 167.139 755.359 168.378 755.359 169.92Z" fill="white"/>
<path opacity="0.92" d="M397.822 254.599C397.822 256.438 396.327 257.92 394.501 257.92C392.675 257.92 391.18 256.425 391.18 254.599C391.18 252.76 392.675 251.279 394.501 251.279C396.327 251.279 397.822 252.774 397.822 254.599Z" fill="white"/>
<path opacity="0.47" d="M1067.51 232.461C1067.51 233.075 1066.77 233.568 1065.85 233.568C1064.93 233.568 1064.19 233.075 1064.19 232.461C1064.19 231.847 1064.93 231.354 1065.85 231.354C1066.77 231.365 1067.51 231.858 1067.51 232.461Z" fill="url(#paint1_linear_78_57)"/>
<path opacity="0.92" d="M1039.84 95.7556C1039.84 96.6725 1038.85 97.416 1037.62 97.416C1036.4 97.416 1035.41 96.6725 1035.41 95.7556C1035.41 94.8387 1036.4 94.0952 1037.62 94.0952C1038.85 94.0952 1039.84 94.8387 1039.84 95.7556Z" fill="white"/>
<path opacity="0.92" d="M971.763 369.72C973.292 369.72 974.531 368.233 974.531 366.399C974.531 364.565 973.292 363.078 971.763 363.078C970.235 363.078 968.996 364.565 968.996 366.399C968.996 368.233 970.235 369.72 971.763 369.72Z" fill="white"/>
<path opacity="0.47" d="M701.12 306.072C701.12 306.993 700.38 307.732 699.459 307.732C698.539 307.732 697.799 306.993 697.799 306.072C697.799 305.151 698.539 304.412 699.459 304.412C700.38 304.412 701.12 305.151 701.12 306.072Z" fill="white"/>
<path opacity="0.47" d="M572.715 211.429C572.715 212.652 571.476 213.643 569.947 213.643C568.419 213.643 567.18 212.652 567.18 211.429C567.18 210.207 568.419 209.216 569.947 209.216C571.476 209.216 572.715 210.196 572.715 211.429Z" fill="white"/>
<path opacity="0.92" d="M552.791 104.058C552.791 105.283 551.803 106.271 550.577 106.271C549.352 106.271 548.363 105.283 548.363 104.058C548.363 102.832 549.352 101.844 550.577 101.844C551.803 101.844 552.791 102.832 552.791 104.058Z" fill="white"/>
<path opacity="0.47" d="M1110.68 73.0632C1110.68 73.6745 1110.19 74.1702 1109.58 74.1702C1108.97 74.1702 1108.47 73.6745 1108.47 73.0632C1108.47 72.4519 1108.97 71.9563 1109.58 71.9563C1110.19 71.9563 1110.68 72.4519 1110.68 73.0632Z" fill="white"/>
<path opacity="0.47" d="M1120.65 122.875C1120.65 123.487 1120.4 123.982 1120.09 123.982C1119.79 123.982 1119.54 123.487 1119.54 122.875C1119.54 122.264 1119.79 121.768 1120.09 121.768C1120.4 121.768 1120.65 122.264 1120.65 122.875Z" fill="white"/>
<path opacity="0.47" d="M734.328 205.341C734.328 205.647 733.833 205.895 733.221 205.895C732.61 205.895 732.115 205.647 732.115 205.341C732.115 205.035 732.61 204.788 733.221 204.788C733.833 204.788 734.328 205.035 734.328 205.341Z" fill="white"/>
<path opacity="0.47" d="M1111.79 281.166C1111.79 281.779 1110.8 282.273 1109.58 282.273C1108.35 282.273 1107.36 281.779 1107.36 281.166C1107.36 280.553 1108.35 280.059 1109.58 280.059C1110.8 280.059 1111.79 280.553 1111.79 281.166Z" fill="white"/>
<path opacity="0.47" d="M952.393 71.9565C952.393 72.5686 951.898 73.0635 951.286 73.0635C950.674 73.0635 950.179 72.5686 950.179 71.9565C950.179 71.3445 950.674 70.8496 951.286 70.8496C951.898 70.8496 952.393 71.3445 952.393 71.9565Z" fill="white"/>
<path opacity="0.47" d="M918.078 312.714C918.078 313.022 917.577 313.267 916.971 313.267C916.353 313.267 915.864 313.017 915.864 312.714C915.864 312.405 916.365 312.16 916.971 312.16C917.588 312.16 918.078 312.405 918.078 312.714Z" fill="white"/>
<path opacity="0.47" d="M836.164 63.1011C836.164 63.7148 835.671 64.208 835.057 64.208C834.443 64.208 833.95 63.7148 833.95 63.1011C833.95 62.4873 834.443 61.9941 835.057 61.9941C835.671 62.0051 836.164 62.4983 836.164 63.1011Z" fill="white"/>
<path opacity="0.47" d="M1096.29 173.24C1096.29 174.762 1095.06 176.008 1093.53 176.008C1092 176.008 1090.76 174.776 1090.76 173.24C1090.76 171.704 1091.99 170.473 1093.53 170.473C1095.05 170.473 1096.29 171.704 1096.29 173.24Z" fill="white"/>
<path opacity="0.47" d="M990.029 102.397C990.029 103.318 989.289 104.058 988.368 104.058C987.448 104.058 986.708 103.318 986.708 102.397C986.708 101.477 987.448 100.737 988.368 100.737C989.289 100.737 990.029 101.477 990.029 102.397Z" fill="white"/>
<path opacity="0.92" d="M489.696 306.072C489.696 307.6 488.705 308.839 487.482 308.839C486.26 308.839 485.269 307.6 485.269 306.072C485.269 304.544 486.26 303.304 487.482 303.304C488.705 303.304 489.696 304.544 489.696 306.072Z" fill="white"/>
<path opacity="0.71" d="M667.911 133.944C667.911 134.558 667.171 135.051 666.251 135.051C665.33 135.051 664.59 134.558 664.59 133.944C664.59 133.331 665.33 132.837 666.251 132.837C667.171 132.848 667.911 133.342 667.911 133.944Z" fill="white"/>
<path opacity="0.92" d="M1006.29 129.648L1006.87 131.148C1007.05 131.627 1007.49 132.005 1008.05 132.161L1009.8 132.658C1010 132.713 1010 132.962 1009.8 133.017L1008.05 133.514C1007.49 133.671 1007.05 134.048 1006.87 134.527L1006.29 136.027C1006.22 136.202 1005.93 136.202 1005.87 136.027L1005.29 134.527C1005.11 134.048 1004.67 133.671 1004.11 133.514L1002.36 133.017C1002.15 132.962 1002.15 132.713 1002.36 132.658L1004.11 132.161C1004.67 132.005 1005.11 131.627 1005.29 131.148L1005.87 129.648C1005.93 129.473 1006.22 129.473 1006.29 129.648Z" fill="white"/>
<path opacity="0.92" d="M444.551 129.648L445.213 131.148C445.422 131.627 445.925 132.005 446.563 132.161L448.564 132.658C448.797 132.713 448.797 132.962 448.564 133.017L446.563 133.514C445.925 133.671 445.422 134.048 445.213 134.527L444.551 136.027C444.477 136.202 444.146 136.202 444.072 136.027L443.409 134.527C443.201 134.048 442.697 133.671 442.059 133.514L440.058 133.017C439.825 132.962 439.825 132.713 440.058 132.658L442.059 132.161C442.697 132.005 443.201 131.627 443.409 131.148L444.072 129.648C444.146 129.473 444.477 129.473 444.551 129.648Z" fill="white"/>
<path opacity="0.92" d="M364.33 172.84L365.075 174.59C365.31 175.149 365.876 175.589 366.594 175.772L368.845 176.352C369.107 176.416 369.107 176.706 368.845 176.77L366.594 177.35C365.876 177.533 365.31 177.973 365.075 178.532L364.33 180.282C364.247 180.486 363.874 180.486 363.791 180.282L363.046 178.532C362.811 177.973 362.245 177.533 361.527 177.35L359.276 176.77C359.014 176.706 359.014 176.416 359.276 176.352L361.527 175.772C362.245 175.589 362.811 175.149 363.046 174.59L363.791 172.84C363.874 172.636 364.247 172.636 364.33 172.84Z" fill="white"/>
<path opacity="0.92" d="M977.108 203.907L978.095 206.405C978.417 207.21 979.162 207.83 980.129 208.099L983.13 208.92C983.472 209.021 983.472 209.423 983.13 209.524L980.129 210.345C979.162 210.613 978.417 211.234 978.095 212.038L977.108 214.536C976.987 214.821 976.483 214.821 976.383 214.536L975.396 212.038C975.073 211.234 974.328 210.613 973.361 210.345L970.36 209.524C970.018 209.423 970.018 209.021 970.36 208.92L973.361 208.099C974.328 207.83 975.073 207.21 975.396 206.405L976.383 203.907C976.503 203.605 976.987 203.605 977.108 203.907Z" fill="white"/>
<path opacity="0.92" d="M822.077 193.945L822.9 196.443C823.168 197.248 823.79 197.868 824.595 198.136L827.096 198.958C827.381 199.059 827.381 199.461 827.096 199.561L824.595 200.383C823.79 200.651 823.168 201.272 822.9 202.076L822.077 204.574C821.977 204.859 821.557 204.859 821.473 204.574L820.651 202.076C820.382 201.272 819.761 200.651 818.956 200.383L816.455 199.561C816.169 199.461 816.169 199.059 816.455 198.958L818.956 198.136C819.761 197.868 820.382 197.248 820.651 196.443L821.473 193.945C821.574 193.643 821.977 193.643 822.077 193.945Z" fill="white"/>
<path opacity="0.92" d="M692.566 233.84L693.388 236.837C693.657 237.803 694.278 238.547 695.084 238.869L697.585 239.855C697.87 239.976 697.87 240.459 697.585 240.579L695.084 241.565C694.278 241.887 693.657 242.631 693.388 243.597L692.566 246.595C692.465 246.937 692.046 246.937 691.962 246.595L691.139 243.597C690.871 242.631 690.25 241.887 689.444 241.565L686.943 240.579C686.658 240.459 686.658 239.976 686.943 239.855L689.444 238.869C690.25 238.547 690.871 237.803 691.139 236.837L691.962 233.84C692.063 233.478 692.465 233.478 692.566 233.84Z" fill="white"/>
<path opacity="0.47" d="M821.432 117.515L822.012 119.516C822.194 120.154 822.635 120.658 823.193 120.866L824.944 121.529C825.148 121.603 825.148 121.934 824.944 122.008L823.193 122.67C822.635 122.879 822.194 123.382 822.012 124.02L821.432 126.021C821.367 126.254 821.077 126.254 821.013 126.021L820.433 124.02C820.25 123.382 819.81 122.879 819.252 122.67L817.501 122.008C817.297 121.934 817.297 121.603 817.501 121.529L819.252 120.866C819.81 120.658 820.25 120.154 820.433 119.516L821.013 117.515C821.067 117.282 821.357 117.282 821.432 117.515Z" fill="white"/>
<path opacity="0.92" d="M1109.76 223.715L1110.26 224.962C1110.42 225.367 1110.8 225.67 1111.27 225.805L1112.76 226.221C1112.94 226.266 1112.94 226.48 1112.76 226.525L1111.27 226.94C1110.78 227.075 1110.42 227.39 1110.26 227.783L1109.76 229.031C1109.7 229.177 1109.45 229.177 1109.39 229.031L1108.89 227.783C1108.73 227.379 1108.36 227.075 1107.88 226.94L1106.39 226.525C1106.21 226.48 1106.21 226.266 1106.39 226.221L1107.88 225.805C1108.37 225.67 1108.73 225.356 1108.89 224.962L1109.39 223.715C1109.45 223.569 1109.69 223.569 1109.76 223.715Z" fill="white"/>
<path opacity="0.47" d="M922.686 210.451L923.179 211.951C923.34 212.435 923.713 212.807 924.196 212.969L925.697 213.462C925.868 213.522 925.868 213.764 925.697 213.825L924.196 214.318C923.713 214.479 923.34 214.852 923.179 215.335L922.686 216.836C922.625 217.007 922.384 217.007 922.323 216.836L921.83 215.335C921.669 214.852 921.296 214.479 920.813 214.318L919.312 213.825C919.141 213.764 919.141 213.522 919.312 213.462L920.813 212.969C921.296 212.807 921.669 212.435 921.83 211.951L922.323 210.451C922.373 210.28 922.625 210.28 922.686 210.451Z" fill="white"/>
<path opacity="0.47" d="M817.004 256.942L817.58 258.442C817.768 258.926 818.203 259.298 818.767 259.46L820.517 259.953C820.717 260.013 820.717 260.255 820.517 260.316L818.767 260.809C818.203 260.97 817.768 261.343 817.58 261.826L817.004 263.327C816.934 263.498 816.652 263.498 816.581 263.327L816.006 261.826C815.818 261.343 815.383 260.97 814.819 260.809L813.068 260.316C812.869 260.255 812.869 260.013 813.068 259.953L814.819 259.46C815.383 259.298 815.818 258.926 816.006 258.442L816.581 256.942C816.64 256.771 816.934 256.771 817.004 256.942Z" fill="white"/>
<path opacity="0.47" d="M778.728 66.4874L779.064 67.2326C779.167 67.4738 779.415 67.6601 779.737 67.7368L780.73 67.9889C780.847 68.0217 780.847 68.1423 780.73 68.1752L779.737 68.4273C779.415 68.504 779.167 68.6903 779.064 68.9314L778.728 69.6767C778.684 69.7643 778.524 69.7643 778.48 69.6767L778.144 68.9314C778.041 68.6903 777.793 68.504 777.472 68.4273L776.478 68.1752C776.361 68.1423 776.361 68.0217 776.478 67.9889L777.472 67.7368C777.793 67.6601 778.041 67.4738 778.144 67.2326L778.48 66.4874C778.524 66.3997 778.684 66.3997 778.728 66.4874Z" fill="white"/>
<path opacity="0.47" d="M1064.96 305.647L1065.54 307.145C1065.73 307.621 1066.17 307.998 1066.72 308.157L1068.47 308.657C1068.67 308.717 1068.67 308.961 1068.47 309.022L1066.72 309.522C1066.17 309.68 1065.73 310.058 1065.54 310.533L1064.96 312.032C1064.89 312.203 1064.6 312.203 1064.53 312.032L1063.95 310.533C1063.77 310.058 1063.32 309.68 1062.77 309.522L1061.02 309.022C1060.82 308.961 1060.82 308.717 1061.02 308.657L1062.77 308.157C1063.32 307.998 1063.77 307.621 1063.95 307.145L1064.53 305.647C1064.6 305.476 1064.89 305.476 1064.96 305.647Z" fill="white"/>
<path opacity="0.47" d="M576.218 60.9941L576.718 62.2432C576.876 62.6392 577.254 62.9541 577.73 63.0861L579.228 63.5024C579.399 63.5532 579.399 63.7563 579.228 63.8071L577.73 64.2235C577.254 64.3555 576.876 64.6703 576.718 65.0664L576.218 66.3155C576.157 66.4576 575.914 66.4576 575.853 66.3155L575.353 65.0664C575.195 64.6703 574.817 64.3555 574.342 64.2235L572.843 63.8071C572.672 63.7563 572.672 63.5532 572.843 63.5024L574.342 63.0861C574.817 62.9541 575.195 62.6392 575.353 62.2432L575.853 60.9941C575.914 60.8519 576.157 60.8519 576.218 60.9941Z" fill="white"/>
<path opacity="0.47" d="M146.207 115.255L146.79 116.754C146.975 117.229 147.416 117.607 147.97 117.765L149.719 118.265C149.918 118.326 149.918 118.569 149.719 118.63L147.97 119.13C147.416 119.288 146.975 119.666 146.79 120.141L146.207 121.64C146.136 121.811 145.852 121.811 145.781 121.64L145.198 120.141C145.013 119.666 144.572 119.288 144.018 119.13L142.269 118.63C142.07 118.569 142.07 118.326 142.269 118.265L144.018 117.765C144.572 117.607 145.013 117.229 145.198 116.754L145.781 115.255C145.852 115.084 146.136 115.084 146.207 115.255Z" fill="white"/>
<path opacity="0.47" d="M432.901 60.9941L433.484 62.2432C433.669 62.6392 434.11 62.9541 434.664 63.0861L436.413 63.5024C436.612 63.5532 436.612 63.7563 436.413 63.8071L434.664 64.2235C434.11 64.3555 433.669 64.6703 433.484 65.0664L432.901 66.3155C432.83 66.4576 432.546 66.4576 432.475 66.3155L431.892 65.0664C431.707 64.6703 431.266 64.3555 430.712 64.2235L428.963 63.8071C428.764 63.7563 428.764 63.5532 428.963 63.5024L430.712 63.0861C431.266 62.9541 431.707 62.6392 431.892 62.2432L432.475 60.9941C432.546 60.8519 432.83 60.8519 432.901 60.9941Z" fill="white"/>
<path opacity="0.47" d="M107.927 54.3738L108.26 55.8727C108.366 56.348 108.618 56.7258 108.935 56.8842L109.934 57.3838C110.048 57.4448 110.048 57.6885 109.934 57.7494L108.935 58.2491C108.618 58.4075 108.366 58.7853 108.26 59.2605L107.927 60.7595C107.887 60.9301 107.724 60.9301 107.684 60.7595L107.35 59.2605C107.245 58.7853 106.993 58.4075 106.676 58.2491L105.677 57.7494C105.563 57.6885 105.563 57.4448 105.677 57.3838L106.676 56.8842C106.993 56.7258 107.245 56.348 107.35 55.8727L107.684 54.3738C107.724 54.2032 107.887 54.2032 107.927 54.3738Z" fill="white"/>
<path d="M77.9187 149.196C106.04 149.196 128.837 127.886 128.837 101.598C128.837 75.3106 106.04 54.0002 77.9187 54.0002C49.7971 54.0002 27 75.3106 27 101.598C27 127.886 49.7971 149.196 77.9187 149.196Z" fill="url(#paint2_linear_78_57)"/>
<path opacity="0.56" d="M1006.51 251.707C1006.44 251.354 1006.31 251.025 1006.14 250.742C1006.13 250.718 1006.11 250.683 1006.1 250.66C1006.05 250.589 1006 250.518 1005.95 250.448C1005.94 250.436 1005.93 250.424 1005.93 250.401C1005.93 250.401 1005.93 250.401 1005.92 250.401C1005.62 250.036 1005.25 249.765 1004.83 249.636L992.686 245.881L989.346 242.561H989.334C988.63 237.488 984.001 233.568 978.406 233.568C972.811 233.568 968.182 237.488 967.478 242.561H967.418L964.078 245.881L964.042 245.892L951.957 249.612C951.408 249.789 950.943 250.189 950.621 250.718C950.513 250.895 950.43 251.083 950.358 251.283C950.358 251.295 950.346 251.307 950.346 251.319C950.322 251.389 950.298 251.46 950.287 251.531C950.275 251.554 950.275 251.578 950.275 251.601C950.263 251.66 950.251 251.719 950.239 251.79C950.239 251.813 950.227 251.849 950.227 251.872C950.215 251.931 950.215 252.002 950.203 252.06C950.203 252.084 950.191 252.107 950.191 252.143C950.179 252.237 950.179 252.319 950.179 252.414C950.179 253.108 950.37 253.732 950.704 254.226C950.704 254.226 950.704 254.238 950.716 254.238C950.764 254.309 950.812 254.379 950.871 254.45C951.301 254.968 951.885 255.297 952.529 255.297H964.281L967.43 258.711H970.651L972.465 262.348H984.335L986.149 258.711H989.37L992.519 255.297H997.279H1004.27C1004.34 255.297 1004.41 255.297 1004.49 255.286C1004.51 255.286 1004.53 255.274 1004.54 255.274C1004.59 255.262 1004.65 255.262 1004.7 255.25C1004.72 255.25 1004.75 255.239 1004.77 255.239C1004.83 255.227 1004.89 255.203 1004.95 255.18C1004.96 255.18 1004.97 255.168 1004.97 255.168C1005.03 255.144 1005.11 255.109 1005.17 255.086C1005.19 255.074 1005.21 255.062 1005.24 255.05C1005.27 255.027 1005.32 255.003 1005.36 254.98C1005.38 254.968 1005.4 254.944 1005.43 254.933C1005.46 254.909 1005.5 254.874 1005.53 254.85C1005.56 254.827 1005.59 254.803 1005.62 254.779C1005.67 254.744 1005.7 254.709 1005.74 254.662C1005.76 254.638 1005.79 254.603 1005.82 254.579C1005.85 254.556 1005.87 254.532 1005.89 254.509C1005.92 254.473 1005.95 254.45 1005.98 254.415C1005.99 254.391 1006.01 254.368 1006.02 254.344C1006.12 254.214 1006.2 254.073 1006.27 253.932C1006.29 253.908 1006.3 253.897 1006.31 253.873C1006.33 253.826 1006.36 253.779 1006.37 253.732C1006.38 253.708 1006.38 253.697 1006.39 253.673C1006.54 253.296 1006.63 252.873 1006.63 252.425C1006.58 252.178 1006.56 251.943 1006.51 251.707Z" fill="#16392B"/>
<defs>
<linearGradient id="paint0_linear_78_57" x1="0" y1="0" x2="1958.02" y2="1102.31" gradientUnits="userSpaceOnUse">
<stop stop-color="#25262D"/>
<stop offset="0.109375" stop-color="#25262D"/>
<stop offset="0.369792" stop-color="#21282B"/>
<stop offset="0.53125" stop-color="#1A4B36"/>
<stop offset="0.604167" stop-color="#1E583F"/>
<stop offset="0.666667" stop-color="#216145"/>
<stop offset="0.729167" stop-color="#246A4C"/>
<stop offset="0.84375" stop-color="#319369"/>
<stop offset="0.895833" stop-color="#37A576"/>
<stop offset="1" stop-color="#42CA90"/>
</linearGradient>
<linearGradient id="paint1_linear_78_57" x1="1065.86" y1="233.43" x2="1065.86" y2="231.385" gradientUnits="userSpaceOnUse">
<stop stop-color="#E81FE8"/>
<stop offset="0.5533" stop-color="#9A2DB4"/>
<stop offset="1" stop-color="#381244"/>
</linearGradient>
<linearGradient id="paint2_linear_78_57" x1="121.917" y1="142.73" x2="45.4793" y2="60.9593" gradientUnits="userSpaceOnUse">
<stop stop-color="#292933" stop-opacity="0.43"/>
<stop offset="1" stop-color="#42CA90" stop-opacity="0.37"/>
</linearGradient>
</defs>
</svg>
