<svg xmlns="http://www.w3.org/2000/svg" viewBox="0 0 330.86 488.87"><defs><style>.cls-1{fill:#42ca90;}.cls-2{fill:#1c1d22;}.cls-3{fill:#25262d;}.cls-4{fill:#373943;}.cls-5{fill:#8252e6;}.cls-13,.cls-6{fill:#f5f7f9;}.cls-7{fill:#82868d;}.cls-8{fill:#fabb18;}.cls-9{fill:#4cd964;}.cls-10{fill:#6fc6f6;}.cls-11{fill:#f44771;}.cls-12{fill:#5c5f63;}.cls-13{stroke:#f5f7f9;}.cls-14{fill:#33353d;}</style></defs><g id="Layer_2" data-name="Layer 2"><g id="Layer_1-2" data-name="Layer 1"><path class="cls-1" d="M330.86,488.87V39.53A39.53,39.53,0,0,0,291.33,0H41.78A39.53,39.53,0,0,0,2.25,39.53V488.87Z"/><path class="cls-2" d="M325.65,488.87V35.5a31,31,0,0,0-31-31H38.39a31,31,0,0,0-31,31V488.87Z"/><rect class="cls-3" x="28" y="87" width="277" height="64" rx="10"/><rect class="cls-4" x="35" y="92" width="32" height="27" rx="5"/><rect class="cls-3" x="27" y="201" width="277.52" height="42.43" rx="10"/><rect class="cls-5" x="36" y="214" width="18" height="18" rx="3"/><rect class="cls-6" x="62" y="214" width="50" height="8" rx="1"/><rect class="cls-7" x="62" y="225" width="32.25" height="6.79" rx="1"/><rect class="cls-3" x="27" y="250.22" width="277.52" height="42.43" rx="10"/><rect class="cls-8" x="37.19" y="262" width="18" height="18" rx="3"/><rect class="cls-6" x="62.29" y="260" width="50" height="9" rx="1"/><rect class="cls-7" x="62" y="272" width="32.25" height="6.79" rx="1"/><rect class="cls-3" x="27" y="299.45" width="277.52" height="42.43" rx="10"/><rect class="cls-9" x="37.19" y="310.88" width="18" height="18" rx="3"/><rect class="cls-6" x="62.29" y="312" width="50" height="9" rx="1"/><rect class="cls-7" x="62" y="324.06" width="32.25" height="6.79" rx="1"/><rect class="cls-3" x="28" y="349" width="277.52" height="42.43" rx="10"/><rect class="cls-10" x="38.19" y="360.43" width="18" height="18" rx="3"/><rect class="cls-6" x="63.29" y="361.55" width="50" height="9" rx="1"/><rect class="cls-7" x="63" y="373.61" width="32.25" height="6.79" rx="1"/><rect class="cls-11" x="41" y="99" width="19" height="13" rx="3"/><rect class="cls-6" x="71" y="93" width="53.47" height="9.34" rx="2"/><rect class="cls-7" x="72" y="108" width="93" height="7" rx="2"/><rect class="cls-12" x="35" y="132" width="43" height="9" rx="2"/><rect class="cls-12" x="90" y="132" width="43" height="9" rx="2"/><rect class="cls-12" x="146" y="132" width="43" height="9" rx="2"/><rect class="cls-12" x="201" y="132" width="43" height="9" rx="2"/><circle class="cls-7" cx="143" cy="177" r="4"/><circle class="cls-6" cx="158" cy="177" r="4"/><circle class="cls-7" cx="173" cy="177" r="4"/><circle class="cls-7" cx="188" cy="177" r="4"/><path class="cls-13" d="M45.68,41.15c.44,0,.74.32.86,1,.08,3,.14,6.27.14,9.8s0,5.59-.06,6.12a1.76,1.76,0,0,1-.35,1.15,1.54,1.54,0,0,1-1.09.32c-.47,0-.7-.3-.7-.88V52.42c0-1,0-2.06-.06-3.12s-.06-1.74-.06-2a7.84,7.84,0,0,1-2.47,2.62,6.21,6.21,0,0,1-3.45,1,4.07,4.07,0,0,1-3.2-1.56c0,1.11-.06,2.44-.06,4s0,3.15,0,4.82a1.15,1.15,0,0,1-.44,1,1.85,1.85,0,0,1-1,.32c-.5,0-.74-.3-.74-.91,0-1.65,0-4.27,0-7.86v-7.8a1.6,1.6,0,0,1,.32-.91.93.93,0,0,1,.74-.44,1.52,1.52,0,0,1,.79.23.87.87,0,0,1,.39.71,9.66,9.66,0,0,0,1,4.56,2.49,2.49,0,0,0,2.09,1.5,5,5,0,0,0,2.08-.41,6.22,6.22,0,0,0,1.45-.91A6.33,6.33,0,0,0,43,45.77a23.47,23.47,0,0,0,1.44-3.39C44.59,41.56,45,41.15,45.68,41.15Z"/><path class="cls-13" d="M57.78,46.77a1.38,1.38,0,0,1,.7.23.72.72,0,0,1,.36.56,83,83,0,0,1-2.36,8.65c-1.56,5.27-2.73,8.92-3.47,11-.18.5-.41.73-.76.73a1,1,0,0,1-.83-.38,1.69,1.69,0,0,1-.29-1.09A15.08,15.08,0,0,1,52,63.07c.62-1.82,1-3,1.12-3.47-.47-.77-2-4.62-4.65-11.57a1.05,1.05,0,0,1-.06-.35,1.11,1.11,0,0,1,.32-.59,1.21,1.21,0,0,1,.92-.35,1.09,1.09,0,0,1,.94.59c.26.64.67,1.82,1.26,3.47s1,2.82,1.36,3.56.61,1.5.91,2.29q.39-1.27,1.32-5c.62-2.5,1-3.91,1.09-4.26S57,46.77,57.78,46.77Z"/><path class="cls-13" d="M67.49,56.71c-.12-1.88-.21-4.44-.21-7.68s.06-5.32.15-6.26a1.48,1.48,0,0,1,1.2-1.18,10.35,10.35,0,0,1,2.83-.3,8.08,8.08,0,0,1,4.35,1.12,3.67,3.67,0,0,1,1.77,3.3,8.14,8.14,0,0,1-.5,3,4.18,4.18,0,0,1-1.24,1.77,5.85,5.85,0,0,1-3.59.94,17.54,17.54,0,0,1-2.67-.27c.08,3.68.11,6,.11,7s-.35,1.44-1,1.44c-.41,0-.65-.06-.76-.21a1.48,1.48,0,0,1-.21-.32,1,1,0,0,1-.12-.3c0-.11-.06-.23-.08-.32a1.28,1.28,0,0,1,0-.38c0-.18,0-.3,0-.38C67.52,57.33,67.49,57,67.49,56.71Zm7.85-10.94A2,2,0,0,0,74.14,44a5.33,5.33,0,0,0-2.59-.65,5.73,5.73,0,0,0-1.94.24c-.09,1.09-.12,2.09-.12,3a20.63,20.63,0,0,0,.12,2.47,7.75,7.75,0,0,1,1,.15,10.16,10.16,0,0,0,1.24.09h.68a4.4,4.4,0,0,0,.67-.09A1.78,1.78,0,0,0,74,49c.15-.12.32-.27.56-.45a1.43,1.43,0,0,0,.47-.64A6.33,6.33,0,0,0,75.34,45.77Z"/><path class="cls-13" d="M80.17,41.68a2.91,2.91,0,0,1,.32-1.36,1.07,1.07,0,0,1,.86-.32c.79,0,1.17.32,1.17,1s0,1.8-.11,3.89-.12,4-.12,5.62a31,31,0,0,0,.2,4c.21,1.76.53,2.65,1,2.65s.7-.3.91-.86a1.68,1.68,0,0,1,.44-.59,1.19,1.19,0,0,1,.76-.26c.65,0,1,.53,1,1.62a2.41,2.41,0,0,1-1,1.73,2.82,2.82,0,0,1-1.88.89,3.09,3.09,0,0,1-1.5-.33,2.29,2.29,0,0,1-.91-.94,7.45,7.45,0,0,1-.56-1.23,6,6,0,0,1-.3-1.45c-.11-.91-.17-2.38-.23-4.41s-.06-4-.06-5.83A35,35,0,0,1,80.17,41.68Z"/><path class="cls-13" d="M95.24,46.65c.79,0,1.2.68,1.2,2.06v.47l-.06,1.94c0,.62,0,1.21,0,1.8l.44,6.21c0,.47-.47.67-1.41.67H95a.47.47,0,0,1-.44-.23.86.86,0,0,1,0-.62,1.46,1.46,0,0,0-.06-.79,4.36,4.36,0,0,1-3.35,1.35q-3.89,0-3.89-6a8.21,8.21,0,0,1,1.27-5,4.15,4.15,0,0,1,3.59-1.7,6.53,6.53,0,0,1,2.2.38A1.1,1.1,0,0,1,95.24,46.65Zm-2.86,2.5a2.91,2.91,0,0,0-2.35.91,5.41,5.41,0,0,0-.77,3.33c0,2.71.74,4.09,2.21,4.09A2.26,2.26,0,0,0,92.76,57a2.74,2.74,0,0,0,1-1.18,9.57,9.57,0,0,0,.53-3.26A5.46,5.46,0,0,0,93.82,50,1.48,1.48,0,0,0,92.38,49.15Z"/><path class="cls-13" d="M99.41,58.66l-.29-11.19a1.11,1.11,0,0,1,.35-.85,1.09,1.09,0,0,1,.71-.32c.59,0,.94.23,1,.73a12.64,12.64,0,0,1,.12,1.53,4.53,4.53,0,0,1,3.7-1.94c2.27,0,3.42,2.59,3.42,7.8V56.6a8.81,8.81,0,0,1-.18,2.11,1.05,1.05,0,0,1-1.18.83c-.44,0-.64-.3-.64-.88l0-1.53a28,28,0,0,0-.21-4.36,17.82,17.82,0,0,0-.41-1.85c-.33-1-.83-1.5-1.53-1.5a2,2,0,0,0-1.94,1,5.55,5.55,0,0,0-.71,2.53c-.12,1.7-.21,3.53-.21,5.41a1.12,1.12,0,0,1-.41.88,1.6,1.6,0,0,1-1,.33C99.65,59.54,99.41,59.24,99.41,58.66Z"/><path class="cls-1" d="M108,4l1.08,10.65c.79,7,7.28,12.35,15.16,12.35h94.52c7.88,0,14.52-5.33,15.16-12.35L235,4Z"/><path class="cls-14" d="M141,19.3a3.65,3.65,0,0,1,0-7.3h47a3.65,3.65,0,0,1,0,7.3Z"/><path class="cls-14" d="M199.9,19.3a3.65,3.65,0,1,1,2.58-1.07,3.66,3.66,0,0,1-2.58,1.07Z"/><path class="cls-1" d="M1.67,187.52h.58v47.37H1.67A1.67,1.67,0,0,1,0,233.22v-44a1.67,1.67,0,0,1,1.67-1.67Z"/><path class="cls-1" d="M1.67,125.68h.58V173H1.67A1.67,1.67,0,0,1,0,171.36v-44a1.66,1.66,0,0,1,.49-1.17A1.69,1.69,0,0,1,1.67,125.68Z"/><path class="cls-3" d="M1.79,79.24h.45v22H1.79a1.53,1.53,0,0,1-1-.43,1.53,1.53,0,0,1-.43-1V80.7a1.43,1.43,0,0,1,.44-1A1.46,1.46,0,0,1,1.79,79.24Z"/></g></g></svg>