<svg width="375" height="812" viewBox="0 0 375 812" fill="none" xmlns="http://www.w3.org/2000/svg">
<rect width="375" height="812" fill="url(#paint0_linear_79_58)"/>
<path opacity="0.47" d="M253.636 497.774C253.636 498.436 252.913 498.979 252.03 498.979C251.147 498.979 250.424 498.436 250.424 497.774C250.424 497.112 251.147 496.57 252.03 496.57C252.923 496.57 253.636 497.104 253.636 497.774Z" fill="white"/>
<path opacity="0.47" d="M218.303 406.634C218.303 407.517 218.122 408.24 217.901 408.24C217.681 408.24 217.5 407.517 217.5 406.634C217.5 405.751 217.681 405.028 217.901 405.028C218.125 405.028 218.303 405.751 218.303 406.634Z" fill="white"/>
<path opacity="0.47" d="M304.223 372.507C304.223 373.615 303.684 374.514 303.019 374.514C302.354 374.514 301.814 373.615 301.814 372.507C301.814 371.398 302.354 370.499 303.019 370.499C303.684 370.499 304.223 371.398 304.223 372.507Z" fill="white"/>
<path opacity="0.47" d="M276.923 433.534C276.923 434.196 276.2 434.739 275.317 434.739C274.434 434.739 273.711 434.196 273.711 433.534C273.711 432.872 274.434 432.33 275.317 432.33C276.2 432.33 276.923 432.872 276.923 433.534Z" fill="white"/>
<path opacity="0.47" d="M301.011 461.238C301.011 461.683 300.474 462.041 299.806 462.041C299.138 462.041 298.602 461.683 298.602 461.238C298.602 460.792 299.138 460.435 299.806 460.435C300.474 460.443 301.011 460.8 301.011 461.238Z" fill="url(#paint1_linear_79_58)"/>
<path opacity="0.92" d="M280.935 362.068C280.935 362.733 280.216 363.272 279.329 363.272C278.442 363.272 277.723 362.733 277.723 362.068C277.723 361.402 278.442 360.863 279.329 360.863C280.216 360.863 280.935 361.402 280.935 362.068Z" fill="white"/>
<path opacity="0.92" d="M193.007 506.818C194.116 506.818 195.015 505.739 195.015 504.409C195.015 503.079 194.116 502 193.007 502C191.899 502 191 503.079 191 504.409C191 505.739 191.899 506.818 193.007 506.818Z" fill="white"/>
<path opacity="0.47" d="M332.329 345.606C332.329 346.049 331.969 346.409 331.526 346.409C331.082 346.409 330.723 346.049 330.723 345.606C330.723 345.162 331.082 344.803 331.526 344.803C331.969 344.803 332.329 345.162 332.329 345.606Z" fill="white"/>
<path opacity="0.47" d="M339.557 381.741C339.557 382.184 339.377 382.544 339.155 382.544C338.934 382.544 338.754 382.184 338.754 381.741C338.754 381.298 338.934 380.938 339.155 380.938C339.377 380.938 339.557 381.298 339.557 381.741Z" fill="white"/>
<path opacity="0.47" d="M333.132 496.57C333.132 497.014 332.415 497.373 331.526 497.373C330.637 497.373 329.92 497.014 329.92 496.57C329.92 496.125 330.637 495.767 331.526 495.767C332.415 495.767 333.132 496.125 333.132 496.57Z" fill="white"/>
<path opacity="0.47" d="M217.501 344.803C217.501 345.247 217.142 345.606 216.698 345.606C216.254 345.606 215.895 345.247 215.895 344.803C215.895 344.359 216.254 344 216.698 344C217.142 344 217.501 344.359 217.501 344.803Z" fill="white"/>
<path opacity="0.47" d="M156.983 472.774C156.983 472.998 156.62 473.176 156.18 473.176C155.732 473.176 155.377 472.994 155.377 472.774C155.377 472.55 155.74 472.373 156.18 472.373C156.628 472.373 156.983 472.55 156.983 472.774Z" fill="white"/>
<path opacity="0.47" d="M321.89 418.277C321.89 419.381 320.997 420.285 319.882 420.285C318.778 420.285 317.875 419.391 317.875 418.277C317.875 417.163 318.768 416.27 319.882 416.27C320.987 416.27 321.89 417.163 321.89 418.277Z" fill="white"/>
<path opacity="0.47" d="M244.802 366.886C244.802 367.553 244.265 368.09 243.597 368.09C242.929 368.09 242.393 367.553 242.393 366.886C242.393 366.218 242.929 365.681 243.597 365.681C244.265 365.681 244.802 366.218 244.802 366.886Z" fill="white"/>
<path opacity="0.92" d="M256.597 386.654L257.018 387.742C257.15 388.09 257.47 388.364 257.875 388.477L259.145 388.838C259.293 388.878 259.293 389.058 259.145 389.098L257.875 389.459C257.47 389.572 257.15 389.846 257.018 390.193L256.597 391.282C256.55 391.409 256.34 391.409 256.293 391.282L255.873 390.193C255.74 389.846 255.421 389.572 255.016 389.459L253.746 389.098C253.598 389.058 253.598 388.878 253.746 388.838L255.016 388.477C255.421 388.364 255.74 388.09 255.873 387.742L256.293 386.654C256.34 386.527 256.55 386.527 256.597 386.654Z" fill="white"/>
<path opacity="0.92" d="M235.429 440.524L236.145 442.336C236.378 442.92 236.919 443.37 237.62 443.564L239.797 444.16C240.046 444.233 240.046 444.525 239.797 444.598L237.62 445.194C236.919 445.389 236.378 445.839 236.145 446.422L235.429 448.235C235.341 448.441 234.976 448.441 234.903 448.235L234.187 446.422C233.953 445.839 233.412 445.389 232.711 445.194L230.534 444.598C230.286 444.525 230.286 444.233 230.534 444.16L232.711 443.564C233.412 443.37 233.953 442.92 234.187 442.336L234.903 440.524C234.99 440.305 235.341 440.305 235.429 440.524Z" fill="white"/>
<path opacity="0.92" d="M331.656 454.893L332.018 455.798C332.136 456.092 332.41 456.312 332.752 456.41L333.838 456.711C333.965 456.744 333.965 456.899 333.838 456.931L332.752 457.233C332.4 457.331 332.136 457.559 332.018 457.844L331.656 458.749C331.617 458.855 331.431 458.855 331.392 458.749L331.03 457.844C330.913 457.551 330.639 457.331 330.296 457.233L329.211 456.931C329.083 456.899 329.083 456.744 329.211 456.711L330.296 456.41C330.649 456.312 330.913 456.083 331.03 455.798L331.392 454.893C331.431 454.787 331.607 454.787 331.656 454.893Z" fill="white"/>
<path opacity="0.47" d="M160.326 398.59L160.684 399.678C160.801 400.029 161.071 400.299 161.421 400.416L162.51 400.774C162.634 400.818 162.634 400.993 162.51 401.037L161.421 401.395C161.071 401.512 160.801 401.782 160.684 402.133L160.326 403.221C160.282 403.346 160.106 403.346 160.063 403.221L159.705 402.133C159.588 401.782 159.317 401.512 158.967 401.395L157.878 401.037C157.754 400.993 157.754 400.818 157.878 400.774L158.967 400.416C159.317 400.299 159.588 400.029 159.705 399.678L160.063 398.59C160.099 398.466 160.282 398.466 160.326 398.59Z" fill="white"/>
<path opacity="0.47" d="M299.159 514.329L299.581 515.416C299.716 515.761 300.035 516.035 300.437 516.15L301.706 516.512C301.85 516.556 301.85 516.733 301.706 516.777L300.437 517.14C300.035 517.255 299.716 517.529 299.581 517.874L299.159 518.961C299.107 519.085 298.901 519.085 298.849 518.961L298.426 517.874C298.292 517.529 297.972 517.255 297.57 517.14L296.302 516.777C296.157 516.733 296.157 516.556 296.302 516.512L297.57 516.15C297.972 516.035 298.292 515.761 298.426 515.416L298.849 514.329C298.901 514.205 299.107 514.205 299.159 514.329Z" fill="white"/>
<path opacity="0.47" d="M98.2978 451.093C98.2978 451.755 99.021 452.298 99.9038 452.298C100.787 452.298 101.51 451.755 101.51 451.093C101.51 450.431 100.787 449.889 99.9038 449.889C99.0104 449.889 98.2978 450.423 98.2978 451.093Z" fill="white"/>
<path opacity="0.47" d="M47.7101 325.825C47.7101 326.934 48.2495 327.833 48.9146 327.833C49.5798 327.833 50.1191 326.934 50.1191 325.825C50.1191 324.717 49.5798 323.818 48.9146 323.818C48.2495 323.818 47.7101 324.717 47.7101 325.825Z" fill="white"/>
<path opacity="0.47" d="M75.0107 386.853C75.0107 387.515 75.7339 388.058 76.6166 388.058C77.4994 388.058 78.2227 387.515 78.2227 386.853C78.2227 386.191 77.4994 385.649 76.6166 385.649C75.7339 385.649 75.0107 386.191 75.0107 386.853Z" fill="white"/>
<path opacity="0.47" d="M50.923 414.556C50.923 415.002 51.4597 415.359 52.1275 415.359C52.7954 415.359 53.332 415.002 53.332 414.556C53.332 414.111 52.7954 413.753 52.1275 413.753C51.4597 413.761 50.923 414.119 50.923 414.556Z" fill="url(#paint2_linear_79_58)"/>
<path opacity="0.92" d="M120.381 514.129C119.272 514.129 118.374 513.05 118.374 511.72C118.374 510.389 119.272 509.311 120.381 509.311C121.49 509.311 122.389 510.389 122.389 511.72C122.389 513.05 121.49 514.129 120.381 514.129Z" fill="white"/>
<path opacity="0.47" d="M47.9997 381.741C47.9997 382.184 48.1795 382.544 48.4012 382.544C48.6229 382.544 48.8027 382.184 48.8027 381.741C48.8027 381.298 48.6229 380.938 48.4012 380.938C48.1795 380.938 47.9997 381.298 47.9997 381.741Z" fill="white"/>
<path opacity="0.47" d="M18.8017 449.889C18.8017 450.333 19.5187 450.692 20.4077 450.692C21.2967 450.692 22.0137 450.333 22.0137 449.889C22.0137 449.444 21.2967 449.086 20.4077 449.086C19.5187 449.086 18.8017 449.444 18.8017 449.889Z" fill="white"/>
<path opacity="0.47" d="M30.0436 371.596C30.0436 372.7 30.9369 373.604 32.0511 373.604C33.1552 373.604 34.0586 372.71 34.0586 371.596C34.0586 370.482 33.1653 369.589 32.0511 369.589C30.947 369.589 30.0436 370.482 30.0436 371.596Z" fill="white"/>
<path opacity="0.47" d="M107.132 320.205C107.132 320.872 107.669 321.409 108.337 321.409C109.004 321.409 109.541 320.872 109.541 320.205C109.541 319.537 109.004 319 108.337 319C107.669 319 107.132 319.537 107.132 320.205Z" fill="white"/>
<path opacity="0.92" d="M95.3364 339.973L94.9157 341.061C94.7833 341.409 94.4639 341.682 94.0587 341.796L92.7889 342.156C92.6408 342.197 92.6408 342.377 92.7889 342.417L94.0587 342.778C94.4639 342.891 94.7833 343.165 94.9157 343.512L95.3364 344.601C95.3832 344.727 95.5935 344.727 95.6403 344.601L96.0609 343.512C96.1934 343.165 96.5128 342.891 96.9179 342.778L98.1878 342.417C98.3358 342.377 98.3358 342.197 98.1878 342.156L96.9179 341.796C96.5128 341.682 96.1934 341.409 96.0609 341.061L95.6403 339.973C95.5935 339.846 95.3832 339.846 95.3364 339.973Z" fill="white"/>
<path opacity="0.92" d="M116.505 393.843L115.789 395.655C115.555 396.239 115.015 396.689 114.313 396.883L112.136 397.479C111.888 397.552 111.888 397.844 112.136 397.917L114.313 398.513C115.015 398.707 115.555 399.157 115.789 399.741L116.505 401.553C116.593 401.76 116.958 401.76 117.031 401.553L117.747 399.741C117.981 399.157 118.521 398.707 119.223 398.513L121.4 397.917C121.648 397.844 121.648 397.552 121.4 397.479L119.223 396.883C118.521 396.689 117.981 396.239 117.747 395.655L117.031 393.843C116.943 393.624 116.593 393.624 116.505 393.843Z" fill="white"/>
<path opacity="0.92" d="M20.2773 408.212L19.9153 409.117C19.7979 409.41 19.524 409.631 19.1816 409.728L18.0957 410.03C17.9686 410.063 17.9686 410.218 18.0957 410.25L19.1816 410.552C19.5338 410.65 19.7979 410.878 19.9153 411.163L20.2773 412.068C20.3164 412.174 20.5023 412.174 20.5414 412.068L20.9034 411.163C21.0208 410.87 21.2947 410.65 21.6371 410.552L22.723 410.25C22.8502 410.218 22.8502 410.063 22.723 410.03L21.6371 409.728C21.2849 409.631 21.0208 409.402 20.9034 409.117L20.5414 408.212C20.5023 408.106 20.3262 408.106 20.2773 408.212Z" fill="white"/>
<path opacity="0.47" d="M52.775 467.648L52.3522 468.735C52.2181 469.08 51.8983 469.354 51.4961 469.469L50.2275 469.831C50.0831 469.875 50.0831 470.052 50.2275 470.096L51.4961 470.459C51.8983 470.574 52.2181 470.848 52.3522 471.193L52.775 472.28C52.8266 472.404 53.0329 472.404 53.0844 472.28L53.5073 471.193C53.6414 470.848 53.9611 470.574 54.3633 470.459L55.6319 470.096C55.7763 470.052 55.7763 469.875 55.6319 469.831L54.3633 469.469C53.9611 469.354 53.6414 469.08 53.5073 468.735L53.0844 467.648C53.0329 467.524 52.8266 467.524 52.775 467.648Z" fill="white"/>
<path opacity="0.56" d="M367.4 526.745C367.302 526.306 367.132 525.893 366.9 525.529C366.873 525.496 366.855 525.454 366.828 525.421C366.765 525.33 366.703 525.239 366.631 525.157C366.613 525.14 366.605 525.124 366.596 525.107C366.596 525.107 366.587 525.107 366.587 525.099C366.193 524.644 365.693 524.305 365.129 524.139L348.903 519.45L344.433 515.29H344.415C343.477 508.921 337.29 504 329.79 504C322.289 504 316.102 508.921 315.164 515.29H315.083L310.613 519.45L310.56 519.466L294.387 524.139C293.654 524.354 293.028 524.859 292.608 525.537C292.474 525.76 292.349 525.992 292.259 526.248C292.25 526.265 292.25 526.281 292.241 526.29C292.215 526.372 292.179 526.463 292.161 526.554C292.152 526.587 292.143 526.612 292.134 526.645C292.116 526.72 292.098 526.802 292.08 526.877C292.072 526.91 292.063 526.943 292.063 526.984C292.054 527.067 292.036 527.142 292.027 527.224C292.027 527.257 292.018 527.29 292.018 527.324C292.009 527.439 292 527.547 292 527.663C292 528.531 292.259 529.317 292.697 529.945C292.697 529.954 292.706 529.954 292.706 529.962C292.769 530.053 292.84 530.144 292.912 530.227C293.475 530.88 294.262 531.285 295.129 531.285H310.846L315.056 535.578H319.374L321.797 540.135H337.675L340.097 535.578H344.415L348.626 531.285H354.991H364.343C364.441 531.285 364.539 531.277 364.629 531.269C364.656 531.269 364.682 531.26 364.718 531.26C364.79 531.252 364.852 531.236 364.924 531.227C364.951 531.219 364.986 531.219 365.013 531.211C365.094 531.194 365.165 531.169 365.246 531.145C365.255 531.136 365.272 531.136 365.281 531.128C365.371 531.095 365.451 531.062 365.532 531.021C365.559 531.004 365.594 530.987 365.621 530.971C365.675 530.946 365.728 530.913 365.773 530.888C365.809 530.872 365.836 530.847 365.871 530.83C365.925 530.797 365.97 530.764 366.015 530.731C366.05 530.706 366.095 530.673 366.131 530.64C366.184 530.599 366.238 530.549 366.292 530.5C366.327 530.466 366.363 530.433 366.399 530.392C366.426 530.359 366.462 530.326 366.488 530.301C366.524 530.26 366.56 530.218 366.596 530.177C366.622 530.152 366.64 530.119 366.667 530.086C366.792 529.929 366.909 529.755 367.007 529.565C367.016 529.54 367.034 529.515 367.043 529.49C367.069 529.433 367.105 529.366 367.132 529.309C367.141 529.284 367.15 529.259 367.159 529.234C367.356 528.763 367.472 528.233 367.472 527.671C367.499 527.34 367.472 527.042 367.4 526.745Z" fill="#292933"/>
<path opacity="0.92" d="M257.55 355.536C257.55 356.425 256.833 357.142 255.944 357.142C255.055 357.142 254.338 356.425 254.338 355.536C254.338 354.647 255.055 353.93 255.944 353.93C256.833 353.93 257.55 354.647 257.55 355.536Z" fill="white"/>
<path opacity="0.92" d="M6.212 106.606C6.212 107.495 5.48897 108.212 4.60599 108.212C3.72302 108.212 3 107.489 3 106.606C3 105.717 3.72302 105 4.60599 105C5.48897 105 6.212 105.723 6.212 106.606Z" fill="white"/>
<path opacity="0.47" d="M190.899 252.751C190.899 253.197 190.541 253.554 190.096 253.554C189.651 253.554 189.293 253.197 189.293 252.751C189.293 252.306 189.651 251.948 190.096 251.948C190.541 251.948 190.899 252.306 190.899 252.751Z" fill="white"/>
<path opacity="0.47" d="M108.995 212.602C108.995 213.043 108.272 213.405 107.389 213.405C106.506 213.405 105.783 213.043 105.783 212.602C105.783 212.16 106.506 211.799 107.389 211.799C108.272 211.799 108.995 212.16 108.995 212.602Z" fill="white"/>
<path opacity="0.47" d="M294.489 193.731C294.489 194.84 293.95 195.739 293.285 195.739C292.619 195.739 292.08 194.84 292.08 193.731C292.08 192.623 292.619 191.724 293.285 191.724C293.95 191.714 294.489 192.613 294.489 193.731Z" fill="white"/>
<path opacity="0.92" d="M35.1188 255.16C35.1188 256.495 34.0342 257.569 32.7098 257.569C31.3853 257.569 30.3008 256.485 30.3008 255.16C30.3008 253.826 31.3853 252.751 32.7098 252.751C34.0342 252.751 35.1188 253.836 35.1188 255.16Z" fill="white"/>
<path opacity="0.47" d="M255.141 292.5C255.141 293.168 254.605 293.705 253.937 293.705C253.269 293.705 252.732 293.168 252.732 292.5C252.732 291.832 253.269 291.296 253.937 291.296C254.605 291.296 255.141 291.832 255.141 292.5Z" fill="white"/>
<path opacity="0.47" d="M161.992 223.844C161.992 224.731 161.093 225.45 159.984 225.45C158.875 225.45 157.977 224.731 157.977 223.844C157.977 222.957 158.875 222.238 159.984 222.238C161.093 222.238 161.992 222.949 161.992 223.844Z" fill="white"/>
<path opacity="0.92" d="M147.538 145.953C147.538 146.842 146.821 147.559 145.932 147.559C145.043 147.559 144.326 146.842 144.326 145.953C144.326 145.064 145.043 144.347 145.932 144.347C146.821 144.347 147.538 145.064 147.538 145.953Z" fill="white"/>
<path opacity="0.47" d="M279.231 219.427C279.231 219.649 278.871 219.828 278.428 219.828C277.985 219.828 277.625 219.649 277.625 219.427C277.625 219.205 277.985 219.025 278.428 219.025C278.871 219.025 279.231 219.205 279.231 219.427Z" fill="white"/>
<path opacity="0.92" d="M101.769 292.5C101.769 293.608 101.05 294.507 100.163 294.507C99.2757 294.507 98.5566 293.608 98.5566 292.5C98.5566 291.391 99.2757 290.492 100.163 290.492C101.05 290.492 101.769 291.391 101.769 292.5Z" fill="white"/>
<path opacity="0.71" d="M231.05 167.634C231.05 168.079 230.513 168.437 229.845 168.437C229.177 168.437 228.641 168.079 228.641 167.634C228.641 167.188 229.177 166.831 229.845 166.831C230.513 166.839 231.05 167.196 231.05 167.634Z" fill="white"/>
<path opacity="0.92" d="M69.0165 164.517L69.4973 165.605C69.6486 165.953 70.0137 166.226 70.4767 166.34L71.928 166.7C72.0971 166.74 72.0971 166.921 71.928 166.961L70.4767 167.321C70.0137 167.435 69.6486 167.709 69.4973 168.056L69.0165 169.144C68.9631 169.271 68.7227 169.271 68.6692 169.144L68.1884 168.056C68.0371 167.709 67.672 167.435 67.209 167.321L65.7577 166.961C65.5886 166.921 65.5886 166.74 65.7577 166.7L67.209 166.34C67.672 166.226 68.0371 165.953 68.1884 165.605L68.6692 164.517C68.7227 164.39 68.9631 164.39 69.0165 164.517Z" fill="white"/>
<path opacity="0.92" d="M10.8245 195.85L11.3653 197.119C11.5356 197.525 11.9463 197.844 12.4672 197.976L14.0999 198.397C14.2902 198.444 14.2902 198.654 14.0999 198.701L12.4672 199.122C11.9463 199.254 11.5356 199.574 11.3653 199.979L10.8245 201.249C10.7644 201.397 10.4939 201.397 10.4338 201.249L9.89291 199.979C9.72263 199.574 9.31194 199.254 8.79108 199.122L7.15836 198.701C6.96805 198.654 6.96805 198.444 7.15836 198.397L8.79108 197.976C9.31194 197.844 9.72263 197.525 9.89291 197.119L10.4338 195.85C10.4939 195.702 10.7644 195.702 10.8245 195.85Z" fill="white"/>
<path opacity="0.92" d="M342.887 211.16L343.483 212.972C343.678 213.556 344.128 214.006 344.713 214.2L346.527 214.796C346.734 214.869 346.734 215.161 346.527 215.234L344.713 215.83C344.128 216.025 343.678 216.475 343.483 217.058L342.887 218.871C342.813 219.077 342.509 219.077 342.448 218.871L341.852 217.058C341.657 216.475 341.206 216.025 340.622 215.83L338.808 215.234C338.601 215.161 338.601 214.869 338.808 214.796L340.622 214.2C341.206 214.006 341.657 213.556 341.852 212.972L342.448 211.16C342.521 210.941 342.813 210.941 342.887 211.16Z" fill="white"/>
<path opacity="0.92" d="M248.935 240.101L249.532 242.275C249.727 242.976 250.177 243.516 250.762 243.749L252.576 244.465C252.783 244.552 252.783 244.902 252.576 244.99L250.762 245.705C250.177 245.939 249.727 246.479 249.532 247.179L248.935 249.354C248.862 249.602 248.558 249.602 248.497 249.354L247.9 247.179C247.706 246.479 247.255 245.939 246.671 245.705L244.856 244.99C244.649 244.902 244.649 244.552 244.856 244.465L246.671 243.749C247.255 243.516 247.706 242.976 247.9 242.275L248.497 240.101C248.57 239.838 248.862 239.838 248.935 240.101Z" fill="white"/>
<path opacity="0.47" d="M342.419 155.716L342.84 157.167C342.973 157.63 343.292 157.995 343.697 158.146L344.967 158.627C345.115 158.68 345.115 158.921 344.967 158.974L343.697 159.455C343.292 159.606 342.973 159.971 342.84 160.434L342.419 161.886C342.373 162.055 342.162 162.055 342.116 161.886L341.695 160.434C341.562 159.971 341.243 159.606 340.838 159.455L339.568 158.974C339.42 158.921 339.42 158.68 339.568 158.627L340.838 158.146C341.243 157.995 341.562 157.63 341.695 157.167L342.116 155.716C342.155 155.546 342.365 155.546 342.419 155.716Z" fill="white"/>
<path opacity="0.47" d="M339.206 256.86L339.624 257.948C339.76 258.299 340.075 258.569 340.485 258.686L341.755 259.044C341.899 259.088 341.899 259.263 341.755 259.307L340.485 259.665C340.075 259.782 339.76 260.052 339.624 260.403L339.206 261.491C339.155 261.616 338.95 261.616 338.899 261.491L338.482 260.403C338.345 260.052 338.03 259.782 337.621 259.665L336.351 259.307C336.206 259.263 336.206 259.088 336.351 259.044L337.621 258.686C338.03 258.569 338.345 258.299 338.482 257.948L338.899 256.86C338.942 256.736 339.155 256.736 339.206 256.86Z" fill="white"/>
<path opacity="0.47" d="M311.44 118.698L311.684 119.239C311.758 119.414 311.938 119.549 312.172 119.605L312.893 119.788C312.977 119.811 312.977 119.899 312.893 119.923L312.172 120.106C311.938 120.161 311.758 120.296 311.684 120.471L311.44 121.012C311.408 121.076 311.292 121.076 311.26 121.012L311.016 120.471C310.942 120.296 310.762 120.161 310.529 120.106L309.808 119.923C309.723 119.899 309.723 119.811 309.808 119.788L310.529 119.605C310.762 119.549 310.942 119.414 311.016 119.239L311.26 118.698C311.292 118.635 311.408 118.635 311.44 118.698Z" fill="white"/>
<path opacity="0.47" d="M164.534 114.713L164.896 115.619C165.011 115.907 165.285 116.135 165.63 116.231L166.717 116.533C166.841 116.57 166.841 116.717 166.717 116.754L165.63 117.056C165.285 117.152 165.011 117.38 164.896 117.667L164.534 118.574C164.49 118.677 164.313 118.677 164.269 118.574L163.906 117.667C163.791 117.38 163.517 117.152 163.172 117.056L162.085 116.754C161.961 116.717 161.961 116.57 162.085 116.533L163.172 116.231C163.517 116.135 163.791 115.907 163.906 115.619L164.269 114.713C164.313 114.61 164.49 114.61 164.534 114.713Z" fill="white"/>
<path opacity="0.47" d="M60.5668 114.713L60.9896 115.619C61.1237 115.907 61.4434 116.135 61.8457 116.231L63.1143 116.533C63.2587 116.57 63.2587 116.717 63.1143 116.754L61.8457 117.056C61.4434 117.152 61.1237 117.38 60.9896 117.667L60.5668 118.574C60.5152 118.677 60.3089 118.677 60.2574 118.574L59.8345 117.667C59.7004 117.38 59.3807 117.152 58.9784 117.056L57.7099 116.754C57.5655 116.717 57.5655 116.57 57.7099 116.533L58.9784 116.231C59.3807 116.135 59.7004 115.907 59.8345 115.619L60.2574 114.713C60.3089 114.61 60.5152 114.61 60.5668 114.713Z" fill="white"/>
<path opacity="0.56" d="M307.939 410.665C307.867 410.364 307.75 410.079 307.589 409.827C307.571 409.802 307.553 409.778 307.544 409.754C307.5 409.688 307.455 409.631 307.401 409.574C307.392 409.566 307.383 409.55 307.374 409.542H307.365C307.087 409.225 306.738 408.997 306.344 408.883L294.948 405.652L291.812 402.788H291.803C291.141 398.393 286.795 395 281.528 395C276.26 395 271.915 398.393 271.252 402.788H271.198L268.062 405.652L268.026 405.66L256.666 408.883C256.147 409.029 255.717 409.379 255.412 409.843C255.314 409.998 255.233 410.16 255.17 410.331C255.17 410.339 255.161 410.356 255.161 410.364C255.143 410.421 255.116 410.486 255.108 410.543C255.099 410.559 255.099 410.584 255.09 410.6C255.072 410.657 255.063 410.706 255.054 410.763C255.045 410.787 255.045 410.811 255.036 410.836C255.027 410.893 255.018 410.942 255.018 410.999C255.018 411.023 255.009 411.047 255.009 411.064C255 411.145 255 411.218 255 411.3C255 411.894 255.188 412.439 255.493 412.87C255.493 412.87 255.502 412.878 255.502 412.886C255.546 412.952 255.6 413.009 255.645 413.066C256.039 413.513 256.595 413.798 257.204 413.798H268.241L271.198 416.752H274.226L275.928 419.893H287.082L288.784 416.752H291.812L294.769 413.798H299.239H305.806C305.878 413.798 305.941 413.79 306.012 413.79C306.03 413.79 306.057 413.782 306.075 413.782C306.12 413.773 306.174 413.765 306.218 413.757C306.236 413.749 306.263 413.749 306.281 413.741C306.335 413.725 306.389 413.708 306.442 413.692C306.451 413.692 306.46 413.684 306.469 413.684C306.532 413.66 306.586 413.635 306.648 413.611C306.666 413.603 306.693 413.586 306.711 413.578C306.747 413.562 306.783 413.537 306.819 413.521C306.846 413.505 306.864 413.497 306.89 413.481C306.926 413.456 306.962 413.432 306.989 413.407C307.016 413.391 307.043 413.367 307.07 413.342C307.105 413.31 307.15 413.277 307.186 413.245C307.213 413.22 307.24 413.196 307.258 413.171C307.276 413.147 307.303 413.131 307.32 413.106C307.347 413.082 307.374 413.049 307.392 413.025C307.41 413.009 307.428 412.984 307.437 412.968C307.526 412.854 307.607 412.74 307.67 412.61C307.679 412.594 307.688 412.577 307.697 412.561C307.715 412.52 307.741 412.48 307.759 412.431C307.768 412.415 307.777 412.398 307.777 412.382C307.921 412.056 307.992 411.69 307.992 411.3C308.01 411.072 307.983 410.86 307.939 410.665Z" fill="#174331"/>
<path opacity="0.47" d="M372.979 124.242C372.979 124.687 372.621 125.045 372.176 125.045C371.731 125.045 371.373 124.687 371.373 124.242C371.373 123.796 371.731 123.439 372.176 123.439C372.621 123.447 372.979 123.804 372.979 124.242Z" fill="white"/>
<defs>
<linearGradient id="paint0_linear_79_58" x1="112.5" y1="-3.65381e-05" x2="779.504" y2="255.977" gradientUnits="userSpaceOnUse">
<stop stop-color="#25262D"/>
<stop offset="0.322917" stop-color="#293E3B"/>
<stop offset="0.6875" stop-color="#32705A"/>
<stop offset="0.828125" stop-color="#399973"/>
<stop offset="1" stop-color="#42CA90"/>
</linearGradient>
<linearGradient id="paint1_linear_79_58" x1="299.809" y1="461.941" x2="299.809" y2="460.457" gradientUnits="userSpaceOnUse">
<stop stop-color="#E81FE8"/>
<stop offset="0.5533" stop-color="#9A2DB4"/>
<stop offset="1" stop-color="#381244"/>
</linearGradient>
<linearGradient id="paint2_linear_79_58" x1="52.1246" y1="415.26" x2="52.1246" y2="413.776" gradientUnits="userSpaceOnUse">
<stop stop-color="#E81FE8"/>
<stop offset="0.5533" stop-color="#9A2DB4"/>
<stop offset="1" stop-color="#381244"/>
</linearGradient>
</defs>
</svg>
