<svg width="775" height="293" viewBox="0 0 775 293" fill="none" xmlns="http://www.w3.org/2000/svg">
<g clip-path="url(#clip0_1_1680)">
<path d="M773.843 48.7309C778.829 27.6469 765.886 6.4874 744.933 1.46996C723.98 -3.54748 702.952 9.47711 697.966 30.5612C692.979 51.6453 705.923 72.8047 726.876 77.8222C747.829 82.8396 768.857 69.815 773.843 48.7309Z" fill="#F5F5F5"/>
<path d="M748.445 2.45996C759.445 9.39187 766.778 21.6904 766.778 35.7778C766.778 42.8216 764.889 49.5299 761.667 55.2319C754.889 66.9714 742.223 74.9096 727.778 74.9096C723.445 74.9096 719.334 74.2388 715.334 72.8971C721.334 76.6985 728.334 78.8228 736.001 78.8228C757.556 78.8228 775 61.2694 775 39.5792C775 22.3612 763.889 7.71479 748.445 2.45996Z" fill="#E1E1E1"/>
<path d="M742.775 53.3312C742.775 58.027 738.998 61.8283 734.331 61.8283C729.664 61.8283 725.887 58.027 725.887 53.3312C725.887 48.6353 729.664 44.7222 734.331 44.7222C738.998 44.7222 742.775 48.5235 742.775 53.3312Z" fill="#E1E1E1"/>
<g opacity="0.3">
<path opacity="0.3" d="M742.775 53.3312C742.775 58.027 738.998 61.8283 734.331 61.8283C729.664 61.8283 725.887 58.027 725.887 53.3312C725.887 48.6353 729.664 44.7222 734.331 44.7222C738.998 44.7222 742.775 48.5235 742.775 53.3312Z" fill="black"/>
</g>
<path d="M743.664 53.3323C743.664 58.0281 740.219 61.8294 735.442 61.8294C730.775 61.8294 727.219 57.6926 727.219 52.9968C727.219 48.301 730.664 44.8351 735.442 44.8351C740.219 44.8351 743.664 48.6365 743.664 53.3323Z" fill="#E1E1E1"/>
<path d="M761.775 48.6355C762.22 46.3994 765.887 44.2751 765.887 44.2751L766.998 48.6355L763.775 55.1202C763.775 55.1202 761.109 51.7661 761.775 48.6355Z" fill="#E1E1E1"/>
<path d="M766.002 28.0631C766.002 28.0631 764.224 29.5166 764.335 31.5291C764.335 33.5416 767.002 34.1006 767.002 34.1006L769.779 31.0818L766.002 28.0631Z" fill="#E1E1E1"/>
<path d="M750.445 67.7535C750.445 67.7535 748 66.1883 745.667 67.0827C743.334 67.9771 743.667 71.3313 743.667 71.3313L748.445 73.4556L750.445 67.7535Z" fill="#E1E1E1"/>
<path d="M764.889 36.2257C764.889 36.7848 764.444 37.1202 764 37.1202C763.555 37.1202 763 36.7848 763 36.2257C763 35.6667 763.444 35.3313 763.889 35.3313C764.333 35.3313 764.889 35.6667 764.889 36.2257Z" fill="#E1E1E1"/>
<path d="M719.333 55.5672C719.222 53.7783 718.444 51.9895 717.555 50.4242C716.999 49.418 716.11 48.2999 714.999 48.2999H713.999C712.666 47.6291 710.888 47.7409 709.777 48.7471C708.777 49.6416 708.333 51.2068 708.444 52.5485C708.555 53.8901 709.111 55.2318 709.888 56.4617C710.666 57.8033 711.666 59.0332 712.777 60.1512C713.444 60.7102 714.11 61.2693 714.999 61.4929C715.999 61.6047 716.888 61.1575 717.666 60.5984C718.888 59.3686 719.444 57.4679 719.333 55.5672Z" fill="#E1E1E1"/>
<g opacity="0.3">
<g opacity="0.3">
<path opacity="0.3" d="M719.333 55.5672C719.222 53.7783 718.444 51.9895 717.555 50.4242C716.999 49.418 716.11 48.2999 714.999 48.2999H713.999C712.666 47.6291 710.888 47.7409 709.777 48.7471C708.777 49.6416 708.333 51.2068 708.444 52.5485C708.555 53.8901 709.111 55.2318 709.888 56.4617C710.666 57.8033 711.666 59.0332 712.777 60.1512C713.444 60.7102 714.11 61.2693 714.999 61.4929C715.999 61.6047 716.888 61.1575 717.666 60.5984C718.888 59.3686 719.444 57.4679 719.333 55.5672Z" fill="black"/>
</g>
</g>
<path d="M720.223 55.5672C720.111 53.7783 719.334 51.9895 718.445 50.4242C717.889 49.4179 717.223 48.8589 715.889 48.2999L714.445 47.8527C712.889 47.7409 711.889 47.8527 710.778 48.8589C709.778 49.7534 709.334 51.3186 709.445 52.6603C709.556 54.0019 710.112 55.3436 710.889 56.5735C711.667 57.9151 712.667 59.145 713.778 60.263C714.445 60.822 715 61.2693 715.889 61.3811C716.889 61.4929 717.556 60.9338 718.223 60.263C719.445 59.0332 720.334 57.4679 720.223 55.5672Z" fill="#E1E1E1"/>
<path d="M729.333 70.7726C730.777 71.108 732.11 70.9962 733.555 70.7726C734.444 70.6608 735.444 70.3254 735.666 69.6546L735.777 68.9838C736.555 68.3129 736.777 67.0831 736.222 66.1886C735.666 65.2942 734.666 64.7352 733.555 64.5115C732.444 64.2879 731.333 64.3997 730.333 64.5115C729.222 64.7352 727.999 65.0706 726.999 65.6296C726.444 65.8532 725.888 66.3004 725.555 66.7476C725.222 67.3067 725.444 68.0893 725.777 68.6483C726.555 69.7664 727.999 70.549 729.333 70.7726Z" fill="#E1E1E1"/>
<g opacity="0.3">
<g opacity="0.3">
<path opacity="0.3" d="M729.333 70.7726C730.777 71.108 732.11 70.9962 733.555 70.7726C734.444 70.6608 735.444 70.3254 735.666 69.6546L735.777 68.9838C736.555 68.3129 736.777 67.0831 736.222 66.1886C735.666 65.2942 734.666 64.7352 733.555 64.5115C732.444 64.2879 731.333 64.3997 730.333 64.5115C729.222 64.7352 727.999 65.0706 726.999 65.6296C726.444 65.8532 725.888 66.3004 725.555 66.7476C725.222 67.3067 725.444 68.0893 725.777 68.6483C726.555 69.7664 727.999 70.549 729.333 70.7726Z" fill="black"/>
</g>
</g>
<path d="M730.109 70.995C731.553 71.3305 732.887 71.2187 734.331 70.995C735.22 70.8832 735.775 70.5478 736.442 69.877L736.998 68.9826C737.331 68.0881 737.553 67.3055 736.998 66.411C736.442 65.5166 735.442 64.9576 734.331 64.734C733.22 64.5103 732.109 64.6222 731.109 64.734C729.998 64.9576 728.776 65.293 727.776 65.852C727.22 66.0756 726.776 66.411 726.553 66.9701C726.22 67.5291 726.553 68.0881 726.887 68.7589C727.553 69.7652 728.664 70.7714 730.109 70.995Z" fill="#E1E1E1"/>
<path d="M756.445 18.0012C755.445 16.436 754 15.3179 752.445 14.4235C751.445 13.7526 750.223 13.1936 749.111 13.7526L748.223 14.3117C746.778 14.3117 745.334 15.3179 744.778 16.7714C744.334 18.113 744.667 19.5665 745.445 20.7964C746.223 21.9144 747.334 22.8088 748.556 23.5915C749.889 24.3741 751.334 24.9331 752.889 25.3804C753.778 25.604 754.667 25.7158 755.445 25.3804C756.334 25.0449 757 24.1505 757.334 23.2561C757.889 21.4672 757.445 19.4547 756.445 18.0012Z" fill="#E1E1E1"/>
<g opacity="0.3">
<g opacity="0.3">
<path opacity="0.3" d="M756.445 18.0012C755.445 16.436 754 15.3179 752.445 14.4235C751.445 13.7526 750.223 13.1936 749.111 13.7526L748.223 14.3117C746.778 14.3117 745.334 15.3179 744.778 16.7714C744.334 18.113 744.667 19.5665 745.445 20.7964C746.223 21.9144 747.334 22.8088 748.556 23.5915C749.889 24.3741 751.334 24.9331 752.889 25.3804C753.778 25.604 754.667 25.7158 755.445 25.3804C756.334 25.0449 757 24.1505 757.334 23.2561C757.889 21.4672 757.445 19.4547 756.445 18.0012Z" fill="black"/>
</g>
</g>
<path d="M757.777 18.56C756.777 16.9948 755.333 15.8767 753.777 14.9823C752.778 14.3115 751.889 14.1996 750.444 14.3115L748.889 14.6469C747.555 15.3177 746.555 15.8767 746.111 17.3302C745.666 18.6718 746 20.1253 746.778 21.3552C747.555 22.4732 748.666 23.3677 749.889 24.1503C751.222 24.9329 752.666 25.492 754.222 25.9392C755.111 26.1628 755.777 26.1628 756.666 25.9392C757.555 25.6038 757.889 24.7093 758.222 23.8149C758.777 21.9142 758.777 20.0135 757.777 18.56Z" fill="#E1E1E1"/>
<path d="M716.333 41.7033C716.221 41.2561 716.11 40.8089 715.777 40.5853C715.333 40.2499 714.666 40.1381 713.999 40.1381C713.555 40.1381 713.11 40.4735 712.666 40.9207C712.222 41.4797 711.888 42.1506 711.999 42.9332C712.11 43.604 712.444 44.3867 713.11 44.7221C713.888 45.1693 714.999 44.9457 715.666 44.2748C716.333 43.604 716.555 42.5978 716.333 41.7033Z" fill="#E1E1E1"/>
<g opacity="0.3">
<g opacity="0.3">
<path opacity="0.3" d="M716.333 41.7033C716.221 41.2561 716.11 40.8089 715.777 40.5853C715.333 40.2499 714.666 40.1381 713.999 40.1381C713.555 40.1381 713.11 40.4735 712.666 40.9207C712.222 41.4797 711.888 42.1506 711.999 42.9332C712.11 43.604 712.444 44.3867 713.11 44.7221C713.888 45.1693 714.999 44.9457 715.666 44.2748C716.333 43.604 716.555 42.5978 716.333 41.7033Z" fill="black"/>
</g>
</g>
<path d="M716.779 41.8144C716.668 41.3672 716.557 41.0317 716.223 40.8081C715.779 40.4727 715.223 40.3609 714.668 40.4727C714.223 40.4727 713.779 40.8081 713.446 41.2553C713.001 41.7026 712.779 42.3734 712.779 43.0442C712.779 43.7151 713.223 44.3859 713.779 44.6095C714.557 45.0567 715.557 44.8331 716.112 44.1623C716.668 43.4914 716.89 42.597 716.779 41.8144Z" fill="#E1E1E1"/>
<path d="M737.444 7.60335C737.333 7.15614 737.222 6.70892 736.889 6.48531C736.444 6.14989 735.778 6.03809 735.111 6.03809C734.667 6.03809 734.222 6.3735 733.778 6.82072C733.333 7.37974 733 8.05057 733.111 8.83321C733.222 9.61584 733.556 10.2867 734.222 10.6221C735 11.0693 736.111 10.8457 736.778 10.1749C737.333 9.50404 737.667 8.49779 737.444 7.60335Z" fill="#E1E1E1"/>
<g opacity="0.3">
<g opacity="0.3">
<path opacity="0.3" d="M737.444 7.60335C737.333 7.15614 737.222 6.70892 736.889 6.48531C736.444 6.14989 735.778 6.03809 735.111 6.03809C734.667 6.03809 734.222 6.3735 733.778 6.82072C733.333 7.37974 733 8.05057 733.111 8.83321C733.222 9.61584 733.556 10.2867 734.222 10.6221C735 11.0693 736.111 10.8457 736.778 10.1749C737.333 9.50404 737.667 8.49779 737.444 7.60335Z" fill="black"/>
</g>
</g>
<path d="M737.891 7.7144C737.78 7.26718 737.669 6.93176 737.335 6.70815C736.891 6.37274 736.335 6.26093 735.78 6.37274C735.335 6.37274 734.891 6.70815 734.558 7.15537C734.113 7.60259 733.891 8.27342 733.891 8.94425C733.891 9.61508 734.335 10.2859 734.891 10.5095C735.669 10.9567 736.669 10.7331 737.224 10.0623C737.78 9.39147 738.002 8.49703 737.891 7.7144Z" fill="#E1E1E1"/>
<path d="M727.889 11.1803C727.889 10.9567 727.667 10.6213 727.556 10.3977C727.223 10.1741 726.889 10.1741 726.445 10.1741C726.112 10.1741 725.889 10.3977 725.556 10.7331C725.223 11.0685 725.112 11.5157 725.112 11.963C725.112 12.4102 725.445 12.8574 725.778 13.081C726.334 13.3046 727 13.1928 727.445 12.8574C727.889 12.4102 728 11.7393 727.889 11.1803Z" fill="#E1E1E1"/>
<g opacity="0.3">
<g opacity="0.3">
<path opacity="0.3" d="M727.889 11.1803C727.889 10.9567 727.667 10.6213 727.556 10.3977C727.223 10.1741 726.889 10.1741 726.445 10.1741C726.112 10.1741 725.889 10.3977 725.556 10.7331C725.223 11.0685 725.112 11.5157 725.112 11.963C725.112 12.4102 725.445 12.8574 725.778 13.081C726.334 13.3046 727 13.1928 727.445 12.8574C727.889 12.4102 728 11.7393 727.889 11.1803Z" fill="black"/>
</g>
</g>
<path d="M728.111 11.1817C728.111 10.9581 728 10.6226 727.778 10.5108C727.556 10.2872 727.111 10.2872 726.778 10.2872C726.556 10.2872 726.222 10.5108 726 10.7345C725.778 11.0699 725.556 11.5171 725.556 11.8525C725.556 12.2997 725.889 12.6351 726.222 12.8587C726.667 13.0824 727.333 12.9706 727.667 12.6351C728.111 12.2997 728.222 11.7407 728.111 11.1817Z" fill="#E1E1E1"/>
<path d="M713.333 16.4353C713.333 16.2117 713.111 15.8763 713 15.6527C712.667 15.4291 712.333 15.4291 711.889 15.4291C711.556 15.4291 711.333 15.6527 711 15.9881C710.667 16.3235 710.556 16.7707 710.556 17.218C710.556 17.6652 710.889 18.1124 711.222 18.336C711.778 18.5596 712.445 18.4478 712.889 18.1124C713.222 17.6652 713.445 16.9943 713.333 16.4353Z" fill="#E1E1E1"/>
<g opacity="0.3">
<g opacity="0.3">
<path opacity="0.3" d="M713.333 16.4353C713.333 16.2117 713.111 15.8763 713 15.6527C712.667 15.4291 712.333 15.4291 711.889 15.4291C711.556 15.4291 711.333 15.6527 711 15.9881C710.667 16.3235 710.556 16.7707 710.556 17.218C710.556 17.6652 710.889 18.1124 711.222 18.336C711.778 18.5596 712.445 18.4478 712.889 18.1124C713.222 17.6652 713.445 16.9943 713.333 16.4353Z" fill="black"/>
</g>
</g>
<path d="M713.555 16.4367C713.555 16.2131 713.444 15.8777 713.222 15.7658C713 15.5422 712.555 15.5422 712.222 15.5422C712 15.5422 711.666 15.7658 711.444 15.9895C711.222 16.3249 711 16.7721 711 17.1075C711 17.5547 711.333 17.8901 711.666 18.1138C712.111 18.3374 712.778 18.2256 713.111 17.8901C713.444 17.5547 713.666 16.9957 713.555 16.4367Z" fill="#E1E1E1"/>
<path d="M705.889 18.5599C706 18.6717 704.667 20.5723 703.334 23.9265C701.889 27.2806 700.778 32.3119 700.889 37.9021C701 43.4924 701.778 48.6354 702.778 52.1013C703.778 55.6791 704.778 57.6916 704.556 57.8034C704.445 57.9152 703.111 55.9027 702 52.325C700.778 48.7472 699.889 43.6042 699.778 37.9021C699.667 32.0883 701 26.9452 702.667 23.5911C703.445 21.914 704.223 20.5723 704.889 19.7897C705.445 18.8953 705.778 18.448 705.889 18.5599Z" fill="white"/>
<path d="M723.891 4.47248C724.002 4.80789 720.002 6.48497 715.447 9.28009C713.224 10.7336 711.336 12.2988 710.225 13.5287C709.002 14.7585 708.447 15.653 708.225 15.653C708.113 15.5412 708.447 14.5349 709.558 13.0815C710.669 11.628 712.447 9.83911 714.78 8.38565C719.558 5.47872 723.891 4.24887 723.891 4.47248Z" fill="white"/>
<path d="M742.557 44.8348C742.668 44.723 743.668 45.5057 744.668 47.1827C745.668 48.8598 746.446 51.5431 746.001 54.5618C745.446 57.5806 743.779 59.8167 742.335 61.0465C740.89 62.2764 739.668 62.6118 739.557 62.5C739.446 62.3882 740.446 61.7174 741.668 60.4875C742.89 59.1459 744.335 57.0216 744.779 54.3382C745.224 51.6549 744.668 49.1952 743.89 47.5181C743.224 45.8411 742.446 44.9466 742.557 44.8348Z" fill="#E1E1E1"/>
<path d="M737.997 69.5428C737.775 69.3192 738.108 68.5365 737.997 67.5303C737.886 66.524 737.442 65.8532 737.664 65.6296C737.775 65.2942 738.997 65.965 739.108 67.4185C739.331 68.8719 738.219 69.7664 737.997 69.5428Z" fill="#E1E1E1"/>
<path d="M739.224 67.6416C738.891 67.7534 738.669 67.6416 738.558 67.418C738.558 67.1943 738.669 66.9707 739.002 66.8589C739.335 66.7471 739.558 66.8589 739.669 67.0825C739.78 67.3061 739.558 67.5298 739.224 67.6416Z" fill="#E1E1E1"/>
<path d="M719.556 49.4183C719.667 49.3065 720.112 49.8655 720.667 50.8717C721.223 51.878 721.889 53.3315 721.889 55.2321C722.001 57.1328 721.112 58.6981 720.334 59.5925C719.556 60.487 718.778 60.7106 718.778 60.5988C718.667 60.487 719.112 59.9279 719.667 59.0335C720.223 58.1391 720.778 56.7974 720.667 55.2321C720.667 53.6669 720.112 52.2134 719.778 51.2072C719.556 50.2009 719.334 49.5301 719.556 49.4183Z" fill="#E1E1E1"/>
<path d="M722.112 54.3376C722.334 54.114 723.001 54.6731 723.223 55.5675C723.334 56.4619 722.89 57.1328 722.556 57.021C722.223 56.9091 722.223 56.3501 722.112 55.6793C721.89 55.1203 721.778 54.5612 722.112 54.3376Z" fill="#E1E1E1"/>
<path d="M716.891 40.0258C717.113 39.8022 718.224 40.6967 718.335 42.3737C718.447 44.0508 717.336 45.0571 717.113 44.7216C716.891 44.498 717.224 43.6036 717.224 42.3737C717.113 41.1439 716.558 40.2494 716.891 40.0258Z" fill="#E1E1E1"/>
<path d="M760.224 22.809C760.336 22.809 760.669 23.1444 760.78 23.927C760.891 24.7096 760.558 25.9395 759.669 26.8339C758.669 27.7284 757.447 27.8402 756.78 27.7284C756.002 27.6166 755.669 27.1693 755.669 27.0575C755.78 26.7221 757.558 27.2812 758.891 25.9395C760.224 24.7096 759.891 22.9208 760.224 22.809Z" fill="#E1E1E1"/>
<path d="M724.442 30.4116C724.331 30.2998 724.998 29.6289 726.22 30.188C726.776 30.4116 727.331 31.1942 727.109 32.2005C726.776 33.0949 725.998 33.6539 725.22 33.8775C724.442 34.1011 723.331 34.1011 722.776 33.2067C722.22 32.3123 722.665 31.4178 722.998 31.0824C723.665 30.188 724.331 30.188 724.442 30.4116C724.442 30.5234 723.887 30.8588 723.442 31.5296C723.22 31.865 723.22 32.3123 723.442 32.5359C723.665 32.7595 724.22 32.8713 724.776 32.6477C725.331 32.5359 725.887 32.0886 725.998 31.7532C726.109 31.4178 725.998 30.9706 725.665 30.747C725.22 30.4116 724.554 30.5234 724.442 30.4116Z" fill="#E1E1E1"/>
<path d="M738.109 7.15624C738.22 7.04443 738.664 7.26804 738.886 7.93887C739.109 8.6097 738.998 9.72775 738.22 10.6222C737.442 11.4048 736.442 11.6284 735.886 11.7402C735.22 11.7402 734.886 11.6284 734.775 11.5166C734.775 11.1812 736.331 10.9576 737.442 9.83956C737.886 9.28053 738.109 8.6097 738.109 8.16248C738.22 7.60346 737.998 7.26804 738.109 7.15624Z" fill="#E1E1E1"/>
<path d="M739.223 10.3981C739.445 10.6217 739.445 11.0689 739.001 11.4043C738.556 11.7397 738.001 11.6279 738.001 11.2925C737.89 10.9571 738.112 10.6217 738.334 10.3981C738.556 10.2863 738.89 10.2863 739.223 10.3981Z" fill="#E1E1E1"/>
<path d="M728.665 13.1932C728.443 12.9696 728.554 12.4106 728.443 11.8516C728.443 11.2926 728.221 10.7335 728.443 10.5099C728.665 10.2863 729.554 10.7335 729.554 11.7398C729.665 12.746 728.887 13.4169 728.665 13.1932Z" fill="#E1E1E1"/>
<path d="M774.778 39.6911C774.556 39.6911 774.889 36.2251 773.333 30.1877C772.667 27.1689 771.222 23.5912 769 19.9016C766.778 16.1003 763.556 12.1871 759.111 8.94474C754.778 5.59059 749.334 2.79547 743 1.56561C736.667 0.447562 729.556 0.671172 722.779 3.24269C719.334 4.47254 716.112 6.26142 713.112 8.49752C711.556 9.61557 710.223 10.9572 708.779 12.1871C707.445 13.6405 706.112 14.9822 705.001 16.6593C700.223 23.144 697.557 31.3057 697.446 39.6911C697.557 48.0765 700.223 56.1264 705.001 62.4993C706.112 64.1764 707.445 65.518 708.779 66.9715C710.223 68.3132 711.556 69.6548 713.112 70.6611C716.112 72.8972 719.445 74.6861 722.779 75.9159C729.556 78.4874 736.667 78.711 743 77.593C749.334 76.4749 754.889 73.6798 759.222 70.4375C763.556 67.0833 766.778 63.1701 769.111 59.4806C771.333 55.6792 772.778 52.2133 773.444 49.1945C774.889 43.1571 774.667 39.6911 774.778 39.6911C774.778 39.6911 774.778 39.9147 774.778 40.3619C774.778 40.8091 774.778 41.48 774.778 42.2626C774.778 43.0452 774.778 44.0515 774.556 45.2813C774.444 46.5112 774.222 47.8529 773.778 49.4181C773.111 52.4369 771.778 56.1264 769.556 59.9278C767.333 63.7292 764.111 67.7541 759.667 71.2201C755.223 74.5742 749.667 77.4812 743.112 78.711C736.667 79.8291 729.334 79.7173 722.334 77.034C718.779 75.8041 715.445 74.0152 712.334 71.6673C710.779 70.5493 709.334 69.2076 707.89 67.8659C706.557 66.3007 705.223 64.8472 704.001 63.1701C699.112 56.6854 696.334 48.3001 696.334 39.6911C696.446 31.0821 699.112 22.6967 704.001 16.2121C705.112 14.535 706.557 13.0815 707.89 11.6281C709.334 10.2864 710.779 8.94474 712.334 7.82669C715.445 5.47878 718.779 3.68991 722.334 2.46005C729.334 -0.223268 736.556 -0.335073 743.112 0.782976C749.667 1.90103 755.223 4.80795 759.667 8.1621C764.111 11.6281 767.333 15.653 769.556 19.4544C771.778 23.3676 773.111 26.9453 773.778 29.9641C774.222 31.5293 774.333 32.871 774.556 34.1009C774.778 35.3307 774.778 36.3369 774.778 37.1196C774.778 37.9022 774.778 38.4612 774.778 39.0203C774.889 39.4675 774.889 39.6911 774.778 39.6911Z" fill="#1A2E35"/>
</g>
<g clip-path="url(#clip1_1_1680)">
<path d="M603.989 284.665C614.851 283.376 622.66 273.847 621.43 263.381C620.199 252.916 610.396 245.477 599.534 246.766C588.671 248.055 580.863 257.584 582.093 268.05C583.323 278.515 593.126 285.954 603.989 284.665Z" fill="#82868D"/>
<g opacity="0.2">
<g opacity="0.2">
<path opacity="0.2" d="M593.925 249.999C595.177 251.327 596.609 252.113 598.279 252.898C598.637 253.079 598.935 252.535 598.696 252.294C597.682 251.146 596.788 249.999 595.714 248.912C595.416 248.61 595.118 248.308 594.819 247.946C594.163 248.187 593.507 248.489 592.851 248.791C593.149 249.214 593.567 249.636 593.925 249.999Z" fill="#33353D"/>
</g>
<g opacity="0.2">
<path opacity="0.2" d="M593.034 253.441C595.837 256.4 599.416 258.574 603.233 260.144C607.11 261.715 611.405 262.5 615.58 262.439C617.191 262.439 619.219 262.319 621.187 261.956C621.068 261.292 620.889 260.688 620.71 260.024C619.219 260.386 617.608 260.567 616.057 260.628C612.538 260.688 609.019 260.144 605.679 259.118C602.458 258.091 599.356 256.642 596.672 254.649C595.002 253.32 592.735 251.569 591.542 249.455C591.185 249.697 590.827 249.938 590.409 250.18C591.185 251.448 592.258 252.656 593.034 253.441Z" fill="#82868D"/>
</g>
<g opacity="0.2">
<path opacity="0.2" d="M607.465 250.965C609.314 251.81 613.072 252.716 615.278 251.569C614.801 251.146 614.264 250.723 613.728 250.301C613.608 250.361 613.429 250.361 613.31 250.421C611.879 250.723 610.328 250.361 608.956 249.938C607.345 249.455 604.84 248.247 603.468 246.617C603.11 246.677 602.693 246.617 602.275 246.617C603.23 248.61 605.675 250.119 607.465 250.965Z" fill="#82868D"/>
</g>
<g opacity="0.2">
<path opacity="0.2" d="M590.466 260.023C594.164 263.284 598.697 265.398 603.409 267.029C607.704 268.478 612.237 269.384 616.83 269.082C618.321 268.961 619.812 268.84 621.304 268.478C621.542 267.029 621.602 265.519 621.483 264.009C619.455 264.432 617.307 264.613 615.458 264.553C611.581 264.492 607.823 263.586 604.245 262.318C600.487 260.99 596.789 259.299 593.627 256.823C592.077 255.615 590.705 254.226 589.452 252.716C589.154 252.354 588.856 251.931 588.557 251.508C587.484 252.414 586.529 253.441 585.754 254.528C587.066 256.702 588.796 258.574 590.466 260.023Z" fill="#33353D"/>
</g>
<g opacity="0.2">
<path opacity="0.2" d="M589.391 273.612C586.945 272.223 584.5 270.773 582.233 269.082C582.293 269.565 582.412 270.049 582.531 270.592C587.542 274.578 593.805 277.416 599.71 279.469C603.468 280.738 607.345 281.704 611.281 282.247C611.639 282.066 611.997 281.825 612.355 281.644C608.239 281.04 604.243 280.013 600.366 278.624C596.548 277.295 592.85 275.604 589.391 273.612Z" fill="#33353D"/>
</g>
<g opacity="0.2">
<path opacity="0.2" d="M606.511 253.864C609.076 255.012 611.939 255.797 614.802 255.615C615.816 255.555 617.069 255.374 618.262 255.012C617.904 254.528 617.546 254.045 617.188 253.562C616.293 253.864 615.279 254.045 614.325 254.106C611.88 254.226 609.494 253.623 607.287 252.717C604.125 251.388 600.904 249.516 598.757 246.859C598.28 246.919 597.862 247.04 597.385 247.1C599.592 250.18 603.529 252.535 606.511 253.864Z" fill="#82868D"/>
</g>
<g opacity="0.2">
<path opacity="0.2" d="M616.234 278.502C614.444 278.562 612.714 278.562 610.925 278.442C607.406 278.14 603.887 277.536 600.546 276.449C596.968 275.301 593.627 273.61 590.466 271.618C587.543 269.806 584.263 267.753 581.937 265.156C581.937 265.578 581.937 266.062 581.937 266.484C583.726 268.477 586.35 270.047 588.438 271.436C591.778 273.731 595.417 275.724 599.234 277.113C603.946 278.804 609.374 279.891 614.743 279.891C614.802 279.831 614.862 279.831 614.862 279.77C615.339 279.408 615.816 278.985 616.234 278.502Z" fill="#82868D"/>
</g>
<g opacity="0.2">
<path opacity="0.2" d="M600.606 274.76C605.437 276.33 610.567 277.356 615.697 277.356C616.233 277.356 616.83 277.356 617.367 277.296C618.977 275.303 620.11 273.129 620.826 270.834C618.918 271.136 617.068 271.257 615.1 271.196C610.686 271.076 606.392 270.23 602.276 268.841C597.922 267.392 593.806 265.339 590.346 262.561C588.497 261.051 586.768 259.3 585.336 257.427C585.098 257.125 584.859 256.763 584.561 256.401C583.308 258.514 582.533 260.809 582.175 263.165C583.308 264.493 584.561 265.761 585.933 266.909C590.227 270.472 595.238 273.008 600.606 274.76Z" fill="#82868D"/>
</g>
<g opacity="0.2">
<path opacity="0.2" d="M612.776 257.004C611.165 256.702 609.555 256.822 607.944 256.279C606.334 255.735 604.783 254.709 603.053 254.528C602.218 254.407 601.98 255.554 602.576 255.977C604.067 257.064 606.334 257.607 608.123 258.151C609.555 258.574 611.523 258.815 612.836 257.97C613.134 257.728 613.253 257.124 612.776 257.004Z" fill="#33353D"/>
</g>
<g opacity="0.2">
<path opacity="0.2" d="M594.699 280.436C594.341 280.376 593.983 280.315 593.566 280.315C593.148 280.315 593.029 280.919 593.447 280.979C593.745 281.04 594.043 281.161 594.341 281.281C594.64 281.463 594.938 281.463 595.236 281.523C595.534 281.583 595.773 281.281 595.534 281.04C595.355 280.798 595.117 280.557 594.699 280.436Z" fill="#82868D"/>
</g>
<g opacity="0.2">
<path opacity="0.2" d="M605.856 282.247C603.708 281.704 601.561 280.617 599.354 280.496C598.877 280.496 598.46 281.1 598.877 281.462C600.607 283.033 603.351 283.576 605.617 284.059C605.796 284.12 605.975 284.12 606.154 284.18C607.407 283.878 608.6 283.516 609.792 282.972C608.48 282.791 607.168 282.549 605.856 282.247Z" fill="#33353D"/>
</g>
<g opacity="0.2">
<path opacity="0.2" d="M590.886 278.623C591.542 278.684 591.661 277.898 591.244 277.596C589.872 276.509 587.963 275.906 586.412 275C585.398 274.396 584.384 273.792 583.37 273.128C583.728 273.973 584.146 274.819 584.682 275.664C586.591 277.113 588.738 278.382 590.886 278.623Z" fill="#82868D"/>
</g>
</g>
<path d="M594.879 282.369C594.879 282.369 594.64 282.308 594.283 282.187C593.925 282.067 593.388 281.885 592.732 281.584C591.42 280.98 589.69 279.953 588.139 278.383C587.364 277.598 586.648 276.813 586.111 276.028C585.574 275.242 585.097 274.518 584.799 273.854C584.62 273.552 584.5 273.25 584.381 272.948C584.262 272.706 584.202 272.465 584.143 272.283C584.023 271.921 583.964 271.679 583.964 271.679C584.023 271.679 584.322 272.525 584.978 273.733C585.336 274.337 585.753 275.061 586.35 275.846C586.946 276.571 587.602 277.356 588.378 278.141C589.928 279.651 591.598 280.678 592.911 281.342C594.044 282.067 594.879 282.369 594.879 282.369Z" fill="#82868D"/>
<path d="M620.709 266.305C620.709 266.425 620.231 266.546 619.277 266.788C619.038 266.848 618.8 266.909 618.502 266.969C618.203 267.029 617.905 267.029 617.547 267.09C616.891 267.15 616.116 267.271 615.221 267.271C614.803 267.271 614.326 267.271 613.849 267.271C613.372 267.271 612.895 267.21 612.418 267.21C611.404 267.21 610.33 267.029 609.197 266.848C606.99 266.486 604.544 265.822 602.099 264.855C599.653 263.829 597.506 262.621 595.597 261.353C594.702 260.688 593.808 260.084 593.032 259.36C592.674 258.997 592.257 258.695 591.959 258.393C591.601 258.031 591.302 257.729 591.004 257.427C590.408 256.823 589.931 256.219 589.453 255.676C589.215 255.434 589.036 255.193 588.857 254.951C588.678 254.71 588.559 254.468 588.38 254.287C587.843 253.502 587.604 253.019 587.664 252.958C587.724 252.898 588.141 253.26 588.797 253.925C588.976 254.106 589.155 254.287 589.334 254.468C589.513 254.649 589.752 254.891 589.99 255.132C590.467 255.615 591.004 256.159 591.66 256.642C591.959 256.944 592.316 257.186 592.674 257.488C593.032 257.79 593.39 258.031 593.808 258.333C594.583 258.937 595.418 259.541 596.372 260.145C598.222 261.292 600.369 262.44 602.695 263.406C605.021 264.312 607.348 264.976 609.495 265.399C610.569 265.58 611.583 265.761 612.537 265.882C613.014 265.942 613.491 266.003 613.909 266.003C614.386 266.003 614.803 266.063 615.221 266.063C616.056 266.123 616.772 266.063 617.488 266.123C617.845 266.123 618.144 266.123 618.382 266.123C618.681 266.123 618.919 266.123 619.158 266.063C620.172 266.184 620.709 266.244 620.709 266.305Z" fill="#42CA90"/>
<path d="M611.52 282.127C611.52 282.127 611.58 282.066 611.64 282.006C611.759 281.946 611.819 281.885 611.998 281.764C612.356 281.523 612.773 281.221 613.37 280.798H613.429L613.37 280.859V280.798C613.429 280.738 613.489 280.677 613.608 280.617H613.548C614.741 279.651 616.352 278.141 617.783 275.846L617.843 275.786C617.843 275.786 617.724 275.846 617.724 275.907V275.846C618.976 273.793 620.11 271.136 620.468 267.995C620.825 264.915 620.408 261.352 618.917 258.031L619.036 258.091H618.917L618.976 258.031C618.618 257.246 618.201 256.4 617.724 255.615C615.517 252.052 612.117 249.697 608.777 248.429C605.436 247.161 602.096 246.919 599.412 247.221C596.728 247.523 594.64 248.308 593.209 248.912C592.493 249.214 592.016 249.516 591.658 249.697C591.479 249.818 591.36 249.878 591.24 249.939C591.121 249.999 591.121 249.999 591.121 249.999C591.121 249.999 591.777 249.455 593.149 248.791C594.521 248.127 596.609 247.281 599.352 246.979C602.037 246.677 605.436 246.859 608.836 248.187C610.506 248.852 612.236 249.757 613.787 250.965C615.338 252.173 616.769 253.683 617.903 255.495C618.44 256.28 618.797 257.125 619.155 257.91L619.036 257.85H619.155L619.215 257.91C620.706 261.292 621.124 264.855 620.766 267.995C620.408 271.136 619.275 273.853 617.962 275.907V275.846C617.962 275.907 617.903 275.967 617.843 275.967L617.903 275.907C616.412 278.201 614.801 279.711 613.548 280.677H613.608C613.548 280.738 613.429 280.798 613.37 280.859V280.798L613.31 280.859H613.37C612.773 281.221 612.296 281.523 611.938 281.764C611.759 281.885 611.64 281.946 611.58 282.006C611.52 282.066 611.52 282.127 611.52 282.127Z" fill="#82868D"/>
<path d="M583.608 258.212C583.668 258.031 583.787 257.789 583.906 257.608C574.721 255.072 569.949 254.588 568.577 255.253C568.458 255.313 568.398 255.373 568.398 255.434V255.494C568.398 255.555 568.398 255.675 568.458 255.736C568.875 256.702 572.335 260.507 598.818 269.928C614.744 275.544 627.27 277.96 631.445 277.96C631.982 277.96 632.221 277.356 631.803 276.993C630.193 275.725 626.554 273.611 620.828 271.015C620.768 271.196 620.709 271.317 620.649 271.498C625.361 273.672 628.105 275.423 627.866 276.087C627.33 277.537 614.684 274.397 599.653 269.082C584.563 263.707 572.812 258.272 573.409 256.883C573.707 256.098 577.644 256.642 583.608 258.212Z" fill="#5C5F63"/>
<path d="M621.304 268.962C621.244 269.083 621.244 269.264 621.185 269.385C628.521 272.706 633.472 275.605 634.188 277.235C634.426 277.779 634.367 278.323 633.949 278.685C633.532 279.108 632.339 280.315 621.542 278.021C614.564 276.571 606.273 274.156 598.161 271.257C594.761 270.049 591.122 268.72 587.603 267.331C577.463 263.527 568.158 259.239 566.846 256.34C566.548 255.736 566.667 255.193 566.786 254.891C566.906 254.589 567.204 254.106 567.86 253.804C570.306 252.656 577.284 254.106 584.621 256.159C584.681 256.099 584.681 255.978 584.74 255.918C572.334 252.596 563.685 251.63 562.551 253.623C560.165 257.91 576.688 265.882 597.505 273.25C618.322 280.617 636.812 283.275 638.005 280.255C638.781 278.202 632.04 273.854 621.304 268.962Z" fill="#5C5F63"/>
<path d="M623.211 273.974C623.33 274.094 622.018 274.094 621.958 274.094C621.481 274.034 620.944 273.913 620.467 273.853C619.155 273.611 617.842 273.309 616.53 272.947C614.681 272.464 612.892 271.739 611.043 271.498C610.804 271.498 610.804 271.739 610.923 271.8C614.085 273.49 618.558 274.517 622.197 274.819C622.733 274.879 623.509 275 623.747 274.396C623.926 274.034 623.747 273.732 623.39 273.611C623.211 273.49 623.032 273.792 623.211 273.974Z" fill="#5C5F63"/>
<g opacity="0.3">
<g opacity="0.3">
<path opacity="0.3" d="M583.608 258.212C583.668 258.031 583.787 257.789 583.906 257.608C574.721 255.072 569.949 254.588 568.577 255.253C568.458 255.313 568.398 255.373 568.398 255.434V255.494C568.398 255.555 568.398 255.675 568.458 255.736C568.875 256.702 572.335 260.507 598.818 269.928C614.744 275.544 627.27 277.96 631.445 277.96C631.982 277.96 632.221 277.356 631.803 276.993C630.193 275.725 626.554 273.611 620.828 271.015C620.768 271.196 620.709 271.317 620.649 271.498C625.361 273.672 628.105 275.423 627.866 276.087C627.33 277.537 614.684 274.397 599.653 269.082C584.563 263.707 572.812 258.272 573.409 256.883C573.707 256.098 577.644 256.642 583.608 258.212Z" fill="#5C5F63"/>
</g>
<g opacity="0.3">
<path opacity="0.3" d="M623.215 273.974C623.335 274.095 622.022 274.095 621.963 274.095C621.486 274.034 620.949 273.913 620.472 273.853C619.159 273.611 617.847 273.31 616.535 272.947C614.686 272.464 612.896 271.739 611.047 271.498C610.809 271.498 610.809 271.739 610.928 271.8C614.089 273.491 618.563 274.517 622.201 274.819C622.738 274.88 623.514 275 623.752 274.397C623.931 274.034 623.752 273.732 623.394 273.611C623.215 273.491 623.036 273.793 623.215 273.974Z" fill="#5C5F63"/>
</g>
</g>
<g opacity="0.3">
<path opacity="0.3" d="M621.304 268.962C621.244 269.083 621.244 269.264 621.185 269.385C628.521 272.706 633.472 275.605 634.188 277.235C634.426 277.779 634.367 278.323 633.949 278.685C633.532 279.108 632.339 280.315 621.542 278.021C614.564 276.571 606.273 274.156 598.161 271.257C594.761 270.049 591.122 268.72 587.603 267.331C577.463 263.527 568.158 259.239 566.846 256.34C566.548 255.736 566.667 255.193 566.786 254.891C566.906 254.589 567.204 254.106 567.86 253.804C570.306 252.656 577.284 254.106 584.621 256.159C584.681 256.099 584.681 255.978 584.74 255.918C572.334 252.596 563.685 251.63 562.551 253.623C560.165 257.91 576.688 265.882 597.505 273.25C618.322 280.617 636.812 283.275 638.005 280.255C638.781 278.202 632.04 273.854 621.304 268.962Z" fill="#5C5F63"/>
</g>
</g>
<g clip-path="url(#clip2_1_1680)">
<path opacity="0.2" d="M76.7709 167.934C75.8248 166.414 74.338 165.309 72.9863 164.204C67.8501 160.335 64.8765 154.394 59.3347 151.079C57.3073 149.835 53.5227 149.559 50.5491 149.421C48.2513 149.421 45.9535 149.006 43.7909 148.315C39.4656 147.21 34.5997 146.796 34.5997 146.796C27.1657 146.796 21.8943 153.704 15.6767 157.849C12.2976 160.059 8.37787 161.579 5.53942 164.618C-0.00230753 170.421 0.673513 180.092 3.64712 187.553C4.45811 189.625 5.40426 191.698 5.67458 193.908C5.94491 196.119 5.53942 198.33 5.53942 200.54C5.80975 206.481 9.59434 211.593 13.5141 216.014C15.9471 218.777 18.6503 221.541 22.1646 221.955C24.4624 222.231 26.7602 221.541 29.1931 221.541C34.5997 221.679 39.3305 226.1 44.6019 225.824C50.8194 225.409 54.8743 219.192 60.6864 216.705C64.0655 215.185 67.9852 215.047 70.9589 212.836C74.2028 210.35 75.5544 206.067 75.9599 201.922C76.2303 197.777 75.6896 193.632 76.2303 189.487C76.6357 185.895 77.8522 182.303 78.3929 178.711C78.9335 174.98 78.7984 170.974 76.7709 167.934Z" fill="#F49819"/>
<g opacity="0.7">
<g opacity="0.7">
<path opacity="0.3" d="M76.7735 171.112C75.8273 169.592 74.3405 168.487 72.9889 167.381C67.8526 163.513 64.879 157.572 59.3373 154.256C57.3098 153.013 53.5252 152.736 50.5516 152.598C48.2538 152.598 45.956 152.184 43.7934 151.493C39.4682 150.249 34.7374 149.835 34.7374 149.835C27.3034 149.835 22.032 156.743 15.8144 160.888C12.4353 163.098 8.51558 164.618 5.67713 167.658C0.000238895 173.737 0.676059 183.27 3.64967 190.869C4.46065 192.941 5.4068 195.013 5.67713 197.224C5.8123 199.296 5.4068 201.507 5.54197 203.718C5.8123 209.658 9.59689 214.77 13.5167 219.191C15.9496 221.955 18.6529 224.718 22.1672 225.132C24.4649 225.409 26.7627 224.718 29.1957 224.718C34.6023 224.856 39.333 229.277 44.6044 229.001C50.8219 228.586 54.8769 222.369 60.6889 219.882C64.068 218.363 67.9878 218.224 70.9614 216.014C74.2053 213.527 75.557 209.244 75.9625 205.099C76.2328 200.954 75.6922 196.809 76.2328 192.665C76.6383 189.072 77.8548 185.48 78.3954 181.888C78.9361 178.158 78.8009 174.151 76.7735 171.112Z" fill="#F49819"/>
</g>
</g>
<path opacity="0.3" d="M67.5832 161.302C66.3668 160.197 64.88 159.506 63.5283 158.954C58.2569 156.881 54.202 152.46 48.7954 150.94C46.768 150.388 43.3889 150.94 40.9559 151.631C38.9285 152.046 36.901 152.322 34.8735 152.322C30.9538 152.322 26.7637 153.013 26.7637 153.013C20.411 154.671 17.3022 161.993 12.8418 166.967C10.4088 169.73 7.30005 171.941 5.54292 175.118C2.16382 181.474 4.8671 189.487 9.05719 195.29C10.1385 196.81 11.4901 198.468 12.166 200.264C12.8418 202.06 12.9769 204.132 13.5176 205.928C15.0044 211.04 19.4648 214.494 23.9252 217.396C26.6285 219.192 29.6021 220.85 32.7109 220.435C34.7384 220.159 36.6307 218.915 38.6581 218.501C43.3889 217.396 48.3899 220.159 52.9855 218.639C58.2569 216.843 60.4196 210.488 64.7448 207.034C67.3129 204.961 70.5569 203.856 72.7195 201.369C75.0173 198.468 75.1524 194.461 74.6118 190.731C73.936 187.138 72.5843 183.684 72.0437 179.954C71.6382 176.638 71.9085 173.322 71.503 170.145C70.9623 166.829 70.0162 163.513 67.5832 161.302Z" fill="#F49819"/>
<g opacity="0.3">
<g opacity="0.3">
<path opacity="0.3" d="M63.6618 159.645C62.4453 158.54 60.9585 157.849 59.6068 157.297C54.3354 155.086 50.4157 150.665 44.874 149.283C42.8465 148.731 39.4674 149.283 37.0344 149.974C35.007 150.389 32.9795 150.665 30.9521 150.665C27.0323 150.665 22.8422 151.356 22.8422 151.356C16.2192 153.014 13.2456 160.336 8.78514 165.31C6.35219 168.073 3.24341 170.284 1.48628 173.461C-1.89282 179.817 0.810459 187.968 5.00055 193.771C6.08186 195.291 7.4335 196.949 8.10932 198.745C8.78514 200.541 8.92031 202.613 9.46096 204.409C10.9478 209.521 15.4082 212.975 19.8686 215.877C22.5719 217.673 25.5455 219.331 28.6543 218.916C30.6817 218.64 32.574 217.397 34.6015 216.982C39.3322 215.877 44.3333 218.64 48.9289 217.12C54.2003 215.324 56.3629 208.969 60.6882 205.515C63.2563 203.442 66.5002 202.337 68.6628 199.85C70.9606 196.949 71.0958 192.942 70.5551 189.212C69.8793 185.62 68.5277 182.166 67.987 178.435C67.5815 175.119 67.8519 171.803 67.4464 168.626C67.0409 165.448 66.0947 161.856 63.6618 159.645Z" fill="#F49819"/>
</g>
</g>
<path d="M40.6848 216.291C57.1076 216.291 70.421 202.682 70.421 185.895C70.421 169.109 57.1076 155.5 40.6848 155.5C24.262 155.5 10.9487 169.109 10.9487 185.895C10.9487 202.682 24.262 216.291 40.6848 216.291Z" fill="url(#paint0_linear_1_1680)"/>
<g opacity="0.1">
<g opacity="0.1">
<path opacity="0.1" d="M42.3104 165.308C40.6884 162.268 36.6335 161.578 33.3896 162.268L29.605 163.374C25.1446 164.894 21.7655 168.624 19.0622 172.492C17.4402 174.841 15.9534 177.466 15.2776 180.229C14.6018 183.131 14.8721 186.308 16.6292 188.657C18.3864 191.006 21.6303 192.249 24.1984 191.006C27.172 189.624 28.1182 186.032 30.1456 183.407C31.7676 181.335 33.9302 179.815 36.0929 178.295C38.2555 176.775 40.4181 175.117 41.7698 172.907C43.1214 170.558 43.662 167.519 42.3104 165.308Z" fill="white"/>
</g>
</g>
<g opacity="0.43">
<path opacity="0.43" d="M53.3889 168.349C53.7944 170.421 58.39 168.211 59.201 167.105C60.012 166.138 59.7416 164.757 58.5252 164.342C56.768 163.651 55.2812 165.033 54.1999 166.276C53.7944 166.691 53.5241 167.105 53.3889 167.658C53.3889 167.934 53.3889 168.211 53.3889 168.349Z" fill="url(#paint1_linear_1_1680)"/>
</g>
<g opacity="0.43">
<path opacity="0.43" d="M55.5515 171.527C55.4164 171.25 55.0109 170.974 54.6054 170.974C54.4702 170.974 54.3351 170.974 54.1999 171.112C53.7944 171.25 53.3889 171.665 53.3889 172.217C53.3889 172.355 53.3889 172.494 53.3889 172.494C53.3889 172.494 53.3889 172.494 53.3889 172.632C53.3889 173.184 53.9296 173.461 54.4702 173.461C54.8757 173.461 55.1461 173.184 55.4164 172.908C55.4164 172.908 55.4164 172.77 55.5515 172.77V172.632C55.5515 172.632 55.5515 172.632 55.5515 172.494C55.5515 172.494 55.5515 172.355 55.6867 172.355C55.6867 172.079 55.6867 171.803 55.5515 171.527Z" fill="url(#paint2_linear_1_1680)"/>
</g>
<path d="M66.0899 178.021C66.9009 178.021 66.9009 176.639 66.0899 176.639C65.2789 176.639 65.2789 178.021 66.0899 178.021Z" fill="url(#paint3_linear_1_1680)"/>
<path d="M52.8466 164.342C53.3873 164.48 54.0631 164.204 54.0631 163.651C54.0631 163.651 54.0631 163.651 54.0631 163.513C54.3334 163.237 54.4686 162.961 54.6037 162.684C55.0092 161.994 54.3334 161.165 53.6576 161.441C52.9818 161.717 52.1708 162.27 52.0356 163.099C52.0356 163.651 52.1708 164.204 52.8466 164.342Z" fill="url(#paint4_linear_1_1680)"/>
<g opacity="0.43">
<path opacity="0.43" d="M50.1426 161.303C50.8184 161.303 50.8184 160.336 50.1426 160.336C49.6019 160.336 49.6019 161.303 50.1426 161.303Z" fill="url(#paint5_linear_1_1680)"/>
</g>
<path d="M57.8448 172.08C58.6558 172.08 58.6558 170.699 57.8448 170.699C57.0338 170.699 57.0338 172.08 57.8448 172.08Z" fill="url(#paint6_linear_1_1680)"/>
<path d="M64.0654 180.785C64.0654 181.614 64.7413 182.166 65.4171 182.166C66.0929 182.166 66.9039 181.475 66.7687 180.785C66.7687 179.956 66.0929 179.403 65.4171 179.403C64.7413 179.403 64.0654 179.956 64.0654 180.785Z" fill="url(#paint7_linear_1_1680)"/>
<g opacity="0.43">
<path opacity="0.43" d="M47.5761 196.257C47.1706 195.98 46.4947 195.842 45.9541 195.842C44.7376 195.98 42.8453 197.776 44.0618 198.882C45.2783 199.987 47.0354 199.02 47.8464 197.914C48.5222 197.224 48.1167 196.671 47.5761 196.257Z" fill="url(#paint8_linear_1_1680)"/>
</g>
<path d="M60.9546 201.232C59.7381 201.232 59.7381 203.166 60.9546 203.166C62.1711 203.028 62.1711 201.232 60.9546 201.232Z" fill="url(#paint9_linear_1_1680)"/>
<path d="M62.5805 198.19C62.0399 198.19 62.0399 199.019 62.5805 199.019C63.1212 199.019 63.1212 198.19 62.5805 198.19Z" fill="url(#paint10_linear_1_1680)"/>
<path d="M43.5202 193.77C42.574 193.77 42.574 195.29 43.5202 195.29C44.4663 195.29 44.4663 193.77 43.5202 193.77Z" fill="url(#paint11_linear_1_1680)"/>
<path d="M17.2977 191.974C16.6219 191.974 15.946 192.665 15.946 193.355C15.946 194.046 16.4867 194.737 17.2977 194.737C17.9735 194.737 18.6493 194.046 18.6493 193.355C18.6493 192.665 18.1087 191.974 17.2977 191.974Z" fill="url(#paint12_linear_1_1680)"/>
<g opacity="0.63">
<path opacity="0.63" d="M42.0326 198.052C41.7623 197.223 41.3568 196.532 40.5458 196.256C39.87 195.842 38.9238 195.703 38.248 195.98C37.7073 196.256 37.1667 196.532 36.8964 197.085C36.626 197.638 36.4909 198.329 36.626 198.881C36.626 199.019 36.7612 199.296 36.8964 199.434C37.0315 199.848 37.1667 200.263 37.5722 200.539C37.5722 200.539 37.5722 200.539 37.437 200.539C37.5722 200.677 37.7073 200.815 37.9777 200.954C38.248 201.092 38.5183 201.23 38.7887 201.23H38.6535C39.3293 201.368 39.87 201.506 40.5458 201.23C41.6271 200.815 42.4381 199.434 42.0326 198.052Z" fill="url(#paint13_linear_1_1680)"/>
</g>
<path d="M21.8924 194.599C22.7034 194.599 22.7034 193.356 21.8924 193.356C21.2165 193.356 21.2165 194.599 21.8924 194.599Z" fill="url(#paint14_linear_1_1680)"/>
<path d="M14.3252 190.178C15.5417 190.178 15.5417 188.244 14.3252 188.244C13.1087 188.244 13.1087 190.178 14.3252 190.178Z" fill="url(#paint15_linear_1_1680)"/>
<g opacity="0.2">
<path opacity="0.2" d="M70.1484 189.212C70.1484 188.935 70.1484 188.797 70.1484 188.521C70.1484 188.521 70.1484 188.521 70.1484 188.383C70.1484 188.106 70.1484 187.968 70.1484 187.692C70.1484 187.415 70.1484 187.277 70.1484 187.001C70.1484 186.725 70.1484 186.448 70.1484 186.034C70.1484 185.205 70.1484 184.514 70.1484 183.685C70.1484 183.547 70.1484 183.409 70.1484 183.409C70.1484 183.271 70.1484 183.271 70.1484 183.132C70.1484 182.856 70.1484 182.58 70.0133 182.304C69.8781 180.784 69.6078 179.264 69.2023 177.744C69.0671 177.33 69.0671 177.053 68.932 176.639C68.7968 176.086 68.6616 175.672 68.3913 175.119C68.2561 174.705 68.121 174.29 67.9858 174.014C67.8506 173.599 67.5803 173.185 67.4452 172.77C67.31 172.632 67.31 172.494 67.1748 172.218C67.1748 172.08 67.0397 171.941 67.0397 171.803C67.0397 171.803 67.0397 171.665 66.9045 171.665C66.7693 171.389 66.6342 171.113 66.499 170.974C66.499 170.836 66.3638 170.836 66.3638 170.698L66.2287 170.56C66.2287 170.422 66.0935 170.284 66.0935 170.284C65.8232 169.869 65.5529 169.316 65.2825 168.902C65.0122 168.487 64.7419 168.211 64.4715 167.797C64.3364 167.658 64.3364 167.52 64.2012 167.52C64.2012 167.382 64.0661 167.382 64.0661 167.244C63.6606 166.553 63.1199 166.001 62.5792 165.448C62.4441 165.31 62.4441 165.31 62.3089 165.172C62.1737 165.033 62.0386 164.895 62.0386 164.757C61.7683 164.481 61.6331 164.343 61.3628 164.066L61.2276 163.928C61.0924 163.79 60.9573 163.652 60.9573 163.652C60.1463 162.823 59.2001 161.994 58.254 161.303C58.3892 161.441 58.6595 161.579 58.7946 161.718C58.9298 161.856 59.2001 161.994 59.3353 162.27C59.4705 162.408 59.6056 162.408 59.6056 162.547L59.7408 162.685C60.0111 162.961 60.1463 163.099 60.4166 163.376C60.5518 163.514 60.6869 163.652 60.6869 163.79C60.8221 163.928 60.8221 163.928 60.9573 164.066C61.4979 164.619 61.9034 165.31 62.4441 165.862C62.4441 166.001 62.5792 166.001 62.5792 166.139C62.9847 166.553 63.2551 167.106 63.5254 167.52L63.6606 167.658C63.9309 168.211 64.3364 168.626 64.6067 169.178L64.7419 169.316C64.7419 169.455 64.877 169.455 64.877 169.593C65.0122 169.731 65.0122 169.869 65.1474 170.145C65.2825 170.284 65.2825 170.422 65.4177 170.56C65.4177 170.698 65.5529 170.836 65.5529 170.974C65.688 171.251 65.8232 171.527 65.9583 171.803C66.0935 172.08 66.2287 172.494 66.3638 172.77C66.499 173.185 66.7693 173.738 66.9045 174.152C67.0397 174.567 67.1748 174.981 67.31 175.395C67.4452 175.81 67.5803 176.086 67.5803 176.501C67.5803 176.639 67.7155 176.915 67.7155 177.053C68.121 178.573 68.3913 180.231 68.5265 181.889C68.5265 182.027 68.5265 182.027 68.5265 182.165C68.5265 182.304 68.5265 182.304 68.5265 182.442C68.5265 182.994 68.5265 183.409 68.5265 183.961C68.5265 184.238 68.5265 184.514 68.5265 184.79C68.5265 185.343 68.5265 185.758 68.5265 186.31C68.5265 186.587 68.5265 186.725 68.5265 187.001C68.5265 187.277 68.5265 187.554 68.3913 187.83C68.3913 187.968 68.3913 188.106 68.3913 188.106C68.3913 188.244 68.3913 188.244 68.3913 188.383C68.3913 188.521 68.3913 188.659 68.3913 188.935C68.2561 189.488 68.2561 190.179 68.121 190.731C67.9858 191.146 67.9858 191.422 67.8506 191.698V191.837C67.7155 192.389 67.5803 192.942 67.4452 193.495C67.4452 193.633 67.31 193.771 67.31 194.047C66.499 196.672 65.1474 199.159 63.6606 201.508C63.3902 201.784 63.2551 202.199 62.9847 202.475C62.3089 203.304 61.6331 204.133 60.9573 204.962C60.2814 205.791 59.4705 206.482 58.6595 207.172C58.1188 207.587 57.7133 208.001 57.1727 208.416C56.0914 209.245 55.01 210.074 53.7936 210.765C52.0364 211.732 50.1441 212.699 48.1167 213.251C47.4409 213.39 46.9002 213.666 46.2244 213.804C45.9541 213.942 45.5486 213.942 45.2782 214.08C44.7376 214.219 44.1969 214.219 43.7914 214.357C42.7101 214.495 41.6288 214.633 40.5475 214.633C38.9255 214.633 37.3036 214.633 35.6816 214.495C32.4376 214.08 29.3289 213.113 26.6256 211.732C26.0849 211.455 25.4091 211.179 24.8685 210.765C24.463 210.488 23.9223 210.212 23.5168 209.936C23.1113 209.659 22.5707 209.383 22.1652 208.969C22.03 208.83 21.7597 208.692 21.6245 208.554C21.8948 208.83 22.1652 209.107 22.5707 209.245C22.7058 209.383 22.841 209.383 22.9762 209.521C22.9762 209.521 22.9762 209.521 23.1113 209.521L23.2465 209.659C23.5168 209.797 23.7871 210.074 23.9223 210.212C24.7333 210.903 25.6794 211.455 26.6256 212.008C27.1662 212.284 27.8421 212.699 28.3827 212.975C31.2212 214.357 34.1948 215.324 37.4387 215.738C40.2772 216.153 42.9804 216.015 45.5486 215.6C45.6837 215.6 45.8189 215.6 46.0892 215.462C46.4947 215.462 46.765 215.324 47.1705 215.324C47.4409 215.324 47.8463 215.186 48.1167 215.048C49.8738 214.633 51.4958 214.08 53.1178 213.39C54.4694 212.837 55.6859 212.146 56.9023 211.317C58.254 210.488 59.4705 209.521 60.5518 208.554C60.9573 208.14 61.4979 207.725 61.9034 207.311C62.7144 206.482 63.5254 205.515 64.3364 204.547C64.4715 204.271 64.7419 203.995 64.877 203.718C65.1474 203.442 65.2825 203.028 65.5529 202.751C65.9583 202.199 66.2287 201.646 66.6342 201.093C67.9858 198.745 69.0671 196.258 69.7429 193.633C69.7429 193.495 69.7429 193.495 69.8781 193.356C69.8781 193.218 69.8781 193.08 70.0133 192.942C70.0133 192.804 70.1484 192.527 70.1484 192.389C70.1484 192.251 70.2836 191.975 70.2836 191.837C70.2836 191.698 70.2836 191.56 70.4188 191.422C70.4188 191.146 70.5539 190.869 70.5539 190.593C70.5539 190.317 70.6891 190.179 70.6891 189.902C70.6891 189.626 70.8243 189.35 70.8243 189.073C70.1484 189.488 70.1484 189.35 70.1484 189.212Z" fill="white"/>
</g>
<path d="M65.5535 169.316C65.5535 169.316 65.5535 169.316 65.4184 169.177C65.2832 169.039 65.148 168.901 65.0129 168.625C64.8777 168.348 64.6074 168.072 64.3371 167.658C64.0667 167.243 63.7964 166.829 63.3909 166.414C62.9854 166 62.5799 165.447 62.0393 164.894C61.7689 164.618 61.4986 164.342 61.2283 164.065C60.958 163.789 60.6876 163.513 60.2821 163.236C60.0118 162.96 59.7415 162.684 59.336 162.408C58.9305 162.131 58.6602 161.855 58.2547 161.579C57.8492 161.302 57.4437 161.026 57.0382 160.75C56.6327 160.473 56.2272 160.197 55.6866 159.921C53.9294 158.815 51.7668 157.848 49.469 157.019C48.9283 156.881 48.2525 156.743 47.7119 156.467C47.4415 156.328 47.036 156.328 46.7657 156.19C46.4954 156.19 46.0899 156.052 45.8196 156.052C45.1438 155.914 44.4679 155.776 43.7921 155.776C43.1163 155.776 42.4405 155.638 41.7646 155.638H41.224H40.6833C40.2778 155.638 40.0075 155.638 39.602 155.638C39.1965 155.638 38.9262 155.638 38.5207 155.638C38.1152 155.638 37.8449 155.776 37.4394 155.776C36.7636 155.914 35.9526 155.914 35.2768 156.052C34.6009 156.19 33.79 156.328 33.1141 156.605C30.1405 157.434 27.3021 158.677 24.5988 160.335C21.8955 162.131 19.5977 164.342 17.7054 166.691C17.2999 167.243 16.7593 167.934 16.3538 168.487C15.9483 169.039 15.5428 169.73 15.1373 170.421C15.0021 170.697 14.7318 170.973 14.5967 171.388C14.4615 171.664 14.3263 172.079 14.1912 172.355C14.056 172.631 13.9208 173.046 13.7857 173.322L13.5153 173.737L13.3802 174.289C13.1098 174.98 12.8395 175.671 12.7044 176.224C12.434 176.914 12.2989 177.605 12.1637 178.158C12.0285 178.434 12.0285 178.849 11.8934 179.125C11.7582 179.401 11.7582 179.816 11.7582 180.092C11.623 180.783 11.4879 181.336 11.4879 182.026C11.2175 184.513 11.2175 186.862 11.4879 189.073C11.4879 189.625 11.623 190.178 11.623 190.592C11.623 191.145 11.7582 191.559 11.8934 192.112C12.0285 192.527 12.0285 193.079 12.1637 193.494C12.2989 193.908 12.434 194.323 12.5692 194.737C12.7044 195.152 12.8395 195.566 12.9747 195.981C13.1098 196.395 13.245 196.671 13.3802 197.086C13.6505 197.777 13.9208 198.329 14.1912 198.882C14.4615 199.435 14.7318 199.849 14.867 200.264C15.1373 200.678 15.2725 200.954 15.4076 201.231C15.5428 201.507 15.678 201.645 15.678 201.921C15.8131 202.06 15.8131 202.198 15.8131 202.198C15.8131 202.198 15.8131 202.198 15.678 202.06C15.5428 201.921 15.4076 201.645 15.2725 201.507C15.1373 201.231 14.867 200.954 14.7318 200.54C14.4615 200.125 14.1912 199.711 14.056 199.158C13.7857 198.606 13.5153 198.053 13.245 197.362C13.1098 197.086 12.9747 196.671 12.8395 196.257C12.434 195.566 12.2989 195.152 12.1637 194.737C12.0285 194.323 11.8934 193.908 11.7582 193.494C11.623 193.079 11.623 192.527 11.4879 192.112C11.3527 191.698 11.2175 191.145 11.2175 190.592C11.2175 190.04 11.0824 189.625 11.0824 189.073C10.8121 186.862 10.8121 184.513 11.0824 182.026C11.2175 181.336 11.3527 180.783 11.3527 180.092C11.3527 179.816 11.4879 179.401 11.4879 179.125C11.623 178.849 11.623 178.434 11.7582 178.158C11.8934 177.467 12.0285 176.776 12.2989 176.224C12.5692 175.533 12.8395 174.842 12.9747 174.289L13.1098 173.737L13.3802 173.184C13.5153 172.908 13.6505 172.493 13.7857 172.217C13.9208 171.941 14.056 171.526 14.3263 171.25C14.4615 170.973 14.7318 170.559 14.867 170.283C15.2725 169.592 15.678 169.039 16.0835 168.348C16.489 167.796 17.0296 167.105 17.4351 166.552C19.3274 164.204 21.7604 161.993 24.4636 160.197C27.1669 158.401 30.1405 157.157 33.1141 156.328C33.9251 156.19 34.6009 156.052 35.2768 155.776C35.9526 155.638 36.7636 155.638 37.4394 155.499C37.8449 155.499 38.1152 155.361 38.5207 155.361C38.9262 155.361 39.1965 155.361 39.602 155.361C40.0075 155.361 40.2778 155.361 40.6833 155.361H41.224H41.7646C42.4405 155.361 43.1163 155.499 43.7921 155.499C44.4679 155.638 45.1438 155.776 45.8196 155.776C46.0899 155.776 46.4954 155.914 46.7657 155.914C47.036 155.914 47.4415 156.052 47.7119 156.19C48.3877 156.328 48.9283 156.467 49.6042 156.743C51.902 157.572 54.0646 158.539 55.8217 159.644C56.2272 159.921 56.7679 160.197 57.1734 160.473C57.5789 160.75 57.9843 161.026 58.3898 161.302C58.7953 161.579 59.2008 161.855 59.4712 162.131C59.8766 162.408 60.147 162.684 60.4173 162.96C60.6876 163.236 60.958 163.513 61.3635 163.789C61.6338 164.065 61.9041 164.342 62.1744 164.618C62.5799 165.171 63.1206 165.723 63.5261 166.138C63.9316 166.552 64.2019 166.967 64.4722 167.381C64.7426 167.796 65.0129 168.072 65.148 168.348C65.2832 168.625 65.4184 168.763 65.5535 168.901C65.4184 169.316 65.5535 169.316 65.5535 169.316Z" fill="url(#paint16_linear_1_1680)"/>
<g opacity="0.6">
<g opacity="0.6">
<path opacity="0.6" d="M76.506 174.429C76.2357 173.461 75.1544 172.771 74.2083 173.047C73.8028 173.461 73.5324 174.014 73.5324 174.567C73.5324 174.981 73.5324 175.396 73.3973 176.087C73.2621 176.639 73.3973 177.192 73.6676 177.606C74.3434 178.297 75.2896 177.744 75.6951 177.192C76.3709 176.363 76.7764 175.396 76.506 174.429Z" fill="white"/>
</g>
</g>
<g opacity="0.1">
<g opacity="0.1">
<path opacity="0.1" d="M62.1776 165.861C62.3128 165.722 62.7183 165.999 62.9886 166.413C63.2589 166.828 63.6644 167.657 63.7996 168.624C63.9348 169.591 63.9348 170.834 63.7996 172.078C63.6644 173.459 63.3941 174.979 62.8534 176.637C62.3128 178.295 61.637 180.091 60.5557 181.887C59.4743 183.545 58.1227 185.479 56.3656 186.999C55.9601 187.414 55.4194 187.828 55.0139 188.105C54.4733 188.519 54.0678 188.795 53.392 189.21C52.3106 189.901 50.8238 190.453 49.2019 190.73C48.3909 190.868 47.5799 190.868 46.7689 190.73C46.0931 190.591 45.4173 190.591 44.8766 190.453C44.336 190.315 43.9305 190.315 43.525 190.315C43.1195 190.315 42.714 190.315 42.1733 190.315C40.4162 190.453 38.6591 191.006 37.3074 191.973C36.6316 192.388 35.9558 192.94 35.4151 193.631C34.7393 194.322 34.1986 195.013 33.5228 195.842C32.3064 197.499 30.9547 199.296 28.9272 200.677C27.9811 201.368 26.8998 201.921 25.8185 202.197C24.7372 202.473 23.6558 202.611 22.7097 202.473C20.8174 202.335 19.1954 201.782 17.979 201.23C16.7625 200.677 15.8163 199.986 15.1405 199.434C13.6537 198.19 13.113 197.361 13.3834 196.947C13.6537 196.532 14.5999 196.67 16.357 197.085C17.979 197.499 20.2767 198.19 22.7097 197.914C23.2504 197.776 23.9262 197.638 24.4668 197.361C25.0075 197.085 25.413 196.809 25.9536 196.394C26.8998 195.565 27.8459 194.045 29.0624 192.388C29.6031 191.559 30.2789 190.591 31.0899 189.624C31.9009 188.657 32.847 187.552 34.0635 186.861C36.3613 185.203 39.0646 184.098 42.0382 183.96C42.714 183.96 43.525 183.96 44.2008 183.96C44.8766 183.96 45.6876 184.098 46.2283 184.236C47.4447 184.512 48.1206 184.651 48.6612 184.512C49.2019 184.512 50.0129 184.236 50.6887 183.822C51.0942 183.683 51.4997 183.407 51.77 183.131C52.1755 182.854 52.4458 182.578 52.8513 182.44C55.6897 180.368 57.582 177.466 58.9337 174.979C59.6095 173.736 60.1502 172.492 60.5557 171.387C60.9611 170.282 61.3666 169.315 61.5018 168.486C61.7721 166.966 61.7721 165.999 62.1776 165.861Z" fill="white"/>
</g>
</g>
<g opacity="0.1">
<g opacity="0.1">
<path opacity="0.1" d="M67.7184 185.343C67.8535 185.758 67.448 186.449 66.6371 187.416C65.8261 188.521 64.8799 189.903 63.7986 191.975C62.7173 193.909 61.5008 196.534 59.7437 199.574C59.203 200.265 58.7975 201.094 58.1217 201.784C57.4459 202.475 56.7701 203.304 56.0943 203.995C54.6075 205.377 52.9855 206.482 51.2283 207.587C47.8492 209.659 44.335 211.041 41.091 211.87C37.8471 212.699 34.7383 213.114 32.1702 213.114C29.6021 213.114 27.4395 212.561 26.0878 211.87C24.7362 211.179 24.1955 210.488 24.3307 210.074C24.4659 209.659 25.2768 209.521 26.6285 209.383C27.9801 209.245 29.7373 209.107 31.8999 208.554C34.0625 208.14 36.6306 207.311 39.4691 206.205C42.3075 205.1 45.2811 203.719 48.2547 202.061C49.7415 201.232 51.0932 200.265 52.1745 199.297C53.2558 198.33 54.202 197.363 55.1481 196.12C56.9052 193.771 58.5272 191.284 60.4195 189.35C62.1766 187.416 63.9338 186.034 65.4206 185.481C66.6371 184.929 67.448 185.067 67.7184 185.343Z" fill="white"/>
</g>
</g>
<g opacity="0.1">
<g opacity="0.1">
<path opacity="0.1" d="M50.1463 165.862C49.876 165.033 48.7947 164.342 47.8485 164.895C47.1727 165.31 46.7672 166.139 47.0376 166.968C47.3079 167.658 48.1189 168.211 48.9298 168.073C49.7408 167.797 50.4166 166.691 50.1463 165.862Z" fill="white"/>
</g>
</g>
</g>
<path d="M47.4024 78.7943H31.0138V89.976H50.2477V96.8857H22.478V55.1407H50.1908V62.1077H31.0138V72.0566H47.4024V78.7943Z" fill="#5C5F63"/>
<path d="M70.5628 86.5355L79.9521 55.1407H89.4553L75.0298 96.8857H66.1242L51.7557 55.1407H61.2304L70.5628 86.5355Z" fill="#5C5F63"/>
<path d="M118.306 78.7943H101.917V89.976H121.151V96.8857H93.3817V55.1407H121.094V62.1077H101.917V72.0566H118.306V78.7943Z" fill="#5C5F63"/>
<path d="M141.495 81.6041H134.695V96.8857H126.159V55.1407H141.552C146.446 55.1407 150.22 56.2397 152.876 58.4379C155.531 60.636 156.859 63.742 156.859 67.7559C156.859 70.6039 156.243 72.9836 155.01 74.895C153.796 76.7873 151.946 78.2973 149.462 79.4251L158.424 96.4843V96.8857H149.262L141.495 81.6041ZM134.695 74.637H141.58C143.724 74.637 145.383 74.0922 146.559 73.0027C147.735 71.8941 148.324 70.3746 148.324 68.444C148.324 66.4753 147.764 64.9271 146.645 63.7993C145.545 62.6716 143.847 62.1077 141.552 62.1077H134.695V74.637Z" fill="#5C5F63"/>
<path d="M176.292 73.9489L184.913 55.1407H194.246L180.646 81.7474V96.8857H171.968V81.7474L158.367 55.1407H167.728L176.292 73.9489Z" fill="#5C5F63"/>
<path d="M223.694 55.1407L234.335 85.4173L244.92 55.1407H256.13V96.8857H247.566V85.4746L248.419 65.7776L237.238 96.8857H231.376L220.223 65.8063L221.077 85.4746V96.8857H212.541V55.1407H223.694Z" fill="#5C5F63"/>
<path d="M272.661 96.8857H264.125V55.1407H272.661V96.8857Z" fill="#5C5F63"/>
<path d="M314.287 96.8857H305.751L289.135 69.4189V96.8857H280.599V55.1407H289.135L305.78 82.6649V55.1407H314.287V96.8857Z" fill="#5C5F63"/>
<path d="M353.096 55.1407V82.6362C353.096 87.2045 351.674 90.817 348.828 93.4739C346.002 96.1307 342.133 97.4591 337.22 97.4591C332.383 97.4591 328.542 96.1689 325.697 93.5886C322.851 91.0082 321.4 87.4625 321.343 82.9516V55.1407H329.879V82.6936C329.879 85.4269 330.524 87.4243 331.814 88.6858C333.123 89.9282 334.925 90.5494 337.22 90.5494C342.019 90.5494 344.456 88.0073 344.532 82.9229V55.1407H353.096Z" fill="#5C5F63"/>
<path d="M391.28 62.1077H378.59V96.8857H370.054V62.1077H357.535V55.1407H391.28V62.1077Z" fill="#5C5F63"/>
<path d="M421.098 78.7943H404.709V89.976H423.943V96.8857H396.173V55.1407H423.886V62.1077H404.709V72.0566H421.098V78.7943Z" fill="#5C5F63"/>
<path d="M457.745 73.9489L466.366 55.1407H475.698L462.098 81.7474V96.8857H453.42V81.7474L439.82 55.1407H449.18L457.745 73.9489Z" fill="#5C5F63"/>
<path d="M512.658 76.9593C512.658 81.0689 511.937 84.6719 510.496 87.7683C509.054 90.8648 506.986 93.2541 504.293 94.9361C501.618 96.6181 498.546 97.4591 495.074 97.4591C491.641 97.4591 488.578 96.6277 485.884 94.9648C483.191 93.3018 481.104 90.9317 479.625 87.8543C478.145 84.7579 477.396 81.2027 477.377 77.1887V75.1244C477.377 71.0149 478.107 67.4023 479.568 64.2867C481.047 61.152 483.124 58.7532 485.799 57.0903C488.492 55.4083 491.565 54.5673 495.017 54.5673C498.47 54.5673 501.533 55.4083 504.208 57.0903C506.901 58.7532 508.978 61.152 510.439 64.2867C511.918 67.4023 512.658 71.0053 512.658 75.0957V76.9593ZM504.008 75.0671C504.008 70.6899 503.231 67.3641 501.675 65.0895C500.12 62.815 497.901 61.6777 495.017 61.6777C492.153 61.6777 489.943 62.8054 488.388 65.0609C486.833 67.2972 486.045 70.5848 486.026 74.9237V76.9593C486.026 81.2218 486.804 84.5285 488.36 86.8795C489.915 89.2306 492.153 90.4061 495.074 90.4061C497.939 90.4061 500.139 89.2783 501.675 87.0229C503.212 84.7483 503.989 81.4416 504.008 77.1027V75.0671Z" fill="#5C5F63"/>
<path d="M550.215 55.1407V82.6362C550.215 87.2045 548.793 90.817 545.947 93.4739C543.121 96.1307 539.252 97.4591 534.339 97.4591C529.502 97.4591 525.661 96.1689 522.816 93.5886C519.97 91.0082 518.519 87.4625 518.462 82.9516V55.1407H526.998V82.6936C526.998 85.4269 527.643 87.4243 528.933 88.6858C530.242 89.9282 532.044 90.5494 534.339 90.5494C539.138 90.5494 541.575 88.0073 541.651 82.9229V55.1407H550.215Z" fill="#5C5F63"/>
<path d="M593.207 85.9334C593.207 84.3087 592.638 83.0663 591.5 82.2061C590.362 81.3269 588.313 80.4094 585.354 79.4537C582.395 78.4789 580.052 77.5232 578.326 76.5866C573.622 74.0253 571.27 70.5753 571.27 66.2364C571.27 63.9809 571.896 61.9739 573.148 60.2155C574.419 58.4379 576.23 57.0521 578.582 56.0582C580.953 55.0642 583.609 54.5673 586.549 54.5673C589.508 54.5673 592.145 55.112 594.459 56.2015C596.773 57.2719 598.566 58.7915 599.836 60.7602C601.126 62.729 601.771 64.9653 601.771 67.4692H593.236C593.236 65.5578 592.638 64.0765 591.443 63.0252C590.248 61.9548 588.569 61.4196 586.407 61.4196C584.32 61.4196 582.699 61.8688 581.542 62.7672C580.384 63.6464 579.806 64.8124 579.806 66.265C579.806 67.6221 580.479 68.7594 581.826 69.6769C583.192 70.5944 585.193 71.4545 587.83 72.2573C592.685 73.7291 596.223 75.5545 598.442 77.7335C600.662 79.9125 601.771 82.6267 601.771 85.876C601.771 89.4886 600.415 92.327 597.703 94.3913C594.99 96.4365 591.339 97.4591 586.748 97.4591C583.562 97.4591 580.659 96.8762 578.042 95.7102C575.424 94.5251 573.423 92.91 572.038 90.8648C570.673 88.8196 569.99 86.4495 569.99 83.7544H578.554C578.554 88.3609 581.285 90.6641 586.748 90.6641C588.778 90.6641 590.362 90.2532 591.5 89.4313C592.638 88.5902 593.207 87.4243 593.207 85.9334Z" fill="#5C5F63"/>
<path d="M616.111 82.1775V96.8857H607.576V55.1407H623.737C626.847 55.1407 629.579 55.7141 631.931 56.8609C634.302 58.0078 636.123 59.642 637.394 61.7637C638.665 63.8662 639.3 66.265 639.3 68.9601C639.3 73.0505 637.906 76.2808 635.118 78.6509C632.348 81.002 628.507 82.1775 623.594 82.1775H616.111ZM616.111 75.2104H623.737C625.994 75.2104 627.711 74.6752 628.887 73.6048C630.082 72.5344 630.679 71.0053 630.679 69.0175C630.679 66.9723 630.082 65.3189 628.887 64.0574C627.692 62.7959 626.041 62.146 623.936 62.1077H616.111V75.2104Z" fill="#5C5F63"/>
<path d="M670.114 78.7943H653.726V89.976H672.959V96.8857H645.19V55.1407H672.903V62.1077H653.726V72.0566H670.114V78.7943Z" fill="#5C5F63"/>
<path d="M711.655 96.8857H703.119L686.503 69.4189V96.8857H677.967V55.1407H686.503L703.148 82.6649V55.1407H711.655V96.8857Z" fill="#5C5F63"/>
<path d="M719.109 96.8857V55.1407H731.856C735.498 55.1407 738.751 55.9721 741.615 57.6351C744.499 59.2789 746.746 61.6299 748.359 64.6881C749.971 67.7273 750.777 71.1869 750.777 75.0671V76.988C750.777 80.8682 749.98 84.3182 748.387 87.3383C746.813 90.3583 744.584 92.6997 741.701 94.3627C738.818 96.0256 735.565 96.8666 731.942 96.8857H719.109ZM727.645 62.1077V89.976H731.771C735.109 89.976 737.661 88.8769 739.425 86.6788C741.189 84.4807 742.09 81.3365 742.128 77.2461V75.0384C742.128 70.7951 741.255 67.5839 739.51 65.4049C737.765 63.2068 735.214 62.1077 731.856 62.1077H727.645Z" fill="#5C5F63"/>
<path d="M115.945 149.704V164.412H107.409V122.667H123.57C126.681 122.667 129.412 123.24 131.764 124.387C134.135 125.534 135.956 127.168 137.227 129.29C138.498 131.392 139.133 133.791 139.133 136.486C139.133 140.577 137.739 143.807 134.951 146.177C132.181 148.528 128.34 149.704 123.428 149.704H115.945ZM115.945 142.736H123.57C125.827 142.736 127.544 142.201 128.72 141.131C129.915 140.06 130.512 138.531 130.512 136.544C130.512 134.498 129.915 132.845 128.72 131.583C127.525 130.322 125.874 129.672 123.769 129.634H115.945V142.736Z" fill="#5C5F63"/>
<path d="M153.559 157.502H171.683V164.412H145.023V122.667H153.559V157.502Z" fill="#5C5F63"/>
<path d="M200.562 155.81H185.596L182.751 164.412H173.675L189.096 122.667H197.006L212.512 164.412H203.436L200.562 155.81ZM187.901 148.843H198.258L193.051 133.218L187.901 148.843Z" fill="#5C5F63"/>
<path d="M250.07 164.412H241.534L224.918 136.945V164.412H216.382V122.667H224.918L241.562 150.191V122.667H250.07V164.412Z" fill="#5C5F63"/>
<path d="M291.212 164.412H282.676L266.06 136.945V164.412H257.524V122.667H266.06L282.705 150.191V122.667H291.212V164.412Z" fill="#5C5F63"/>
<path d="M307.743 164.412H299.207V122.667H307.743V164.412Z" fill="#5C5F63"/>
<path d="M349.369 164.412H340.833L324.217 136.945V164.412H315.681V122.667H324.217L340.862 150.191V122.667H349.369V164.412Z" fill="#5C5F63"/>
<path d="M389.601 159.136C388.064 160.99 385.893 162.433 383.085 163.466C380.278 164.479 377.167 164.985 373.753 164.985C370.168 164.985 367.019 164.202 364.307 162.634C361.613 161.048 359.527 158.754 358.047 155.753C356.586 152.752 355.837 149.226 355.799 145.174V142.335C355.799 138.168 356.492 134.565 357.876 131.526C359.28 128.468 361.291 126.136 363.908 124.53C366.545 122.906 369.627 122.093 373.155 122.093C378.068 122.093 381.909 123.278 384.679 125.649C387.448 128 389.089 131.431 389.601 135.941H381.293C380.913 133.552 380.069 131.803 378.76 130.695C377.471 129.586 375.688 129.032 373.411 129.032C370.509 129.032 368.299 130.131 366.782 132.329C365.264 134.527 364.496 137.795 364.477 142.134V144.801C364.477 149.178 365.302 152.485 366.953 154.721C368.603 156.957 371.021 158.075 374.208 158.075C377.414 158.075 379.699 157.387 381.065 156.011V148.815H373.298V142.478H389.601V159.136Z" fill="#5C5F63"/>
<path d="M432.536 153.459C432.536 151.835 431.967 150.592 430.829 149.732C429.69 148.853 427.642 147.935 424.683 146.98C421.724 146.005 419.381 145.049 417.655 144.113C412.951 141.551 410.599 138.101 410.599 133.762C410.599 131.507 411.225 129.5 412.477 127.742C413.748 125.964 415.559 124.578 417.911 123.584C420.282 122.59 422.938 122.093 425.878 122.093C428.837 122.093 431.473 122.638 433.788 123.728C436.102 124.798 437.894 126.318 439.165 128.286C440.455 130.255 441.1 132.491 441.1 134.995H432.564C432.564 133.084 431.967 131.603 430.772 130.551C429.577 129.481 427.898 128.946 425.736 128.946C423.649 128.946 422.027 129.395 420.87 130.293C419.713 131.172 419.135 132.338 419.135 133.791C419.135 135.148 419.808 136.285 421.155 137.203C422.52 138.12 424.522 138.981 427.158 139.783C432.014 141.255 435.552 143.081 437.771 145.26C439.99 147.439 441.1 150.153 441.1 153.402C441.1 157.015 439.744 159.853 437.031 161.917C434.319 163.963 430.667 164.985 426.077 164.985C422.89 164.985 419.988 164.402 417.371 163.236C414.753 162.051 412.752 160.436 411.367 158.391C410.001 156.346 409.318 153.976 409.318 151.28H417.883C417.883 155.887 420.614 158.19 426.077 158.19C428.107 158.19 429.69 157.779 430.829 156.957C431.967 156.116 432.536 154.95 432.536 153.459Z" fill="#5C5F63"/>
<path d="M470.292 155.81H455.326L452.481 164.412H443.405L458.826 122.667H466.736L482.242 164.412H473.166L470.292 155.81ZM457.631 148.843H467.988L462.781 133.218L457.631 148.843Z" fill="#5C5F63"/>
<path d="M499.2 154.062L508.589 122.667H518.092L503.667 164.412H494.761L480.393 122.667H489.868L499.2 154.062Z" fill="#5C5F63"/>
<path d="M546.943 146.32H530.555V157.502H549.789V164.412H522.019V122.667H549.732V129.634H530.555V139.583H546.943V146.32Z" fill="#5C5F63"/>
<path d="M576.278 153.459C576.278 151.835 575.709 150.592 574.571 149.732C573.433 148.853 571.384 147.935 568.425 146.98C565.466 146.005 563.123 145.049 561.397 144.113C556.693 141.551 554.341 138.101 554.341 133.762C554.341 131.507 554.967 129.5 556.219 127.742C557.49 125.964 559.301 124.578 561.653 123.584C564.024 122.59 566.68 122.093 569.62 122.093C572.579 122.093 575.216 122.638 577.53 123.728C579.844 124.798 581.636 126.318 582.907 128.286C584.197 130.255 584.842 132.491 584.842 134.995H576.306C576.306 133.084 575.709 131.603 574.514 130.551C573.319 129.481 571.64 128.946 569.478 128.946C567.391 128.946 565.769 129.395 564.612 130.293C563.455 131.172 562.877 132.338 562.877 133.791C562.877 135.148 563.55 136.285 564.897 137.203C566.263 138.12 568.264 138.981 570.9 139.783C575.756 141.255 579.294 143.081 581.513 145.26C583.732 147.439 584.842 150.153 584.842 153.402C584.842 157.015 583.486 159.853 580.773 161.917C578.061 163.963 574.409 164.985 569.819 164.985C566.632 164.985 563.73 164.402 561.113 163.236C558.495 162.051 556.494 160.436 555.109 158.391C553.743 156.346 553.061 153.976 553.061 151.28H561.625C561.625 155.887 564.356 158.19 569.819 158.19C571.849 158.19 573.433 157.779 574.571 156.957C575.709 156.116 576.278 154.95 576.278 153.459Z" fill="#5C5F63"/>
<path d="M624.249 164.412H616.026V132.472L606.21 135.54V128.802L623.367 122.609H624.249V164.412Z" fill="#5C5F63"/>
<path d="M665.619 147.152C665.619 152.924 664.433 157.34 662.062 160.398C659.691 163.456 656.22 164.985 651.649 164.985C647.134 164.985 643.682 163.485 641.292 160.484C638.902 157.483 637.678 153.182 637.621 147.582V139.898C637.621 134.068 638.816 129.643 641.206 126.623C643.615 123.603 647.077 122.093 651.592 122.093C656.106 122.093 659.558 123.594 661.948 126.595C664.338 129.576 665.562 133.868 665.619 139.468V147.152ZM657.396 138.723C657.396 135.263 656.922 132.749 655.973 131.182C655.044 129.596 653.583 128.802 651.592 128.802C649.657 128.802 648.225 129.557 647.295 131.067C646.385 132.558 645.901 134.9 645.844 138.092V148.241C645.844 151.644 646.299 154.176 647.21 155.839C648.139 157.483 649.619 158.305 651.649 158.305C653.659 158.305 655.11 157.512 656.002 155.925C656.893 154.339 657.358 151.911 657.396 148.643V138.723Z" fill="#5C5F63"/>
<path d="M74.4039 190.193L85.0451 220.469L95.6294 190.193H106.84V231.938H98.2755V220.527L99.1291 200.83L87.9473 231.938H82.0861L70.9327 200.858L71.7862 220.527V231.938H63.2505V190.193H74.4039Z" fill="#5C5F63"/>
<path d="M123.371 231.938H114.835V190.193H123.371V231.938Z" fill="#5C5F63"/>
<path d="M164.997 231.938H156.461L139.845 204.471V231.938H131.309V190.193H139.845L156.489 217.717V190.193H164.997V231.938Z" fill="#5C5F63"/>
<path d="M203.806 190.193V217.688C203.806 222.257 202.383 225.869 199.538 228.526C196.712 231.183 192.842 232.511 187.929 232.511C183.092 232.511 179.251 231.221 176.406 228.641C173.561 226.06 172.11 222.515 172.053 218.004V190.193H180.589V217.746C180.589 220.479 181.234 222.476 182.523 223.738C183.832 224.98 185.634 225.602 187.929 225.602C192.728 225.602 195.166 223.059 195.242 217.975V190.193H203.806Z" fill="#5C5F63"/>
<path d="M241.989 197.16H229.299V231.938H220.764V197.16H208.245V190.193H241.989V197.16Z" fill="#5C5F63"/>
<path d="M271.807 213.846H255.419V225.028H274.653V231.938H246.883V190.193H274.596V197.16H255.419V207.109H271.807V213.846Z" fill="#5C5F63"/>
<path d="M301.142 220.985C301.142 219.361 300.573 218.118 299.435 217.258C298.297 216.379 296.248 215.462 293.289 214.506C290.33 213.531 287.987 212.575 286.261 211.639C281.557 209.077 279.205 205.627 279.205 201.288C279.205 199.033 279.831 197.026 281.083 195.268C282.354 193.49 284.165 192.104 286.517 191.11C288.888 190.116 291.544 189.619 294.484 189.619C297.443 189.619 300.08 190.164 302.394 191.254C304.708 192.324 306.501 193.844 307.771 195.812C309.061 197.781 309.706 200.017 309.706 202.521H301.17C301.17 200.61 300.573 199.129 299.378 198.077C298.183 197.007 296.504 196.472 294.342 196.472C292.255 196.472 290.634 196.921 289.476 197.819C288.319 198.699 287.741 199.864 287.741 201.317C287.741 202.674 288.414 203.812 289.761 204.729C291.127 205.646 293.128 206.507 295.764 207.309C300.62 208.781 304.158 210.607 306.377 212.786C308.597 214.965 309.706 217.679 309.706 220.928C309.706 224.541 308.35 227.379 305.637 229.443C302.925 231.489 299.274 232.511 294.683 232.511C291.497 232.511 288.594 231.928 285.977 230.762C283.359 229.577 281.358 227.962 279.973 225.917C278.608 223.872 277.925 221.502 277.925 218.806H286.489C286.489 223.413 289.22 225.716 294.683 225.716C296.713 225.716 298.297 225.305 299.435 224.483C300.573 223.642 301.142 222.476 301.142 220.985Z" fill="#5C5F63"/>
<path d="M339.098 231.938H330.562V190.193H339.098V231.938Z" fill="#5C5F63"/>
<path d="M380.724 231.938H372.188L355.572 204.471V231.938H347.036V190.193H355.572L372.216 217.717V190.193H380.724V231.938Z" fill="#5C5F63"/>
<path d="M427.613 213.846H411.225V225.028H430.459V231.938H402.689V190.193H430.402V197.16H411.225V207.109H427.613V213.846Z" fill="#5C5F63"/>
<path d="M450.29 204.586L458.058 190.193H467.874L455.81 210.893L468.187 231.938H458.257L450.29 217.316L442.323 231.938H432.393L444.77 210.893L432.706 190.193H442.523L450.29 204.586Z" fill="#5C5F63"/>
<path d="M497.436 213.846H481.047V225.028H500.281V231.938H472.511V190.193H500.224V197.16H481.047V207.109H497.436V213.846Z" fill="#5C5F63"/>
<path d="M537.81 218.032C537.488 222.524 535.837 226.06 532.859 228.641C529.9 231.221 525.993 232.511 521.137 232.511C515.826 232.511 511.643 230.715 508.589 227.121C505.554 223.509 504.037 218.558 504.037 212.269V209.718C504.037 205.704 504.739 202.168 506.142 199.109C507.546 196.051 509.547 193.71 512.146 192.085C514.763 190.441 517.798 189.619 521.251 189.619C526.031 189.619 529.881 190.91 532.802 193.49C535.724 196.07 537.412 199.692 537.867 204.356H529.331C529.123 201.661 528.373 199.712 527.083 198.507C525.813 197.284 523.868 196.672 521.251 196.672C518.405 196.672 516.271 197.705 514.849 199.769C513.445 201.814 512.724 204.997 512.686 209.316V212.47C512.686 216.981 513.36 220.278 514.707 222.362C516.072 224.445 518.216 225.487 521.137 225.487C523.773 225.487 525.737 224.885 527.027 223.681C528.335 222.457 529.085 220.575 529.274 218.032H537.81Z" fill="#5C5F63"/>
<path d="M574.77 190.193V217.688C574.77 222.257 573.347 225.869 570.502 228.526C567.676 231.183 563.806 232.511 558.893 232.511C554.056 232.511 550.215 231.221 547.37 228.641C544.525 226.06 543.074 222.515 543.017 218.004V190.193H551.553V217.746C551.553 220.479 552.198 222.476 553.487 223.738C554.796 224.98 556.598 225.602 558.893 225.602C563.692 225.602 566.13 223.059 566.206 217.975V190.193H574.77Z" fill="#5C5F63"/>
<path d="M612.953 197.16H600.263V231.938H591.728V197.16H579.208V190.193H612.953V197.16Z" fill="#5C5F63"/>
<path d="M626.923 231.938H618.388V190.193H626.923V231.938Z" fill="#5C5F63"/>
<path d="M668.891 212.011C668.891 216.121 668.17 219.724 666.728 222.82C665.287 225.917 663.219 228.306 660.526 229.988C657.851 231.67 654.778 232.511 651.307 232.511C647.874 232.511 644.81 231.68 642.117 230.017C639.423 228.354 637.337 225.984 635.857 222.906C634.378 219.81 633.629 216.255 633.61 212.241V210.176C633.61 206.067 634.34 202.454 635.8 199.339C637.28 196.204 639.357 193.805 642.032 192.142C644.725 190.46 647.798 189.619 651.25 189.619C654.702 189.619 657.766 190.46 660.44 192.142C663.134 193.805 665.211 196.204 666.671 199.339C668.151 202.454 668.891 206.057 668.891 210.148V212.011ZM660.241 210.119C660.241 205.742 659.464 202.416 657.908 200.142C656.353 197.867 654.133 196.73 651.25 196.73C648.386 196.73 646.176 197.857 644.621 200.113C643.065 202.349 642.278 205.637 642.259 209.976V212.011C642.259 216.274 643.037 219.581 644.592 221.932C646.148 224.283 648.386 225.458 651.307 225.458C654.171 225.458 656.372 224.33 657.908 222.075C659.445 219.8 660.222 216.494 660.241 212.155V210.119Z" fill="#5C5F63"/>
<path d="M708.781 231.938H700.245L683.629 204.471V231.938H675.093V190.193H683.629L700.274 217.717V190.193H708.781V231.938Z" fill="#5C5F63"/>
<path d="M288.787 276.062H279.176V272.054H288.787V276.062Z" fill="#5C5F63"/>
<path d="M293.072 284.784V259.737H301.778C304.794 259.737 307.082 260.322 308.641 261.492C310.2 262.65 310.98 264.353 310.98 266.601C310.98 267.828 310.667 268.912 310.041 269.852C309.415 270.781 308.544 271.463 307.429 271.899C308.704 272.22 309.705 272.868 310.433 273.843C311.173 274.818 311.543 276.011 311.543 277.421C311.543 279.83 310.781 281.653 309.256 282.892C307.73 284.13 305.557 284.761 302.734 284.784H293.072ZM298.193 273.877V280.638H302.581C303.787 280.638 304.726 280.351 305.397 279.778C306.08 279.193 306.422 278.39 306.422 277.37C306.422 275.076 305.244 273.912 302.888 273.877H298.193ZM298.193 270.231H301.983C304.567 270.185 305.858 269.147 305.858 267.117C305.858 265.981 305.528 265.167 304.868 264.674C304.219 264.169 303.189 263.917 301.778 263.917H298.193V270.231Z" fill="#5C5F63"/>
<path d="M325.456 270.833C324.785 270.741 324.193 270.695 323.681 270.695C321.814 270.695 320.591 271.331 320.011 272.604V284.784H315.077V266.171H319.737L319.874 268.39C320.864 266.681 322.236 265.827 323.988 265.827C324.535 265.827 325.047 265.901 325.525 266.05L325.456 270.833Z" fill="#5C5F63"/>
<path d="M333.053 284.784H328.102V266.171H333.053V284.784ZM327.812 261.354C327.812 260.609 328.057 259.995 328.546 259.513C329.047 259.032 329.724 258.791 330.578 258.791C331.42 258.791 332.092 259.032 332.592 259.513C333.093 259.995 333.343 260.609 333.343 261.354C333.343 262.111 333.087 262.73 332.575 263.212C332.074 263.694 331.409 263.934 330.578 263.934C329.747 263.934 329.076 263.694 328.563 263.212C328.063 262.73 327.812 262.111 327.812 261.354Z" fill="#5C5F63"/>
<path d="M347.837 284.784C347.61 284.337 347.445 283.78 347.342 283.115C346.147 284.457 344.594 285.128 342.682 285.128C340.872 285.128 339.37 284.6 338.175 283.545C336.991 282.49 336.399 281.16 336.399 279.554C336.399 277.582 337.122 276.068 338.567 275.013C340.024 273.958 342.124 273.424 344.867 273.413H347.137V272.346C347.137 271.486 346.915 270.798 346.471 270.282C346.039 269.766 345.35 269.508 344.406 269.508C343.575 269.508 342.921 269.709 342.443 270.11C341.976 270.511 341.743 271.062 341.743 271.762H336.809C336.809 270.684 337.139 269.686 337.799 268.768C338.459 267.851 339.392 267.134 340.599 266.618C341.805 266.09 343.16 265.827 344.662 265.827C346.938 265.827 348.742 266.406 350.074 267.564C351.416 268.711 352.088 270.328 352.088 272.415V280.483C352.099 282.249 352.344 283.585 352.822 284.491V284.784H347.837ZM343.757 281.326C344.485 281.326 345.157 281.166 345.772 280.845C346.386 280.512 346.841 280.07 347.137 279.52V276.32H345.294C342.824 276.32 341.509 277.18 341.35 278.901L341.333 279.193C341.333 279.812 341.549 280.323 341.982 280.724C342.414 281.126 343.006 281.326 343.757 281.326Z" fill="#5C5F63"/>
<path d="M360.419 266.171L360.573 268.321C361.893 266.658 363.662 265.827 365.882 265.827C367.839 265.827 369.296 266.406 370.252 267.564C371.208 268.722 371.697 270.454 371.72 272.759V284.784H366.787V272.88C366.787 271.825 366.559 271.062 366.104 270.592C365.648 270.11 364.892 269.869 363.833 269.869C362.445 269.869 361.403 270.466 360.709 271.658V284.784H355.775V266.171H360.419Z" fill="#5C5F63"/>
<path d="M402.193 263.917H394.579V284.784H389.458V263.917H381.946V259.737H402.193V263.917Z" fill="#5C5F63"/>
<path d="M414.058 270.833C413.386 270.741 412.794 270.695 412.282 270.695C410.416 270.695 409.192 271.331 408.612 272.604V284.784H403.678V266.171H408.339L408.475 268.39C409.465 266.681 410.837 265.827 412.589 265.827C413.136 265.827 413.648 265.901 414.126 266.05L414.058 270.833Z" fill="#5C5F63"/>
<path d="M426.639 284.784C426.412 284.337 426.247 283.78 426.144 283.115C424.949 284.457 423.396 285.128 421.484 285.128C419.674 285.128 418.172 284.6 416.977 283.545C415.793 282.49 415.201 281.16 415.201 279.554C415.201 277.582 415.924 276.068 417.369 275.013C418.826 273.958 420.926 273.424 423.669 273.413H425.939V272.346C425.939 271.486 425.717 270.798 425.274 270.282C424.841 269.766 424.153 269.508 423.208 269.508C422.377 269.508 421.723 269.709 421.245 270.11C420.778 270.511 420.545 271.062 420.545 271.762H415.611C415.611 270.684 415.941 269.686 416.601 268.768C417.261 267.851 418.195 267.134 419.401 266.618C420.607 266.09 421.962 265.827 423.464 265.827C425.74 265.827 427.544 266.406 428.876 267.564C430.219 268.711 430.89 270.328 430.89 272.415V280.483C430.901 282.249 431.146 283.585 431.624 284.491V284.784H426.639ZM422.559 281.326C423.288 281.326 423.959 281.166 424.574 280.845C425.188 280.512 425.643 280.07 425.939 279.52V276.32H424.096C421.626 276.32 420.311 277.18 420.152 278.901L420.135 279.193C420.135 279.812 420.351 280.323 420.784 280.724C421.216 281.126 421.808 281.326 422.559 281.326Z" fill="#5C5F63"/>
<path d="M442.362 281.12C443.273 281.12 444.012 280.867 444.581 280.363C445.15 279.858 445.446 279.187 445.469 278.35H450.096C450.084 279.612 449.743 280.77 449.071 281.825C448.4 282.869 447.478 283.683 446.306 284.268C445.145 284.841 443.859 285.128 442.447 285.128C439.807 285.128 437.724 284.285 436.199 282.599C434.674 280.902 433.912 278.562 433.912 275.581V275.254C433.912 272.387 434.669 270.099 436.182 268.39C437.696 266.681 439.773 265.827 442.413 265.827C444.724 265.827 446.573 266.492 447.962 267.822C449.361 269.141 450.073 270.901 450.096 273.103H445.469C445.446 272.14 445.15 271.36 444.581 270.764C444.012 270.156 443.261 269.852 442.328 269.852C441.178 269.852 440.308 270.276 439.716 271.125C439.136 271.962 438.845 273.327 438.845 275.219V275.735C438.845 277.651 439.136 279.027 439.716 279.864C440.296 280.701 441.178 281.12 442.362 281.12Z" fill="#5C5F63"/>
<path d="M459.809 277.748L463.224 266.171H468.516L461.09 287.674L460.68 288.655C459.576 291.086 457.755 292.301 455.217 292.301C454.5 292.301 453.772 292.193 453.032 291.975V288.207L453.783 288.224C454.716 288.224 455.41 288.081 455.866 287.794C456.332 287.508 456.697 287.032 456.958 286.367L457.539 284.836L451.069 266.171H456.378L459.809 277.748Z" fill="#5C5F63"/>
<defs>
<linearGradient id="paint0_linear_1_1680" x1="10.9647" y1="185.841" x2="70.328" y2="185.841" gradientUnits="userSpaceOnUse">
<stop stop-color="#FFAA00"/>
<stop offset="1" stop-color="#FDEAB9"/>
</linearGradient>
<linearGradient id="paint1_linear_1_1680" x1="53.4199" y1="166.678" x2="59.7268" y2="166.678" gradientUnits="userSpaceOnUse">
<stop stop-color="#FFAA00"/>
<stop offset="1" stop-color="#FDEAB9"/>
</linearGradient>
<linearGradient id="paint2_linear_1_1680" x1="53.4199" y1="172.224" x2="55.7073" y2="172.224" gradientUnits="userSpaceOnUse">
<stop stop-color="#FFAA00"/>
<stop offset="1" stop-color="#FDEAB9"/>
</linearGradient>
<linearGradient id="paint3_linear_1_1680" x1="65.4974" y1="177.33" x2="66.7751" y2="177.33" gradientUnits="userSpaceOnUse">
<stop stop-color="#FFAA00"/>
<stop offset="1" stop-color="#FDEAB9"/>
</linearGradient>
<linearGradient id="paint4_linear_1_1680" x1="52.0709" y1="162.841" x2="54.7655" y2="162.841" gradientUnits="userSpaceOnUse">
<stop stop-color="#FFAA00"/>
<stop offset="1" stop-color="#FDEAB9"/>
</linearGradient>
<linearGradient id="paint5_linear_1_1680" x1="49.7129" y1="160.842" x2="50.6573" y2="160.842" gradientUnits="userSpaceOnUse">
<stop stop-color="#FFAA00"/>
<stop offset="1" stop-color="#FDEAB9"/>
</linearGradient>
<linearGradient id="paint6_linear_1_1680" x1="57.199" y1="171.354" x2="58.4767" y2="171.354" gradientUnits="userSpaceOnUse">
<stop stop-color="#FFAA00"/>
<stop offset="1" stop-color="#FDEAB9"/>
</linearGradient>
<linearGradient id="paint7_linear_1_1680" x1="64.0903" y1="180.778" x2="66.9105" y2="180.778" gradientUnits="userSpaceOnUse">
<stop stop-color="#FFAA00"/>
<stop offset="1" stop-color="#FDEAB9"/>
</linearGradient>
<linearGradient id="paint8_linear_1_1680" x1="43.6832" y1="197.665" x2="48.1993" y2="197.665" gradientUnits="userSpaceOnUse">
<stop stop-color="#FFAA00"/>
<stop offset="1" stop-color="#FDEAB9"/>
</linearGradient>
<linearGradient id="paint9_linear_1_1680" x1="60.0353" y1="202.107" x2="61.813" y2="202.107" gradientUnits="userSpaceOnUse">
<stop stop-color="#FFAA00"/>
<stop offset="1" stop-color="#FDEAB9"/>
</linearGradient>
<linearGradient id="paint10_linear_1_1680" x1="62.1982" y1="198.603" x2="62.9758" y2="198.603" gradientUnits="userSpaceOnUse">
<stop stop-color="#FFAA00"/>
<stop offset="1" stop-color="#FDEAB9"/>
</linearGradient>
<linearGradient id="paint11_linear_1_1680" x1="42.7942" y1="194.591" x2="44.2386" y2="194.591" gradientUnits="userSpaceOnUse">
<stop stop-color="#FFAA00"/>
<stop offset="1" stop-color="#FDEAB9"/>
</linearGradient>
<linearGradient id="paint12_linear_1_1680" x1="15.9816" y1="193.356" x2="18.6292" y2="193.356" gradientUnits="userSpaceOnUse">
<stop stop-color="#FFAA00"/>
<stop offset="1" stop-color="#FDEAB9"/>
</linearGradient>
<linearGradient id="paint13_linear_1_1680" x1="36.5565" y1="198.604" x2="42.1328" y2="198.604" gradientUnits="userSpaceOnUse">
<stop stop-color="#FFAA00"/>
<stop offset="1" stop-color="#FDEAB9"/>
</linearGradient>
<linearGradient id="paint14_linear_1_1680" x1="21.3444" y1="193.973" x2="22.5109" y2="193.973" gradientUnits="userSpaceOnUse">
<stop stop-color="#FFAA00"/>
<stop offset="1" stop-color="#FDEAB9"/>
</linearGradient>
<linearGradient id="paint15_linear_1_1680" x1="13.3724" y1="189.255" x2="15.2057" y2="189.255" gradientUnits="userSpaceOnUse">
<stop stop-color="#FFAA00"/>
<stop offset="1" stop-color="#FDEAB9"/>
</linearGradient>
<linearGradient id="paint16_linear_1_1680" x1="10.7554" y1="178.646" x2="65.502" y2="178.646" gradientUnits="userSpaceOnUse">
<stop stop-color="#FFAA00"/>
<stop offset="1" stop-color="#FDEAB9"/>
</linearGradient>
<clipPath id="clip0_1_1680">
<rect width="78.6655" height="79.2697" fill="white" transform="translate(696.334)"/>
</clipPath>
<clipPath id="clip1_1_1680">
<rect width="75.752" height="38.1669" fill="white" transform="translate(562.311 246.617)"/>
</clipPath>
<clipPath id="clip2_1_1680">
<rect width="78.6655" height="82.2056" fill="white" transform="translate(0 146.796)"/>
</clipPath>
</defs>
</svg>
