<svg width="301" height="283" viewBox="0 0 301 283" fill="none" xmlns="http://www.w3.org/2000/svg">
<circle cx="152.872" cy="124.883" r="124.883" fill="#244038"/>
<path opacity="0.47" d="M70.8997 134.51C70.8997 134.957 70.5366 135.335 70.0745 135.335C69.6124 135.335 69.2493 134.957 69.2493 134.51C69.2493 134.063 69.6124 133.685 70.0745 133.685C70.5366 133.685 70.8997 134.063 70.8997 134.51Z" fill="white"/>
<path opacity="0.47" d="M44.4925 72.3451C44.4925 72.7915 44.1294 73.1692 43.6673 73.1692C43.2051 73.1692 42.842 72.7915 42.842 72.3451C42.842 71.8987 43.2051 71.521 43.6673 71.521C44.1294 71.4866 44.4925 71.8644 44.4925 72.3451Z" fill="white"/>
<path opacity="0.92" d="M71.9987 98.2007C71.9987 98.6592 71.5271 99.0259 70.8984 99.0259C70.3089 99.0259 69.7981 98.6592 69.7981 98.2007C69.7981 97.7422 70.2696 97.3755 70.8984 97.3755C71.4878 97.3755 71.9987 97.7422 71.9987 98.2007Z" fill="white"/>
<path opacity="0.47" d="M86.3029 188.974C86.3029 189.433 85.8313 189.799 85.2026 189.799C84.5738 189.799 84.1023 189.433 84.1023 188.974C84.1023 188.516 84.5738 188.149 85.2026 188.149C85.792 188.149 86.3029 188.516 86.3029 188.974Z" fill="white"/>
<path opacity="0.47" d="M116.56 99.0261C116.56 99.645 116.06 100.126 115.46 100.126C114.86 100.126 114.36 99.645 114.36 99.0261C114.36 98.4072 114.86 97.9258 115.46 97.9258C116.06 97.9258 116.56 98.4072 116.56 99.0261Z" fill="white"/>
<path opacity="0.47" d="M147.37 31.3585C147.37 31.6679 147.144 31.9086 146.82 31.9086C146.529 31.9086 146.27 31.6679 146.27 31.3585C146.27 31.049 146.497 30.8083 146.82 30.8083C147.111 30.8083 147.37 31.0834 147.37 31.3585Z" fill="white"/>
<path opacity="0.92" d="M111.767 147.543L112.182 148.788C112.32 149.203 112.632 149.515 113.012 149.619L114.258 150.034C114.396 150.068 114.396 150.276 114.258 150.345L113.012 150.76C112.597 150.899 112.286 151.21 112.182 151.591L111.767 152.836C111.732 152.975 111.49 152.975 111.455 152.836L111.04 151.591C110.902 151.176 110.59 150.864 110.21 150.76L108.964 150.345C108.826 150.311 108.826 150.103 108.964 150.034L110.21 149.619C110.625 149.48 110.936 149.169 111.04 148.788L111.455 147.543C111.49 147.404 111.697 147.404 111.767 147.543Z" fill="white"/>
<path opacity="0.92" d="M73.8051 44.6653L74.2203 45.9109C74.3587 46.3261 74.6701 46.6375 75.0507 46.7413L76.2963 47.1565C76.4347 47.1911 76.4347 47.3987 76.2963 47.4679L75.0507 47.8831C74.6355 48.0215 74.3241 48.3329 74.2203 48.7135L73.8051 49.9592C73.7705 50.0976 73.5283 50.0976 73.4937 49.9592L73.0785 48.7135C72.9401 48.2983 72.6287 47.9869 72.2481 47.8831L71.0025 47.4679C70.8641 47.4333 70.8641 47.2257 71.0025 47.1565L72.2481 46.7413C72.6633 46.6029 72.9747 46.2915 73.0785 45.9109L73.4937 44.6653C73.5629 44.5269 73.7705 44.5269 73.8051 44.6653Z" fill="white"/>
<path opacity="0.92" d="M199.236 28.711L199.646 29.9566C199.783 30.3718 200.091 30.6832 200.501 30.787L201.731 31.2022C201.867 31.2368 201.867 31.4444 201.731 31.5136L200.501 31.9288C200.091 32.0672 199.783 32.3786 199.646 32.7592L199.236 34.0048C199.202 34.1432 198.963 34.1432 198.929 34.0048L198.519 32.7592C198.382 32.344 198.074 32.0326 197.664 31.9288L196.434 31.5136C196.298 31.479 196.298 31.2714 196.434 31.2022L197.664 30.787C198.074 30.6486 198.382 30.3372 198.519 29.9566L198.929 28.711C198.963 28.5726 199.168 28.5726 199.236 28.711Z" fill="white"/>
<path opacity="0.47" d="M148.242 72.6692L148.373 73.0378C148.405 73.1718 148.503 73.2389 148.634 73.2724L148.994 73.4064C149.026 73.4064 149.026 73.4734 148.994 73.5069L148.634 73.641C148.503 73.6745 148.438 73.775 148.373 73.8756L148.242 74.2442C148.242 74.2777 148.177 74.2777 148.144 74.2442L148.013 73.8756C147.98 73.7415 147.882 73.6745 147.752 73.641L147.392 73.5069C147.36 73.5069 147.36 73.4399 147.392 73.4064L147.752 73.2724C147.882 73.2389 147.948 73.1383 148.013 73.0378L148.144 72.6692C148.177 72.6021 148.242 72.6021 148.242 72.6692Z" fill="white"/>
<path opacity="0.47" d="M242.636 89.7296L242.893 90.4798C242.966 90.7049 243.149 90.8924 243.406 90.9674L244.14 91.23C244.213 91.2675 244.213 91.38 244.14 91.4175L243.406 91.6801C243.149 91.7551 242.966 91.9427 242.893 92.1677L242.636 92.9179C242.599 92.993 242.489 92.993 242.453 92.9179L242.196 92.1677C242.122 91.9427 241.939 91.7551 241.682 91.6801L240.949 91.4175C240.875 91.38 240.875 91.2675 240.949 91.23L241.682 90.9674C241.902 90.8924 242.122 90.7049 242.196 90.4798L242.453 89.7296C242.453 89.6546 242.599 89.6546 242.636 89.7296Z" fill="white"/>
<path opacity="0.47" d="M108.401 38.5569L108.658 39.1821C108.731 39.3696 108.915 39.5259 109.171 39.5884L109.905 39.8072C109.978 39.8385 109.978 39.9323 109.905 39.9635L109.171 40.1823C108.951 40.2448 108.731 40.4011 108.658 40.5887L108.401 41.2138C108.365 41.2764 108.255 41.2764 108.218 41.2138L107.961 40.5887C107.888 40.4011 107.704 40.2448 107.448 40.1823L106.714 39.9635C106.641 39.9323 106.641 39.8385 106.714 39.8072L107.448 39.5884C107.668 39.5259 107.888 39.3696 107.961 39.1821L108.218 38.5569C108.255 38.4944 108.365 38.4944 108.401 38.5569Z" fill="white"/>
<path d="M189.637 7.75928C189.604 7.62665 189.537 7.46085 189.471 7.36137C189.471 7.36137 189.471 7.32821 189.438 7.32821C189.405 7.29505 189.405 7.2619 189.372 7.22874C189.372 7.22874 189.372 7.22873 189.372 7.19558C189.239 7.02978 189.073 6.9303 188.907 6.86398L183.604 5.27233L182.145 3.84648C181.847 1.69112 179.824 0 177.371 0C174.918 0 172.896 1.65796 172.598 3.84648H172.532L171.073 5.27233H171.04L165.736 6.86398C165.504 6.9303 165.305 7.0961 165.139 7.32821C165.106 7.39453 165.04 7.49401 165.04 7.56033C165.04 7.59349 165.007 7.62665 165.007 7.6598V7.69297C165.007 7.72613 165.007 7.75928 164.973 7.75928V7.79244C164.973 7.8256 164.973 7.85876 164.973 7.85876V7.89192C164.973 7.92508 164.973 7.95824 164.973 7.9914C164.973 8.28983 165.073 8.55511 165.205 8.75406C165.239 8.78722 165.239 8.82038 165.272 8.85354C165.471 9.08566 165.703 9.2183 166.001 9.2183H171.139L172.532 10.6773H173.957L174.753 12.2358H179.957L180.753 10.6773H182.178L183.57 9.2183H185.659H188.709C188.742 9.2183 188.775 9.2183 188.808 9.2183H188.841C188.874 9.2183 188.874 9.2183 188.907 9.2183H188.941C188.974 9.2183 188.974 9.2183 189.007 9.18514C189.04 9.18514 189.073 9.15197 189.073 9.15197C189.073 9.15197 189.106 9.15198 189.106 9.11882C189.139 9.11882 189.139 9.08566 189.139 9.08566C189.139 9.08566 189.173 9.08566 189.173 9.0525C189.206 9.0525 189.206 9.01934 189.206 9.01934L189.239 8.98618C189.272 8.98618 189.272 8.95302 189.305 8.95302L189.338 8.91986L189.372 8.8867L189.405 8.85354C189.405 8.85354 189.405 8.82038 189.438 8.82038C189.471 8.75406 189.504 8.7209 189.537 8.65458V8.62143C189.537 8.58827 189.57 8.58827 189.57 8.55511V8.52195C189.637 8.35615 189.67 8.19035 189.67 7.9914C189.67 7.95824 189.67 7.85876 189.637 7.75928Z" fill="#2D2B2F"/>
<path d="M52.092 99.8291C52.0257 99.597 51.9594 99.3649 51.8268 99.1328C51.8268 99.0996 51.7937 99.0996 51.7937 99.0665C51.7605 99.0001 51.7274 98.967 51.6942 98.9338C51.6942 98.9338 51.6942 98.9007 51.6611 98.9007C51.4622 98.6354 51.197 98.4696 50.8655 98.3701L42.1139 95.7505L39.694 93.4294C39.1968 89.8482 35.8487 87.0959 31.8044 87.0959C27.7601 87.0959 24.4452 89.8482 23.9148 93.4294H23.8816L21.4617 95.7505H21.4285L12.7102 98.3701C12.3124 98.5027 11.9809 98.768 11.7488 99.1328C11.6825 99.2654 11.6162 99.3981 11.5499 99.5307V99.5638C11.5499 99.597 11.5168 99.6633 11.5168 99.6965V99.7296C11.5168 99.7628 11.4836 99.8291 11.4836 99.8623C11.4836 99.8954 11.4836 99.8954 11.4836 99.9286C11.4836 99.9618 11.4836 100.028 11.4836 100.061C11.4836 100.094 11.4836 100.094 11.4836 100.128C11.4836 100.194 11.4836 100.26 11.4836 100.327C11.4836 100.824 11.6162 101.255 11.8483 101.587C11.8814 101.653 11.9146 101.686 11.9477 101.719C12.2461 102.084 12.677 102.316 13.1411 102.316H21.5943L23.8485 104.704H26.169L27.4618 107.257H36.0144L37.3072 104.704H39.6277L41.8819 102.316H45.2963H50.3351C50.4014 102.316 50.4345 102.316 50.5008 102.316H50.534C50.5671 102.316 50.6003 102.316 50.6334 102.283H50.6666C50.6997 102.283 50.7329 102.25 50.7992 102.25C50.7992 102.25 50.7992 102.25 50.8323 102.25C50.8655 102.217 50.9318 102.217 50.9649 102.183L50.9981 102.15C51.0312 102.15 51.0644 102.117 51.0644 102.117C51.0975 102.117 51.0975 102.084 51.1307 102.084C51.1638 102.051 51.197 102.051 51.197 102.018C51.2301 102.018 51.2301 101.984 51.2633 101.951C51.2964 101.918 51.3296 101.885 51.3627 101.885C51.3959 101.852 51.3959 101.852 51.429 101.819C51.429 101.786 51.4622 101.786 51.4622 101.752C51.4953 101.719 51.4953 101.719 51.5285 101.686L51.5616 101.653C51.6279 101.553 51.6942 101.454 51.7274 101.354C51.7274 101.354 51.7274 101.321 51.7605 101.321C51.7605 101.288 51.7937 101.255 51.7937 101.222V101.189C51.8931 100.923 51.9594 100.625 51.9594 100.327C52.1252 100.161 52.1252 99.9949 52.092 99.8291Z" fill="#16392B"/>
<path d="M51.6862 172.782L43.1122 163.516L55.4323 160.718L51.6862 172.782Z" fill="#FECA39"/>
<path d="M239.242 75.4777L226.819 77.8561L230.943 65.9253L239.242 75.4777Z" fill="#FECA39"/>
<path d="M160.383 262.123L163.881 273.045L152.666 270.614L160.383 262.123Z" stroke="#FECA39" stroke-width="2"/>
<path d="M195.915 230.286C194.269 232.005 194.329 234.734 196.048 236.38C197.768 238.027 200.496 237.968 202.142 236.249C203.788 234.53 203.729 231.801 202.009 230.155C200.289 228.508 197.561 228.567 195.915 230.286Z" stroke="#43BA84" stroke-width="2"/>
<path d="M242.322 89.762C240.676 91.4811 240.736 94.2095 242.455 95.856C244.175 97.5024 246.903 97.4436 248.549 95.7245C250.195 94.0054 250.136 91.2771 248.416 89.6306C246.697 87.9841 243.968 88.043 242.322 89.762Z" stroke="#43BA84" stroke-width="2"/>
<path d="M38.7387 157.584C36.1431 160.295 36.2371 164.597 38.9488 167.193C41.6604 169.79 45.9629 169.697 48.5585 166.986C51.1541 164.275 51.0601 159.973 48.3484 157.376C45.6367 154.78 41.3343 154.873 38.7387 157.584Z" stroke="#43BA84" stroke-width="2"/>
<g clip-path="url(#clip0_1_993)">
<path d="M220.105 227.804L229.939 244.88C230.585 245.947 230.781 247.227 230.483 248.439C230.185 249.65 229.418 250.694 228.351 251.34C227.284 251.986 226.003 252.182 224.792 251.884C223.58 251.587 222.536 250.82 221.89 249.753L211.998 232.575C211.047 230.936 212.071 228.551 214.295 227.263C216.52 225.975 219.154 226.21 220.105 227.804Z" fill="#455A64"/>
<path d="M141.842 197.736L124.764 207.568C124.24 207.893 123.655 208.11 123.045 208.207C122.436 208.304 121.813 208.279 121.213 208.133C120.613 207.986 120.048 207.722 119.552 207.356C119.055 206.989 118.636 206.527 118.32 205.997C118.003 205.467 117.795 204.88 117.708 204.269C117.621 203.657 117.656 203.035 117.812 202.438C117.968 201.84 118.241 201.28 118.616 200.789C118.99 200.298 119.459 199.887 119.994 199.579L137.174 189.761C138.813 188.81 141.198 189.834 142.486 192.058C143.774 194.282 143.481 196.785 141.842 197.736Z" fill="#455A64"/>
<path d="M122.923 120.757H123.01L164.614 96.7456H164.731C173.863 91.5512 186.448 92.356 200.335 100.345C228.242 116.44 250.866 155.64 250.866 187.859C250.866 203.955 245.232 215.207 236.144 220.503H236.071L194.467 244.529H194.365C185.233 249.753 172.634 248.919 158.731 240.944C130.839 224.849 108.216 185.65 108.216 153.445C108.216 137.349 113.835 126.054 122.923 120.757Z" fill="#42CA90"/>
<path opacity="0.1" d="M195.138 244.046L236.113 220.43H236.201C245.288 215.118 250.907 203.822 250.907 187.786C250.907 173.417 246.4 157.673 238.952 143.217L197.348 167.228C204.811 181.684 209.304 197.428 209.304 211.797C209.274 227.453 203.889 238.603 195.138 244.046Z" fill="black"/>
<path opacity="0.4" d="M123.007 203.19C103.275 169.016 103.273 132.08 123.004 120.69C142.735 109.3 174.726 127.769 194.458 161.942C214.191 196.115 214.192 233.051 194.461 244.442C174.73 255.832 142.739 237.363 123.007 203.19Z" fill="white"/>
<path d="M181.312 237.564C197.292 237.564 199.019 219.509 199.019 211.739C199.019 183.323 178.224 147.358 153.654 133.106C147.391 129.492 141.362 127.59 136.21 127.59C120.23 127.59 118.504 145.646 118.504 153.416C118.504 181.831 139.298 217.797 163.868 232.048C170.146 235.662 176.175 237.564 181.312 237.564Z" fill="#FAFAFA"/>
<path d="M169.94 215.499C170.018 215.513 170.097 215.513 170.174 215.499C170.357 215.433 170.507 215.298 170.591 215.123C170.676 214.948 170.689 214.747 170.628 214.563L159.433 182.592C159.369 182.407 159.235 182.256 159.059 182.171C158.883 182.086 158.681 182.074 158.497 182.138C158.312 182.202 158.161 182.337 158.076 182.512C157.991 182.688 157.979 182.89 158.043 183.075L169.209 215.002C169.257 215.155 169.356 215.287 169.489 215.377C169.621 215.467 169.78 215.51 169.94 215.499Z" fill="#42CA90"/>
<path d="M141.959 192.234C142.256 192.239 142.551 192.18 142.823 192.059L160.925 184.231V151.396C160.925 150.814 160.693 150.256 160.282 149.844C159.87 149.433 159.312 149.201 158.729 149.201C158.147 149.201 157.589 149.433 157.177 149.844C156.766 150.256 156.534 150.814 156.534 151.396V181.348L141.081 188.035C140.623 188.239 140.249 188.594 140.021 189.04C139.792 189.487 139.724 189.998 139.826 190.489C139.929 190.979 140.197 191.42 140.585 191.738C140.973 192.055 141.458 192.231 141.959 192.234Z" fill="#37474F"/>
<path d="M158.731 175.715C155.453 173.813 152.789 175.349 152.789 179.139C152.911 181.191 153.512 183.187 154.544 184.965C155.576 186.744 157.01 188.256 158.731 189.381C162.023 191.283 164.687 189.747 164.687 185.943C164.561 183.891 163.957 181.898 162.923 180.122C161.888 178.346 160.453 176.837 158.731 175.715Z" fill="#42CA90"/>
<path d="M207.081 152.157C214.252 164.55 227.758 170.169 237.914 164.302C243.872 160.857 248.217 155.188 249.994 148.541C251.771 141.893 250.834 134.812 247.39 128.855C243.945 122.899 238.275 118.554 231.627 116.777C224.979 115 217.897 115.937 211.939 119.381C201.813 125.38 199.94 139.749 207.081 152.157Z" fill="#455A64"/>
<path d="M237.913 164.302C227.757 170.154 214.25 164.55 207.079 152.157C205.477 149.379 204.289 146.382 203.553 143.261C203.962 143.802 215.904 159.019 230.742 154.732C245.844 150.343 248.683 138.739 247.381 128.848C249.088 131.797 250.197 135.054 250.645 138.432C251.093 141.81 250.872 145.244 249.992 148.536C249.113 151.828 247.594 154.915 245.521 157.62C243.448 160.325 240.863 162.596 237.913 164.302Z" fill="#37474F"/>
<path d="M242.085 126.331L249.782 121.942C250.307 121.617 250.891 121.399 251.501 121.303C252.111 121.206 252.734 121.231 253.334 121.377C253.933 121.523 254.498 121.788 254.995 122.154C255.492 122.521 255.911 122.982 256.227 123.513C256.544 124.043 256.751 124.63 256.838 125.241C256.926 125.853 256.89 126.475 256.734 127.072C256.579 127.67 256.305 128.23 255.931 128.721C255.556 129.211 255.088 129.623 254.553 129.931L246.768 134.437C245.114 135.388 242.729 134.364 241.441 132.14C240.153 129.916 240.446 127.282 242.085 126.331Z" fill="#42CA90"/>
<path d="M127.268 89.2099L122.878 81.5281C122.553 81.0032 122.336 80.4189 122.239 79.8093C122.142 79.1996 122.167 78.5767 122.314 77.977C122.46 77.3772 122.724 76.8126 123.091 76.3159C123.457 75.8192 123.919 75.4004 124.449 75.084C124.979 74.7675 125.567 74.5597 126.178 74.4726C126.79 74.3855 127.412 74.4209 128.009 74.5767C128.607 74.7325 129.167 75.0056 129.658 75.3801C130.149 75.7546 130.56 76.223 130.868 76.7581L135.375 84.5423C136.327 86.1811 135.375 88.5661 133.078 89.8537C130.78 91.1414 128.234 90.8633 127.268 89.2099Z" fill="#42CA90"/>
<path d="M164.452 92.3848C162.747 89.4305 160.476 86.841 157.77 84.7642C155.063 82.6873 151.974 81.1639 148.679 80.2807C145.384 79.3975 141.947 79.172 138.564 79.617C135.182 80.0619 131.92 81.1687 128.965 82.874C126.011 84.5793 123.421 86.8499 121.344 89.556C119.267 92.2621 117.743 95.3507 116.86 98.6456C115.977 101.94 115.751 105.377 116.196 108.759C116.641 112.141 117.748 115.402 119.454 118.357L164.452 92.3848Z" fill="#455A64"/>
<path d="M125.161 85.6394C123.697 88.6975 119.717 101.647 125.161 104.866C130.605 108.085 155.745 97.4036 155.745 97.4036L119.454 118.357C116.431 113.096 115.347 106.943 116.389 100.966C117.432 94.9891 120.535 89.5663 125.161 85.6394Z" fill="#37474F"/>
<path d="M133.473 214.798C133.665 214.671 133.814 214.488 133.9 214.274C133.985 214.06 134.003 213.825 133.952 213.6L122.441 162.654C122.3 162.163 121.988 161.738 121.561 161.456L53.0497 121.935C52.8389 121.829 52.6061 121.774 52.37 121.774C52.1339 121.774 51.9011 121.829 51.6903 121.935C51.4981 122.063 51.3489 122.245 51.2624 122.459C51.1758 122.673 51.1559 122.908 51.2052 123.133L62.7395 174.031C62.8763 174.525 63.1896 174.951 63.6199 175.229L132.113 214.75C132.32 214.864 132.551 214.927 132.787 214.936C133.023 214.944 133.258 214.897 133.473 214.798Z" fill="#42CA90"/>
<path opacity="0.8" d="M133.473 214.798C133.665 214.671 133.814 214.488 133.9 214.274C133.985 214.06 134.003 213.825 133.952 213.6L122.441 162.654C122.3 162.163 121.988 161.738 121.561 161.456L53.0497 121.935C52.8389 121.829 52.6061 121.774 52.37 121.774C52.1339 121.774 51.9011 121.829 51.6903 121.935C51.4981 122.063 51.3489 122.245 51.2624 122.459C51.1758 122.673 51.1559 122.908 51.2052 123.133L62.7395 174.031C62.8763 174.525 63.1896 174.951 63.6199 175.229L132.113 214.75C132.32 214.864 132.551 214.927 132.787 214.936C133.023 214.944 133.258 214.897 133.473 214.798Z" fill="white"/>
<path d="M121.124 163.426L132.634 214.384C132.736 214.821 132.497 214.983 132.113 214.773L63.6022 175.228C63.1719 174.95 62.8586 174.524 62.7218 174.03L51.2055 123.072C51.1096 122.635 51.3432 122.473 51.7325 122.689L120.232 162.228C120.664 162.506 120.981 162.932 121.124 163.426Z" fill="#42CA90"/>
<path opacity="0.6" d="M121.124 163.426L132.634 214.384C132.736 214.821 132.497 214.983 132.113 214.773L63.6022 175.228C63.1719 174.95 62.8586 174.524 62.7218 174.03L51.2055 123.072C51.1096 122.635 51.3432 122.473 51.7325 122.689L120.232 162.228C120.664 162.506 120.981 162.932 121.124 163.426Z" fill="white"/>
<path opacity="0.05" d="M121.124 163.426L132.634 214.384C132.736 214.821 132.497 214.983 132.113 214.773L63.6022 175.228C63.1719 174.95 62.8586 174.524 62.7218 174.03L51.2055 123.072C51.1096 122.635 51.3432 122.473 51.7325 122.689L120.232 162.228C120.664 162.506 120.981 162.932 121.124 163.426Z" fill="black"/>
<path d="M50.3666 122.653C50.5804 122.55 50.8156 122.499 51.0529 122.504C51.2903 122.509 51.523 122.571 51.7321 122.683L120.231 162.228C120.431 162.354 120.593 162.532 120.699 162.743C120.804 162.954 120.85 163.19 120.83 163.426L111.847 226.546C111.804 226.786 111.713 227.016 111.58 227.221C111.448 227.427 111.276 227.604 111.075 227.743C110.863 227.85 110.629 227.905 110.392 227.905C110.155 227.905 109.921 227.85 109.709 227.743L41.1799 188.168C40.9807 188.042 40.8198 187.863 40.7143 187.652C40.6088 187.441 40.5627 187.206 40.581 186.971L49.5641 123.839C49.6127 123.598 49.7087 123.369 49.8465 123.165C49.9842 122.962 50.161 122.788 50.3666 122.653Z" fill="#42CA90"/>
<path opacity="0.8" d="M50.3666 122.653C50.5804 122.55 50.8156 122.499 51.0529 122.504C51.2903 122.509 51.523 122.571 51.7321 122.683L120.231 162.228C120.431 162.354 120.593 162.532 120.699 162.743C120.804 162.954 120.85 163.19 120.83 163.426L111.847 226.546C111.804 226.786 111.713 227.016 111.58 227.221C111.448 227.427 111.276 227.604 111.075 227.743C110.863 227.85 110.629 227.905 110.392 227.905C110.155 227.905 109.921 227.85 109.709 227.743L41.1799 188.168C40.9807 188.042 40.8198 187.863 40.7143 187.652C40.6088 187.441 40.5627 187.206 40.581 186.971L49.5641 123.839C49.6127 123.598 49.7087 123.369 49.8465 123.165C49.9842 122.962 50.161 122.788 50.3666 122.653Z" fill="white"/>
<path d="M119.508 164.198L110.525 227.318C110.522 227.412 110.494 227.504 110.443 227.583C110.392 227.662 110.321 227.726 110.236 227.767C110.152 227.808 110.057 227.826 109.964 227.817C109.87 227.809 109.78 227.775 109.704 227.719L41.181 188.168C40.9818 188.042 40.8209 187.863 40.7154 187.652C40.6099 187.441 40.5638 187.206 40.5821 186.97L49.5652 123.839C49.5666 123.744 49.5943 123.652 49.6451 123.572C49.696 123.492 49.7681 123.428 49.8533 123.387C49.9385 123.346 50.0334 123.33 50.1274 123.34C50.2215 123.35 50.3109 123.385 50.3857 123.443L118.891 162.964C119.1 163.091 119.268 163.274 119.378 163.492C119.487 163.71 119.532 163.955 119.508 164.198Z" fill="#42CA90"/>
<path opacity="0.95" d="M119.508 164.198L110.525 227.318C110.522 227.412 110.494 227.504 110.443 227.583C110.392 227.662 110.321 227.726 110.236 227.767C110.152 227.808 110.057 227.826 109.964 227.817C109.87 227.809 109.78 227.775 109.704 227.719L41.181 188.168C40.9818 188.042 40.8209 187.863 40.7154 187.652C40.6099 187.441 40.5638 187.206 40.5821 186.97L49.5652 123.839C49.5666 123.744 49.5943 123.652 49.6451 123.572C49.696 123.492 49.7681 123.428 49.8533 123.387C49.9385 123.346 50.0334 123.33 50.1274 123.34C50.2215 123.35 50.3109 123.385 50.3857 123.443L118.891 162.964C119.1 163.091 119.268 163.274 119.378 163.492C119.487 163.71 119.532 163.955 119.508 164.198Z" fill="white"/>
<path d="M114.518 207.665L122.561 212.306C122.725 212.271 122.894 212.271 123.058 212.306L132.55 214.132L115.039 203.97L114.518 207.665Z" fill="#42CA90"/>
<path opacity="0.5" d="M114.518 207.665L122.561 212.306C122.725 212.271 122.894 212.271 123.058 212.306L132.55 214.132L115.039 203.97L114.518 207.665Z" fill="white"/>
<path opacity="0.2" d="M114.518 207.665L122.561 212.306C122.725 212.271 122.894 212.271 123.058 212.306L132.55 214.132L115.039 203.97L114.518 207.665Z" fill="black"/>
<path d="M111.895 226.067L121.777 212.749C121.967 212.514 122.23 212.35 122.525 212.282L114.518 207.665L111.895 226.067Z" fill="#42CA90"/>
<path opacity="0.6" d="M111.895 226.067L121.777 212.749C121.967 212.514 122.23 212.35 122.525 212.282L114.518 207.665L111.895 226.067Z" fill="white"/>
<path opacity="0.1" d="M111.895 226.067L121.777 212.749C121.967 212.514 122.23 212.35 122.525 212.282L114.518 207.665L111.895 226.067Z" fill="black"/>
<path d="M112.201 226.689L121.783 214.264C121.943 214.08 122.144 213.937 122.37 213.845C122.596 213.754 122.84 213.717 123.083 213.737L132.03 215.03C132.532 215.084 133.04 214.993 133.491 214.767C133.857 214.557 133.797 214.318 133.354 214.234L123.077 212.252C122.838 212.218 122.595 212.247 122.37 212.335C122.146 212.423 121.948 212.568 121.795 212.755L110.89 227.438C110.626 227.803 110.704 227.923 111.07 227.713C111.499 227.434 111.881 227.089 112.201 226.689Z" fill="#42CA90"/>
<path opacity="0.8" d="M112.201 226.689L121.783 214.264C121.943 214.08 122.144 213.937 122.37 213.845C122.596 213.754 122.84 213.717 123.083 213.737L132.03 215.03C132.532 215.084 133.04 214.993 133.491 214.767C133.857 214.557 133.797 214.318 133.354 214.234L123.077 212.252C122.838 212.218 122.595 212.247 122.37 212.335C122.146 212.423 121.948 212.568 121.795 212.755L110.89 227.438C110.626 227.803 110.704 227.923 111.07 227.713C111.499 227.434 111.881 227.089 112.201 226.689Z" fill="white"/>
<path d="M51.1878 122.815C51.1887 122.632 51.2345 122.452 51.3212 122.292C51.4079 122.131 51.5328 121.994 51.6849 121.893C51.8968 121.786 52.1305 121.731 52.3676 121.731C52.6047 121.731 52.8385 121.786 53.0503 121.893L121.562 161.455C121.987 161.738 122.299 162.162 122.442 162.653L124.065 169.839L122.747 170.599L52.8347 130.24L51.2058 123.054C51.1975 122.971 51.1975 122.886 51.2058 122.803L51.1878 122.815Z" fill="#42CA90"/>
<path opacity="0.6" d="M51.2056 123.066C51.1098 122.629 51.3433 122.467 51.7326 122.683L120.232 162.228C120.662 162.507 120.977 162.933 121.118 163.426L122.741 170.611L52.8286 130.252L51.2056 123.066Z" fill="black"/>
<path opacity="0.5" d="M120.777 162.731C120.938 162.936 121.054 163.173 121.118 163.426L122.747 170.611L124.065 169.839L122.442 162.653C122.374 162.401 122.256 162.164 122.095 161.958L120.777 162.731Z" fill="black"/>
<path opacity="0.2" d="M51.1866 122.815C51.2165 122.569 51.4321 122.503 51.7316 122.683L120.231 162.228C120.443 162.357 120.626 162.529 120.77 162.731L122.087 161.97C121.944 161.77 121.763 161.599 121.554 161.467L53.0491 121.934C52.8372 121.828 52.6034 121.772 52.3664 121.772C52.1293 121.772 51.8955 121.828 51.6837 121.934C51.5372 122.031 51.4159 122.162 51.3295 122.315C51.2431 122.468 51.1941 122.639 51.1866 122.815Z" fill="black"/>
<path d="M49.5108 124.444L49.5946 123.845V123.755C49.7074 123.319 49.9731 122.939 50.3432 122.683C50.557 122.58 50.7922 122.529 51.0295 122.534C51.2669 122.539 51.4996 122.601 51.7086 122.713L120.232 162.228C120.441 162.355 120.606 162.543 120.705 162.767C120.809 162.974 120.851 163.207 120.825 163.438L119.531 172.48L118.214 173.246L48.2951 132.887L49.5108 124.444Z" fill="#42CA90"/>
<path opacity="0.4" d="M48.3006 132.887L118.219 173.246L119.507 164.198C119.534 163.968 119.495 163.735 119.393 163.528C119.289 163.307 119.125 163.12 118.92 162.989L50.4086 123.468C50.3443 123.417 50.2686 123.384 50.1882 123.37C50.1078 123.356 50.0252 123.362 49.9476 123.387C49.8701 123.413 49.8 123.457 49.7436 123.516C49.6872 123.575 49.6461 123.647 49.6241 123.725V123.731V123.821L49.5402 124.42L48.3006 132.887Z" fill="black"/>
<path opacity="0.5" d="M118.219 173.246L119.536 172.479L120.83 163.437C120.856 163.207 120.814 162.974 120.71 162.767L119.387 163.527C119.491 163.734 119.532 163.967 119.506 164.198L118.219 173.246Z" fill="black"/>
<path opacity="0.3" d="M49.6185 123.731C49.637 123.649 49.6759 123.574 49.7315 123.511C49.7871 123.448 49.8576 123.401 49.9364 123.373C50.0152 123.345 50.0999 123.337 50.1825 123.35C50.2651 123.364 50.343 123.398 50.409 123.449L118.92 162.97C119.127 163.098 119.29 163.286 119.387 163.509L120.711 162.749C120.612 162.525 120.447 162.337 120.238 162.21L51.7325 122.689C51.5234 122.576 51.2907 122.515 51.0534 122.51C50.816 122.505 50.5809 122.556 50.3671 122.659C49.9918 122.91 49.7245 123.292 49.6185 123.731Z" fill="black"/>
<g opacity="0.2">
<path opacity="0.2" d="M113.225 164.27C113.254 163.841 113.166 163.413 112.97 163.031C112.774 162.649 112.477 162.328 112.111 162.102C111.381 161.683 110.704 161.97 110.59 162.749C110.561 163.178 110.65 163.607 110.847 163.989C111.045 164.371 111.343 164.692 111.71 164.916C111.841 165.026 111.999 165.098 112.168 165.124C112.337 165.149 112.51 165.127 112.667 165.06C112.824 164.993 112.959 164.883 113.058 164.744C113.157 164.604 113.214 164.44 113.225 164.27Z" fill="black"/>
<path opacity="0.2" d="M103.984 158.94C104.015 158.511 103.927 158.081 103.729 157.699C103.531 157.317 103.232 156.996 102.864 156.773C102.14 156.347 101.457 156.641 101.349 157.413C101.319 157.843 101.407 158.272 101.603 158.655C101.799 159.039 102.097 159.361 102.463 159.587C103.194 160.006 103.876 159.719 103.984 158.94Z" fill="black"/>
<path opacity="0.2" d="M94.7553 153.611C94.7859 153.183 94.6982 152.754 94.5017 152.371C94.3053 151.989 94.0077 151.668 93.6414 151.444C92.9108 151.024 92.234 151.312 92.1203 152.09C92.0956 152.519 92.1865 152.946 92.3835 153.327C92.5805 153.709 92.8764 154.03 93.2401 154.258C93.9648 154.677 94.6475 154.39 94.7553 153.611Z" fill="black"/>
<path opacity="0.2" d="M76.2926 142.953C76.3232 142.524 76.2355 142.095 76.0391 141.713C75.8427 141.331 75.5451 141.01 75.1787 140.785C74.4481 140.366 73.7714 140.653 73.6576 141.432C73.629 141.861 73.7182 142.289 73.9155 142.671C74.1129 143.053 74.411 143.374 74.7775 143.599C75.5021 144.018 76.1848 143.731 76.2926 142.953Z" fill="black"/>
<path opacity="0.2" d="M67.0524 137.617C67.0831 137.187 66.9947 136.758 66.7972 136.376C66.5996 135.993 66.3004 135.673 65.9325 135.449C65.2079 135.03 64.5252 135.317 64.4174 136.096C64.3868 136.524 64.4745 136.953 64.6709 137.336C64.8673 137.718 65.1649 138.039 65.5313 138.264C66.2619 138.701 66.9326 138.395 67.0524 137.617Z" fill="black"/>
<path opacity="0.2" d="M57.8231 132.288C57.8524 131.859 57.7641 131.431 57.5678 131.049C57.3715 130.667 57.0746 130.346 56.7092 130.12C55.9786 129.701 55.3019 129.988 55.1881 130.767C55.1588 131.196 55.2477 131.625 55.4451 132.007C55.6426 132.389 55.941 132.71 56.308 132.934C57.0326 133.354 57.7153 133.066 57.8231 132.288Z" fill="black"/>
</g>
<path d="M110.428 161.491C110.427 161.759 110.451 162.025 110.5 162.288C110.527 162.423 110.561 162.557 110.602 162.689C110.763 163.305 111.158 163.833 111.703 164.162C112.058 164.367 112.462 164.472 112.871 164.467H113.195L113.231 164.294C113.267 163.931 113.207 163.566 113.057 163.234C112.804 163.272 112.546 163.228 112.32 163.108C112.143 162.972 111.997 162.798 111.893 162.6C111.79 162.401 111.731 162.182 111.721 161.958C111.719 161.939 111.719 161.918 111.721 161.899C111.715 161.769 111.715 161.639 111.721 161.509C111.777 160.245 112.206 159.026 112.955 158.006C113.213 157.641 113.506 157.302 113.83 156.994C114.098 156.743 114.393 156.522 114.71 156.336C114.953 156.156 115.237 156.04 115.536 155.999C115.836 155.959 116.141 155.994 116.423 156.102C116.662 156.289 116.848 156.534 116.964 156.814C117.079 157.095 117.12 157.4 117.081 157.701C117.077 158.068 117.031 158.434 116.944 158.791L118.052 159.432V159.36C118.208 158.82 118.29 158.262 118.297 157.701C118.343 157.182 118.249 156.66 118.023 156.19C117.798 155.72 117.45 155.319 117.016 155.03C116.195 154.557 115.153 154.641 114.063 155.264C113.559 155.562 113.102 155.931 112.704 156.36C112.396 156.68 112.117 157.026 111.871 157.396C111.006 158.594 110.505 160.016 110.428 161.491Z" fill="#37474F"/>
<path d="M101.187 156.156C101.186 156.423 101.21 156.69 101.259 156.953C101.281 157.092 101.313 157.231 101.355 157.366C101.523 157.977 101.919 158.5 102.463 158.827C102.817 159.032 103.221 159.137 103.63 159.132H103.948C103.966 159.076 103.978 159.018 103.984 158.959C104.024 158.597 103.967 158.23 103.816 157.899C103.563 157.936 103.305 157.892 103.079 157.773C102.9 157.638 102.753 157.465 102.65 157.266C102.546 157.067 102.488 156.847 102.481 156.623C102.478 156.605 102.478 156.587 102.481 156.569C102.471 156.438 102.471 156.306 102.481 156.174C102.594 154.459 103.346 152.848 104.589 151.659C104.856 151.406 105.151 151.185 105.469 151C105.712 150.822 105.997 150.707 106.296 150.667C106.596 150.628 106.9 150.664 107.182 150.773C107.42 150.959 107.606 151.203 107.722 151.482C107.837 151.761 107.878 152.066 107.84 152.366C107.837 152.733 107.79 153.099 107.703 153.456L108.811 154.096V154.024C108.965 153.485 109.046 152.927 109.05 152.366C109.097 151.847 109.004 151.325 108.779 150.855C108.555 150.385 108.208 149.985 107.775 149.695C106.954 149.222 105.906 149.306 104.822 149.929C104.319 150.227 103.861 150.596 103.463 151.024C103.158 151.347 102.88 151.693 102.63 152.06C101.763 153.257 101.261 154.68 101.187 156.156Z" fill="#37474F"/>
<path d="M91.9644 150.827C91.9647 151.096 91.9868 151.364 92.0302 151.629C92.055 151.767 92.089 151.903 92.132 152.036C92.2915 152.65 92.6878 153.175 93.234 153.497C93.5883 153.704 93.9916 153.812 94.4018 153.809C94.5074 153.818 94.6136 153.818 94.7192 153.809C94.7375 153.752 94.7495 153.694 94.7551 153.635C94.7959 153.273 94.738 152.907 94.5874 152.575C94.3367 152.617 94.0792 152.573 93.8568 152.45C93.6772 152.315 93.5301 152.142 93.4265 151.943C93.3228 151.744 93.2652 151.524 93.2579 151.3C93.255 151.282 93.255 151.264 93.2579 151.246C93.2479 151.114 93.2479 150.982 93.2579 150.851C93.3165 149.589 93.7456 148.373 94.4916 147.354C94.7476 146.987 95.0406 146.648 95.366 146.342C95.634 146.088 95.9293 145.865 96.2463 145.677C96.4897 145.498 96.7742 145.384 97.0736 145.344C97.3729 145.304 97.6775 145.34 97.9591 145.45C98.1986 145.636 98.3853 145.881 98.5008 146.161C98.6164 146.442 98.6567 146.748 98.6179 147.048C98.6139 147.416 98.5677 147.781 98.4801 148.138L99.5941 148.779V148.701C99.75 148.164 99.8326 147.608 99.8396 147.048C99.8396 145.797 99.3845 144.851 98.564 144.378C97.7435 143.905 96.6955 143.982 95.6115 144.611C95.1073 144.908 94.6475 145.275 94.2461 145.701C93.9413 146.024 93.663 146.37 93.4136 146.737C92.5473 147.933 92.0441 149.353 91.9644 150.827Z" fill="#37474F"/>
<path d="M73.5197 140.186C73.5171 140.453 73.5391 140.72 73.5855 140.982C73.6124 141.122 73.6464 141.26 73.6873 141.396C73.8552 142.007 74.252 142.53 74.7953 142.857C75.1488 143.059 75.5496 143.165 75.9571 143.162C76.0627 143.171 76.1689 143.171 76.2745 143.162C76.2948 143.102 76.3088 143.04 76.3164 142.976C76.3557 142.619 76.3 142.257 76.1547 141.929C75.9007 141.969 75.6404 141.927 75.4121 141.809C75.2223 141.671 75.0669 141.491 74.9578 141.283C74.8488 141.076 74.7891 140.846 74.7833 140.611C74.7866 140.597 74.7866 140.583 74.7833 140.569C74.7765 140.44 74.7765 140.31 74.7833 140.18C74.8412 138.912 75.2724 137.689 76.023 136.665C76.2808 136.298 76.5758 135.959 76.9033 135.653C77.1679 135.406 77.4591 135.189 77.7717 135.006C78.0145 134.827 78.2987 134.711 78.5981 134.67C78.8975 134.629 79.2024 134.665 79.4845 134.773C79.7215 134.961 79.906 135.207 80.0204 135.487C80.1347 135.767 80.175 136.071 80.1372 136.372C80.1352 136.733 80.091 137.093 80.0055 137.443L81.0655 138.102V138.042C81.2214 137.505 81.304 136.949 81.311 136.39C81.311 135.138 80.8559 134.192 80.0354 133.719C79.5678 133.489 79.0467 133.389 78.5271 133.43C78.0075 133.471 77.5086 133.652 77.083 133.952C76.5802 134.244 76.124 134.609 75.7295 135.036C75.4232 135.359 75.1428 135.705 74.8911 136.072C74.0496 137.284 73.5736 138.712 73.5197 140.186Z" fill="#37474F"/>
<path d="M64.2487 134.851C64.248 135.12 64.2721 135.388 64.3206 135.653C64.3505 135.797 64.3805 135.929 64.4224 136.066C64.5832 136.678 64.9793 137.201 65.5243 137.521C65.8878 137.731 66.3023 137.837 66.7221 137.827C66.8278 137.833 66.9337 137.833 67.0395 137.827C67.0598 137.764 67.0738 137.7 67.0814 137.635C67.1217 137.28 67.0658 136.92 66.9197 136.593C66.6651 136.635 66.4036 136.591 66.1771 136.467C65.9863 136.33 65.8301 136.151 65.721 135.943C65.6118 135.735 65.5527 135.505 65.5483 135.27C65.545 135.256 65.545 135.242 65.5483 135.228C65.5412 135.098 65.5412 134.968 65.5483 134.839C65.6044 133.571 66.0382 132.349 66.7939 131.33C67.0499 130.961 67.3429 130.62 67.6683 130.312C67.934 130.066 68.2251 129.849 68.5366 129.665C68.78 129.486 69.0645 129.372 69.3639 129.332C69.6632 129.292 69.9678 129.328 70.2494 129.437C70.4898 129.623 70.6772 129.868 70.7928 130.149C70.9085 130.429 70.9482 130.735 70.9082 131.036C70.9029 131.395 70.8587 131.753 70.7764 132.102L71.8843 132.749V132.689C72.0403 132.152 72.1229 131.596 72.1299 131.036C72.1299 129.785 71.6747 128.833 70.8483 128.366C70.0219 127.899 68.9798 127.97 67.9018 128.593C67.385 128.897 66.9166 129.276 66.5124 129.719C66.2058 130.041 65.9254 130.388 65.674 130.755C64.8151 131.955 64.3202 133.377 64.2487 134.851Z" fill="#37474F"/>
<path d="M55.0261 129.521C55.0255 129.791 55.0495 130.059 55.098 130.324C55.1229 130.459 55.1549 130.593 55.1938 130.725C55.3584 131.341 55.7556 131.869 56.3017 132.198C56.6579 132.399 57.0607 132.502 57.4696 132.497H57.781C57.8013 132.435 57.8153 132.371 57.8229 132.306C57.8623 131.95 57.8065 131.591 57.6612 131.264C57.4066 131.303 57.1462 131.259 56.9186 131.138C56.7337 130.998 56.5835 130.817 56.4796 130.609C56.3758 130.401 56.3211 130.173 56.3197 129.941C56.3169 129.929 56.3169 129.916 56.3197 129.905C56.3098 129.773 56.3098 129.641 56.3197 129.509C56.3748 128.243 56.8064 127.021 57.5594 126C57.8174 125.634 58.1124 125.295 58.4397 124.988C58.7016 124.739 58.9909 124.52 59.3021 124.336C59.5455 124.157 59.83 124.042 60.1294 124.003C60.4287 123.963 60.7333 123.999 61.0149 124.108C61.2553 124.294 61.4427 124.539 61.5583 124.819C61.6739 125.1 61.7137 125.406 61.6737 125.707C61.6717 126.068 61.6275 126.428 61.5419 126.779L62.6558 127.42V127.36C62.8118 126.822 62.8944 126.266 62.9014 125.707C62.9014 124.456 62.4462 123.509 61.6258 123.036C61.1583 122.807 60.6377 122.707 60.1184 122.747C59.5991 122.787 59.1 122.965 58.6733 123.264C58.1741 123.558 57.7202 123.923 57.3258 124.348C57.0159 124.669 56.7353 125.018 56.4874 125.39C55.6082 126.595 55.1003 128.031 55.0261 129.521Z" fill="#37474F"/>
<path d="M116.692 183.875L46.7852 143.551L48.3003 132.886L118.219 173.216L116.692 183.875Z" fill="#42CA90"/>
<g opacity="0.65">
<path opacity="0.65" d="M116.692 183.875L46.7852 143.551L48.3003 132.886L118.219 173.216L116.692 183.875Z" fill="white"/>
</g>
<path d="M111.183 186.462C111.093 187.06 110.548 187.252 109.985 186.911L104.739 183.917C104.448 183.745 104.21 183.498 104.05 183.202C103.89 182.905 103.813 182.571 103.828 182.234C103.912 181.635 104.457 181.444 105.026 181.785L110.272 184.779C110.562 184.951 110.8 185.198 110.96 185.495C111.12 185.791 111.197 186.125 111.183 186.462Z" fill="#42CA90"/>
<path d="M102.331 181.354C102.247 181.953 101.702 182.144 101.133 181.803L95.887 178.809C95.5952 178.639 95.3556 178.392 95.1941 178.096C95.0325 177.799 94.9553 177.464 94.9707 177.126C95.0545 176.528 95.5696 176.336 96.1684 176.677L101.415 179.671C101.706 179.842 101.946 180.088 102.107 180.385C102.269 180.681 102.346 181.017 102.331 181.354Z" fill="#42CA90"/>
<path d="M93.4801 176.246C93.3963 176.845 92.8513 177.036 92.2823 176.695L87.0362 173.701C86.7451 173.531 86.5063 173.284 86.3458 172.987C86.1853 172.69 86.1093 172.355 86.1259 172.018C86.2098 171.42 86.7548 171.228 87.3237 171.569L92.5698 174.563C92.8605 174.734 93.0989 174.981 93.2593 175.278C93.4198 175.574 93.4961 175.909 93.4801 176.246Z" fill="#42CA90"/>
<path d="M84.6344 171.138C84.5505 171.737 84.0055 171.929 83.4366 171.587L78.1904 168.557C77.8998 168.388 77.6613 168.142 77.5007 167.846C77.3402 167.551 77.2639 167.217 77.2802 166.881C77.364 166.282 77.909 166.09 78.4779 166.426L83.7001 169.456C83.9957 169.623 84.2393 169.868 84.4041 170.165C84.569 170.462 84.6486 170.799 84.6344 171.138Z" fill="#42CA90"/>
<path d="M75.7826 166.024C75.6988 166.623 75.1837 166.815 74.5849 166.479L69.3387 163.449C69.0478 163.28 68.8088 163.034 68.6474 162.739C68.4859 162.443 68.4081 162.109 68.4224 161.773C68.5062 161.174 69.0512 160.982 69.6202 161.318L74.8663 164.348C75.1576 164.517 75.397 164.763 75.5585 165.058C75.7201 165.354 75.7976 165.688 75.7826 166.024Z" fill="#42CA90"/>
<path d="M66.9324 160.917C66.8485 161.516 66.3035 161.707 65.7346 161.372L60.4884 158.342C60.1978 158.171 59.9594 157.924 59.7989 157.627C59.6385 157.331 59.5622 156.996 59.5782 156.659C59.662 156.06 60.207 155.869 60.7759 156.21L66.0221 159.24C66.3122 159.41 66.5504 159.656 66.7109 159.952C66.8713 160.247 66.9479 160.581 66.9324 160.917Z" fill="#42CA90"/>
<path d="M58.087 155.809C58.0032 156.408 57.4582 156.599 56.8893 156.258L51.6431 153.264C51.3509 153.094 51.1109 152.848 50.9493 152.551C50.7877 152.254 50.7108 151.919 50.7268 151.581C50.8107 150.982 51.3257 150.791 51.9246 151.132L57.1708 154.162C57.4579 154.328 57.6947 154.569 57.856 154.859C58.0173 155.149 58.0971 155.477 58.087 155.809Z" fill="#42CA90"/>
<g opacity="0.17">
<path opacity="0.17" d="M44.8934 186.521C44.9602 186.527 45.0269 186.509 45.0809 186.469C45.1349 186.429 45.1726 186.371 45.1869 186.306L49.4629 156.461C49.4655 156.43 49.4613 156.398 49.4506 156.368C49.4399 156.338 49.4228 156.311 49.4007 156.288C49.3786 156.266 49.3518 156.248 49.3222 156.237C49.2927 156.225 49.261 156.22 49.2293 156.222C49.1623 156.218 49.096 156.238 49.0415 156.277C48.987 156.316 48.9476 156.373 48.9299 156.437L44.6599 186.282C44.6573 186.313 44.6615 186.345 44.6722 186.375C44.6829 186.405 44.6999 186.432 44.7221 186.455C44.7442 186.478 44.7709 186.495 44.8005 186.507C44.8301 186.518 44.8618 186.523 44.8934 186.521Z" fill="#42CA90"/>
<path opacity="0.17" d="M53.7567 191.635C53.8235 191.641 53.8901 191.622 53.9442 191.583C53.9982 191.543 54.0359 191.485 54.0502 191.419L58.3261 161.575C58.3288 161.543 58.3246 161.512 58.3138 161.482C58.3031 161.452 58.2861 161.425 58.264 161.402C58.2418 161.379 58.2151 161.362 58.1855 161.35C58.1559 161.339 58.1242 161.334 58.0926 161.336C58.0258 161.33 57.9592 161.348 57.9052 161.388C57.8511 161.428 57.8134 161.486 57.7991 161.551L53.5112 191.396C53.5083 191.428 53.5128 191.461 53.5242 191.492C53.5356 191.523 53.5537 191.551 53.5772 191.573C53.6007 191.596 53.629 191.614 53.66 191.624C53.6911 191.635 53.7241 191.639 53.7567 191.635Z" fill="#42CA90"/>
<path opacity="0.17" d="M62.5968 196.743C62.6641 196.748 62.731 196.729 62.7857 196.689C62.8405 196.65 62.8796 196.593 62.8963 196.527L67.1663 166.683C67.1688 166.652 67.1647 166.62 67.1544 166.591C67.144 166.562 67.1275 166.535 67.1061 166.512C67.0846 166.49 67.0586 166.472 67.0297 166.46C67.0009 166.448 66.9699 166.442 66.9387 166.443C66.8712 166.437 66.8037 166.456 66.7487 166.495C66.6937 166.535 66.6548 166.593 66.6392 166.659L62.3633 196.503C62.3607 196.535 62.3649 196.567 62.3756 196.597C62.3863 196.626 62.4033 196.654 62.4255 196.676C62.4476 196.699 62.4743 196.717 62.5039 196.728C62.5335 196.74 62.5652 196.745 62.5968 196.743Z" fill="#42CA90"/>
<path opacity="0.17" d="M71.4481 201.857C71.5162 201.861 71.5837 201.842 71.6386 201.801C71.6935 201.76 71.7321 201.702 71.7476 201.635L76.0236 171.791C76.0253 171.76 76.0205 171.729 76.0093 171.699C75.9982 171.67 75.9811 171.644 75.959 171.622C75.937 171.6 75.9105 171.583 75.8814 171.572C75.8523 171.56 75.8212 171.556 75.79 171.557C75.7225 171.551 75.6551 171.57 75.6 171.609C75.545 171.649 75.5062 171.707 75.4906 171.773L71.2206 201.617C71.218 201.648 71.2221 201.68 71.2324 201.709C71.2428 201.738 71.2593 201.765 71.2808 201.788C71.3022 201.811 71.3282 201.828 71.3571 201.84C71.3859 201.852 71.417 201.858 71.4481 201.857Z" fill="#42CA90"/>
<path opacity="0.17" d="M80.2988 206.965C80.3663 206.971 80.4338 206.952 80.4888 206.913C80.5438 206.873 80.5827 206.815 80.5983 206.749L84.8982 176.905C84.9008 176.873 84.8966 176.841 84.8859 176.811C84.8751 176.781 84.8581 176.754 84.836 176.732C84.8138 176.709 84.7871 176.691 84.7575 176.68C84.728 176.668 84.6963 176.663 84.6646 176.665C84.5973 176.66 84.5305 176.679 84.4757 176.718C84.421 176.758 84.3818 176.815 84.3652 176.881L80.0952 206.725C80.0928 206.754 80.0961 206.783 80.105 206.811C80.1139 206.839 80.1283 206.865 80.1472 206.887C80.1661 206.909 80.1893 206.928 80.2153 206.941C80.2413 206.954 80.2697 206.962 80.2988 206.965Z" fill="#42CA90"/>
<path opacity="0.17" d="M89.1564 212.078C89.2238 212.083 89.2905 212.063 89.3443 212.022C89.3982 211.981 89.4357 211.923 89.4499 211.857L93.7258 182.012C93.7258 181.886 93.642 181.785 93.4923 181.779C93.4255 181.773 93.3589 181.791 93.3049 181.831C93.2508 181.871 93.2131 181.929 93.1988 181.994L88.9229 211.839C88.9202 211.87 88.9244 211.902 88.9352 211.932C88.9459 211.962 88.9629 211.989 88.985 212.012C89.0072 212.034 89.0339 212.052 89.0635 212.063C89.0931 212.075 89.1247 212.08 89.1564 212.078Z" fill="#42CA90"/>
<path opacity="0.17" d="M98.0085 217.186C98.0757 217.191 98.1426 217.172 98.1973 217.133C98.2521 217.093 98.2912 217.036 98.3079 216.971L102.578 187.126C102.58 187.095 102.576 187.063 102.566 187.033C102.555 187.003 102.538 186.976 102.516 186.953C102.494 186.931 102.467 186.913 102.437 186.901C102.408 186.89 102.376 186.885 102.344 186.887C102.278 186.881 102.211 186.9 102.157 186.939C102.103 186.979 102.065 187.037 102.051 187.102L97.7749 216.947C97.7723 216.978 97.7765 217.01 97.7872 217.04C97.7979 217.07 97.8149 217.097 97.8371 217.12C97.8592 217.142 97.886 217.16 97.9155 217.172C97.9451 217.183 97.9768 217.188 98.0085 217.186Z" fill="#42CA90"/>
<path opacity="0.17" d="M106.86 222.294C106.927 222.3 106.995 222.282 107.05 222.242C107.105 222.202 107.144 222.144 107.159 222.078L111.435 192.234C111.437 192.202 111.432 192.171 111.421 192.142C111.41 192.112 111.393 192.085 111.371 192.063C111.349 192.04 111.323 192.023 111.293 192.011C111.264 191.999 111.233 191.993 111.202 191.994C111.134 191.99 111.066 192.009 111.011 192.05C110.956 192.091 110.918 192.149 110.902 192.216L106.626 222.06C106.625 222.091 106.629 222.123 106.641 222.152C106.652 222.181 106.669 222.207 106.691 222.229C106.713 222.251 106.739 222.268 106.768 222.28C106.798 222.291 106.829 222.296 106.86 222.294Z" fill="#42CA90"/>
<path opacity="0.17" d="M110.052 199.911C110.098 199.915 110.145 199.908 110.188 199.89C110.23 199.873 110.268 199.845 110.298 199.809C110.319 199.787 110.335 199.76 110.344 199.731C110.353 199.702 110.356 199.671 110.351 199.641C110.346 199.611 110.335 199.582 110.317 199.557C110.3 199.532 110.276 199.512 110.25 199.497L48.278 163.719C48.217 163.687 48.1472 163.677 48.0799 163.69C48.0125 163.703 47.9515 163.739 47.9067 163.791C47.8857 163.813 47.8701 163.84 47.8613 163.869C47.8525 163.899 47.8506 163.93 47.8559 163.96C47.8611 163.99 47.8733 164.019 47.8914 164.043C47.9096 164.068 47.9333 164.088 47.9606 164.102L109.938 199.875C109.973 199.896 110.012 199.908 110.052 199.911Z" fill="#42CA90"/>
<path opacity="0.17" d="M108.998 207.372C109.044 207.375 109.09 207.367 109.133 207.35C109.175 207.332 109.213 207.305 109.243 207.27C109.264 207.248 109.28 207.221 109.289 207.191C109.298 207.162 109.299 207.131 109.294 207.101C109.289 207.071 109.277 207.042 109.259 207.017C109.24 206.993 109.217 206.973 109.189 206.959L47.2239 171.18C47.162 171.148 47.0912 171.138 47.0228 171.151C46.9544 171.164 46.8924 171.2 46.8466 171.252C46.8267 171.275 46.8121 171.302 46.804 171.331C46.7958 171.36 46.7943 171.391 46.7994 171.421C46.8046 171.45 46.8163 171.479 46.8338 171.503C46.8513 171.528 46.8741 171.549 46.9005 171.563L108.854 207.336C108.897 207.363 108.947 207.376 108.998 207.372Z" fill="#42CA90"/>
<path opacity="0.17" d="M107.931 214.833C107.977 214.836 108.023 214.829 108.066 214.811C108.108 214.793 108.146 214.766 108.177 214.731C108.198 214.708 108.213 214.681 108.222 214.651C108.231 214.621 108.233 214.59 108.228 214.559C108.222 214.529 108.21 214.5 108.192 214.475C108.174 214.449 108.15 214.429 108.123 214.414L46.1512 178.641C46.0903 178.61 46.0205 178.6 45.9532 178.613C45.8858 178.626 45.8248 178.661 45.7799 178.713C45.7589 178.736 45.7434 178.763 45.7346 178.792C45.7258 178.821 45.7239 178.852 45.7291 178.882C45.7343 178.913 45.7465 178.941 45.7647 178.966C45.7829 178.991 45.8065 179.011 45.8338 179.025L107.799 214.797C107.839 214.821 107.885 214.833 107.931 214.833Z" fill="#42CA90"/>
<path opacity="0.17" d="M106.859 222.294C106.904 222.306 106.951 222.306 106.996 222.294C107.038 222.28 107.075 222.254 107.103 222.22C107.132 222.187 107.151 222.146 107.158 222.102L111.434 192.258C111.437 192.217 111.429 192.177 111.41 192.141C111.39 192.105 111.362 192.075 111.326 192.054L49.3606 156.282C49.3186 156.261 49.2725 156.25 49.2258 156.25C49.1791 156.25 49.133 156.261 49.0911 156.282C49.051 156.297 49.0154 156.322 48.9872 156.355C48.959 156.387 48.9392 156.426 48.9294 156.467L44.6594 186.312C44.6542 186.352 44.6611 186.393 44.6792 186.429C44.6973 186.465 44.7259 186.495 44.7612 186.515L106.733 222.258C106.77 222.282 106.814 222.295 106.859 222.294ZM110.883 192.354L106.691 221.695L45.2104 186.204L49.4025 156.863L110.883 192.354Z" fill="#42CA90"/>
</g>
<g opacity="0.17">
<path opacity="0.17" d="M44.8934 186.521C44.9602 186.527 45.0269 186.509 45.0809 186.469C45.1349 186.429 45.1726 186.371 45.1869 186.306L49.4629 156.461C49.4655 156.43 49.4613 156.398 49.4506 156.368C49.4399 156.338 49.4228 156.311 49.4007 156.288C49.3786 156.266 49.3518 156.248 49.3222 156.237C49.2927 156.225 49.261 156.22 49.2293 156.222C49.1623 156.218 49.096 156.238 49.0415 156.277C48.987 156.316 48.9476 156.373 48.9299 156.437L44.6599 186.282C44.6573 186.313 44.6615 186.345 44.6722 186.375C44.6829 186.405 44.6999 186.432 44.7221 186.455C44.7442 186.478 44.7709 186.495 44.8005 186.507C44.8301 186.518 44.8618 186.523 44.8934 186.521Z" fill="black"/>
<path opacity="0.17" d="M53.7567 191.635C53.8235 191.641 53.8901 191.622 53.9442 191.583C53.9982 191.543 54.0359 191.485 54.0502 191.419L58.3261 161.575C58.3288 161.543 58.3246 161.512 58.3138 161.482C58.3031 161.452 58.2861 161.425 58.264 161.402C58.2418 161.379 58.2151 161.362 58.1855 161.35C58.1559 161.339 58.1242 161.334 58.0926 161.336C58.0258 161.33 57.9592 161.348 57.9052 161.388C57.8511 161.428 57.8134 161.486 57.7991 161.551L53.5112 191.396C53.5083 191.428 53.5128 191.461 53.5242 191.492C53.5356 191.523 53.5537 191.551 53.5772 191.573C53.6007 191.596 53.629 191.614 53.66 191.624C53.6911 191.635 53.7241 191.639 53.7567 191.635Z" fill="black"/>
<path opacity="0.17" d="M62.5968 196.743C62.6641 196.748 62.731 196.729 62.7857 196.689C62.8405 196.65 62.8796 196.593 62.8963 196.527L67.1663 166.683C67.1688 166.652 67.1647 166.62 67.1544 166.591C67.144 166.562 67.1275 166.535 67.1061 166.512C67.0846 166.49 67.0586 166.472 67.0297 166.46C67.0009 166.448 66.9699 166.442 66.9387 166.443C66.8712 166.437 66.8037 166.456 66.7487 166.495C66.6937 166.535 66.6548 166.593 66.6392 166.659L62.3633 196.503C62.3607 196.535 62.3649 196.567 62.3756 196.597C62.3863 196.626 62.4033 196.654 62.4255 196.676C62.4476 196.699 62.4743 196.717 62.5039 196.728C62.5335 196.74 62.5652 196.745 62.5968 196.743Z" fill="black"/>
<path opacity="0.17" d="M71.4481 201.857C71.5162 201.861 71.5837 201.842 71.6386 201.801C71.6935 201.76 71.7321 201.702 71.7476 201.635L76.0236 171.791C76.0253 171.76 76.0205 171.729 76.0093 171.699C75.9982 171.67 75.9811 171.644 75.959 171.622C75.937 171.6 75.9105 171.583 75.8814 171.572C75.8523 171.56 75.8212 171.556 75.79 171.557C75.7225 171.551 75.6551 171.57 75.6 171.609C75.545 171.649 75.5062 171.707 75.4906 171.773L71.2206 201.617C71.218 201.648 71.2221 201.68 71.2324 201.709C71.2428 201.738 71.2593 201.765 71.2808 201.788C71.3022 201.811 71.3282 201.828 71.3571 201.84C71.3859 201.852 71.417 201.858 71.4481 201.857Z" fill="black"/>
<path opacity="0.17" d="M80.2988 206.965C80.3663 206.971 80.4338 206.952 80.4888 206.913C80.5438 206.873 80.5827 206.815 80.5983 206.749L84.8982 176.905C84.9008 176.873 84.8966 176.841 84.8859 176.811C84.8751 176.781 84.8581 176.754 84.836 176.732C84.8138 176.709 84.7871 176.691 84.7575 176.68C84.728 176.668 84.6963 176.663 84.6646 176.665C84.5973 176.66 84.5305 176.679 84.4757 176.718C84.421 176.758 84.3818 176.815 84.3652 176.881L80.0952 206.725C80.0928 206.754 80.0961 206.783 80.105 206.811C80.1139 206.839 80.1283 206.865 80.1472 206.887C80.1661 206.909 80.1893 206.928 80.2153 206.941C80.2413 206.954 80.2697 206.962 80.2988 206.965Z" fill="black"/>
<path opacity="0.17" d="M89.1564 212.078C89.2238 212.083 89.2905 212.063 89.3443 212.022C89.3982 211.981 89.4357 211.923 89.4499 211.857L93.7258 182.012C93.7258 181.886 93.642 181.785 93.4923 181.779C93.4255 181.773 93.3589 181.791 93.3049 181.831C93.2508 181.871 93.2131 181.929 93.1988 181.994L88.9229 211.839C88.9202 211.87 88.9244 211.902 88.9352 211.932C88.9459 211.962 88.9629 211.989 88.985 212.012C89.0072 212.034 89.0339 212.052 89.0635 212.063C89.0931 212.075 89.1247 212.08 89.1564 212.078Z" fill="black"/>
<path opacity="0.17" d="M98.0085 217.186C98.0757 217.191 98.1426 217.172 98.1973 217.133C98.2521 217.093 98.2912 217.036 98.3079 216.971L102.578 187.126C102.58 187.095 102.576 187.063 102.566 187.033C102.555 187.003 102.538 186.976 102.516 186.953C102.494 186.931 102.467 186.913 102.437 186.901C102.408 186.89 102.376 186.885 102.344 186.887C102.278 186.881 102.211 186.9 102.157 186.939C102.103 186.979 102.065 187.037 102.051 187.102L97.7749 216.947C97.7723 216.978 97.7765 217.01 97.7872 217.04C97.7979 217.07 97.8149 217.097 97.8371 217.12C97.8592 217.142 97.886 217.16 97.9155 217.172C97.9451 217.183 97.9768 217.188 98.0085 217.186Z" fill="black"/>
<path opacity="0.17" d="M106.86 222.294C106.927 222.3 106.995 222.282 107.05 222.242C107.105 222.202 107.144 222.144 107.159 222.078L111.435 192.234C111.437 192.202 111.432 192.171 111.421 192.142C111.41 192.112 111.393 192.085 111.371 192.063C111.349 192.04 111.323 192.023 111.293 192.011C111.264 191.999 111.233 191.993 111.202 191.994C111.134 191.99 111.066 192.009 111.011 192.05C110.956 192.091 110.918 192.149 110.902 192.216L106.626 222.06C106.625 222.091 106.629 222.123 106.641 222.152C106.652 222.181 106.669 222.207 106.691 222.229C106.713 222.251 106.739 222.268 106.768 222.28C106.798 222.291 106.829 222.296 106.86 222.294Z" fill="black"/>
<path opacity="0.17" d="M110.052 199.911C110.098 199.915 110.145 199.908 110.188 199.89C110.23 199.873 110.268 199.845 110.298 199.809C110.319 199.787 110.335 199.76 110.344 199.731C110.353 199.702 110.356 199.671 110.351 199.641C110.346 199.611 110.335 199.582 110.317 199.557C110.3 199.532 110.276 199.512 110.25 199.497L48.278 163.719C48.217 163.687 48.1472 163.677 48.0799 163.69C48.0125 163.703 47.9515 163.739 47.9067 163.791C47.8857 163.813 47.8701 163.84 47.8613 163.869C47.8525 163.899 47.8506 163.93 47.8559 163.96C47.8611 163.99 47.8733 164.019 47.8914 164.043C47.9096 164.068 47.9333 164.088 47.9606 164.102L109.938 199.875C109.973 199.896 110.012 199.908 110.052 199.911Z" fill="black"/>
<path opacity="0.17" d="M108.998 207.372C109.044 207.375 109.09 207.367 109.133 207.35C109.175 207.332 109.213 207.305 109.243 207.27C109.264 207.248 109.28 207.221 109.289 207.191C109.298 207.162 109.299 207.131 109.294 207.101C109.289 207.071 109.277 207.042 109.259 207.017C109.24 206.993 109.217 206.973 109.189 206.959L47.2239 171.18C47.162 171.148 47.0912 171.138 47.0228 171.151C46.9544 171.164 46.8924 171.2 46.8466 171.252C46.8267 171.275 46.8121 171.302 46.804 171.331C46.7958 171.36 46.7943 171.391 46.7994 171.421C46.8046 171.45 46.8163 171.479 46.8338 171.503C46.8513 171.528 46.8741 171.549 46.9005 171.563L108.854 207.336C108.897 207.363 108.947 207.376 108.998 207.372Z" fill="black"/>
<path opacity="0.17" d="M107.931 214.833C107.977 214.836 108.023 214.829 108.066 214.811C108.108 214.793 108.146 214.766 108.177 214.731C108.198 214.708 108.213 214.681 108.222 214.651C108.231 214.621 108.233 214.59 108.228 214.559C108.222 214.529 108.21 214.5 108.192 214.475C108.174 214.449 108.15 214.429 108.123 214.414L46.1512 178.641C46.0903 178.61 46.0205 178.6 45.9532 178.613C45.8858 178.626 45.8248 178.661 45.7799 178.713C45.7589 178.736 45.7434 178.763 45.7346 178.792C45.7258 178.821 45.7239 178.852 45.7291 178.882C45.7343 178.913 45.7465 178.941 45.7647 178.966C45.7829 178.991 45.8065 179.011 45.8338 179.025L107.799 214.797C107.839 214.821 107.885 214.833 107.931 214.833Z" fill="black"/>
<path opacity="0.17" d="M106.859 222.294C106.904 222.306 106.951 222.306 106.996 222.294C107.038 222.28 107.075 222.254 107.103 222.22C107.132 222.187 107.151 222.146 107.158 222.102L111.434 192.258C111.437 192.217 111.429 192.177 111.41 192.141C111.39 192.105 111.362 192.075 111.326 192.054L49.3606 156.282C49.3186 156.261 49.2725 156.25 49.2258 156.25C49.1791 156.25 49.133 156.261 49.0911 156.282C49.051 156.297 49.0154 156.322 48.9872 156.355C48.959 156.387 48.9392 156.426 48.9294 156.467L44.6594 186.312C44.6542 186.352 44.6611 186.393 44.6792 186.429C44.6973 186.465 44.7259 186.495 44.7612 186.515L106.733 222.258C106.77 222.282 106.814 222.295 106.859 222.294ZM110.883 192.354L106.691 221.695L45.2104 186.204L49.4025 156.863L110.883 192.354Z" fill="black"/>
</g>
<path d="M91.348 164.377C91.3469 164.751 91.3932 165.123 91.4858 165.485C91.5696 165.819 91.6965 166.142 91.863 166.443C92.011 166.723 92.1964 166.98 92.414 167.21C92.6089 167.414 92.8305 167.591 93.0728 167.737C93.282 167.867 93.5169 167.951 93.7615 167.982C93.948 168.005 94.1369 167.967 94.3005 167.874C94.467 167.766 94.5932 167.606 94.6598 167.419C94.7555 167.167 94.8022 166.899 94.7975 166.629C94.7971 166.573 94.7849 166.518 94.7616 166.467C94.7449 166.422 94.7132 166.384 94.6718 166.359L93.9292 165.928C93.8573 165.886 93.8094 165.88 93.7854 165.898C93.7491 165.948 93.7245 166.005 93.7136 166.066C93.7038 166.134 93.6795 166.199 93.6423 166.257C93.6051 166.315 93.5559 166.364 93.498 166.401C93.4021 166.449 93.2584 166.401 93.0728 166.312C92.8561 166.184 92.6829 165.994 92.5757 165.767C92.462 165.506 92.4067 165.224 92.414 164.94V162.449L94.3903 163.593C94.4064 163.606 94.4265 163.613 94.4472 163.613C94.4679 163.613 94.488 163.606 94.5041 163.593C94.5364 163.552 94.5514 163.501 94.546 163.449V162.503C94.5465 162.437 94.5322 162.371 94.5041 162.312C94.4811 162.255 94.4414 162.207 94.3903 162.174L91.4858 160.497C91.4707 160.484 91.4516 160.478 91.4319 160.478C91.4121 160.478 91.3931 160.484 91.378 160.497C91.3596 160.516 91.3458 160.539 91.3375 160.564C91.3292 160.588 91.3266 160.615 91.33 160.641L91.348 164.377Z" fill="#455A64"/>
<path d="M90.582 164.892C90.5812 164.493 90.4803 164.099 90.2886 163.749C90.0443 163.321 89.7212 162.943 89.3364 162.635L88.6596 162.066C88.6484 161.958 88.676 161.85 88.7375 161.761C88.7854 161.695 88.8752 161.701 88.995 161.761C89.0759 161.804 89.1472 161.863 89.2046 161.934C89.242 161.988 89.276 162.044 89.3064 162.102C89.3336 162.154 89.3678 162.203 89.4082 162.246C89.4403 162.278 89.4765 162.306 89.516 162.329L90.2527 162.755C90.267 162.764 90.2836 162.768 90.3006 162.768C90.3175 162.768 90.3341 162.764 90.3485 162.755C90.3576 162.735 90.3623 162.713 90.3623 162.692C90.3623 162.67 90.3576 162.649 90.3485 162.629C90.337 162.46 90.2985 162.294 90.2347 162.138C90.1582 161.93 90.0619 161.729 89.9472 161.539C89.8218 161.338 89.6774 161.15 89.516 160.976C89.354 160.805 89.1685 160.658 88.9651 160.539C88.7846 160.421 88.5799 160.345 88.3662 160.317C88.2124 160.3 88.0579 160.343 87.935 160.437C87.8099 160.548 87.722 160.694 87.6835 160.856C87.624 161.075 87.5957 161.301 87.5996 161.527V164.228C87.6006 164.294 87.6169 164.36 87.6475 164.419C87.6686 164.475 87.7062 164.523 87.7553 164.557L88.486 164.976C88.5011 164.989 88.5201 164.996 88.5399 164.996C88.5596 164.996 88.5787 164.989 88.5938 164.976C88.6108 164.957 88.6238 164.934 88.632 164.909C88.6403 164.884 88.6435 164.858 88.6417 164.832V164.587C88.7339 164.799 88.8505 165 88.989 165.186C89.1371 165.374 89.3201 165.533 89.528 165.653C89.6617 165.737 89.8137 165.789 89.9712 165.803C90.0886 165.807 90.2036 165.769 90.2946 165.695C90.3913 165.606 90.4617 165.492 90.4982 165.365C90.5457 165.212 90.5739 165.053 90.582 164.892ZM89.2645 164.329C89.1713 164.279 89.0898 164.21 89.025 164.126C88.9495 164.036 88.8852 163.938 88.8333 163.832C88.7791 163.724 88.7369 163.609 88.7075 163.491C88.6777 163.374 88.6616 163.253 88.6596 163.132L89.1926 163.563C89.2908 163.648 89.3756 163.746 89.4442 163.856C89.5068 163.957 89.54 164.073 89.54 164.192C89.54 164.306 89.54 164.365 89.4681 164.383C89.3963 164.401 89.3543 164.383 89.2645 164.329Z" fill="#455A64"/>
<path d="M83.5981 161.935C83.5968 162.004 83.6133 162.072 83.646 162.132C83.6671 162.188 83.7047 162.236 83.7538 162.27L84.4844 162.689C84.4995 162.702 84.5186 162.709 84.5383 162.709C84.558 162.709 84.5771 162.702 84.5922 162.689C84.6092 162.67 84.6223 162.647 84.6305 162.622C84.6387 162.597 84.642 162.571 84.6401 162.545V160.258C84.6247 160.069 84.6664 159.879 84.7599 159.713C84.8437 159.605 84.9695 159.605 85.1432 159.713C85.3186 159.816 85.4523 159.977 85.5205 160.168C85.6059 160.385 85.6466 160.618 85.6402 160.851V163.102C85.6419 163.171 85.6582 163.238 85.6881 163.3C85.7092 163.356 85.7468 163.404 85.7959 163.438L86.5266 163.857C86.5426 163.87 86.5627 163.877 86.5834 163.877C86.6042 163.877 86.6243 163.87 86.6403 163.857C86.6726 163.816 86.6877 163.765 86.6823 163.713V159.557C86.6829 159.489 86.6686 159.422 86.6403 159.36C86.6154 159.306 86.576 159.261 86.5266 159.228L85.8259 158.821C85.8108 158.808 85.7917 158.801 85.772 158.801C85.7523 158.801 85.7332 158.808 85.7181 158.821C85.7009 158.839 85.6878 158.861 85.6795 158.885C85.6713 158.908 85.6681 158.934 85.6702 158.959V159.168C85.6402 159.09 85.5983 159.007 85.5564 158.911C85.507 158.817 85.451 158.727 85.3887 158.641C85.3195 158.55 85.2434 158.464 85.1611 158.384C85.0681 158.299 84.9656 158.224 84.8557 158.162C84.7022 158.065 84.5277 158.005 84.3467 157.989C84.2738 157.982 84.2004 157.99 84.1312 158.014C84.062 158.038 83.9987 158.076 83.9454 158.126C83.8194 158.263 83.7307 158.43 83.6879 158.611C83.6212 158.892 83.591 159.18 83.5981 159.468V161.935Z" fill="#455A64"/>
<path d="M82.6941 157.264C82.6918 157.197 82.6754 157.132 82.6462 157.072C82.6251 157.016 82.5875 156.968 82.5384 156.934L81.8077 156.515C81.7926 156.503 81.7736 156.496 81.7538 156.496C81.7341 156.496 81.715 156.503 81.6999 156.515C81.6829 156.535 81.6699 156.558 81.6617 156.582C81.6535 156.607 81.6502 156.633 81.652 156.659V158.917C81.6657 159.106 81.6285 159.297 81.5442 159.467C81.4664 159.581 81.3466 159.587 81.1789 159.467C81.0078 159.371 80.8778 159.216 80.8136 159.03C80.7387 158.813 80.7022 158.584 80.7058 158.354V156.096C80.7064 156.028 80.6921 155.961 80.6639 155.899C80.6408 155.844 80.601 155.798 80.5501 155.767L79.8195 155.342C79.8044 155.329 79.7853 155.322 79.7656 155.322C79.7458 155.322 79.7268 155.329 79.7117 155.342C79.6782 155.379 79.661 155.429 79.6638 155.479V159.659C79.6654 159.728 79.6817 159.795 79.7117 159.857C79.7343 159.912 79.7716 159.959 79.8195 159.994L80.4962 160.378C80.5113 160.39 80.5304 160.397 80.5501 160.397C80.5698 160.397 80.5889 160.39 80.604 160.378C80.621 160.358 80.6341 160.335 80.6423 160.311C80.6505 160.286 80.6538 160.26 80.6519 160.234V160.03C80.6834 160.119 80.7214 160.205 80.7657 160.288C80.8108 160.381 80.8649 160.469 80.9274 160.551C80.9966 160.643 81.0727 160.729 81.155 160.809C81.2503 160.896 81.3547 160.972 81.4664 161.036C81.8437 161.252 82.1371 161.264 82.3587 161.036C82.6418 160.648 82.7621 160.165 82.6941 159.689V157.264Z" fill="#455A64"/>
<path d="M78.9089 158.144C78.9054 157.747 78.8046 157.356 78.6155 157.006C78.3689 156.58 78.0462 156.203 77.6633 155.893L76.9866 155.294C76.9769 155.187 77.0021 155.08 77.0584 154.988C77.1123 154.923 77.1962 154.929 77.3219 154.988C77.402 155.03 77.4716 155.09 77.5255 155.162C77.5646 155.216 77.6005 155.272 77.6333 155.33C77.6588 155.382 77.691 155.43 77.7292 155.474C77.7634 155.506 77.8016 155.534 77.8429 155.557L78.5796 155.983C78.5939 155.992 78.6105 155.996 78.6275 155.996C78.6444 155.996 78.661 155.992 78.6754 155.983C78.6905 155.942 78.6905 155.897 78.6754 155.857C78.6616 155.686 78.6212 155.518 78.5556 155.36C78.4829 155.151 78.3886 154.95 78.2741 154.761C78.1447 154.561 77.9984 154.373 77.8369 154.198C77.6782 154.026 77.4945 153.879 77.292 153.761C77.1108 153.645 76.9064 153.569 76.6931 153.539C76.5393 153.522 76.3848 153.565 76.2619 153.659C76.1368 153.77 76.049 153.916 76.0104 154.078C75.9509 154.297 75.9227 154.523 75.9265 154.749V157.45C75.9275 157.516 75.9439 157.582 75.9745 157.641C75.9956 157.699 76.0358 157.747 76.0883 157.779L76.8129 158.198C76.8608 158.198 76.8967 158.198 76.9267 158.198C76.9437 158.178 76.9567 158.156 76.9649 158.131C76.9732 158.106 76.9764 158.08 76.9746 158.054V157.863C77.0625 158.076 77.1772 158.277 77.3159 158.462C77.4643 158.652 77.6497 158.811 77.8609 158.929C77.9942 159.014 78.1463 159.065 78.3041 159.078C78.4211 159.081 78.5355 159.043 78.6275 158.971C78.7202 158.879 78.7882 158.766 78.8251 158.641C78.8772 158.481 78.9055 158.313 78.9089 158.144ZM77.5854 157.587C77.4953 157.535 77.416 157.466 77.3519 157.384C77.2744 157.295 77.2099 157.197 77.1602 157.09C77.1065 156.981 77.0625 156.866 77.0285 156.749C77.0001 156.629 76.9861 156.507 76.9866 156.384L77.5195 156.821C77.6177 156.905 77.7026 157.004 77.7711 157.114C77.831 157.216 77.864 157.331 77.8669 157.45C77.8669 157.557 77.8669 157.623 77.795 157.641C77.7574 157.648 77.7185 157.647 77.6813 157.638C77.644 157.629 77.6093 157.611 77.5794 157.587H77.5854Z" fill="#455A64"/>
<path d="M72.9197 151.366C72.9046 151.353 72.8855 151.346 72.8658 151.346C72.8461 151.346 72.827 151.353 72.8119 151.366C72.7759 151.366 72.764 151.437 72.764 151.503V152.407C72.762 152.475 72.7786 152.541 72.8119 152.599C72.833 152.655 72.8706 152.703 72.9197 152.737L73.4467 153.042C73.6302 153.163 73.777 153.332 73.8711 153.53C73.9651 153.729 74.0026 153.949 73.9797 154.168V156.36C73.9791 156.428 73.9934 156.495 74.0216 156.557C74.0466 156.612 74.0859 156.66 74.1354 156.695L74.866 157.114C74.8811 157.127 74.9002 157.134 74.9199 157.134C74.9396 157.134 74.9587 157.127 74.9738 157.114C74.9908 157.094 75.0038 157.072 75.0121 157.047C75.0203 157.022 75.0236 156.996 75.0217 156.97V152.815C75.0201 152.746 75.0037 152.679 74.9738 152.617C74.9527 152.563 74.9149 152.517 74.866 152.485L74.1953 152.096C74.1474 152.096 74.1114 152.096 74.0815 152.096C74.0644 152.116 74.0514 152.139 74.0432 152.163C74.035 152.188 74.0317 152.214 74.0336 152.24V152.473C73.9485 152.293 73.842 152.125 73.7162 151.97C73.5927 151.815 73.4401 151.685 73.267 151.587L72.9197 151.366Z" fill="#455A64"/>
<path d="M70.489 156.066C70.5023 156.125 70.5204 156.184 70.5429 156.24C70.5656 156.297 70.6054 156.345 70.6567 156.378L71.4113 156.815C71.4255 156.827 71.4435 156.834 71.4622 156.834C71.4809 156.834 71.499 156.827 71.5131 156.815C71.543 156.778 71.5579 156.731 71.555 156.683C71.555 156.683 71.555 156.641 71.555 156.617L71.1119 154.767L72.2737 151.276C72.2769 151.256 72.2769 151.236 72.2737 151.216C72.2734 151.156 72.2611 151.097 72.2377 151.042C72.2153 150.994 72.1801 150.952 72.1359 150.923L71.3814 150.485C71.3659 150.471 71.3455 150.463 71.3245 150.463C71.3034 150.463 71.2831 150.471 71.2676 150.485C71.2418 150.52 71.2216 150.558 71.2077 150.599L70.5669 152.545L69.9321 149.857C69.9193 149.797 69.8992 149.738 69.8722 149.683C69.8514 149.627 69.8138 149.579 69.7644 149.545L68.9978 149.108C68.9847 149.096 68.9676 149.09 68.9499 149.09C68.9322 149.09 68.9152 149.096 68.902 149.108C68.8864 149.126 68.8746 149.147 68.8674 149.17C68.8602 149.192 68.8577 149.216 68.8601 149.24C68.8571 149.262 68.8571 149.284 68.8601 149.306L70.489 156.066Z" fill="#455A64"/>
<path d="M52.014 168.408L51.493 169.144C51.4784 169.166 51.4567 169.182 51.4316 169.19C51.4065 169.197 51.3795 169.196 51.3553 169.186L50.4749 168.845C50.3372 168.791 50.2533 168.965 50.3312 169.138L50.8462 170.24C50.872 170.307 50.872 170.382 50.8462 170.45L50.5468 171.414C50.4989 171.569 50.6246 171.779 50.7564 171.773L51.5948 171.719C51.6264 171.719 51.6574 171.727 51.6847 171.743C51.712 171.759 51.7347 171.782 51.7505 171.809L52.4452 172.743C52.559 172.893 52.7147 172.851 52.7207 172.671V171.533C52.7182 171.503 52.7241 171.472 52.7378 171.445C52.7516 171.417 52.7726 171.394 52.7985 171.378L53.5232 170.994C53.637 170.935 53.613 170.695 53.4813 170.593L52.6429 169.941C52.589 169.893 52.5513 169.831 52.535 169.761L52.2895 168.563C52.2775 168.396 52.0979 168.294 52.014 168.408Z" fill="#F28F8F"/>
<path d="M46.9049 168.12C46.9914 167.528 47.2505 166.974 47.6499 166.527C48.0493 166.081 48.5713 165.763 49.1507 165.611C50.8276 165.186 52.0134 166.336 52.8817 167.294C53.1093 167.551 52.6182 167.647 52.4326 167.467C51.5223 166.587 49.7316 165.671 48.462 166.749C47.1924 167.827 47.5338 169.485 47.923 170.725C48.2942 171.895 49.0281 172.917 50.0186 173.643C51.0091 174.368 52.2048 174.76 53.4327 174.761C59.4814 174.623 54.2951 165.318 50.8216 164.659C50.5401 164.605 50.3964 164.216 50.7857 164.18C52.5823 164 53.6842 165.42 54.6544 166.497C55.7219 167.647 56.5125 169.026 56.9661 170.527C57.7626 173.306 55.5228 176.581 51.7978 175.36C48.5339 174.288 46.2521 171.276 46.9049 168.12Z" fill="#F28F8F"/>
<path d="M89.7433 201.013C89.8298 200.42 90.0889 199.866 90.4883 199.42C90.8877 198.974 91.4097 198.655 91.9891 198.504C93.666 198.079 94.8517 199.222 95.7201 200.186C95.9477 200.438 95.4566 200.534 95.271 200.36C94.3607 199.48 92.57 198.564 91.3004 199.641C90.0308 200.719 90.3722 202.378 90.7614 203.617C91.1326 204.788 91.8665 205.81 92.857 206.535C93.8475 207.261 95.0432 207.652 96.2711 207.653C102.32 207.516 97.1335 198.21 93.66 197.552C93.3785 197.498 93.2348 197.108 93.624 197.067C95.4207 196.893 96.5226 198.312 97.4928 199.39C98.5614 200.539 99.3523 201.917 99.8044 203.42C100.601 206.192 98.3612 209.474 94.6361 208.252C91.3723 207.18 89.0906 204.162 89.7433 201.013Z" fill="#F28F8F"/>
<path d="M85.9622 212.107L51.1507 232.102L1.31435 203.332L36.1258 183.338L85.9622 212.107Z" fill="#455A64"/>
<path d="M50.8319 230.906L84.6653 211.36C83.9724 209.372 84.0222 207.047 84.8147 204.385L51.1784 223.755C51.1784 223.755 50.6418 225.473 50.8319 230.906Z" fill="#F5F5F5"/>
<path d="M52.5368 221.575C51.7905 222.064 51.1693 222.721 50.7233 223.493C50.2774 224.266 50.0191 225.133 49.9693 226.023V231.219C49.9693 232.856 51.124 233.521 52.5368 232.706L85.9897 213.398V212.107L52.8968 231.124C52.041 231.613 51.3549 231.219 51.3549 230.234V225.419C51.3832 224.884 51.5376 224.363 51.8055 223.899C52.0735 223.436 52.4475 223.042 52.8968 222.75L85.9626 203.733V202.273L52.5368 221.575Z" fill="#263238"/>
<path d="M85.9622 202.273L36.1258 173.503L2.67963 192.805C1.93214 193.293 1.31011 193.95 0.864014 194.723C0.417915 195.496 0.160301 196.363 0.112068 197.254V202.456C0.078331 202.775 0.130455 203.096 0.263039 203.388C0.395622 203.679 0.603828 203.93 0.866028 204.113L50.6956 232.883C50.4357 232.697 50.2297 232.446 50.0984 232.155C49.9672 231.864 49.9154 231.543 49.9485 231.226V226.023C49.9962 225.132 50.2535 224.265 50.6997 223.492C51.1458 222.719 51.7681 222.062 52.516 221.575L85.9622 202.273Z" fill="#455A64"/>
<path d="M50.6963 223.49C50.2316 224.256 49.9719 225.128 49.9423 226.024V231.226C49.9093 231.544 49.961 231.864 50.0923 232.155C50.2235 232.446 50.4296 232.698 50.6895 232.883L0.859905 204.114C0.59771 203.93 0.389503 203.679 0.256916 203.388C0.124332 203.096 0.0721893 202.775 0.105927 202.456V197.254C0.135807 196.361 0.3955 195.491 0.859905 194.728L50.6963 223.49Z" fill="#37474F"/>
<path d="M74.7073 200.106L46.994 215.999L1.21272 189.572L28.926 173.68L74.7073 200.106Z" fill="#42CA90"/>
<path opacity="0.35" d="M74.7073 200.106L46.994 215.999L1.21272 189.572L28.926 173.68L74.7073 200.106Z" fill="black"/>
<path d="M46.682 214.79L73.4172 199.359C72.7153 197.367 72.7628 195.042 73.5598 192.384L46.9944 207.652C46.9944 207.652 46.4918 209.336 46.682 214.79Z" fill="#EBEBEB"/>
<path d="M46.682 214.79L73.4172 199.359C72.7153 197.367 72.7628 195.042 73.5598 192.384L46.9944 207.652C46.9944 207.652 46.4918 209.336 46.682 214.79Z" fill="#F5F5F5"/>
<path d="M48.3593 205.478C47.6107 205.965 46.9878 206.621 46.5415 207.395C46.0953 208.168 45.8384 209.036 45.7917 209.927V215.123C45.7917 216.759 46.9397 217.425 48.3593 216.603L74.7073 201.397V200.106L48.7125 215.048C47.8634 215.537 47.1774 215.136 47.1774 214.158V209.343C47.2056 208.808 47.36 208.287 47.628 207.823C47.896 207.359 48.2699 206.966 48.7193 206.674L74.6869 191.732V190.272L48.3593 205.478Z" fill="#42CA90"/>
<path opacity="0.25" d="M48.3593 205.478C47.6107 205.965 46.9878 206.621 46.5415 207.395C46.0953 208.168 45.8384 209.036 45.7917 209.927V215.123C45.7917 216.759 46.9397 217.425 48.3593 216.603L74.7073 201.397V200.106L48.7125 215.048C47.8634 215.537 47.1774 215.136 47.1774 214.158V209.343C47.2056 208.808 47.36 208.287 47.628 207.823C47.896 207.359 48.2699 206.966 48.7193 206.674L74.6869 191.732V190.272L48.3593 205.478Z" fill="black"/>
<path d="M74.7073 190.272L28.926 163.839L2.57796 179.045C1.83159 179.534 1.21042 180.191 0.764458 180.964C0.318504 181.737 0.0602341 182.603 0.0103989 183.494V188.696C-0.0233383 189.015 0.0287857 189.336 0.161369 189.628C0.293953 189.919 0.502159 190.17 0.764359 190.354L46.5456 216.787C46.2845 216.6 46.0772 216.348 45.9448 216.056C45.8124 215.764 45.7596 215.442 45.7917 215.123V209.92C45.8399 209.029 46.0975 208.162 46.5436 207.389C46.9897 206.616 47.6118 205.959 48.3592 205.472L74.7073 190.272Z" fill="#42CA90"/>
<path opacity="0.15" d="M46.5391 207.394C46.0796 208.159 45.8225 209.028 45.7919 209.92V215.123C45.7598 215.442 45.8126 215.764 45.945 216.056C46.0774 216.348 46.2847 216.6 46.5459 216.787L0.764614 190.354C0.502419 190.17 0.294212 189.919 0.161629 189.628C0.0290413 189.336 -0.0230827 189.015 0.0106583 188.696V183.494C0.0438385 182.602 0.303268 181.732 0.764614 180.968L46.5391 207.394Z" fill="black"/>
<path d="M66.6068 242.744V243.899C66.6166 244.098 66.6735 244.291 66.7727 244.463C66.8719 244.636 67.0106 244.782 67.1774 244.891L131.258 281.885C131.435 281.972 131.63 282.017 131.828 282.017C132.026 282.017 132.221 281.972 132.399 281.885L178.302 255.397C178.469 255.289 178.608 255.143 178.707 254.97C178.806 254.798 178.863 254.604 178.873 254.406V253.258C178.863 253.059 178.806 252.866 178.707 252.693C178.608 252.521 178.469 252.375 178.302 252.266L114.222 215.272C114.045 215.182 113.85 215.134 113.651 215.134C113.453 215.134 113.257 215.182 113.081 215.272L67.1774 241.76C67.0111 241.867 66.8727 242.012 66.7735 242.183C66.6743 242.354 66.6172 242.547 66.6068 242.744Z" fill="#42CA90"/>
<path opacity="0.4" d="M178.397 252.307C178.628 252.49 178.608 252.748 178.316 252.911L132.412 279.399C132.238 279.495 132.04 279.542 131.842 279.535V282.048C132.04 282.05 132.236 282.003 132.412 281.912L178.316 255.424C178.482 255.316 178.621 255.17 178.72 254.997C178.82 254.825 178.876 254.631 178.886 254.433V253.285C178.883 253.096 178.837 252.91 178.752 252.741C178.668 252.571 178.546 252.423 178.397 252.307Z" fill="white"/>
<path opacity="0.15" d="M67.0823 241.827L67.0347 241.868L66.9532 241.95C66.8018 242.125 66.7029 242.339 66.6679 242.568C66.6615 242.613 66.6615 242.658 66.6679 242.704V243.858C66.6804 244.056 66.7384 244.249 66.8373 244.421C66.9363 244.593 67.0736 244.739 67.2385 244.85L131.258 281.885C131.434 281.976 131.63 282.023 131.828 282.021V279.548C131.629 279.558 131.431 279.511 131.258 279.413L67.1706 242.418C67.0758 242.371 67.0011 242.292 66.96 242.194C66.9397 242.141 66.9353 242.083 66.9474 242.028C66.9595 241.972 66.9875 241.922 67.0279 241.882C67.0424 241.86 67.0609 241.842 67.0823 241.827Z" fill="black"/>
<path d="M83.9816 225.493C83.9816 225.066 84.2397 224.638 84.9326 224.237C85.5555 223.888 86.2563 223.701 86.9703 223.694H87.1469C88.9333 223.694 90.7945 224.522 92.3771 224.753H92.445C94.6662 225.059 95.8413 224.366 96.9281 224.257C97.1046 224.248 97.2814 224.248 97.4579 224.257C97.7024 224.257 97.9402 224.257 98.2051 224.257C99.1694 224.328 100.138 224.307 101.099 224.196C101.866 224.115 102.457 224.074 102.858 224.067H103.001C103.448 224.023 103.899 224.11 104.298 224.318L106.865 225.806V226.655L87.6292 237.766L85.0616 236.279C84.9153 236.212 84.7942 236.1 84.716 235.959C84.6378 235.819 84.6066 235.657 84.6269 235.498V234.655C84.6408 234.284 84.7118 233.918 84.8375 233.569C84.9031 233.36 84.953 233.146 84.9869 232.93C84.9458 232.731 84.9185 232.529 84.9054 232.326C84.9054 232.224 84.9054 231.647 84.9054 231.456C84.9051 231.355 84.9211 231.254 84.9529 231.158C85.0752 230.723 85.6798 230.268 85.8767 229.616C85.8546 229.537 85.8273 229.46 85.7952 229.385C85.3945 228.461 83.9545 227.348 83.9545 226.349C83.9816 226.22 83.9816 225.677 83.9816 225.493ZM87.9349 227.952C88.3691 228.2 88.8386 228.381 89.3273 228.489C90.1961 228.728 91.1213 228.656 91.9424 228.285C92.1337 228.179 92.2931 228.025 92.4043 227.837C92.1658 227.405 91.8039 227.055 91.365 226.831C90.3008 226.218 89.0443 226.029 87.8465 226.302C87.678 226.346 87.516 226.413 87.3643 226.499C87.173 226.604 87.0135 226.759 86.9024 226.947C87.1288 227.375 87.4792 227.726 87.9077 227.952H87.9349Z" fill="#263238"/>
<path d="M104.298 224.319L106.865 225.806L87.6292 236.91L85.0616 235.43C84.7356 235.24 84.3824 234.982 84.8375 233.569C85.2926 232.156 84.7492 231.803 84.9529 231.158C85.1567 230.513 86.359 229.833 85.7952 228.529C85.2314 227.225 82.5552 225.589 84.9054 224.23C85.5283 223.881 86.2291 223.694 86.9431 223.687H87.1197C88.9062 223.687 90.7673 224.516 92.35 224.747H92.4179C94.639 225.052 95.8141 224.359 96.9009 224.251C97.0774 224.241 97.2542 224.241 97.4307 224.251C97.6752 224.251 97.913 224.251 98.1779 224.251C99.1422 224.321 100.111 224.3 101.071 224.19C101.839 224.108 102.43 224.067 102.831 224.061H103.001C103.449 224.019 103.9 224.108 104.298 224.319ZM88.4307 234.275C88.2734 234.179 88.0959 234.12 87.912 234.103C87.7282 234.087 87.543 234.113 87.3711 234.18C87.1197 234.33 87.1945 234.601 87.5273 234.798C87.6845 234.892 87.861 234.949 88.0435 234.964C88.226 234.979 88.4095 234.953 88.5801 234.886C88.8382 234.744 88.7363 234.506 88.4307 234.282V234.275ZM91.3379 225.969C90.2725 225.359 89.0172 225.17 87.8194 225.439C87.6508 225.484 87.4888 225.55 87.3371 225.636C86.393 226.186 86.6579 227.219 87.9077 227.952C88.3436 228.196 88.8127 228.374 89.3001 228.482C90.1689 228.721 91.0941 228.649 91.9152 228.278C92.8594 227.714 92.6013 226.703 91.3379 225.976V225.969ZM103.272 225.704C103.115 225.61 102.939 225.553 102.756 225.538C102.574 225.523 102.39 225.549 102.219 225.616C101.961 225.765 102.029 226.037 102.369 226.227C102.527 226.323 102.704 226.381 102.888 226.396C103.072 226.412 103.257 226.384 103.428 226.315C103.68 226.18 103.605 225.901 103.272 225.711V225.704Z" fill="#37474F"/>
<path d="M130.048 275.385L169.995 252.327C170.095 252.263 170.179 252.176 170.239 252.074C170.299 251.971 170.334 251.855 170.341 251.737V251.288C170.334 251.169 170.299 251.054 170.239 250.951C170.179 250.849 170.095 250.762 169.995 250.697L117.217 220.244C117.112 220.191 116.995 220.164 116.877 220.164C116.76 220.164 116.643 220.191 116.538 220.244L76.5913 243.301C76.4921 243.368 76.4098 243.456 76.3508 243.56C76.2919 243.664 76.2579 243.78 76.2517 243.899V244.34C76.259 244.458 76.2934 244.573 76.3523 244.676C76.4112 244.778 76.493 244.866 76.5913 244.931L129.369 275.399C129.474 275.453 129.592 275.479 129.71 275.477C129.829 275.475 129.945 275.443 130.048 275.385Z" fill="#F5F5F5"/>
<path d="M170.083 250.759C170.178 250.867 170.151 251.003 169.995 251.091L130.048 274.183C129.944 274.239 129.827 274.267 129.709 274.265V275.494C129.827 275.499 129.945 275.471 130.048 275.412L169.995 252.355C170.095 252.291 170.178 252.204 170.237 252.101C170.297 251.998 170.33 251.882 170.334 251.764V251.315C170.325 251.104 170.235 250.905 170.083 250.759Z" fill="#FAFAFA"/>
<path d="M76.5103 243.335L76.4152 243.43L76.3744 243.485C76.3374 243.543 76.3055 243.604 76.2794 243.668C76.2649 243.708 76.2535 243.749 76.2454 243.79C76.242 243.82 76.242 243.849 76.2454 243.879V244.32C76.2511 244.438 76.2848 244.554 76.3439 244.656C76.4029 244.759 76.4856 244.846 76.585 244.911L129.363 275.378C129.469 275.436 129.588 275.464 129.709 275.46V274.237C129.589 274.239 129.469 274.211 129.363 274.156L76.585 243.688C76.4288 243.593 76.4016 243.451 76.5103 243.335Z" fill="#E0E0E0"/>
<path d="M120.538 227.083L114.12 230.737L120.538 234.438L126.957 230.791L120.538 227.083Z" fill="#FAFAFA"/>
<path d="M120.539 227.388L126.428 230.784L120.539 234.133L114.65 230.737L120.539 227.388ZM127.182 230.92C127.192 230.878 127.192 230.833 127.182 230.791C127.182 230.745 127.171 230.699 127.148 230.658C127.126 230.618 127.093 230.584 127.053 230.56L120.634 226.859C120.595 226.835 120.55 226.823 120.505 226.823C120.459 226.823 120.415 226.835 120.376 226.859L113.957 230.506C113.918 230.53 113.885 230.564 113.863 230.605C113.84 230.645 113.828 230.69 113.828 230.737C113.828 230.783 113.84 230.828 113.863 230.869C113.885 230.909 113.918 230.943 113.957 230.968L120.376 234.669C120.415 234.692 120.459 234.705 120.505 234.705C120.55 234.705 120.595 234.692 120.634 234.669L127.053 231.015C127.106 231.001 127.153 230.967 127.182 230.92Z" fill="#455A64"/>
<path d="M111.151 232.72L111.613 232.985C111.669 233.003 111.718 233.038 111.753 233.086C111.787 233.134 111.806 233.191 111.806 233.25C111.806 233.309 111.787 233.366 111.753 233.413C111.718 233.461 111.669 233.496 111.613 233.515L89.0012 246.568C88.8598 246.639 88.704 246.675 88.5461 246.675C88.3881 246.675 88.2323 246.639 88.091 246.568L87.6223 246.297C87.5687 246.277 87.5224 246.241 87.4897 246.195C87.4571 246.148 87.4395 246.092 87.4395 246.035C87.4395 245.978 87.4571 245.922 87.4897 245.876C87.5224 245.829 87.5687 245.793 87.6223 245.774L110.234 232.72C110.376 232.646 110.533 232.608 110.693 232.608C110.853 232.608 111.01 232.646 111.151 232.72Z" fill="#E0E0E0"/>
<path d="M113.943 234.336L114.405 234.601C114.657 234.751 114.657 234.988 114.405 235.131L91.7999 248.185C91.6572 248.255 91.5004 248.291 91.3414 248.291C91.1824 248.291 91.0256 248.255 90.8829 248.185L90.421 247.913C90.3675 247.893 90.3212 247.858 90.2885 247.811C90.2558 247.764 90.2383 247.708 90.2383 247.651C90.2383 247.594 90.2558 247.539 90.2885 247.492C90.3212 247.445 90.3675 247.41 90.421 247.39L113.033 234.336C113.174 234.266 113.33 234.229 113.488 234.229C113.646 234.229 113.802 234.266 113.943 234.336Z" fill="#E0E0E0"/>
<path d="M116.728 235.946L117.197 236.211C117.253 236.229 117.302 236.264 117.336 236.312C117.371 236.36 117.39 236.417 117.39 236.476C117.39 236.535 117.371 236.592 117.336 236.64C117.302 236.687 117.253 236.723 117.197 236.741L94.5849 249.794C94.4436 249.865 94.2878 249.902 94.1298 249.902C93.9719 249.902 93.8161 249.865 93.6747 249.794L93.2061 249.523C93.1525 249.503 93.1062 249.467 93.0735 249.421C93.0409 249.374 93.0233 249.318 93.0233 249.261C93.0233 249.204 93.0409 249.148 93.0735 249.102C93.1062 249.055 93.1525 249.019 93.2061 249L115.818 235.946C115.959 235.872 116.115 235.834 116.273 235.834C116.432 235.834 116.588 235.872 116.728 235.946Z" fill="#E0E0E0"/>
<path d="M122.176 231.83L121.68 229.833L120.192 229.711L120.471 230.845L112.286 230.173L112.496 231.029L122.176 231.83Z" fill="#42CA90"/>
<path d="M132.304 233.875L125.885 237.528L132.304 241.23L138.716 237.576L132.304 233.875Z" fill="#FAFAFA"/>
<path d="M132.303 234.18L138.186 237.576L132.303 240.924L126.414 237.528L132.303 234.18ZM138.946 237.712C138.968 237.672 138.98 237.628 138.98 237.583C138.981 237.536 138.969 237.491 138.947 237.45C138.924 237.41 138.891 237.376 138.851 237.352L132.432 233.65C132.393 233.627 132.349 233.615 132.303 233.615C132.258 233.615 132.213 233.627 132.174 233.65L125.755 237.298C125.715 237.321 125.681 237.355 125.657 237.395C125.633 237.436 125.62 237.481 125.62 237.528C125.619 237.575 125.632 237.62 125.656 237.66C125.68 237.699 125.714 237.731 125.755 237.753L132.168 241.461C132.208 241.484 132.254 241.496 132.3 241.496C132.347 241.496 132.392 241.484 132.432 241.461L138.845 237.807C138.886 237.785 138.921 237.752 138.946 237.712Z" fill="#455A64"/>
<path d="M122.903 239.512L123.365 239.776C123.623 239.919 123.623 240.157 123.365 240.306L100.759 253.36C100.618 253.43 100.462 253.467 100.304 253.467C100.146 253.467 99.9903 253.43 99.849 253.36L99.3803 253.088C99.3267 253.068 99.2805 253.033 99.2478 252.986C99.2151 252.939 99.1976 252.884 99.1976 252.827C99.1976 252.77 99.2151 252.714 99.2478 252.667C99.2805 252.62 99.3267 252.585 99.3803 252.565L122.02 239.512C122.156 239.442 122.308 239.406 122.461 239.406C122.615 239.406 122.766 239.442 122.903 239.512Z" fill="#E0E0E0"/>
<path d="M125.708 241.128L126.17 241.393C126.226 241.411 126.275 241.446 126.309 241.494C126.344 241.542 126.363 241.599 126.363 241.658C126.363 241.717 126.344 241.774 126.309 241.821C126.275 241.869 126.226 241.904 126.17 241.923L103.558 254.976C103.417 255.047 103.261 255.083 103.103 255.083C102.945 255.083 102.789 255.047 102.648 254.976L102.186 254.705C101.928 254.562 101.928 254.324 102.186 254.182L124.791 241.128C124.933 241.054 125.09 241.016 125.25 241.016C125.409 241.016 125.567 241.054 125.708 241.128Z" fill="#E0E0E0"/>
<path d="M128.493 242.738L128.955 243.002C129.011 243.021 129.059 243.056 129.094 243.104C129.129 243.151 129.147 243.208 129.147 243.267C129.147 243.326 129.129 243.383 129.094 243.431C129.059 243.479 129.011 243.514 128.955 243.532L106.349 256.586C106.207 256.656 106.05 256.692 105.891 256.692C105.732 256.692 105.575 256.656 105.432 256.586L104.97 256.314C104.917 256.294 104.871 256.259 104.838 256.212C104.805 256.165 104.788 256.11 104.788 256.053C104.788 255.996 104.805 255.94 104.838 255.893C104.871 255.846 104.917 255.811 104.97 255.791L127.583 242.738C127.723 242.664 127.879 242.625 128.038 242.625C128.196 242.625 128.352 242.664 128.493 242.738Z" fill="#E0E0E0"/>
<path d="M133.934 238.622L133.438 236.625L131.95 236.503L132.235 237.637L124.044 236.965L124.261 237.821L133.934 238.622Z" fill="#42CA90"/>
<path d="M144.061 240.972L149.95 244.367L144.061 247.716L138.179 244.32L144.061 240.972ZM150.704 244.503C150.731 244.463 150.745 244.416 150.745 244.367C150.745 244.321 150.732 244.276 150.708 244.237C150.684 244.197 150.65 244.165 150.609 244.143L144.197 240.435C144.156 240.413 144.111 240.402 144.065 240.402C144.018 240.402 143.973 240.413 143.932 240.435L137.52 244.089C137.479 244.112 137.446 244.146 137.422 244.187C137.398 244.227 137.385 244.273 137.384 244.32C137.385 244.365 137.397 244.41 137.42 244.449C137.442 244.488 137.474 244.521 137.513 244.544L143.932 248.246C143.973 248.268 144.018 248.279 144.065 248.279C144.111 248.279 144.156 248.268 144.197 248.246L150.609 244.592C150.648 244.571 150.681 244.54 150.704 244.503Z" fill="#455A64"/>
<path d="M134.667 246.296L135.129 246.568C135.183 246.588 135.229 246.623 135.262 246.67C135.294 246.717 135.312 246.773 135.312 246.83C135.312 246.887 135.294 246.942 135.262 246.989C135.229 247.036 135.183 247.071 135.129 247.091L112.51 260.145C112.37 260.218 112.214 260.257 112.055 260.257C111.897 260.257 111.741 260.218 111.6 260.145L111.138 259.88C111.082 259.862 111.034 259.826 110.999 259.779C110.964 259.731 110.946 259.674 110.946 259.615C110.946 259.556 110.964 259.499 110.999 259.451C111.034 259.404 111.082 259.368 111.138 259.35L133.75 246.296C133.893 246.225 134.05 246.188 134.209 246.188C134.368 246.188 134.525 246.225 134.667 246.296Z" fill="#E0E0E0"/>
<path d="M137.466 247.92L137.934 248.185C137.988 248.204 138.034 248.24 138.067 248.287C138.1 248.333 138.117 248.389 138.117 248.446C138.117 248.503 138.1 248.559 138.067 248.606C138.034 248.652 137.988 248.688 137.934 248.708L115.322 261.768C115.181 261.838 115.025 261.875 114.867 261.875C114.709 261.875 114.553 261.838 114.412 261.768L113.943 261.496C113.89 261.477 113.844 261.441 113.811 261.394C113.778 261.348 113.761 261.292 113.761 261.235C113.761 261.178 113.778 261.122 113.811 261.075C113.844 261.029 113.89 260.993 113.943 260.973L136.556 247.92C136.696 247.846 136.852 247.807 137.011 247.807C137.169 247.807 137.325 247.846 137.466 247.92Z" fill="#E0E0E0"/>
<path d="M140.257 249.522L140.719 249.794C140.773 249.814 140.819 249.849 140.852 249.896C140.885 249.943 140.902 249.998 140.902 250.055C140.902 250.113 140.885 250.168 140.852 250.215C140.819 250.262 140.773 250.297 140.719 250.317L118.107 263.371C117.967 263.444 117.811 263.483 117.652 263.483C117.494 263.483 117.337 263.444 117.197 263.371L116.728 263.106C116.672 263.088 116.624 263.052 116.589 263.005C116.554 262.957 116.536 262.9 116.536 262.841C116.536 262.782 116.554 262.725 116.589 262.677C116.624 262.629 116.672 262.594 116.728 262.576L139.341 249.522C139.483 249.452 139.64 249.416 139.799 249.416C139.958 249.416 140.115 249.452 140.257 249.522Z" fill="#E0E0E0"/>
<path d="M145.855 245.685L145.359 243.688L143.871 243.566L144.15 244.707L135.965 244.028L136.175 244.891L145.855 245.685Z" fill="#42CA90"/>
<path d="M155.826 247.757L161.715 251.152L155.826 254.501L149.937 251.105L155.826 247.757ZM162.469 251.288C162.48 251.246 162.48 251.202 162.469 251.159C162.47 251.113 162.458 251.067 162.435 251.026C162.413 250.986 162.38 250.952 162.34 250.928L155.921 247.227C155.882 247.203 155.838 247.191 155.792 247.191C155.747 247.191 155.702 247.203 155.663 247.227L149.244 250.881C149.204 250.903 149.171 250.935 149.149 250.975C149.126 251.014 149.114 251.059 149.115 251.105C149.114 251.151 149.126 251.197 149.149 251.238C149.171 251.278 149.204 251.312 149.244 251.336L155.663 255.037C155.702 255.061 155.747 255.073 155.792 255.073C155.838 255.073 155.882 255.061 155.921 255.037L162.34 251.39C162.393 251.37 162.438 251.335 162.469 251.288Z" fill="#455A64"/>
<path d="M146.425 253.088L146.893 253.36C146.947 253.379 146.993 253.415 147.026 253.462C147.059 253.508 147.076 253.564 147.076 253.621C147.076 253.678 147.059 253.734 147.026 253.781C146.993 253.827 146.947 253.863 146.893 253.883L124.281 266.936C124.141 267.01 123.985 267.048 123.826 267.048C123.668 267.048 123.511 267.01 123.371 266.936L122.902 266.671C122.651 266.522 122.651 266.284 122.902 266.142L145.515 253.088C145.656 253.017 145.812 252.981 145.97 252.981C146.128 252.981 146.283 253.017 146.425 253.088Z" fill="#E0E0E0"/>
<path d="M149.23 254.704L149.692 254.976C149.746 254.996 149.792 255.031 149.825 255.078C149.857 255.125 149.875 255.181 149.875 255.238C149.875 255.295 149.857 255.35 149.825 255.397C149.792 255.444 149.746 255.479 149.692 255.499L127.087 268.553C126.945 268.626 126.788 268.665 126.628 268.665C126.469 268.665 126.311 268.626 126.17 268.553L125.708 268.288C125.652 268.27 125.603 268.234 125.568 268.187C125.534 268.139 125.515 268.082 125.515 268.023C125.515 267.964 125.534 267.907 125.568 267.859C125.603 267.812 125.652 267.776 125.708 267.758L148.32 254.704C148.461 254.634 148.617 254.597 148.775 254.597C148.933 254.597 149.089 254.634 149.23 254.704Z" fill="#E0E0E0"/>
<path d="M152.015 256.314L152.484 256.586C152.537 256.605 152.584 256.641 152.616 256.688C152.649 256.734 152.667 256.79 152.667 256.847C152.667 256.904 152.649 256.96 152.616 257.007C152.584 257.053 152.537 257.089 152.484 257.109L129.872 270.162C129.731 270.236 129.575 270.275 129.417 270.275C129.258 270.275 129.102 270.236 128.961 270.162L128.493 269.897C128.437 269.879 128.388 269.844 128.353 269.796C128.319 269.749 128.3 269.691 128.3 269.633C128.3 269.574 128.319 269.516 128.353 269.469C128.388 269.421 128.437 269.386 128.493 269.368L151.105 256.314C151.246 256.243 151.402 256.207 151.56 256.207C151.718 256.207 151.874 256.243 152.015 256.314Z" fill="#E0E0E0"/>
<path d="M157.769 252.755L157.273 250.758L155.785 250.636L156.07 251.77L147.879 251.098L148.096 251.954L157.769 252.755Z" fill="#42CA90"/>
<path d="M91.1004 236.068L93.9465 233.827C94.0066 233.754 94.061 233.677 94.1095 233.596L94.028 233.515L93.3487 232.869L91.1412 230.832C91.0762 230.781 91.0236 230.716 90.9871 230.642C90.9507 230.568 90.9314 230.487 90.9306 230.404V229.548C90.944 229.334 91.0331 229.132 91.1819 228.978C91.4314 228.661 91.5909 228.284 91.6438 227.884C91.5846 227.501 91.4008 227.148 91.1208 226.879C90.7995 226.621 90.5536 226.281 90.4089 225.895C90.2643 225.509 90.2263 225.091 90.2989 224.685C90.2125 224.163 90.3068 223.627 90.5661 223.165C90.8254 222.703 91.2342 222.344 91.7253 222.145C92.3997 221.805 93.1437 221.626 93.8989 221.622H93.994C95.1903 221.598 96.3543 222.011 97.268 222.784C97.8913 223.239 98.6256 223.518 99.394 223.592C100.042 223.697 100.702 223.697 101.35 223.592C101.499 223.567 101.648 223.552 101.799 223.544H101.846C102.009 223.527 102.173 223.544 102.329 223.594C102.485 223.644 102.628 223.727 102.75 223.836L104.651 225.602L105.331 226.247H105.365C105.593 226.413 105.858 226.521 106.138 226.561C106.417 226.601 106.702 226.573 106.968 226.478C108.014 226.037 108.51 225.799 110.214 225.018C110.709 224.803 111.244 224.694 111.783 224.699C112.583 224.711 113.369 224.909 114.079 225.276V226.132L90.5434 239.715C90.2738 239.381 90.1169 238.97 90.0951 238.54V237.766C90.1305 237.427 90.2386 237.1 90.4121 236.807C90.5856 236.514 90.8204 236.262 91.1004 236.068ZM95.957 224.203C95.5331 223.858 95.0278 223.626 94.4892 223.531C93.9507 223.436 93.3967 223.48 92.8801 223.66C92.7679 223.699 92.659 223.747 92.554 223.802C92.1773 223.982 91.8799 224.294 91.7185 224.679C91.8101 224.94 91.9667 225.174 92.1736 225.358C92.4484 225.601 92.7696 225.786 93.1178 225.901C93.9297 226.177 94.8175 226.123 95.5902 225.752C95.7753 225.759 95.9571 225.701 96.1047 225.589C96.2522 225.477 96.3565 225.318 96.3997 225.138C96.4429 224.958 96.4225 224.768 96.3418 224.602C96.2611 224.435 96.1251 224.301 95.957 224.224V224.203Z" fill="#37474F"/>
<path d="M114.113 225.365L90.5771 238.948C89.9386 238.079 89.8979 237.175 91.1002 236.068L93.9462 233.827C93.9462 233.827 94.5643 233.148 94.0277 232.659L93.3485 232.014L91.1409 229.976C91.1409 229.976 90.6383 229.623 91.1817 228.978C91.7251 228.332 91.9832 226.811 91.1205 226.023C89.7621 224.774 90.0269 223.042 91.7251 222.145C92.3994 221.805 93.1434 221.626 93.8987 221.622H93.9937C95.19 221.598 96.354 222.011 97.2677 222.784C97.891 223.239 98.6254 223.518 99.3938 223.592C100.042 223.697 100.702 223.697 101.35 223.592C101.498 223.567 101.648 223.552 101.798 223.544H101.846C102.009 223.527 102.173 223.544 102.329 223.594C102.484 223.644 102.628 223.727 102.749 223.836L104.651 225.602L105.33 226.247H105.364C105.593 226.413 105.858 226.521 106.137 226.561C106.417 226.601 106.701 226.573 106.967 226.478C108.013 226.037 108.509 225.799 110.214 225.018C110.709 224.803 111.244 224.694 111.783 224.699C112.602 224.733 113.4 224.961 114.113 225.365ZM92.8798 222.804C92.7675 222.846 92.6585 222.896 92.5537 222.953C92.317 223.032 92.1062 223.173 91.9446 223.363C91.7829 223.553 91.6767 223.783 91.6374 224.03C91.5981 224.276 91.6273 224.528 91.7219 224.759C91.8164 224.989 91.9726 225.19 92.1734 225.337C92.4482 225.58 92.7694 225.765 93.1175 225.881C93.9295 226.157 94.8172 226.103 95.59 225.731C95.8258 225.652 96.0353 225.509 96.1955 225.318C96.3556 225.128 96.4604 224.897 96.4982 224.651C96.5361 224.405 96.5056 224.153 96.4101 223.923C96.3146 223.693 96.1578 223.494 95.9568 223.347C95.5328 223.002 95.0275 222.771 94.489 222.676C93.9504 222.58 93.3964 222.625 92.8798 222.804Z" fill="#455A64"/>
<path d="M98.5265 251.701L99.2057 252.095L99.9869 252.578L128.25 269.72C128.019 269.163 128.25 268.056 128.828 267.003C129.507 265.774 130.553 264.823 131.287 264.803L103.234 247.783L101.733 246.873C102.67 247.525 99.5046 252.333 98.5265 251.701Z" fill="#42CA90"/>
<path d="M101.828 246.941C101.413 246.669 100.666 247.436 99.9463 248.421C98.9818 249.718 98.1802 251.457 98.7304 251.817L99.8036 252.496L100.191 252.72C99.6406 252.367 100.442 250.628 101.4 249.324C102.079 248.38 102.881 247.667 103.302 247.857L101.828 246.941Z" fill="#EBEBEB"/>
<path d="M102.99 247.633C102.025 247.008 98.8665 251.844 99.8242 252.476L101.278 253.359C100.32 252.734 103.479 247.891 104.443 248.523L102.99 247.633Z" fill="#42CA90"/>
<path d="M105.828 249.365L104.388 248.489C103.451 247.864 100.354 252.509 101.148 253.243C101.161 253.26 101.177 253.274 101.196 253.284L102.649 254.153C101.705 253.542 104.877 248.733 105.828 249.365Z" fill="#EBEBEB"/>
<path d="M131.287 264.802V264.809L131.28 264.802H131.287L135.552 269.883H135.545L131.287 264.802Z" fill="#FAFAFA"/>
<path d="M135.552 269.883L136.584 271.112L135.552 269.883Z" fill="#E0E0E0"/>
<path d="M128.997 266.079C129.262 265.713 129.603 265.409 129.997 265.188C130.391 264.968 130.829 264.836 131.28 264.802L135.545 269.883C135.368 269.904 135.204 269.988 135.084 270.12C134.561 270.8 134.601 271.132 134.601 271.132L128.244 269.72C127.639 268.755 128.094 267.18 128.997 266.079Z" fill="#FFA8A7"/>
<path d="M135.09 270.113C135.143 270.04 135.213 269.981 135.293 269.94C135.373 269.898 135.462 269.877 135.552 269.876L136.564 271.112C136.587 271.135 136.605 271.162 136.618 271.191C136.63 271.221 136.636 271.253 136.636 271.285C136.636 271.317 136.63 271.349 136.618 271.379C136.605 271.408 136.587 271.435 136.564 271.458C136.535 271.487 136.499 271.507 136.46 271.518C136.421 271.529 136.38 271.529 136.34 271.519L134.615 271.132C134.615 271.132 134.527 270.793 135.09 270.113Z" fill="#37474F"/>
<path d="M92.8277 248.224L98.5266 251.708C98.5579 251.728 98.5924 251.741 98.6284 251.749C98.2413 251.28 99.002 249.657 99.919 248.421C100.598 247.518 101.366 246.825 101.801 246.94L95.8367 243.307C94.5326 242.363 92.7461 244.821 92.3658 246.601C92.2692 246.886 92.2617 247.194 92.3442 247.484C92.4267 247.774 92.5953 248.032 92.8277 248.224Z" fill="#F28F8F"/>
<path opacity="0.15" d="M92.8275 248.224C92.5998 248.029 92.4365 247.769 92.3589 247.48C92.2813 247.19 92.2931 246.884 92.3927 246.601C92.3927 246.519 92.4335 246.431 92.4607 246.343L128.08 267.852L136.564 271.472C136.535 271.5 136.499 271.521 136.46 271.532C136.421 271.542 136.38 271.543 136.34 271.533L134.615 271.146L128.257 269.733L92.8275 248.224Z" fill="black"/>
</g>
<defs>
<clipPath id="clip0_1_993">
<rect width="257.242" height="208.244" fill="white" transform="matrix(-1 0 0 1 257.242 74.2634)"/>
</clipPath>
</defs>
</svg>
