<svg width="1152" height="700" viewBox="0 0 1152 700" fill="none" xmlns="http://www.w3.org/2000/svg">
<rect width="1152" height="700" fill="#1C1D22"/>
<path opacity="0.92" d="M81.2995 178.613L82.3423 181.741C82.6899 182.784 83.472 183.566 84.4279 183.827L87.5562 184.87C87.9038 184.957 87.9038 185.478 87.5562 185.652L84.4279 186.695C83.3851 187.042 82.603 187.824 82.3423 188.78L81.2995 191.908C81.2126 192.256 80.6043 192.256 80.5174 191.908L79.4746 188.78C79.127 187.737 78.3449 186.955 77.389 186.695L74.2607 185.652C73.9131 185.565 73.9131 185.043 74.2607 184.87L77.389 183.827C78.4318 183.479 79.2139 182.697 79.4746 181.741L80.5174 178.613C80.6912 178.265 81.2126 178.265 81.2995 178.613Z" fill="#F5F7F9"/>
<path opacity="0.47" d="M165.903 163.408L166.49 165.121C166.657 165.634 167.076 166.063 167.662 166.234L169.337 166.833C169.504 166.919 169.504 167.176 169.337 167.262L167.662 167.861C167.159 168.032 166.657 168.461 166.49 168.974L165.903 170.687C165.82 170.859 165.568 170.859 165.485 170.687L164.898 168.974C164.731 168.461 164.312 168.032 163.726 167.861L162.051 167.262C161.884 167.176 161.884 166.919 162.051 166.833L163.726 166.234C164.229 166.063 164.731 165.634 164.898 165.121L165.485 163.408C165.568 163.236 165.82 163.236 165.903 163.408Z" fill="#F5F7F9"/>
<path opacity="0.47" d="M551.312 55.2561C551.312 55.9626 550.536 56.5122 549.428 56.5122C548.43 56.5122 547.543 55.9626 547.543 55.2561C547.543 54.5495 548.319 54 549.428 54C550.425 54 551.312 54.628 551.312 55.2561Z" fill="#F5F7F9"/>
<path opacity="0.92" d="M372.711 88.1749L373.754 91.3033C374.101 92.3461 374.883 93.1282 375.839 93.3889L378.968 94.4317C379.315 94.5186 379.315 95.04 378.968 95.2138L375.839 96.2565C374.796 96.6041 374.014 97.3862 373.754 98.3421L372.711 101.47C372.624 101.818 372.016 101.818 371.929 101.47L370.886 98.3421C370.538 97.2993 369.756 96.5172 368.8 96.2565L365.672 95.2138C365.324 95.1269 365.324 94.6055 365.672 94.4317L368.8 93.3889C369.843 93.0413 370.625 92.2592 370.886 91.3033L371.929 88.1749C372.103 87.8273 372.624 87.8273 372.711 88.1749Z" fill="#F5F7F9"/>
<path opacity="0.47" d="M553.308 155.858L553.606 156.699C553.681 157.005 553.905 157.158 554.203 157.235L555.024 157.541C555.098 157.541 555.098 157.694 555.024 157.77L554.203 158.076C553.905 158.153 553.755 158.382 553.606 158.612L553.308 159.454C553.308 159.53 553.158 159.53 553.084 159.454L552.785 158.612C552.711 158.306 552.487 158.153 552.188 158.076L551.367 157.77C551.293 157.77 551.293 157.617 551.367 157.541L552.188 157.235C552.487 157.158 552.636 156.929 552.785 156.699L553.084 155.858C553.158 155.704 553.308 155.704 553.308 155.858Z" fill="#F5F7F9"/>
<path opacity="0.47" d="M457.315 72.9697L457.901 74.6826C458.068 75.1964 458.487 75.6246 459.073 75.7959L460.748 76.3954C460.916 76.481 460.916 76.738 460.748 76.8236L459.073 77.4231C458.571 77.5944 458.068 78.0226 457.901 78.5364L457.315 80.2493C457.231 80.4206 456.98 80.4206 456.896 80.2493L456.31 78.5364C456.142 78.0226 455.724 77.5944 455.138 77.4231L453.463 76.8236C453.295 76.738 453.295 76.481 453.463 76.3954L455.138 75.7959C455.64 75.6246 456.142 75.1964 456.31 74.6826L456.896 72.9697C456.98 72.7984 457.231 72.7984 457.315 72.9697Z" fill="#F5F7F9"/>
<path opacity="0.47" d="M259.9 145.694C259.9 146.401 259.383 146.95 258.644 146.95C257.979 146.95 257.388 146.401 257.388 145.694C257.388 144.988 257.905 144.438 258.644 144.438C259.309 144.438 259.9 145.066 259.9 145.694Z" fill="#F5F7F9"/>
<path opacity="0.47" d="M674.6 205.953C674.333 205.299 673.647 204.985 672.963 205.265C672.347 205.516 672.007 206.248 672.274 206.902C672.542 207.556 673.228 207.87 673.912 207.59C674.528 207.339 674.838 206.534 674.6 205.953Z" fill="#F5F7F9"/>
<path opacity="0.92" d="M505.979 240.627L505.782 237.635C505.716 236.638 506.105 235.711 506.82 235.163L509.095 233.211C509.357 233.018 509.178 232.579 508.826 232.552L505.835 232.75C504.838 232.816 503.911 232.426 503.363 231.711L501.41 229.437C501.217 229.174 500.706 229.383 500.752 229.705L500.949 232.697C501.015 233.694 500.626 234.621 499.911 235.169L497.636 237.121C497.373 237.314 497.553 237.753 497.905 237.78L500.896 237.582C501.893 237.516 502.82 237.906 503.368 238.621L505.321 240.895C505.586 241.128 506.025 240.949 505.979 240.627Z" fill="#F5F7F9"/>
<path opacity="0.47" d="M586.006 224.349L585.902 222.542C585.862 222.003 586.088 221.448 586.566 221.068L587.89 219.88C588.013 219.737 587.916 219.499 587.728 219.483L585.951 219.562C585.421 219.593 584.794 219.386 584.445 218.974L583.255 217.61C583.112 217.483 582.88 217.578 582.867 217.768L582.972 219.575C583.011 220.114 582.785 220.669 582.307 221.049L580.983 222.237C580.861 222.38 580.958 222.618 581.145 222.634L582.922 222.556C583.452 222.524 584.079 222.731 584.429 223.143L585.619 224.508C585.761 224.634 585.994 224.539 586.006 224.349Z" fill="#F5F7F9"/>
<path opacity="0.47" d="M962.246 179.407C961.979 178.753 961.053 178.537 960.027 178.956C959.103 179.333 958.49 180.177 958.757 180.831C959.024 181.485 959.95 181.701 960.976 181.282C961.9 180.905 962.483 179.988 962.246 179.407Z" fill="#F5F7F9"/>
<path opacity="0.92" d="M794.094 215.223L793.789 211.968C793.687 210.884 794.05 209.891 794.756 209.321L796.995 207.28C797.254 207.081 797.057 206.598 796.699 206.556L793.672 206.666C792.663 206.703 791.709 206.247 791.128 205.452L789.068 202.914C788.863 202.622 788.351 202.831 788.41 203.183L788.715 206.437C788.816 207.522 788.454 208.515 787.748 209.085L785.509 211.125C785.249 211.325 785.446 211.808 785.805 211.849L788.832 211.74C789.841 211.703 790.795 212.159 791.375 212.954L793.436 215.492C793.713 215.754 794.152 215.575 794.094 215.223Z" fill="#F5F7F9"/>
<path opacity="0.47" d="M928.44 91.3295L928.398 90.4375C928.351 90.126 928.501 89.8997 928.748 89.716L929.392 89.1224C929.461 89.0942 929.404 88.9525 929.306 88.9099L928.43 88.9368C928.125 88.9788 927.9 88.8227 927.675 88.6666L927.08 88.0003C927.052 87.9294 926.913 87.9858 926.873 88.0849L926.915 88.9769C926.962 89.2885 926.812 89.5147 926.565 89.6984L925.921 90.292C925.852 90.3202 925.909 90.4619 926.007 90.5045L926.883 90.4776C927.188 90.4356 927.413 90.5917 927.638 90.7478L928.233 91.4141C928.36 91.5276 928.498 91.4712 928.44 91.3295Z" fill="#F5F7F9"/>
<path opacity="0.47" d="M873.652 197.803L873.547 195.996C873.508 195.457 873.734 194.902 874.212 194.522L875.536 193.334C875.658 193.192 875.561 192.954 875.374 192.938L873.597 193.016C873.067 193.047 872.44 192.841 872.09 192.428L870.9 191.064C870.758 190.937 870.525 191.032 870.513 191.222L870.617 193.03C870.657 193.569 870.431 194.123 869.953 194.504L868.629 195.692C868.506 195.834 868.603 196.072 868.791 196.088L870.568 196.01C871.098 195.979 871.725 196.185 872.074 196.598L873.264 197.962C873.407 198.089 873.639 197.994 873.652 197.803Z" fill="#F5F7F9"/>
<path opacity="0.47" d="M788.072 125.735C787.79 126.384 787.097 126.682 786.419 126.387C785.809 126.122 785.486 125.383 785.767 124.735C786.049 124.087 786.742 123.789 787.42 124.083C788.03 124.348 788.322 125.159 788.072 125.735Z" fill="#F5F7F9"/>
<path opacity="0.92" d="M611.139 84.7809L610.85 88.0657C610.753 89.1606 611.159 90.1896 611.932 90.8095L614.386 93.0122C614.67 93.2303 614.462 93.7086 614.074 93.7295L610.789 93.4398C609.694 93.3432 608.665 93.7489 608.045 94.5219L605.843 96.9758C605.625 97.2601 605.067 97.0177 605.125 96.6643L605.415 93.3795C605.512 92.2845 605.106 91.2556 604.333 90.6357L601.879 88.433C601.595 88.2148 601.803 87.7366 602.191 87.7156L605.475 88.0054C606.57 88.102 607.599 87.6962 608.219 86.9233L610.422 84.4693C610.72 84.2197 611.198 84.4274 611.139 84.7809Z" fill="#F5F7F9"/>
<path opacity="0.47" d="M694.798 104.538L694.653 106.342C694.602 106.88 694.815 107.44 695.285 107.83L696.582 109.047C696.702 109.193 696.599 109.428 696.411 109.44L694.636 109.323C694.107 109.28 693.476 109.472 693.118 109.877L691.898 111.215C691.753 111.338 691.522 111.238 691.514 111.048L691.658 109.243C691.709 108.705 691.496 108.146 691.027 107.755L689.729 106.538C689.61 106.393 689.712 106.157 689.9 106.145L691.675 106.262C692.204 106.305 692.835 106.113 693.194 105.708L694.414 104.371C694.559 104.247 694.789 104.347 694.798 104.538Z" fill="#F5F7F9"/>
<path opacity="0.47" d="M1091.39 158.874C1091.11 159.522 1090.18 159.717 1089.16 159.276C1088.24 158.879 1087.65 158.021 1087.93 157.373C1088.21 156.725 1089.14 156.53 1090.16 156.972C1091.07 157.369 1091.64 158.298 1091.39 158.874Z" fill="#F5F7F9"/>
<path opacity="0.92" d="M914.459 117.919L914.169 121.203C914.072 122.298 914.478 123.327 915.251 123.947L917.705 126.15C917.989 126.368 917.782 126.846 917.394 126.867L914.109 126.578C913.014 126.481 911.985 126.887 911.365 127.66L909.162 130.114C908.944 130.398 908.386 130.155 908.445 129.802L908.735 126.517C908.831 125.422 908.426 124.393 907.653 123.773L905.199 121.571C904.914 121.353 905.122 120.874 905.51 120.853L908.795 121.143C909.89 121.24 910.919 120.834 911.539 120.061L913.742 117.607C914.039 117.357 914.518 117.565 914.459 117.919Z" fill="#F5F7F9"/>
<path opacity="0.47" d="M1053.14 251.944L1053.08 252.834C1053.03 253.145 1053.17 253.374 1053.42 253.564L1054.05 254.171C1054.12 254.201 1054.05 254.341 1053.96 254.382L1053.08 254.336C1052.78 254.287 1052.55 254.438 1052.32 254.589L1051.71 255.242C1051.68 255.312 1051.54 255.253 1051.51 255.153L1051.57 254.262C1051.62 253.952 1051.48 253.722 1051.23 253.533L1050.6 252.925C1050.53 252.895 1050.59 252.755 1050.69 252.715L1051.57 252.761C1051.87 252.81 1052.1 252.659 1052.33 252.507L1052.94 251.854C1053.07 251.744 1053.2 251.803 1053.14 251.944Z" fill="#F5F7F9"/>
<path opacity="0.47" d="M998.117 137.677L997.973 139.481C997.921 140.019 998.135 140.579 998.604 140.969L999.902 142.186C1000.02 142.332 999.919 142.567 999.731 142.579L997.956 142.462C997.427 142.419 996.796 142.611 996.437 143.016L995.217 144.354C995.072 144.477 994.842 144.377 994.833 144.187L994.978 142.382C995.029 141.844 994.816 141.285 994.346 140.894L993.049 139.677C992.929 139.532 993.032 139.296 993.219 139.284L994.994 139.401C995.523 139.445 996.155 139.252 996.513 138.847L997.733 137.51C997.878 137.386 998.109 137.486 998.117 137.677Z" fill="#F5F7F9"/>
</svg>
