<svg width="268" height="223" viewBox="0 0 268 223" fill="none" xmlns="http://www.w3.org/2000/svg">
<path fill-rule="evenodd" clip-rule="evenodd" d="M47.4661 18.7837L48.6026 20.5028C52.6428 19.1613 57.2485 20.6641 59.6653 24.3201L68.0612 37.0209C68.2152 37.2539 68.2325 37.66 67.8819 37.8895C67.6482 38.0425 67.4543 38.0025 67.2604 37.9625C67.2219 37.9042 67.1784 37.8701 67.1349 37.8359C67.0914 37.8018 67.0479 37.7677 67.0094 37.7094C65.7077 35.8046 63.7909 34.6042 61.7168 34.2027C60.4269 33.953 59.0762 34.0122 57.7748 34.4032C58.5082 35.7847 58.0615 37.6409 56.7369 38.508L55.5277 39.2996L61.1103 44.7437C61.6315 45.5322 61.645 46.5384 61.2371 47.3437L64.2738 51.9376C67.8941 57.414 68.3868 63.3519 68.3868 63.3519C68.3868 63.3519 64.422 61.25 61.0583 57.2041L61.525 57.9101C66.8199 66.0466 67.6074 74.9633 67.6074 74.9633C67.6074 74.9633 59.691 70.7131 54.2793 62.6532L53.3838 61.2986C56.1586 66.2921 56.5637 71.1744 56.5637 71.1744C56.5637 71.1744 51.1825 68.3532 47.6592 62.8967L44.5746 58.2304C43.7247 58.2279 42.8811 57.8206 42.3918 57.0804L39.5326 49.77L38.0383 50.7481C36.6737 51.6414 34.7094 51.2676 33.7529 49.9587C31.13 52.6597 30.6451 56.8057 32.767 60.1256C32.8055 60.1838 32.8198 60.2371 32.8341 60.2904C32.8483 60.3436 32.8626 60.3969 32.9011 60.4551L32.893 60.4429L32.9009 60.4553C32.8611 60.6483 32.8212 60.8413 32.5875 60.9943C32.2369 61.2238 31.869 61.0473 31.715 60.8142L23.3191 48.1135C20.7938 44.2933 21.3841 39.2201 24.5735 36.0775L23.5085 34.4664C19.041 27.7082 17.4527 19.733 17.0795 13.2161C16.6929 5.81351 17.8399 0.227493 17.8865 0.00193555L17.886 7.34753e-05L17.8868 0.000522944L17.8869 0C18.1777 0.0600301 23.8006 1.22061 30.4992 4.51505C36.2682 7.41637 43.0186 11.929 47.4661 18.7837Z" fill="url(#paint0_linear_53_54)"/>
<path fill-rule="evenodd" clip-rule="evenodd" d="M242.351 154.053L243.745 156.162C248.698 154.516 254.345 156.36 257.308 160.847L267.601 176.435C267.79 176.721 267.811 177.219 267.381 177.501C267.094 177.688 266.857 177.639 266.619 177.59C266.572 177.519 266.518 177.477 266.465 177.435C266.412 177.393 266.359 177.351 266.311 177.28C264.715 174.942 262.365 173.469 259.823 172.976C258.241 172.669 256.585 172.742 254.99 173.222C255.889 174.917 255.341 177.195 253.717 178.26L252.235 179.231L259.079 185.913C259.718 186.88 259.735 188.115 259.234 189.103L262.958 194.741C267.396 201.462 268 208.75 268 208.75C268 208.75 263.139 206.17 259.015 201.205L259.587 202.071C266.079 212.057 267.044 223 267.044 223C267.044 223 257.339 217.784 250.704 207.892L249.606 206.23C253.008 212.358 253.505 218.35 253.505 218.35C253.505 218.35 246.908 214.888 242.588 208.191L238.806 202.464C237.764 202.461 236.73 201.961 236.13 201.053L232.625 192.081L230.793 193.282C229.12 194.378 226.712 193.919 225.539 192.313C222.323 195.627 221.729 200.716 224.33 204.79C224.377 204.862 224.395 204.927 224.412 204.992C224.43 205.058 224.448 205.123 224.495 205.195C224.446 205.431 224.397 205.669 224.11 205.856C223.68 206.138 223.229 205.921 223.041 205.635L212.747 190.048C209.651 185.36 210.375 179.134 214.285 175.277L212.979 173.299C207.502 165.005 205.555 155.218 205.097 147.22C204.623 138.135 206.03 131.279 206.087 131.002L206.086 131C206.443 131.074 213.338 132.498 221.55 136.541C228.623 140.102 236.899 145.64 242.351 154.053Z" fill="url(#paint1_linear_53_54)"/>
<path fill-rule="evenodd" clip-rule="evenodd" d="M23.7152 179.533L24.5998 180.863C27.7447 179.825 31.3299 180.988 33.2111 183.817L39.7465 193.644C39.8664 193.824 39.8799 194.138 39.607 194.316C39.425 194.434 39.2741 194.403 39.1232 194.372C39.0932 194.327 39.0593 194.301 39.0255 194.274C38.9916 194.248 38.9578 194.221 38.9278 194.176C37.9146 192.702 36.4225 191.774 34.808 191.463C33.804 191.27 32.7526 191.316 31.7396 191.618C32.3104 192.687 31.9627 194.123 30.9316 194.794L29.9903 195.407L34.3359 199.619C34.7416 200.229 34.7521 201.007 34.4346 201.63L36.7984 205.185C39.6165 209.422 40 214.016 40 214.016C40 214.016 36.9138 212.39 34.2954 209.259L34.6587 209.806C38.7803 216.101 39.3933 223 39.3933 223C39.3933 223 33.2311 219.712 29.0186 213.476L28.3215 212.427C30.4814 216.291 30.7968 220.069 30.7968 220.069C30.7968 220.069 26.608 217.886 23.8655 213.664L21.4643 210.054C20.8028 210.052 20.1461 209.736 19.7652 209.164L17.5396 203.508L16.3764 204.264C15.3142 204.956 13.7852 204.666 13.0407 203.654C10.9989 205.743 10.6215 208.951 12.2732 211.52C12.3032 211.565 12.3143 211.606 12.3254 211.647C12.3365 211.689 12.3476 211.73 12.3776 211.775C12.3466 211.924 12.3154 212.074 12.1335 212.192C11.8606 212.37 11.5742 212.233 11.4543 212.053L4.91888 202.226C2.95314 199.27 3.41262 195.345 5.89531 192.914L5.0663 191.667C1.58875 186.438 0.352363 180.268 0.0618638 175.225C-0.239079 169.498 0.653819 165.176 0.690045 165.001L0.689667 165C0.916058 165.047 5.29366 165.944 10.5079 168.493C14.9985 170.738 20.2531 174.23 23.7152 179.533Z" fill="url(#paint2_linear_53_54)"/>
<defs>
<linearGradient id="paint0_linear_53_54" x1="42.6934" y1="0" x2="42.6934" y2="74.9633" gradientUnits="userSpaceOnUse">
<stop stop-color="#1C372E"/>
<stop offset="1" stop-color="#1C372E" stop-opacity="0"/>
</linearGradient>
<linearGradient id="paint1_linear_53_54" x1="236.5" y1="131" x2="236.5" y2="223" gradientUnits="userSpaceOnUse">
<stop stop-color="#1C372E"/>
<stop offset="1" stop-color="#1C372E" stop-opacity="0"/>
</linearGradient>
<linearGradient id="paint2_linear_53_54" x1="20" y1="165" x2="20" y2="223" gradientUnits="userSpaceOnUse">
<stop stop-color="#1C372E"/>
<stop offset="1" stop-color="#1C372E" stop-opacity="0"/>
</linearGradient>
</defs>
</svg>
