<svg width="429" height="437" viewBox="0 0 429 437" fill="none" xmlns="http://www.w3.org/2000/svg">
<path opacity="0.56" d="M428.817 144.464C428.681 143.86 428.447 143.29 428.127 142.788C428.09 142.742 428.065 142.685 428.028 142.64C427.942 142.514 427.856 142.389 427.757 142.275C427.732 142.252 427.72 142.229 427.708 142.206C427.708 142.206 427.695 142.206 427.695 142.195C427.153 141.568 426.463 141.1 425.687 140.872L403.319 134.408L397.157 128.673H397.132C395.838 119.894 387.31 113.111 376.971 113.111C366.631 113.111 358.103 119.894 356.809 128.673H356.698L350.536 134.408L350.462 134.431L328.169 140.872C327.158 141.169 326.295 141.864 325.716 142.799C325.531 143.107 325.359 143.426 325.236 143.78C325.223 143.803 325.223 143.825 325.211 143.837C325.174 143.951 325.125 144.076 325.1 144.202C325.088 144.247 325.075 144.281 325.063 144.327C325.038 144.43 325.014 144.544 324.989 144.646C324.977 144.692 324.964 144.737 324.964 144.794C324.952 144.908 324.927 145.011 324.915 145.125C324.915 145.171 324.903 145.216 324.903 145.262C324.891 145.422 324.878 145.57 324.878 145.729C324.878 146.927 325.236 148.01 325.839 148.876C325.839 148.888 325.852 148.888 325.852 148.899C325.938 149.024 326.037 149.15 326.135 149.264C326.912 150.164 327.996 150.723 329.191 150.723H350.857L356.661 156.64H362.614L365.953 162.922H387.84L391.18 156.64H397.132L402.937 150.723H411.711H424.602C424.738 150.723 424.873 150.712 424.996 150.7C425.033 150.7 425.07 150.689 425.12 150.689C425.218 150.677 425.305 150.655 425.403 150.643C425.44 150.632 425.489 150.632 425.526 150.62C425.637 150.598 425.736 150.563 425.847 150.529C425.859 150.518 425.884 150.518 425.896 150.506C426.019 150.461 426.13 150.415 426.241 150.358C426.278 150.335 426.327 150.313 426.364 150.29C426.438 150.256 426.512 150.21 426.574 150.176C426.623 150.153 426.66 150.119 426.709 150.096C426.783 150.05 426.845 150.005 426.907 149.959C426.956 149.925 427.018 149.879 427.067 149.834C427.141 149.777 427.215 149.708 427.289 149.64C427.338 149.594 427.387 149.549 427.437 149.492C427.474 149.446 427.523 149.401 427.56 149.366C427.609 149.309 427.658 149.252 427.708 149.195C427.745 149.161 427.769 149.116 427.806 149.07C427.979 148.853 428.139 148.614 428.275 148.352C428.287 148.317 428.312 148.283 428.324 148.249C428.361 148.169 428.41 148.078 428.447 147.998C428.459 147.964 428.472 147.93 428.484 147.896C428.755 147.246 428.915 146.516 428.915 145.741C428.952 145.285 428.915 144.874 428.817 144.464Z" fill="#292933"/>
<path opacity="0.56" d="M73.5216 59.4331C73.4228 59.018 73.2622 58.6254 73.0399 58.2777C73.0152 58.244 72.9905 58.2104 72.9782 58.1767C72.9164 58.087 72.8547 58.0084 72.7806 57.9299C72.7682 57.9187 72.7559 57.8963 72.7436 57.885H72.7312C72.3484 57.4476 71.8667 57.1335 71.3233 56.9764L55.6143 52.523L51.2918 48.5744H51.2795C50.3656 42.5169 44.3759 37.8391 37.1141 37.8391C29.8524 37.8391 23.8627 42.5169 22.9488 48.5744H22.8747L18.5523 52.523L18.5029 52.5342L2.84322 56.9764C2.12693 57.1783 1.53414 57.6607 1.11424 58.3001C0.978392 58.5132 0.867242 58.7376 0.780793 58.9732C0.780793 58.9844 0.768441 59.0068 0.768441 59.018C0.743741 59.0966 0.706694 59.1863 0.694345 59.2648C0.681995 59.2873 0.681994 59.3209 0.669644 59.3433C0.644944 59.4219 0.632593 59.4892 0.620244 59.5677C0.607894 59.6013 0.607893 59.635 0.595543 59.6686C0.583193 59.7472 0.570843 59.8145 0.570843 59.893C0.570843 59.9267 0.558495 59.9603 0.558495 59.9828C0.546145 60.0949 0.546143 60.1959 0.546143 60.3081C0.546143 61.1269 0.805494 61.8785 1.22539 62.4731C1.22539 62.4731 1.23774 62.4843 1.23774 62.4955C1.29949 62.5852 1.37359 62.6638 1.43534 62.7423C1.97873 63.3593 2.74442 63.7519 3.58422 63.7519H18.7993L22.8747 67.8239H27.049L29.3955 72.1539H44.7711L47.1175 67.8239H51.2918L55.3673 63.7519H61.5299H70.5823C70.6811 63.7519 70.7676 63.7407 70.8664 63.7407C70.8911 63.7407 70.9281 63.7294 70.9528 63.7294C71.0146 63.7182 71.0887 63.707 71.1504 63.6958C71.1751 63.6846 71.2122 63.6846 71.2369 63.6734C71.311 63.6509 71.3851 63.6285 71.4592 63.6061C71.4715 63.6061 71.4839 63.5948 71.4962 63.5948C71.5827 63.5612 71.6568 63.5275 71.7432 63.4939C71.7679 63.4827 71.805 63.4602 71.8297 63.449C71.8791 63.4266 71.9285 63.3929 71.9779 63.3705C72.0149 63.348 72.0396 63.3368 72.0767 63.3144C72.1261 63.2807 72.1755 63.2471 72.2125 63.2134C72.2496 63.191 72.2866 63.1573 72.3236 63.1237C72.373 63.0788 72.4348 63.0339 72.4842 62.9891C72.5213 62.9554 72.5583 62.9218 72.583 62.8881C72.6077 62.8545 72.6447 62.832 72.6694 62.7984C72.7065 62.7647 72.7435 62.7198 72.7682 62.6862C72.7929 62.6638 72.8176 62.6301 72.83 62.6077C72.9535 62.4506 73.0646 62.2936 73.1511 62.1141C73.1634 62.0917 73.1758 62.0692 73.1881 62.0468C73.2128 61.9907 73.2499 61.9346 73.2746 61.8673C73.2869 61.8449 73.2993 61.8224 73.2993 61.8C73.4969 61.3513 73.5957 60.8465 73.5957 60.3081C73.6204 59.994 73.5833 59.7023 73.5216 59.4331ZM18.5399 52.5006H18.5646H18.5399Z" fill="#174331"/>
<path d="M311 437H107L185.203 128H232.797L311 437Z" fill="url(#paint0_linear_78_56)"/>
<path d="M273 437H145L194.077 128H223.923L273 437Z" fill="url(#paint1_linear_78_56)"/>
<path d="M275.294 55.2223H142.809L158.289 40.7744H259.814L275.294 55.2223Z" fill="#E5E5E5"/>
<path d="M158.289 40.7744L142.809 55.2223H163.743L179.224 40.7744H158.289Z" fill="#F4F4F4"/>
<path d="M275.295 55.2223L259.814 40.7744H240.461H158.29L152.848 45.8556H245.903L255.941 55.2223H275.295Z" fill="#C4C4C4"/>
<path d="M142.809 96.2129L158.289 112.013H259.814L275.294 96.2129H142.809Z" fill="#E5E5E5"/>
<path d="M172.324 96.2129L183.012 112.013H224.134L235.19 96.2129H172.324Z" fill="#C4C4C4"/>
<path d="M142.809 96.2129L158.289 112.013H169.688L154.208 96.2129H142.809Z" fill="#F4F4F4"/>
<path d="M248.451 96.2129L232.97 112.013H259.813L275.294 96.2129H248.451Z" fill="#C4C4C4"/>
<path d="M173.216 112.013H244.883L236.511 127.825H181.588L173.216 112.013Z" fill="#42CA90"/>
<path opacity="0.47" d="M244.883 112.013H230.91H173.216L175.153 115.685H228.973L222.538 127.825H236.511L242.946 115.685L244.883 112.013Z" fill="#3CBA84"/>
<path d="M339.593 83.6406C339.593 90.586 334.727 96.2129 328.733 96.2129H89.3548C86.3518 96.2129 83.6431 94.8033 81.6819 92.5298C79.7086 90.2564 78.4951 87.1076 78.4951 83.6406C78.4951 77.866 81.8903 72.8416 86.7196 71.4321L142.832 55.1768L142.795 55.2336H275.281L275.244 55.1768L331.356 71.4321C333.771 72.1368 335.83 73.751 337.289 75.8994C338.747 78.0592 339.593 80.7533 339.593 83.6406Z" fill="#42CA90"/>
<path d="M275.439 55.2338L275.256 55.1768L275.292 55.2338H275.439Z" fill="#228AC5"/>
<path d="M96.6844 92.5298C94.711 90.2564 93.4976 87.1076 93.4976 83.6406C93.4976 77.866 96.8928 72.8416 101.722 71.4321L157.651 55.2336H142.807L142.844 55.1768L86.7317 71.4321C81.9025 72.8416 78.5073 77.866 78.5073 83.6406C78.5073 87.1076 79.7208 90.2564 81.6941 92.5298C83.6552 94.8033 86.3763 96.2129 89.367 96.2129H104.357C101.354 96.2129 98.6332 94.8033 96.6844 92.5298Z" fill="#3CBA84"/>
<path d="M337.299 75.8999C335.853 73.7515 333.794 72.1373 331.367 71.4325L275.254 55.1772L275.291 55.2341H244.06L299.989 71.4325C302.403 72.1373 304.463 73.7515 305.921 75.8999C307.368 78.0483 308.226 80.7538 308.226 83.6411C308.226 90.5865 303.36 96.2133 297.366 96.2133H328.744C334.737 96.2133 339.603 90.5865 339.603 83.6411C339.591 80.7538 338.745 78.0597 337.299 75.8999Z" fill="#3CBA84"/>
<path d="M337.547 76.2863H306.169C306.083 76.1612 306.01 76.0248 305.924 75.9111C305.666 75.5133 305.372 75.1382 305.066 74.7744H336.419C336.431 74.7858 336.444 74.7858 336.456 74.7972C336.456 74.7972 336.456 74.8085 336.468 74.8085C336.75 75.1609 337.032 75.5247 337.302 75.9111C337.375 76.0248 337.461 76.1499 337.547 76.2863Z" fill="#560B68"/>
<path d="M142.807 55.2348L142.844 55.1777L142.661 55.2348H142.807Z" fill="#560B68"/>
<path d="M337.303 75.8999C337.034 75.5021 336.74 75.1269 336.421 74.7632H304.063C304.369 75.1269 304.675 75.5021 304.945 75.8999C306.391 78.0483 307.249 80.7538 307.249 83.6411C307.249 90.5865 302.383 96.2133 296.39 96.2133H328.736C334.729 96.2133 339.595 90.5865 339.595 83.6411C339.595 80.7538 338.75 78.0597 337.303 75.8999Z" fill="#750E8E"/>
<path opacity="0.69" d="M173.216 112.013L181.588 127.825H187.471L179.099 112.013H173.216Z" fill="url(#paint2_linear_78_56)"/>
<path d="M336.418 74.7632H81.6819C79.7085 77.0594 78.5073 80.2195 78.5073 83.6411C78.5073 87.1081 79.7208 90.2569 81.6941 92.5303C83.6552 94.8038 86.3763 96.2133 89.367 96.2133H328.746C334.739 96.2133 339.605 90.5865 339.605 83.6411C339.605 80.7538 338.747 78.0483 337.301 75.8999C337.031 75.5021 336.725 75.1269 336.418 74.7632Z" fill="#3CAF7E"/>
<path d="M96.4761 92.5303C94.5027 90.2569 93.2893 87.1081 93.2893 83.6411C93.2893 80.2195 94.4905 77.0594 96.4638 74.7632H81.6697C79.6963 77.0594 78.4951 80.2195 78.4951 83.6411C78.4951 87.1081 79.7086 90.2569 81.6819 92.5303C83.6431 94.8038 86.3641 96.2133 89.3548 96.2133H104.161C101.158 96.2133 98.4372 94.8038 96.4761 92.5303Z" fill="#31986C"/>
<path d="M337.301 75.8999C337.031 75.5021 336.737 75.1269 336.418 74.7632H305.285C305.592 75.1269 305.898 75.5021 306.168 75.8999C307.614 78.0483 308.472 80.7538 308.472 83.6411C308.472 90.5865 303.606 96.2133 297.613 96.2133H328.745C334.739 96.2133 339.605 90.5865 339.605 83.6411C339.593 80.7538 338.747 78.0597 337.301 75.8999Z" fill="#31986C"/>
<path d="M79.3186 88.4038C79.8702 89.9611 80.6791 91.3593 81.6842 92.5301C83.6453 94.8036 86.3664 96.2132 89.3571 96.2132H328.736C333.271 96.2132 337.156 92.9848 338.786 88.4038H79.3186Z" fill="#319667"/>
<path d="M259.948 40.7632C257.46 17.9604 235.667 0.125 209.155 0.125C182.643 0.125 160.838 17.9604 158.362 40.7632H259.948Z" fill="#42CA90"/>
<path d="M209.153 0.136719C206.224 0.136719 203.344 0.364065 200.549 0.784657C223.041 4.14939 240.531 20.4843 242.738 40.7636H259.959C257.47 17.9607 235.678 0.136719 209.153 0.136719Z" fill="#3CBA84"/>
<path opacity="0.79" d="M337.546 76.2858H80.5659C80.8969 75.7515 81.2768 75.24 81.6813 74.7739H336.418C336.43 74.7853 336.442 74.7853 336.455 74.7967C336.455 74.7967 336.455 74.808 336.467 74.808C336.749 75.1604 337.031 75.5242 337.3 75.9107C337.374 76.0243 337.46 76.1494 337.546 76.2858Z" fill="white"/>
<path d="M322.975 82.7426C322.975 80.8556 321.32 79.321 319.286 79.321C317.251 79.321 315.596 80.8556 315.596 82.7426C315.596 84.6296 317.251 86.1642 319.286 86.1642C321.32 86.1642 322.975 84.641 322.975 82.7426Z" fill="#FCC529"/>
<path d="M291.904 82.7426C291.904 80.8556 290.25 79.321 288.215 79.321C286.18 79.321 284.526 80.8556 284.526 82.7426C284.526 84.6296 286.18 86.1642 288.215 86.1642C290.262 86.1642 291.904 84.641 291.904 82.7426Z" fill="#FCC529"/>
<path d="M260.848 82.7426C260.848 80.8556 259.193 79.321 257.159 79.321C255.124 79.321 253.469 80.8556 253.469 82.7426C253.469 84.6296 255.124 86.1642 257.159 86.1642C259.193 86.1642 260.848 84.641 260.848 82.7426Z" fill="#FCC529"/>
<path d="M229.785 82.7426C229.785 80.8556 228.131 79.321 226.096 79.321C224.061 79.321 222.407 80.8556 222.407 82.7426C222.407 84.6296 224.061 86.1642 226.096 86.1642C228.131 86.1642 229.785 84.641 229.785 82.7426Z" fill="#FCC529"/>
<path d="M198.713 82.7426C198.713 80.8556 197.058 79.321 195.023 79.321C192.989 79.321 191.334 80.8556 191.334 82.7426C191.334 84.6296 192.989 86.1642 195.023 86.1642C197.07 86.1642 198.713 84.641 198.713 82.7426Z" fill="#FCC529"/>
<path d="M167.654 82.7426C167.654 80.8556 165.999 79.321 163.965 79.321C161.93 79.321 160.275 80.8556 160.275 82.7426C160.275 84.6296 161.93 86.1642 163.965 86.1642C165.999 86.1642 167.654 84.641 167.654 82.7426Z" fill="#FCC529"/>
<path d="M136.594 82.7426C136.594 80.8556 134.939 79.321 132.904 79.321C130.87 79.321 129.215 80.8556 129.215 82.7426C129.215 84.6296 130.87 86.1642 132.904 86.1642C134.939 86.1642 136.594 84.641 136.594 82.7426Z" fill="#FCC529"/>
<path d="M105.524 82.7424C105.524 80.8554 103.87 79.3208 101.835 79.3208C99.8002 79.3208 98.1455 80.8554 98.1455 82.7424C98.1455 84.6293 99.8002 86.1639 101.835 86.1639C103.87 86.1639 105.524 84.6407 105.524 82.7424Z" fill="#FCC529"/>
<path opacity="0.69" d="M216.964 10.5263C214.072 3.6945 202.17 1.62565 190.379 5.91113C178.588 10.1966 171.368 19.2109 174.249 26.0427C177.142 32.8745 189.043 34.9433 200.834 30.6578C212.625 26.3837 219.845 17.3694 216.964 10.5263Z" fill="url(#paint3_linear_78_56)"/>
<path opacity="0.31" d="M199.472 13.7429C198.124 10.5373 192.547 9.57107 187.019 11.5831C181.491 13.5951 178.108 17.8124 179.457 21.018C180.805 24.2236 186.382 25.1898 191.91 23.1778C197.438 21.1657 200.833 16.9485 199.472 13.7429Z" fill="white"/>
<path opacity="0.31" d="M210.43 17.46C209.878 16.1414 207.586 15.7549 205.319 16.5733C203.051 17.3918 201.666 19.131 202.217 20.4382C202.769 21.7568 205.061 22.1433 207.329 21.3249C209.596 20.5064 210.981 18.7672 210.43 17.46Z" fill="white"/>
<path d="M238.914 261.585L179.664 260.823L202.547 128.257H217.672L238.914 261.585Z" fill="url(#paint4_linear_78_56)"/>
<path fill-rule="evenodd" clip-rule="evenodd" d="M243 436.674C243 436.674 248.393 438.379 253.835 431.286C259.277 424.193 262.869 415.315 262.869 415.315C262.869 415.315 261.361 419.407 254.374 419.862L243 436.674Z" fill="url(#paint5_linear_78_56)"/>
<path fill-rule="evenodd" clip-rule="evenodd" d="M247.217 416.111L265.97 390C265.97 390 275.15 401.265 253.835 431.286C253.835 431.286 262.244 421.647 247.217 416.111Z" fill="url(#paint6_linear_78_56)"/>
<path fill-rule="evenodd" clip-rule="evenodd" d="M227.044 205.861C233.438 208.816 234.695 212.749 234.695 212.749L218.673 206.85C218.673 206.85 219.82 204.292 214.683 201.462C214.683 201.462 224.115 204.508 227.044 205.861Z" fill="url(#paint7_linear_78_56)"/>
<path fill-rule="evenodd" clip-rule="evenodd" d="M194.098 197.949L207.862 206.633C207.862 206.633 213.329 200.086 227.044 205.86C227.044 205.86 213.219 199.165 194.098 197.949Z" fill="url(#paint8_linear_78_56)"/>
<path d="M204.443 290.912L203.552 295.686L172.558 293.197L158.977 318.739L153.681 317.068L169.153 287.502L204.443 290.912Z" fill="#E7E5E5"/>
<path d="M204.43 290.913L174.095 288.412C174.095 288.412 171.093 287.991 169.995 288.775L170.983 290.549C170.983 290.549 202.661 292.549 204.101 292.743L204.43 290.913Z" fill="#D8D6D6"/>
<path d="M153.608 316.943L167.372 291.639C167.372 291.639 168.568 289.048 169.874 288.593L170.972 290.309C170.972 290.309 156.036 316.409 155.45 317.648L153.608 316.943Z" fill="#D8D6D6"/>
<path d="M152.536 319.182L168.107 290.57C168.107 290.57 169.498 288.035 172.524 288.285V288.274V288.285L206.825 291.104L206.996 289.274L174.257 286.58C174.257 286.58 171.06 284.614 168.302 286.046C165.532 287.478 165.642 291.036 165.642 291.036L150.779 318.352L152.536 319.182Z" fill="#FFC23A"/>
<path d="M156.147 317.853C155.976 317.944 165.079 317.421 165.079 317.421C181.675 308.293 170.827 290.332 170.827 290.332C170.827 290.332 169.667 310.725 156.147 317.853Z" fill="#D8D6D6"/>
<path d="M167.24 321.433C167.118 321.57 175.33 318.069 175.33 318.069C186.788 303.746 170.828 290.344 170.828 290.344C170.828 290.344 177.136 310.157 167.24 321.433Z" fill="#C3C1C1"/>
<path d="M179.659 288.877L180.257 287.081L174.253 286.581C174.253 286.581 171.324 284.501 168.298 286.047C168.298 286.047 165.614 287.627 165.638 291.037L162.844 296.175L164.674 296.63L168.103 290.571C168.103 290.571 169.104 288.366 172.52 288.275L179.659 288.877Z" fill="#F9A431"/>
<defs>
<linearGradient id="paint0_linear_78_56" x1="208.999" y1="412.736" x2="208.999" y2="83.1494" gradientUnits="userSpaceOnUse">
<stop stop-color="white" stop-opacity="0"/>
<stop offset="1" stop-color="white"/>
</linearGradient>
<linearGradient id="paint1_linear_78_56" x1="209" y1="412.736" x2="209" y2="83.1494" gradientUnits="userSpaceOnUse">
<stop stop-color="white" stop-opacity="0"/>
<stop offset="1" stop-color="white"/>
</linearGradient>
<linearGradient id="paint2_linear_78_56" x1="173.215" y1="119.922" x2="187.472" y2="119.922" gradientUnits="userSpaceOnUse">
<stop stop-color="white" stop-opacity="0"/>
<stop offset="1" stop-color="white"/>
</linearGradient>
<linearGradient id="paint3_linear_78_56" x1="206.158" y1="25.5419" x2="170.587" y2="-2.88765" gradientUnits="userSpaceOnUse">
<stop stop-color="white" stop-opacity="0"/>
<stop offset="1" stop-color="white"/>
</linearGradient>
<linearGradient id="paint4_linear_78_56" x1="209.291" y1="251.11" x2="209.291" y2="108.909" gradientUnits="userSpaceOnUse">
<stop stop-color="white" stop-opacity="0"/>
<stop offset="1" stop-color="white"/>
</linearGradient>
<linearGradient id="paint5_linear_78_56" x1="256.401" y1="428.968" x2="250.834" y2="423.406" gradientUnits="userSpaceOnUse">
<stop offset="0.0335" stop-color="#C7C7C7"/>
<stop offset="0.9829" stop-color="#DADADA"/>
</linearGradient>
<linearGradient id="paint6_linear_78_56" x1="267.741" y1="417.368" x2="253.167" y2="402.805" gradientUnits="userSpaceOnUse">
<stop offset="0.0335" stop-color="#FFDECE"/>
<stop offset="0.9829" stop-color="#F0CECC"/>
</linearGradient>
<linearGradient id="paint7_linear_78_56" x1="225.612" y1="205.232" x2="224.008" y2="209.067" gradientUnits="userSpaceOnUse">
<stop offset="0.0335" stop-color="#E3DBBE"/>
<stop offset="0.9829" stop-color="#F3E1D1"/>
</linearGradient>
<linearGradient id="paint8_linear_78_56" x1="211.791" y1="199.42" x2="208.645" y2="206.941" gradientUnits="userSpaceOnUse">
<stop offset="0.0335" stop-color="#FFDECE"/>
<stop offset="0.9829" stop-color="#F0CECC"/>
</linearGradient>
</defs>
</svg>
