<svg width="38" height="38" viewBox="0 0 38 38" fill="none" xmlns="http://www.w3.org/2000/svg">
<path d="M36.7506 35.1587L20.6494 1.15176C20.6165 1.07253 20.5624 1.00513 20.4936 0.957795C20.4249 0.910462 20.3446 0.885254 20.2625 0.885254C20.1804 0.885254 20.1 0.910462 20.0313 0.957795C19.9626 1.00513 19.9085 1.07253 19.8755 1.15176L3.5249 35.0124L3.4512 35.1557L3.21875 35.6036L14.5576 21.4604C14.5964 21.4106 14.6448 21.37 14.6997 21.3414C14.7545 21.3129 14.8145 21.2969 14.8757 21.2946C14.9368 21.2924 14.9977 21.3039 15.0543 21.3283C15.1109 21.3528 15.1619 21.3897 15.2039 21.4365L19.9521 26.7271C19.9919 26.7728 20.0403 26.8093 20.0942 26.8343C20.1482 26.8592 20.2064 26.8721 20.2653 26.8721C20.3242 26.8721 20.3825 26.8592 20.4364 26.8343C20.4903 26.8093 20.5387 26.7728 20.5786 26.7271L25.3267 21.4484C25.3685 21.4006 25.4196 21.3629 25.4765 21.3379C25.5334 21.3128 25.5948 21.301 25.6565 21.3033C25.7181 21.3056 25.7786 21.3219 25.8337 21.351C25.8888 21.3802 25.9373 21.4216 25.9759 21.4723L37.0001 35.6065L36.7506 35.1587Z" stroke="#F5F7F9" stroke-width="0.65" stroke-miterlimit="10"/>
<path d="M34.5319 35.9253V35.9402L18.442 1.93325C18.4091 1.85403 18.355 1.78662 18.2862 1.73929C18.2175 1.69196 18.1372 1.66675 18.0551 1.66675C17.973 1.66675 17.8926 1.69196 17.8239 1.73929C17.7552 1.78662 17.7011 1.85403 17.6681 1.93325L1.30615 35.7909L1.23245 35.9342L1 36.3821L12.3389 22.2389C12.3777 22.1891 12.4261 22.1485 12.4809 22.1199C12.5358 22.0914 12.5958 22.0754 12.6569 22.0732C12.718 22.0709 12.7789 22.0824 12.8355 22.1068C12.8922 22.1313 12.9432 22.1682 12.9852 22.215L17.7333 27.5056C17.7732 27.5513 17.8216 27.5878 17.8755 27.6128C17.9294 27.6377 17.9877 27.6506 18.0466 27.6506C18.1055 27.6506 18.1637 27.6377 18.2176 27.6128C18.2716 27.5878 18.32 27.5513 18.3598 27.5056L23.1108 22.2269C23.1526 22.1792 23.2037 22.1414 23.2606 22.1164C23.3175 22.0913 23.3789 22.0796 23.4406 22.0818C23.5022 22.0841 23.5627 22.1004 23.6178 22.1295C23.6729 22.1587 23.7214 22.2001 23.7599 22.2508L34.7615 36.3851L34.5319 35.9253Z" stroke="#F5F7F9" stroke-width="0.65" stroke-miterlimit="10"/>
<path d="M35.6437 34.7585L19.551 0.766506C19.5181 0.687277 19.4639 0.619873 19.3952 0.572541C19.3265 0.525208 19.2462 0.5 19.1641 0.5C19.0819 0.5 19.0016 0.525208 18.9329 0.572541C18.8642 0.619873 18.81 0.687277 18.7771 0.766506L2.41797 34.6242L2.34426 34.7645L2.11182 35.2123L13.4507 21.0692C13.4897 21.0195 13.5383 20.9792 13.5932 20.9509C13.6482 20.9226 13.7082 20.9069 13.7694 20.9049C13.8305 20.903 13.8913 20.9147 13.9478 20.9394C14.0043 20.9641 14.0552 21.0012 14.097 21.0483L18.8593 26.3389C18.8992 26.3846 18.9476 26.4211 19.0015 26.446C19.0554 26.471 19.1137 26.4839 19.1726 26.4839C19.2315 26.4839 19.2897 26.471 19.3436 26.446C19.3976 26.4211 19.446 26.3846 19.4858 26.3389L24.2311 21.0572C24.2731 21.0096 24.3244 20.9721 24.3814 20.9473C24.4384 20.9225 24.4999 20.911 24.5616 20.9135C24.6232 20.9161 24.6836 20.9327 24.7386 20.9621C24.7936 20.9915 24.842 21.0331 24.8803 21.0841L35.8676 35.2153L35.6437 34.7585Z" fill="#F5F7F9"/>
</svg>
