<svg width="39" height="33" viewBox="0 0 39 33" fill="none" xmlns="http://www.w3.org/2000/svg">
<g opacity="0.95" filter="url(#filter0_d_33_34)">
<path d="M16.1004 24.3809L4.29952 20.1977C4.21734 20.175 4.1443 20.1272 4.09061 20.061C4.03691 19.9947 4.00524 19.9134 4 19.8283V0.409763C4.01241 0.334386 4.04229 0.262962 4.08726 0.201212C4.13223 0.139461 4.19104 0.0890996 4.25898 0.0541624C4.32691 0.0192251 4.40208 0.000681312 4.47847 1.84218e-05C4.55486 -0.000644469 4.63034 0.0165913 4.69887 0.0503443L16.5097 4.67286C16.5867 4.69835 16.6543 4.74612 16.7041 4.81011C16.7539 4.8741 16.7835 4.95142 16.7893 5.03227V24.0015C16.7893 24.3011 16.4299 24.4908 16.1004 24.3809Z" fill="#F5F7F9"/>
</g>
<g opacity="0.95" filter="url(#filter1_d_33_34)">
<path d="M25.2156 24.3809L13.4048 20.1977C13.3237 20.1746 13.252 20.1264 13.2 20.06C13.148 19.9937 13.1183 19.9126 13.1152 19.8283V0.409763C13.1276 0.334386 13.1575 0.262962 13.2025 0.201212C13.2475 0.139461 13.3063 0.0890996 13.3742 0.0541624C13.4421 0.0192251 13.5173 0.000681312 13.5937 1.84218e-05C13.6701 -0.000644469 13.7456 0.0165913 13.8141 0.0503443L25.625 4.67286C25.7008 4.69881 25.767 4.74697 25.8151 4.81106C25.8632 4.87516 25.8908 4.95224 25.8945 5.03227V24.0015C25.8945 24.3011 25.4952 24.4908 25.2156 24.3809Z" fill="#42CA90"/>
</g>
<g opacity="0.95" filter="url(#filter2_d_33_34)">
<path d="M34.3208 24.3809L22.5 20.1977C22.4197 20.1733 22.3488 20.1247 22.297 20.0586C22.2452 19.9925 22.215 19.9121 22.2104 19.8283V0.409763C22.2229 0.334386 22.2527 0.262962 22.2977 0.201212C22.3427 0.139461 22.4015 0.0890996 22.4694 0.0541624C22.5374 0.0192251 22.6125 0.000681312 22.6889 1.84218e-05C22.7653 -0.000644469 22.8408 0.0165913 22.9093 0.0503443L34.7202 4.67286C34.7971 4.69835 34.8648 4.74612 34.9145 4.81011C34.9643 4.8741 34.994 4.95142 34.9997 5.03227V24.0015C35.0097 24.3011 34.6503 24.4908 34.3208 24.3809Z" fill="#F5F7F9"/>
</g>
<defs>
<filter id="filter0_d_33_34" x="0" y="0" width="20.7893" height="32.4124" filterUnits="userSpaceOnUse" color-interpolation-filters="sRGB">
<feFlood flood-opacity="0" result="BackgroundImageFix"/>
<feColorMatrix in="SourceAlpha" type="matrix" values="0 0 0 0 0 0 0 0 0 0 0 0 0 0 0 0 0 0 127 0" result="hardAlpha"/>
<feOffset dy="4"/>
<feGaussianBlur stdDeviation="2"/>
<feColorMatrix type="matrix" values="0 0 0 0 0 0 0 0 0 0 0 0 0 0 0 0 0 0 0.25 0"/>
<feBlend mode="normal" in2="BackgroundImageFix" result="effect1_dropShadow_33_34"/>
<feBlend mode="normal" in="SourceGraphic" in2="effect1_dropShadow_33_34" result="shape"/>
</filter>
<filter id="filter1_d_33_34" x="9.11523" y="0" width="20.7793" height="32.4124" filterUnits="userSpaceOnUse" color-interpolation-filters="sRGB">
<feFlood flood-opacity="0" result="BackgroundImageFix"/>
<feColorMatrix in="SourceAlpha" type="matrix" values="0 0 0 0 0 0 0 0 0 0 0 0 0 0 0 0 0 0 127 0" result="hardAlpha"/>
<feOffset dy="4"/>
<feGaussianBlur stdDeviation="2"/>
<feColorMatrix type="matrix" values="0 0 0 0 0 0 0 0 0 0 0 0 0 0 0 0 0 0 0.25 0"/>
<feBlend mode="normal" in2="BackgroundImageFix" result="effect1_dropShadow_33_34"/>
<feBlend mode="normal" in="SourceGraphic" in2="effect1_dropShadow_33_34" result="shape"/>
</filter>
<filter id="filter2_d_33_34" x="18.2104" y="0" width="20.7896" height="32.4124" filterUnits="userSpaceOnUse" color-interpolation-filters="sRGB">
<feFlood flood-opacity="0" result="BackgroundImageFix"/>
<feColorMatrix in="SourceAlpha" type="matrix" values="0 0 0 0 0 0 0 0 0 0 0 0 0 0 0 0 0 0 127 0" result="hardAlpha"/>
<feOffset dy="4"/>
<feGaussianBlur stdDeviation="2"/>
<feColorMatrix type="matrix" values="0 0 0 0 0 0 0 0 0 0 0 0 0 0 0 0 0 0 0.25 0"/>
<feBlend mode="normal" in2="BackgroundImageFix" result="effect1_dropShadow_33_34"/>
<feBlend mode="normal" in="SourceGraphic" in2="effect1_dropShadow_33_34" result="shape"/>
</filter>
</defs>
</svg>
