<svg width="490" height="303" viewBox="0 0 490 303" fill="none" xmlns="http://www.w3.org/2000/svg">
<path d="M450.165 0H39.9205C28.3151 0 18.9071 9.40354 18.9071 21.0034V277.931C18.9071 289.531 28.3151 298.935 39.9205 298.935H450.165C461.77 298.935 471.178 289.531 471.178 277.931V21.0034C471.178 9.40354 461.77 0 450.165 0Z" fill="#244038"/>
<path d="M0 276.836H490V277.34C490 284.146 487.295 290.672 482.481 295.485C477.666 300.297 471.137 303 464.328 303H25.6718C18.8632 303 12.3335 300.297 7.51908 295.485C2.70468 290.672 0 284.146 0 277.34V276.836Z" fill="#244038"/>
<path d="M200.455 276.836L206.541 286.509H292.095L297.748 276.836H200.455Z" fill="#42CA90"/>
<rect x="31.7294" y="14.4155" width="426.902" height="250.671" rx="7" fill="#1C1D22"/>
<rect x="119.02" y="67.7041" width="21.0352" height="6.66106" rx="1" fill="#F5F7F9"/>
<rect x="173.716" y="67.7041" width="21.0352" height="6.66106" rx="1" fill="#82868D"/>
<rect x="228.407" y="67.7041" width="21.0352" height="6.66106" rx="1" fill="#82868D"/>
<rect x="283.096" y="67.7041" width="21.0352" height="6.66106" rx="1" fill="#82868D"/>
<rect x="337.787" y="67.7041" width="21.0351" height="6.66106" rx="1" fill="#82868D"/>
<rect x="397.578" y="67.6191" width="21.0352" height="6.66108" rx="1" fill="#82868D"/>
<path d="M326.228 170.631C326.228 169.582 327.193 168.731 328.384 168.731H376.661C377.851 168.731 378.816 169.582 378.816 170.631V209.017C378.816 210.067 377.851 210.918 376.661 210.918H328.384C327.193 210.918 326.228 210.067 326.228 209.017V170.631Z" fill="#EB5545" fill-opacity="0.5"/>
<path fill-rule="evenodd" clip-rule="evenodd" d="M376.661 169.491H328.384C327.669 169.491 327.09 170.001 327.09 170.631V209.017C327.09 209.647 327.669 210.157 328.384 210.157H376.661C377.375 210.157 377.954 209.647 377.954 209.017V170.631C377.954 170.001 377.375 169.491 376.661 169.491ZM328.384 168.731C327.193 168.731 326.228 169.582 326.228 170.631V209.017C326.228 210.067 327.193 210.918 328.384 210.918H376.661C377.851 210.918 378.816 210.067 378.816 209.017V170.631C378.816 169.582 377.851 168.731 376.661 168.731H328.384Z" fill="#EB5545"/>
<rect x="329.391" y="172.061" width="12.6212" height="2.22038" rx="0.5" fill="#EB5545"/>
<rect x="363.044" y="205.367" width="12.6212" height="2.2204" rx="0.5" fill="#EB5545"/>
<rect x="343.061" y="186.494" width="17.8799" height="3.33055" rx="0.5" fill="#EB5545"/>
<rect x="346.211" y="190.934" width="12.6212" height="2.2204" rx="0.5" fill="#EB5545"/>
<path d="M157.941 142.876C157.941 141.827 158.906 140.976 160.096 140.976H208.374C209.564 140.976 210.529 141.827 210.529 142.876V181.262C210.529 182.312 209.564 183.163 208.374 183.163H160.096C158.906 183.163 157.941 182.312 157.941 181.262V142.876Z" fill="#45B9EB" fill-opacity="0.5"/>
<path fill-rule="evenodd" clip-rule="evenodd" d="M208.374 141.736H160.096C159.382 141.736 158.803 142.246 158.803 142.876V181.262C158.803 181.892 159.382 182.403 160.096 182.403H208.374C209.088 182.403 209.667 181.892 209.667 181.262V142.876C209.667 142.246 209.088 141.736 208.374 141.736ZM160.096 140.976C158.906 140.976 157.941 141.827 157.941 142.876V181.262C157.941 182.312 158.906 183.163 160.096 183.163H208.374C209.564 183.163 210.529 182.312 210.529 181.262V142.876C210.529 141.827 209.564 140.976 208.374 140.976H160.096Z" fill="#45B9EB"/>
<rect x="161.102" y="144.306" width="12.6211" height="2.22034" rx="0.5" fill="#45B9EB"/>
<rect x="194.753" y="177.612" width="12.6211" height="2.22034" rx="0.5" fill="#45B9EB"/>
<rect x="174.776" y="158.739" width="17.8799" height="3.33054" rx="0.5" fill="#45B9EB"/>
<rect x="177.928" y="163.179" width="12.6211" height="2.22037" rx="0.5" fill="#45B9EB"/>
<path d="M382.064 91.517C382.064 90.4675 383.029 89.6167 384.219 89.6167H432.497C433.687 89.6167 434.652 90.4675 434.652 91.517V129.903C434.652 130.953 433.687 131.804 432.497 131.804H384.219C383.029 131.804 382.064 130.953 382.064 129.903V91.517Z" fill="#45B9EB" fill-opacity="0.5"/>
<path fill-rule="evenodd" clip-rule="evenodd" d="M432.497 90.3768H384.219C383.505 90.3768 382.926 90.8873 382.926 91.517V129.903C382.926 130.533 383.505 131.043 384.219 131.043H432.497C433.211 131.043 433.79 130.533 433.79 129.903V91.517C433.79 90.8873 433.211 90.3768 432.497 90.3768ZM384.219 89.6167C383.029 89.6167 382.064 90.4675 382.064 91.517V129.903C382.064 130.953 383.029 131.804 384.219 131.804H432.497C433.687 131.804 434.652 130.953 434.652 129.903V91.517C434.652 90.4675 433.687 89.6167 432.497 89.6167H384.219Z" fill="#45B9EB"/>
<rect x="385.22" y="92.947" width="12.6211" height="2.22037" rx="0.5" fill="#45B9EB"/>
<rect x="418.879" y="126.253" width="12.6211" height="2.22033" rx="0.5" fill="#45B9EB"/>
<rect x="398.897" y="107.38" width="17.8799" height="3.33055" rx="0.5" fill="#45B9EB"/>
<rect x="402.047" y="111.82" width="12.6211" height="2.22035" rx="0.5" fill="#45B9EB"/>
<path d="M216.837 92.9181C216.837 91.8686 217.802 91.0178 218.992 91.0178H267.27C268.46 91.0178 269.425 91.8686 269.425 92.9181V131.304C269.425 132.354 268.46 133.205 267.27 133.205H218.992C217.802 133.205 216.837 132.354 216.837 131.304V92.9181Z" fill="#FABB18" fill-opacity="0.5"/>
<path fill-rule="evenodd" clip-rule="evenodd" d="M267.27 91.7779H218.992C218.278 91.7779 217.699 92.2884 217.699 92.9181V131.304C217.699 131.934 218.278 132.445 218.992 132.445H267.27C267.984 132.445 268.563 131.934 268.563 131.304V92.9181C268.563 92.2884 267.984 91.7779 267.27 91.7779ZM218.992 91.0178C217.802 91.0178 216.837 91.8686 216.837 92.9181V131.304C216.837 132.354 217.802 133.205 218.992 133.205H267.27C268.46 133.205 269.425 132.354 269.425 131.304V92.9181C269.425 91.8686 268.46 91.0178 267.27 91.0178H218.992Z" fill="#FABB18"/>
<rect x="219.993" y="94.3486" width="12.6212" height="2.22037" rx="0.5" fill="#FABB18"/>
<rect x="253.652" y="127.654" width="12.6211" height="2.22037" rx="0.5" fill="#FABB18"/>
<rect x="233.67" y="108.781" width="17.8799" height="3.33057" rx="0.5" fill="#FABB18"/>
<rect x="236.819" y="113.221" width="12.6211" height="2.22037" rx="0.5" fill="#FABB18"/>
<path d="M105.346 212.818C105.346 211.768 106.311 210.917 107.501 210.917H155.778C156.969 210.917 157.934 211.768 157.934 212.818V251.204C157.934 252.254 156.969 253.104 155.778 253.104H107.501C106.311 253.104 105.346 252.254 105.346 251.204V212.818Z" fill="#FABB18" fill-opacity="0.5"/>
<path fill-rule="evenodd" clip-rule="evenodd" d="M155.778 211.678H107.501C106.787 211.678 106.208 212.188 106.208 212.818V251.204C106.208 251.834 106.787 252.344 107.501 252.344H155.778C156.493 252.344 157.072 251.834 157.072 251.204V212.818C157.072 212.188 156.493 211.678 155.778 211.678ZM107.501 210.917C106.311 210.917 105.346 211.768 105.346 212.818V251.204C105.346 252.254 106.311 253.104 107.501 253.104H155.778C156.969 253.104 157.934 252.254 157.934 251.204V212.818C157.934 211.768 156.969 210.917 155.778 210.917H107.501Z" fill="#FABB18"/>
<rect x="108.502" y="214.248" width="12.6211" height="2.22032" rx="0.5" fill="#FABB18"/>
<rect x="142.155" y="247.553" width="12.6211" height="2.22034" rx="0.5" fill="#FABB18"/>
<rect x="122.178" y="228.68" width="17.8799" height="3.33057" rx="0.5" fill="#FABB18"/>
<rect x="125.328" y="233.121" width="12.6211" height="2.22037" rx="0.5" fill="#FABB18"/>
<path d="M271.525 92.9186C271.525 91.8691 272.49 91.0183 273.68 91.0183H321.957C323.148 91.0183 324.113 91.8691 324.113 92.9186V131.305C324.113 132.354 323.148 133.205 321.957 133.205H273.68C272.49 133.205 271.525 132.354 271.525 131.305V92.9186Z" fill="#8252E6" fill-opacity="0.5"/>
<path fill-rule="evenodd" clip-rule="evenodd" d="M321.957 91.7784H273.68C272.966 91.7784 272.387 92.2889 272.387 92.9186V131.305C272.387 131.935 272.966 132.445 273.68 132.445H321.957C322.672 132.445 323.251 131.935 323.251 131.305V92.9186C323.251 92.2889 322.672 91.7784 321.957 91.7784ZM273.68 91.0183C272.49 91.0183 271.525 91.8691 271.525 92.9186V131.305C271.525 132.354 272.49 133.205 273.68 133.205H321.957C323.148 133.205 324.113 132.354 324.113 131.305V92.9186C324.113 91.8691 323.148 91.0183 321.957 91.0183H273.68Z" fill="#8252E6"/>
<rect x="274.681" y="94.3486" width="12.621" height="2.22037" rx="0.5" fill="#8252E6"/>
<rect x="308.34" y="127.654" width="12.6212" height="2.22037" rx="0.5" fill="#8252E6"/>
<rect x="288.357" y="108.781" width="17.8799" height="3.33057" rx="0.5" fill="#8252E6"/>
<rect x="291.513" y="113.222" width="12.6211" height="2.22037" rx="0.5" fill="#8252E6"/>
<path d="M382.554 170.811C382.554 169.762 383.519 168.911 384.71 168.911H432.987C434.177 168.911 435.142 169.762 435.142 170.811V209.198C435.142 210.247 434.177 211.098 432.987 211.098H384.71C383.519 211.098 382.554 210.247 382.554 209.198V170.811Z" fill="#6DD16B" fill-opacity="0.5"/>
<path fill-rule="evenodd" clip-rule="evenodd" d="M432.987 169.671H384.71C383.996 169.671 383.417 170.182 383.417 170.811V209.198C383.417 209.827 383.996 210.338 384.71 210.338H432.987C433.701 210.338 434.28 209.827 434.28 209.198V170.811C434.28 170.182 433.701 169.671 432.987 169.671ZM384.71 168.911C383.519 168.911 382.554 169.762 382.554 170.811V209.198C382.554 210.247 383.519 211.098 384.71 211.098H432.987C434.177 211.098 435.142 210.247 435.142 209.198V170.811C435.142 169.762 434.177 168.911 432.987 168.911H384.71Z" fill="#6DD16B"/>
<rect x="385.71" y="172.241" width="12.6212" height="2.22034" rx="0.5" fill="#6DD16B"/>
<rect x="419.37" y="205.547" width="12.621" height="2.22034" rx="0.5" fill="#6DD16B"/>
<rect x="399.381" y="186.674" width="17.8799" height="3.33052" rx="0.5" fill="#6DD16B"/>
<rect x="402.537" y="191.115" width="12.621" height="2.22034" rx="0.5" fill="#6DD16B"/>
<path d="M105.346 92.9184C105.346 91.8689 106.311 91.0181 107.501 91.0181H155.778C156.969 91.0181 157.934 91.8689 157.934 92.9184V131.305C157.934 132.354 156.969 133.205 155.778 133.205H107.501C106.311 133.205 105.346 132.354 105.346 131.305V92.9184Z" fill="#EB5545" fill-opacity="0.5"/>
<path fill-rule="evenodd" clip-rule="evenodd" d="M155.778 91.7782H107.501C106.787 91.7782 106.208 92.2887 106.208 92.9184V131.305C106.208 131.934 106.787 132.445 107.501 132.445H155.778C156.493 132.445 157.072 131.934 157.072 131.305V92.9184C157.072 92.2887 156.493 91.7782 155.778 91.7782ZM107.501 91.0181C106.311 91.0181 105.346 91.8689 105.346 92.9184V131.305C105.346 132.354 106.311 133.205 107.501 133.205H155.778C156.969 133.205 157.934 132.354 157.934 131.305V92.9184C157.934 91.8689 156.969 91.0181 155.778 91.0181H107.501Z" fill="#EB5545"/>
<rect x="108.502" y="94.3484" width="12.6211" height="2.22038" rx="0.5" fill="#EB5545"/>
<rect x="142.155" y="127.654" width="12.6211" height="2.22037" rx="0.5" fill="#EB5545"/>
<rect x="122.178" y="108.781" width="17.8799" height="3.33057" rx="0.5" fill="#EB5545"/>
<rect x="125.328" y="113.222" width="12.6211" height="2.22037" rx="0.5" fill="#EB5545"/>
<path d="M95.0842 34.1697C95.3473 34.1697 95.5176 34.3656 95.595 34.7736C95.6569 36.6671 95.6724 38.7238 95.6724 40.9601C95.6724 43.1963 95.6569 44.4858 95.6414 44.8286C95.6259 45.1714 95.5485 45.4162 95.4247 45.5631C95.3009 45.7101 95.0842 45.7753 94.7592 45.7753C94.4806 45.7753 94.3258 45.5958 94.3258 45.2204V41.2865C94.3258 40.6499 94.3103 39.997 94.2949 39.3278C94.2794 38.6422 94.2794 38.2178 94.2794 38.0546C93.9079 38.7238 93.4126 39.2788 92.7935 39.7195C92.1744 40.1602 91.4934 40.3724 90.735 40.3724C89.9766 40.3724 89.342 40.046 88.8158 39.3767C88.8003 40.0786 88.7848 40.9274 88.7848 41.8905C88.7848 42.8535 88.7848 43.8819 88.8003 44.9429C88.8003 45.2367 88.7074 45.4489 88.5217 45.5795C88.336 45.7101 88.1348 45.7753 87.9026 45.7753C87.624 45.759 87.4692 45.5795 87.4692 45.1877C87.4847 44.143 87.4847 42.4944 87.4847 40.2418V35.296C87.4847 35.1001 87.5466 34.9042 87.6704 34.7247C87.7943 34.5451 87.949 34.4472 88.1193 34.4472C88.2896 34.4472 88.4443 34.4961 88.5836 34.5941C88.7229 34.692 88.8003 34.8389 88.8158 35.0348C88.8622 36.3243 89.0634 37.2711 89.4039 37.9076C89.7599 38.5279 90.1778 38.8544 90.6576 38.8544C91.1374 38.8544 91.5553 38.7728 91.8958 38.6095C92.2363 38.4463 92.5304 38.2504 92.7471 38.0219C92.9793 37.8097 93.1959 37.4833 93.3972 37.0752C93.6912 36.5039 93.9853 35.7857 94.2484 34.9369C94.4341 34.4308 94.7127 34.1697 95.0842 34.1697Z" fill="#F5F7F9" stroke="#F5F7F9" stroke-width="0.5"/>
<path d="M102.316 37.7119C102.456 37.7119 102.595 37.7609 102.734 37.8751C102.873 37.9731 102.935 38.0873 102.935 38.2179C102.935 38.5607 102.471 40.3726 101.527 43.6698C100.598 46.9671 99.9018 49.2849 99.4529 50.6234C99.36 50.9336 99.2053 51.0968 98.9886 51.0968C98.7874 51.0968 98.6171 51.0152 98.4933 50.8683C98.3695 50.705 98.3076 50.4765 98.3076 50.1827C98.3076 49.8889 98.4933 49.1543 98.8648 48.0117C99.2362 46.8691 99.4529 46.1509 99.5303 45.8245C99.2517 45.3348 98.323 42.9026 96.7443 38.5281C96.7289 38.4628 96.7134 38.3975 96.7134 38.2995C96.7134 38.2016 96.7753 38.0873 96.9146 37.9404C97.0539 37.7935 97.2241 37.7119 97.4563 37.7119C97.6885 37.7119 97.8742 37.8262 98.0135 38.071C98.1683 38.4954 98.4159 39.2136 98.7719 40.2583C99.1279 41.303 99.391 42.0538 99.5922 42.5109C99.7779 42.9679 99.9637 43.4576 100.149 43.9473C100.304 43.4086 100.567 42.3477 100.939 40.7806C101.31 39.2136 101.527 38.3159 101.589 38.0873C101.635 37.8425 101.883 37.7119 102.316 37.7119Z" fill="#F5F7F9" stroke="#F5F7F9" stroke-width="0.5"/>
<path d="M111.584 34.2515C112.296 34.2515 112.899 34.382 113.41 34.6269C113.905 34.8881 114.153 35.2145 114.153 35.6063C114.153 35.7858 114.107 35.9327 114.029 36.0633C113.952 36.1939 113.828 36.2592 113.673 36.2592C113.518 36.2592 113.178 36.1286 112.636 35.8674C112.11 35.6063 111.63 35.4757 111.197 35.4757C110.763 35.4757 110.315 35.6226 109.85 35.9164C109.386 36.2102 109.154 36.553 109.154 36.9774C109.154 37.5487 109.432 37.9568 109.99 38.2343C110.407 38.4302 111.011 38.6097 111.785 38.7566C112.559 38.9198 113.209 39.23 113.704 39.7197C114.199 40.193 114.447 40.9276 114.447 41.907C114.447 43.3924 114.029 44.486 113.178 45.1879C112.698 45.5796 112.033 45.7755 111.181 45.7755C110.315 45.7755 109.463 45.5307 108.597 45.0247C108.039 44.7145 107.761 44.4044 107.761 44.0779C107.761 43.9637 107.807 43.8331 107.9 43.7025C107.993 43.5556 108.117 43.4413 108.287 43.3597C108.457 43.2618 108.597 43.2454 108.736 43.3107C108.875 43.376 109.092 43.4903 109.401 43.6535C109.711 43.8168 109.928 43.931 110.082 43.98C110.547 44.1595 110.98 44.2575 111.383 44.2575C111.785 44.2575 112.187 44.0453 112.559 43.6209C112.93 43.1965 113.132 42.6741 113.132 42.0702C113.132 41.254 112.745 40.6991 111.971 40.3726C111.599 40.2094 111.181 40.0951 110.702 40.0135C109.726 39.8339 108.984 39.5238 108.488 39.0831C107.993 38.6424 107.745 37.9894 107.745 37.108C107.745 36.2266 108.101 35.541 108.813 35.035C109.541 34.4963 110.454 34.2515 111.584 34.2515Z" fill="#F5F7F9" stroke="#F5F7F9" stroke-width="0.5"/>
<path d="M115.743 39.5565C116.13 38.9199 116.625 38.4466 117.229 38.1201C117.832 37.7936 118.42 37.6467 118.993 37.6467C119.566 37.6467 120.03 37.712 120.371 37.8589C120.711 38.0058 120.897 38.2017 120.897 38.4302C120.897 38.6751 120.835 38.9036 120.711 39.1484C120.587 39.3933 120.417 39.5076 120.216 39.5076C120.138 39.5076 119.922 39.4423 119.581 39.3117C119.241 39.1811 119.009 39.1158 118.916 39.1158C118.281 39.1158 117.739 39.3606 117.291 39.8503C116.842 40.34 116.61 40.9929 116.61 41.8091C116.61 42.6252 116.733 43.2292 116.981 43.621C117.229 44.0127 117.647 44.2249 118.266 44.2249C118.513 44.2249 118.916 44.078 119.504 43.7842C120.092 43.4904 120.463 43.3435 120.603 43.3435C120.742 43.3435 120.866 43.3924 120.943 43.4904C121.036 43.5883 121.083 43.7026 121.083 43.8332C121.083 44.1106 120.912 44.4045 120.587 44.7146C120.247 45.0247 119.844 45.2696 119.349 45.4818C118.854 45.6777 118.405 45.7919 118.018 45.7919C117.136 45.7919 116.455 45.4328 115.944 44.6983C115.449 43.9637 115.201 42.968 115.201 41.7112C115.155 40.9113 115.34 40.1931 115.743 39.5565Z" fill="#F5F7F9" stroke="#F5F7F9" stroke-width="0.5"/>
<path d="M123.544 40.1113L123.683 44.2084C123.683 44.7144 123.668 45.0083 123.621 45.0899C123.606 45.3021 123.528 45.4653 123.436 45.5796C123.327 45.6938 123.126 45.7591 122.832 45.7591C122.693 45.7591 122.569 45.6612 122.491 45.4653C122.399 45.2694 122.352 45.0572 122.337 44.8124C122.259 42.772 122.151 40.8622 122.027 39.0667C121.903 37.2711 121.841 35.6062 121.841 34.0718C121.841 33.827 121.919 33.6311 122.074 33.5005C122.228 33.3536 122.414 33.2883 122.615 33.2883C122.925 33.2883 123.111 33.5658 123.173 34.1208C123.234 34.6758 123.265 35.3777 123.281 36.2101C123.296 37.0426 123.312 37.6466 123.343 38.0383C123.884 37.7445 124.442 37.5813 124.983 37.5813C126.253 37.5813 127.073 38.1689 127.413 39.3605C127.615 40.0297 127.707 40.8949 127.707 41.9558C127.707 42.2986 127.676 42.8536 127.615 43.6045C127.553 44.3553 127.522 44.8287 127.506 45.0572C127.491 45.2694 127.398 45.449 127.228 45.5632C127.057 45.6775 126.872 45.7428 126.67 45.7428C126.361 45.7428 126.206 45.5632 126.206 45.2204L126.314 42.2007C126.314 41.9395 126.299 41.5151 126.283 40.9275C126.268 40.3399 126.144 39.8665 125.943 39.5237C125.742 39.1809 125.386 39.0014 124.875 39.0014C123.993 39.0014 123.544 39.3768 123.544 40.1113Z" fill="#F5F7F9" stroke="#F5F7F9" stroke-width="0.5"/>
<path d="M131.067 37.6958C131.655 37.6958 132.197 37.8754 132.739 38.2345C133.265 38.5936 133.528 39.0343 133.528 39.5566C133.528 40.079 133.312 40.6013 132.878 41.091C132.445 41.5807 131.872 41.8745 131.16 41.9887C130.851 42.0377 130.386 42.054 129.783 42.054C129.906 43.0334 130.139 43.6863 130.495 43.9965C130.603 44.1271 130.758 44.1924 130.943 44.1924C131.624 44.1924 132.197 43.9638 132.661 43.5068C133.126 43.0497 133.451 42.8212 133.652 42.8212C133.745 42.8212 133.869 42.9028 134.054 43.0824C134.225 43.2619 134.318 43.4252 134.318 43.5721C134.318 43.8659 133.977 44.3066 133.281 44.8779C132.971 45.1391 132.6 45.3676 132.166 45.5472C131.733 45.7267 131.33 45.8247 130.959 45.8247C129.999 45.8247 129.303 45.1717 128.854 43.8822C128.575 43.0824 128.421 42.2009 128.421 41.2379C128.421 40.2748 128.637 39.4424 129.071 38.7568C129.504 38.0712 130.154 37.6958 131.067 37.6958ZM131.16 38.9037C130.742 38.9037 130.386 39.1485 130.092 39.6546C129.984 39.8341 129.876 40.2259 129.783 40.8298C131.315 40.8298 132.089 40.4381 132.089 39.6382C132.073 39.1485 131.779 38.9037 131.16 38.9037Z" fill="#F5F7F9" stroke="#F5F7F9" stroke-width="0.5"/>
<path d="M139.197 37.6145L139.182 34.2519C139.182 33.6316 139.368 33.3052 139.755 33.3052C140.142 33.3052 140.343 33.4847 140.389 33.8275C140.405 33.9744 140.436 34.8885 140.467 36.5535C140.497 38.2184 140.544 39.7854 140.621 41.2545C140.699 42.7072 140.73 44.0784 140.73 45.3352C140.73 45.678 140.482 45.8576 139.987 45.8576C139.662 45.8576 139.491 45.6127 139.491 45.123C139.012 45.5148 138.454 45.7107 137.804 45.7107C136.984 45.7107 136.319 45.3842 135.808 44.7313C135.297 44.0784 135.034 43.2785 135.034 42.3318C135.034 41.3851 135.22 40.4873 135.591 39.6712C135.963 38.8387 136.535 38.251 137.309 37.8919C137.789 37.6797 138.253 37.5655 138.718 37.5655C138.888 37.5818 139.043 37.5981 139.197 37.6145ZM139.29 39.9813C139.213 39.7364 139.105 39.5406 138.996 39.41C138.888 39.2794 138.764 39.1978 138.64 39.1651C138.516 39.1325 138.362 39.1162 138.191 39.1162C138.021 39.1162 137.804 39.1815 137.541 39.3284C137.294 39.4753 137.077 39.6875 136.891 40.0139C136.535 40.6342 136.365 41.3035 136.365 41.989C136.365 42.6746 136.489 43.2459 136.752 43.6703C137.015 44.0947 137.371 44.3232 137.851 44.3232C138.331 44.3232 138.702 44.0784 138.981 43.5724C139.259 43.0663 139.399 42.4297 139.399 41.6626C139.414 40.7974 139.383 40.2425 139.29 39.9813Z" fill="#F5F7F9" stroke="#F5F7F9" stroke-width="0.5"/>
<path d="M141.937 37.8099C142.076 37.6793 142.231 37.614 142.37 37.614C142.525 37.614 142.633 37.6467 142.711 37.6956C142.788 37.7609 142.85 37.8099 142.866 37.8589C142.881 37.9078 142.897 37.9894 142.927 38.1037C142.866 39.0015 142.835 39.8176 142.835 40.5522C142.835 41.2704 142.912 42.1028 143.082 43.0333C143.253 43.9637 143.423 44.437 143.624 44.437C143.918 44.437 144.29 44.2575 144.754 43.9147C145.203 43.5719 145.543 43.1965 145.729 42.8211C145.59 41.1561 145.528 39.7197 145.528 38.5281C145.528 38.2833 145.605 38.0711 145.744 37.9078C145.899 37.7283 146.069 37.6467 146.286 37.6467C146.627 37.6467 146.797 37.8915 146.797 38.3812C146.797 39.1973 146.859 40.4216 146.967 42.0539C147.075 43.6699 147.199 44.7145 147.323 45.1553C147.339 45.2532 147.354 45.3511 147.354 45.4817C147.354 45.6123 147.277 45.7266 147.137 45.8245C146.983 45.9388 146.797 45.9877 146.565 45.9877C146.333 45.9877 146.178 45.8408 146.1 45.5633C146.085 45.3348 146.023 44.992 145.93 44.5187C145.156 45.3674 144.382 45.7918 143.609 45.7918C143.253 45.7918 142.927 45.6449 142.633 45.3511C142.355 45.0573 142.123 44.6656 141.952 44.1759C141.674 43.2128 141.519 42.315 141.519 41.4662C141.519 40.6175 141.565 39.5728 141.658 38.3322C141.705 38.12 141.798 37.9405 141.937 37.8099Z" fill="#F5F7F9" stroke="#F5F7F9" stroke-width="0.5"/>
<path d="M148.24 34.4971C148.271 34.0563 148.333 33.7789 148.441 33.6483C148.55 33.5177 148.72 33.4524 148.937 33.4524C149.416 33.4524 149.648 33.6483 149.648 34.0563C149.648 34.3665 149.618 35.1826 149.571 36.5048C149.525 37.827 149.494 39.0022 149.494 40.0469C149.494 41.0916 149.525 41.924 149.602 42.5606C149.741 43.6706 149.927 44.2256 150.159 44.2256C150.407 44.2256 150.577 44.046 150.701 43.6869C150.763 43.54 150.84 43.4258 150.964 43.3115C151.088 43.1972 151.243 43.1483 151.428 43.1483C151.815 43.1483 152.001 43.4911 152.001 44.1766C152.001 44.5521 151.815 44.9112 151.428 45.2866C151.057 45.6457 150.67 45.8416 150.299 45.8416C149.927 45.8416 149.633 45.7763 149.401 45.6457C149.169 45.5151 148.998 45.3192 148.859 45.0417C148.72 44.7806 148.611 44.5194 148.534 44.2746C148.457 44.0297 148.395 43.7196 148.364 43.3605C148.302 42.7892 148.255 41.8588 148.225 40.5692C148.194 39.296 148.178 38.0718 148.178 36.8966C148.178 35.7213 148.225 34.9378 148.24 34.4971Z" fill="#F5F7F9" stroke="#F5F7F9" stroke-width="0.5"/>
<path d="M155.043 37.6958C155.631 37.6958 156.173 37.8754 156.715 38.2345C157.241 38.5936 157.504 39.0343 157.504 39.5566C157.504 40.079 157.287 40.6013 156.854 41.091C156.421 41.5807 155.848 41.8745 155.136 41.9887C154.826 42.0377 154.362 42.054 153.759 42.054C153.882 43.0334 154.114 43.6863 154.47 43.9965C154.579 44.1271 154.734 44.1924 154.919 44.1924C155.6 44.1924 156.173 43.9638 156.637 43.5068C157.102 43.0497 157.427 42.8212 157.628 42.8212C157.721 42.8212 157.845 42.9028 158.03 43.0824C158.201 43.2619 158.293 43.4252 158.293 43.5721C158.293 43.8659 157.953 44.3066 157.256 44.8779C156.947 45.1391 156.575 45.3676 156.142 45.5472C155.709 45.7267 155.306 45.8247 154.935 45.8247C153.975 45.8247 153.279 45.1717 152.83 43.8822C152.551 43.0824 152.396 42.2009 152.396 41.2379C152.396 40.2748 152.613 39.4424 153.047 38.7568C153.48 38.0712 154.114 37.6958 155.043 37.6958ZM155.121 38.9037C154.703 38.9037 154.347 39.1485 154.053 39.6546C153.944 39.8341 153.836 40.2259 153.743 40.8298C155.275 40.8298 156.049 40.4381 156.049 39.6382C156.049 39.1485 155.74 38.9037 155.121 38.9037Z" fill="#F5F7F9" stroke="#F5F7F9" stroke-width="0.5"/>
<path d="M31.7294 21.4155C31.7294 17.5495 34.8634 14.4155 38.7294 14.4155H78.0068V265.316H39.7294C35.3111 265.316 31.7294 261.734 31.7294 257.316V21.4155Z" fill="#25262D"/>
<rect x="44.3544" y="63.2634" width="21.0352" height="12.212" rx="2" fill="#373943"/>
<rect x="44.3544" y="93.2383" width="21.0352" height="12.212" rx="2" fill="#373943"/>
<rect x="44.3544" y="123.213" width="21.0352" height="12.212" rx="2" fill="#373943"/>
<rect x="44.3544" y="153.188" width="21.0352" height="12.212" rx="2" fill="#373943"/>
<rect x="44.3258" y="234.084" width="20.7522" height="21.1089" rx="4" fill="#5C5F63"/>
<g clip-path="url(#clip0_1_2224)">
<path d="M62.0035 243.949C62.0035 247.803 57.9777 252.969 55.01 252.969C52.0423 252.969 48.0165 247.803 48.0165 243.949C48.0165 240.094 51.1476 236.969 55.01 236.969C58.8724 236.969 62.0035 240.094 62.0035 243.949Z" fill="#B1EF97"/>
<path d="M54.913 236.969C51.0959 237.022 48.0165 240.126 48.0165 243.948C48.0165 247.79 52.014 252.932 54.9787 252.968C54.6733 249.264 53.0819 246.854 52.2522 242.145C51.7507 239.299 53.2952 237.776 54.913 236.969Z" fill="#92DD7A"/>
<path d="M59.1693 247.147C60.1918 246.126 60.5122 244.792 59.8849 244.165C59.2575 243.539 57.9201 243.859 56.8976 244.879C55.8751 245.9 55.5547 247.235 56.1821 247.861C56.8095 248.487 58.1468 248.167 59.1693 247.147Z" fill="#898890"/>
<path d="M50.849 247.148C51.8715 248.168 53.209 248.488 53.8363 247.862C54.4636 247.236 54.1433 245.901 53.1209 244.881C52.0984 243.86 50.7609 243.54 50.1336 244.167C49.5063 244.793 49.8266 246.127 50.849 247.148Z" fill="#898890"/>
<path d="M55.009 249.561C54.6959 249.561 54.3828 249.459 54.1215 249.257C54.0158 249.176 53.9968 249.024 54.0786 248.918C54.1604 248.813 54.3124 248.794 54.418 248.876C54.766 249.145 55.2519 249.145 55.5999 248.876C55.7054 248.794 55.8575 248.813 55.9393 248.918C56.0212 249.024 56.002 249.176 55.8965 249.257C55.6352 249.459 55.3221 249.561 55.009 249.561Z" fill="#898890"/>
<path d="M50.1341 244.166C49.5068 244.792 49.8271 246.127 50.8495 247.147C51.4471 247.743 52.152 248.1 52.76 248.169C52.691 248.155 51.6807 247.915 51.3984 246.357C51.1096 244.762 53.1214 244.88 53.1214 244.88C52.0989 243.859 50.7614 243.539 50.1341 244.166Z" fill="#75747A"/>
<path d="M59.8858 244.166C60.5132 244.792 60.1928 246.127 59.1703 247.147C58.5728 247.743 57.8681 248.1 57.26 248.169C57.329 248.155 58.3392 247.915 58.6214 246.357C58.9103 244.762 56.8986 244.88 56.8986 244.88C57.9211 243.859 59.2585 243.539 59.8858 244.166Z" fill="#75747A"/>
</g>
<rect x="44.3544" y="183.163" width="21.0352" height="12.2121" rx="2" fill="#373943"/>
<path d="M471.178 277.038H18.9071V278.479H471.178V277.038Z" fill="#42CA90"/>
<defs>
<clipPath id="clip0_1_2224">
<rect width="16" height="16" fill="white" transform="translate(46.9989 237)"/>
</clipPath>
</defs>
</svg>
