<svg width="307" height="354" viewBox="0 0 307 354" fill="none" xmlns="http://www.w3.org/2000/svg">
<g clip-path="url(#clip0_89_54)">
<path d="M260.936 353.543C260.936 353.543 258.613 327.238 242.993 303.235L226.405 278.142L205.03 292.134L221.617 317.227C237.582 341.005 260.936 353.543 260.936 353.543Z" fill="#F19B2C"/>
<path d="M249.003 336.238C249.003 336.238 247.381 318.092 236.702 301.936L225.34 284.749L210.86 294.228L222.222 311.415C232.901 327.571 249.003 336.238 249.003 336.238Z" fill="#F8BE49"/>
<path d="M228.357 342.365C228.357 342.365 226.903 324.848 216.223 308.692L205.089 291.849L190.954 301.102L202.088 317.945C212.482 334.042 228.357 342.365 228.357 342.365Z" fill="#F3AA43"/>
<path d="M220.344 330.618C220.344 330.618 219.262 318.522 211.991 307.522L204.493 296.178L194.839 302.497L202.338 313.841C209.55 325.125 220.344 330.618 220.344 330.618Z" fill="#FECE57"/>
<path d="M263.235 319.288C263.235 319.288 261.782 301.772 251.102 285.616L239.968 268.772L225.832 278.025L237.194 295.212C247.647 311.025 263.235 319.288 263.235 319.288Z" fill="#F3AA43"/>
<path d="M255.451 307.885C255.451 307.885 254.369 295.789 247.098 284.789L239.599 273.445L229.946 279.764L237.445 291.108C244.716 302.108 255.451 307.885 255.451 307.885Z" fill="#FECE57"/>
<path d="M241.767 264.393C244.039 267.831 243.04 272.671 239.592 274.928L197.128 302.971C193.68 305.228 188.818 304.225 186.546 300.787L175.811 273.34C173.539 269.903 174.538 265.063 177.986 262.806L210.048 241.817C211.427 240.915 213.034 240.356 214.75 240.71C217.096 240.897 219.553 241.998 220.916 244.061L241.767 264.393Z" fill="#758586"/>
<path d="M184.057 260.397L207.676 296.127L228.398 282.562L204.778 246.833L184.057 260.397Z" fill="#859596"/>
<path d="M231.511 233.186C234.237 237.311 233.003 243.29 228.866 245.998L173.704 282.107C169.567 284.815 163.561 283.575 160.834 279.451C158.108 275.326 159.342 269.347 163.479 266.639L218.641 230.53C222.837 227.537 228.557 228.717 231.511 233.186Z" fill="#B5C5C6"/>
<path d="M140.562 236.086L165.558 273.897C166.239 274.929 166.004 276.067 165.029 276.46C153.938 283.966 150.941 298.487 158.153 309.771C158.381 310.115 158.322 310.4 158.549 310.743C158.431 311.313 158.314 311.882 157.624 312.333C156.59 313.011 155.505 312.49 155.05 311.802L130.282 274.334C121.875 261.616 125.173 244.189 137.988 235.554C138.333 235.329 138.964 235.162 139.536 235.28C139.822 235.339 140.049 235.683 140.562 236.086Z" fill="#C5D5D6"/>
<path d="M140.959 237.058L165.558 273.897C166.24 274.928 166.005 276.067 165.03 276.459C153.938 283.966 150.941 298.486 158.154 309.771C158.381 310.114 158.322 310.399 158.55 310.743L134.69 274.65C126.451 262.56 129.574 245.988 140.959 237.058Z" fill="#B5C5C6"/>
<path d="M198.139 198.392L223.135 236.204C223.816 237.235 224.96 237.471 225.709 236.735C237.027 229.572 251.613 232.583 259.17 243.642C259.397 243.986 259.683 244.045 259.911 244.388C260.483 244.506 261.055 244.624 261.744 244.173C262.778 243.496 262.728 242.298 262.273 241.611L237.505 204.143C229.097 191.424 211.71 187.539 198.668 195.83C198.323 196.056 197.92 196.566 197.802 197.135C197.744 197.42 197.912 198.049 198.139 198.392Z" fill="#C5D5D6"/>
<path d="M198.822 199.423L223.135 236.203C223.817 237.235 224.961 237.471 225.709 236.735C237.028 229.572 251.613 232.583 259.171 243.641C259.398 243.985 259.684 244.044 259.911 244.388L236.052 208.295C228.099 196.264 211.343 192.212 198.822 199.423Z" fill="#B5C5C6"/>
<path d="M201.517 187.81L231.511 233.184L160.835 279.449L130.84 234.075C117.661 214.138 112.975 190.611 111.874 171.386C110.73 149.48 114.139 132.967 114.256 132.398C115.114 132.575 131.702 135.999 151.463 145.717C168.482 154.276 188.396 167.589 201.517 187.81Z" fill="#3CBA84"/>
<path d="M182.957 199.712L212.952 245.086L179.165 267.203L149.171 221.829C136.673 202.923 128.473 183.42 123.117 167.473C116.524 147.411 114.424 133.026 114.255 132.398C115.055 132.859 127.497 140.474 143.114 154.383C155.709 165.592 170.46 180.807 182.957 199.712Z" fill="#42CA90"/>
<path d="M160.383 202.178C149.006 209.625 145.892 224.715 153.39 236.058C160.889 247.402 176.047 250.531 187.424 243.083C198.801 235.636 201.915 220.546 194.417 209.202C187.146 198.203 171.702 195.015 160.383 202.178ZM183.334 236.896C175.404 242.086 164.822 239.902 159.882 232.055C154.656 224.149 156.83 213.615 164.701 208.709C172.63 203.518 183.212 205.702 188.152 213.549C193.437 221.171 191.263 231.705 183.334 236.896Z" fill="#657576"/>
<path d="M189.877 212.42C195.558 221.014 193.148 232.687 184.529 238.329C175.91 243.971 164.184 241.551 158.504 232.957C152.823 224.364 155.232 212.69 163.851 207.048C172.184 201.347 183.91 203.768 189.877 212.42Z" fill="#D5E5E6"/>
<path d="M179.632 211.494C181.45 214.244 180.627 218.23 177.869 220.035C175.111 221.84 171.107 221.014 169.289 218.264C167.471 215.514 168.294 211.528 171.052 209.723C174.096 207.976 177.814 208.744 179.632 211.494Z" fill="white"/>
<path d="M138.342 168.835C131.102 173.574 129.163 182.97 133.935 190.188C138.706 197.407 148.144 199.355 155.384 194.616C162.624 189.876 164.564 180.481 159.792 173.262C155.306 166.103 145.582 164.096 138.342 168.835ZM152.885 190.835C148.058 193.994 141.194 192.577 138.013 187.765C134.832 182.953 136.242 176.119 141.069 172.96C145.895 169.8 152.759 171.217 155.941 176.03C159.122 180.842 157.77 187.39 152.885 190.835Z" fill="#657576"/>
<path d="M156.975 175.35C160.611 180.85 159.083 188.252 153.567 191.863C148.051 195.474 140.615 193.939 136.979 188.44C133.344 182.94 134.872 175.537 140.388 171.926C145.904 168.315 153.34 169.85 156.975 175.35Z" fill="#D5E5E6"/>
<path d="M150.564 174.625C151.701 176.343 151.172 178.906 149.448 180.034C147.724 181.163 145.15 180.631 144.014 178.913C142.878 177.194 143.407 174.632 145.13 173.503C146.854 172.375 149.428 172.906 150.564 174.625Z" fill="white"/>
</g>
<path fill-rule="evenodd" clip-rule="evenodd" d="M30.4661 18.7837L31.6026 20.5028C35.6428 19.1613 40.2485 20.6641 42.6653 24.3201L51.0612 37.0209C51.2152 37.2539 51.2325 37.66 50.8819 37.8895C50.6482 38.0425 50.4543 38.0025 50.2604 37.9625C50.2219 37.9042 50.1784 37.8701 50.1349 37.8359C50.0914 37.8018 50.0479 37.7677 50.0094 37.7094C48.7077 35.8046 46.7909 34.6042 44.7168 34.2027C43.4269 33.953 42.0762 34.0122 40.7748 34.4032C41.5082 35.7847 41.0615 37.6409 39.7369 38.508L38.5277 39.2996L44.1103 44.7437C44.6315 45.5322 44.645 46.5384 44.2371 47.3437L47.2738 51.9376C50.8941 57.414 51.3868 63.3519 51.3868 63.3519C51.3868 63.3519 47.422 61.25 44.0583 57.2041L44.525 57.9101C49.8199 66.0466 50.6074 74.9633 50.6074 74.9633C50.6074 74.9633 42.691 70.7131 37.2793 62.6532L36.3838 61.2986C39.1586 66.2921 39.5637 71.1744 39.5637 71.1744C39.5637 71.1744 34.1825 68.3532 30.6592 62.8967L27.5746 58.2304C26.7247 58.2279 25.8811 57.8206 25.3918 57.0804L22.5326 49.77L21.0383 50.7481C19.6737 51.6414 17.7094 51.2676 16.7529 49.9587C14.13 52.6597 13.6451 56.8057 15.767 60.1256C15.8055 60.1838 15.8198 60.2371 15.8341 60.2904C15.8483 60.3436 15.8626 60.3969 15.9011 60.4551L15.893 60.4429L15.9009 60.4553C15.8611 60.6483 15.8212 60.8413 15.5875 60.9943C15.2369 61.2238 14.869 61.0473 14.715 60.8142L6.31913 48.1135C3.7938 44.2933 4.38409 39.2201 7.57353 36.0775L6.50853 34.4664C2.04102 27.7082 0.45267 19.733 0.0794746 13.2161C-0.307138 5.81351 0.839942 0.227493 0.88648 0.00193555L0.885994 7.34753e-05L0.886771 0.000522944L0.886879 0C1.17772 0.0600301 6.8006 1.22061 13.4992 4.51505C19.2682 7.41637 26.0186 11.929 30.4661 18.7837Z" fill="#1C372E"/>
<path fill-rule="evenodd" clip-rule="evenodd" d="M285.466 78.7837L286.603 80.5028C290.643 79.1613 295.249 80.6641 297.665 84.3201L306.061 97.0209C306.215 97.2539 306.232 97.66 305.882 97.8895C305.648 98.0425 305.454 98.0025 305.26 97.9625C305.222 97.9042 305.178 97.8701 305.135 97.8359C305.091 97.8018 305.048 97.7677 305.009 97.7094C303.708 95.8046 301.791 94.6042 299.717 94.2027C298.427 93.953 297.076 94.0122 295.775 94.4032C296.508 95.7847 296.062 97.6409 294.737 98.508L293.528 99.2996L299.11 104.744C299.632 105.532 299.645 106.538 299.237 107.344L302.274 111.938C305.894 117.414 306.387 123.352 306.387 123.352C306.387 123.352 302.422 121.25 299.058 117.204L299.525 117.91C304.82 126.047 305.607 134.963 305.607 134.963C305.607 134.963 297.691 130.713 292.279 122.653L291.384 121.299C294.159 126.292 294.564 131.174 294.564 131.174C294.564 131.174 289.183 128.353 285.659 122.897L282.575 118.23C281.725 118.228 280.881 117.821 280.392 117.08L277.533 109.77L276.038 110.748C274.674 111.641 272.709 111.268 271.753 109.959C269.13 112.66 268.645 116.806 270.767 120.126C270.806 120.184 270.82 120.237 270.834 120.29C270.848 120.344 270.863 120.397 270.901 120.455C270.861 120.648 270.821 120.841 270.588 120.994C270.237 121.224 269.869 121.047 269.715 120.814L261.319 108.113C258.794 104.293 259.384 99.2201 262.574 96.0775L261.509 94.4664C257.041 87.7082 255.453 79.733 255.079 73.2161C254.693 65.8135 255.84 60.2275 255.886 60.0019L255.886 60.0001C256.177 60.0601 261.801 61.2206 268.499 64.5151C274.268 67.4164 281.019 71.929 285.466 78.7837Z" fill="#233634"/>
<defs>
<clipPath id="clip0_89_54">
<rect width="187.236" height="188.836" fill="white" transform="translate(76 315.371) rotate(-78.3377)"/>
</clipPath>
</defs>
</svg>
