<svg width="262" height="480" viewBox="0 0 262 480" fill="none" xmlns="http://www.w3.org/2000/svg">
<path d="M232.866 479.741H29.3877L107.391 128.258H154.862L232.866 479.741Z" fill="url(#paint0_linear_1_175)"/>
<path d="M195.056 479.741H67.3748L116.329 128.257H146.101L195.056 479.741Z" fill="url(#paint1_linear_1_175)"/>
<path d="M197.294 55.2223H64.8086L80.2892 40.7744H181.814L197.294 55.2223Z" fill="#E5E5E5"/>
<path d="M80.2892 40.7744L64.8086 55.2223H85.7435L101.224 40.7744H80.2892Z" fill="#F4F4F4"/>
<path d="M197.295 55.2223L181.814 40.7744H162.461H80.29L74.8479 45.8556H167.903L177.941 55.2223H197.295Z" fill="#C4C4C4"/>
<path d="M64.8086 96.2129L80.2892 112.013H181.814L197.294 96.2129H64.8086Z" fill="#E5E5E5"/>
<path d="M94.3237 96.2129L105.012 112.013H146.134L157.19 96.2129H94.3237Z" fill="#C4C4C4"/>
<path d="M64.8086 96.2129L80.2892 112.013H91.6881L76.2076 96.2129H64.8086Z" fill="#F4F4F4"/>
<path d="M170.451 96.2129L154.97 112.013H181.813L197.294 96.2129H170.451Z" fill="#C4C4C4"/>
<path d="M95.2161 112.013H166.883L158.511 127.825H103.588L95.2161 112.013Z" fill="#42CA90"/>
<path opacity="0.47" d="M166.883 112.013H152.91H95.2161L97.1527 115.685H150.973L144.538 127.825H158.511L164.946 115.685L166.883 112.013Z" fill="#3CBA84"/>
<path d="M261.593 83.6406C261.593 90.586 256.727 96.2129 250.733 96.2129H11.3548C8.35184 96.2129 5.64305 94.8033 3.68194 92.5298C1.70856 90.2564 0.495117 87.1076 0.495117 83.6406C0.495117 77.866 3.89031 72.8416 8.71955 71.4321L64.832 55.1768L64.7952 55.2336H197.281L197.244 55.1768L253.356 71.4321C255.771 72.1368 257.83 73.751 259.289 75.8994C260.747 78.0592 261.593 80.7533 261.593 83.6406Z" fill="#42CA90"/>
<path d="M197.439 55.2338L197.256 55.1768L197.292 55.2338H197.439Z" fill="#228AC5"/>
<path d="M18.6844 92.5298C16.711 90.2564 15.4976 87.1076 15.4976 83.6406C15.4976 77.866 18.8928 72.8416 23.722 71.4321L79.6506 55.2336H64.8074L64.8441 55.1768L8.73174 71.4321C3.90249 72.8416 0.507324 77.866 0.507324 83.6406C0.507324 87.1076 1.72075 90.2564 3.69412 92.5298C5.65524 94.8033 8.37628 96.2129 11.367 96.2129H26.3573C23.3543 96.2129 20.6332 94.8033 18.6844 92.5298Z" fill="#3CBA84"/>
<path d="M259.299 75.8999C257.853 73.7515 255.794 72.1373 253.367 71.4325L197.254 55.1772L197.291 55.2341H166.06L221.989 71.4325C224.403 72.1373 226.463 73.7515 227.921 75.8999C229.368 78.0483 230.226 80.7538 230.226 83.6411C230.226 90.5865 225.36 96.2133 219.366 96.2133H250.744C256.737 96.2133 261.603 90.5865 261.603 83.6411C261.591 80.7538 260.745 78.0597 259.299 75.8999Z" fill="#3CBA84"/>
<path d="M259.547 76.2863H228.169C228.083 76.1612 228.01 76.0248 227.924 75.9111C227.666 75.5133 227.372 75.1382 227.066 74.7744H258.419C258.431 74.7858 258.444 74.7858 258.456 74.7972C258.456 74.7972 258.456 74.8085 258.468 74.8085C258.75 75.1609 259.032 75.5247 259.302 75.9111C259.375 76.0248 259.461 76.1499 259.547 76.2863Z" fill="#560B68"/>
<path d="M64.8071 55.2348L64.8437 55.1777L64.6606 55.2348H64.8071Z" fill="#560B68"/>
<path d="M259.303 75.8999C259.034 75.5021 258.74 75.1269 258.421 74.7632H226.063C226.369 75.1269 226.675 75.5021 226.945 75.8999C228.391 78.0483 229.249 80.7538 229.249 83.6411C229.249 90.5865 224.383 96.2133 218.39 96.2133H250.736C256.729 96.2133 261.595 90.5865 261.595 83.6411C261.595 80.7538 260.75 78.0597 259.303 75.8999Z" fill="#750E8E"/>
<path opacity="0.69" d="M95.2161 112.013L103.588 127.825H109.471L101.099 112.013H95.2161Z" fill="url(#paint2_linear_1_175)"/>
<path d="M258.418 74.7632H3.68187C1.7085 77.0594 0.507324 80.2195 0.507324 83.6411C0.507324 87.1081 1.72075 90.2569 3.69413 92.5303C5.65524 94.8038 8.37628 96.2133 11.367 96.2133H250.746C256.739 96.2133 261.605 90.5865 261.605 83.6411C261.605 80.7538 260.747 78.0483 259.301 75.8999C259.031 75.5021 258.725 75.1269 258.418 74.7632Z" fill="#3CAF7E"/>
<path d="M18.4761 92.5303C16.5027 90.2569 15.2893 87.1081 15.2893 83.6411C15.2893 80.2195 16.4905 77.0594 18.4638 74.7632H3.66967C1.6963 77.0594 0.495117 80.2195 0.495117 83.6411C0.495117 87.1081 1.70856 90.2569 3.68194 92.5303C5.64305 94.8038 8.36409 96.2133 11.3548 96.2133H26.1612C23.1583 96.2133 20.4372 94.8038 18.4761 92.5303Z" fill="#31986C"/>
<path d="M259.301 75.8999C259.031 75.5021 258.737 75.1269 258.418 74.7632H227.285C227.592 75.1269 227.898 75.5021 228.168 75.8999C229.614 78.0483 230.472 80.7538 230.472 83.6411C230.472 90.5865 225.606 96.2133 219.613 96.2133H250.745C256.739 96.2133 261.605 90.5865 261.605 83.6411C261.593 80.7538 260.747 78.0597 259.301 75.8999Z" fill="#31986C"/>
<path d="M1.3186 88.4038C1.87017 89.9611 2.67914 91.3593 3.68421 92.5301C5.64532 94.8036 8.36636 96.2132 11.3571 96.2132H250.736C255.271 96.2132 259.156 92.9848 260.786 88.4038H1.3186Z" fill="#319667"/>
<path d="M181.948 40.7632C179.46 17.9604 157.667 0.125 131.155 0.125C104.643 0.125 82.8382 17.9604 80.3623 40.7632H181.948Z" fill="#42CA90"/>
<path d="M131.153 0.136719C128.224 0.136719 125.344 0.364065 122.549 0.784657C145.041 4.14939 162.531 20.4843 164.738 40.7636H181.959C179.47 17.9607 157.678 0.136719 131.153 0.136719Z" fill="#3CBA84"/>
<path opacity="0.79" d="M259.546 76.2858H2.56592C2.89686 75.7515 3.27683 75.24 3.68131 74.7739H258.418C258.43 74.7853 258.442 74.7853 258.455 74.7967C258.455 74.7967 258.455 74.808 258.467 74.808C258.749 75.1604 259.031 75.5242 259.3 75.9107C259.374 76.0243 259.46 76.1494 259.546 76.2858Z" fill="white"/>
<path d="M244.975 82.7426C244.975 80.8556 243.32 79.321 241.286 79.321C239.251 79.321 237.596 80.8556 237.596 82.7426C237.596 84.6296 239.251 86.1642 241.286 86.1642C243.32 86.1642 244.975 84.641 244.975 82.7426Z" fill="#FCC529"/>
<path d="M213.904 82.7426C213.904 80.8556 212.25 79.321 210.215 79.321C208.18 79.321 206.526 80.8556 206.526 82.7426C206.526 84.6296 208.18 86.1642 210.215 86.1642C212.262 86.1642 213.904 84.641 213.904 82.7426Z" fill="#FCC529"/>
<path d="M182.848 82.7426C182.848 80.8556 181.193 79.321 179.159 79.321C177.124 79.321 175.469 80.8556 175.469 82.7426C175.469 84.6296 177.124 86.1642 179.159 86.1642C181.193 86.1642 182.848 84.641 182.848 82.7426Z" fill="#FCC529"/>
<path d="M151.785 82.7426C151.785 80.8556 150.131 79.321 148.096 79.321C146.061 79.321 144.407 80.8556 144.407 82.7426C144.407 84.6296 146.061 86.1642 148.096 86.1642C150.131 86.1642 151.785 84.641 151.785 82.7426Z" fill="#FCC529"/>
<path d="M120.713 82.7426C120.713 80.8556 119.058 79.321 117.023 79.321C114.989 79.321 113.334 80.8556 113.334 82.7426C113.334 84.6296 114.989 86.1642 117.023 86.1642C119.07 86.1642 120.713 84.641 120.713 82.7426Z" fill="#FCC529"/>
<path d="M89.6541 82.7426C89.6541 80.8556 87.9994 79.321 85.9647 79.321C83.9301 79.321 82.2754 80.8556 82.2754 82.7426C82.2754 84.6296 83.9301 86.1642 85.9647 86.1642C87.9994 86.1642 89.6541 84.641 89.6541 82.7426Z" fill="#FCC529"/>
<path d="M58.5935 82.7426C58.5935 80.8556 56.9388 79.321 54.9042 79.321C52.8695 79.321 51.2148 80.8556 51.2148 82.7426C51.2148 84.6296 52.8695 86.1642 54.9042 86.1642C56.9388 86.1642 58.5935 84.641 58.5935 82.7426Z" fill="#FCC529"/>
<path d="M27.5242 82.7424C27.5242 80.8554 25.8695 79.3208 23.8349 79.3208C21.8002 79.3208 20.1455 80.8554 20.1455 82.7424C20.1455 84.6293 21.8002 86.1639 23.8349 86.1639C25.8695 86.1639 27.5242 84.6407 27.5242 82.7424Z" fill="#FCC529"/>
<path opacity="0.69" d="M138.964 10.5263C136.072 3.6945 124.17 1.62565 112.379 5.91113C100.588 10.1966 93.3685 19.2109 96.2489 26.0427C99.1415 32.8745 111.043 34.9433 122.834 30.6578C134.625 26.3837 141.845 17.3694 138.964 10.5263Z" fill="url(#paint3_linear_1_175)"/>
<path opacity="0.31" d="M121.472 13.7429C120.124 10.5373 114.547 9.57107 109.019 11.5831C103.491 13.5951 100.108 17.8124 101.457 21.018C102.805 24.2236 108.382 25.1898 113.91 23.1778C119.438 21.1657 122.833 16.9485 121.472 13.7429Z" fill="white"/>
<path opacity="0.31" d="M132.43 17.46C131.878 16.1414 129.586 15.7549 127.319 16.5733C125.051 17.3918 123.666 19.131 124.217 20.4382C124.769 21.7568 127.061 22.1433 129.329 21.3249C131.596 20.5064 132.981 18.7672 132.43 17.46Z" fill="white"/>
<path d="M160.914 261.585L101.664 260.823L124.547 128.257H139.672L160.914 261.585Z" fill="url(#paint4_linear_1_175)"/>
<path fill-rule="evenodd" clip-rule="evenodd" d="M165.699 453.832C165.699 453.832 171.092 455.537 176.534 448.444C181.976 441.351 185.567 432.473 185.567 432.473C185.567 432.473 184.06 436.565 177.073 437.02L165.699 453.832Z" fill="url(#paint5_linear_1_175)"/>
<path fill-rule="evenodd" clip-rule="evenodd" d="M169.915 433.269L188.668 407.158C188.668 407.158 197.849 418.423 176.534 448.444C176.534 448.444 184.942 438.805 169.915 433.269Z" fill="url(#paint6_linear_1_175)"/>
<path fill-rule="evenodd" clip-rule="evenodd" d="M149.044 205.861C155.438 208.816 156.695 212.749 156.695 212.749L140.673 206.85C140.673 206.85 141.82 204.292 136.683 201.462C136.683 201.462 146.115 204.508 149.044 205.861Z" fill="url(#paint7_linear_1_175)"/>
<path fill-rule="evenodd" clip-rule="evenodd" d="M116.098 197.949L129.862 206.633C129.862 206.633 135.329 200.086 149.044 205.86C149.044 205.86 135.219 199.165 116.098 197.949Z" fill="url(#paint8_linear_1_175)"/>
<path d="M126.443 290.912L125.552 295.686L94.5579 293.197L80.9765 318.739L75.6807 317.068L91.1534 287.502L126.443 290.912Z" fill="#E7E5E5"/>
<path d="M126.43 290.913L96.0949 288.412C96.0949 288.412 93.0931 287.991 91.9949 288.775L92.9833 290.549C92.9833 290.549 124.661 292.549 126.101 292.743L126.43 290.913Z" fill="#D8D6D6"/>
<path d="M75.6077 316.943L89.372 291.639C89.372 291.639 90.5679 289.048 91.8735 288.593L92.9718 290.309C92.9718 290.309 78.0359 316.409 77.4502 317.648L75.6077 316.943Z" fill="#D8D6D6"/>
<path d="M74.5362 319.182L90.1065 290.57C90.1065 290.57 91.4976 288.035 94.5238 288.285V288.274V288.285L128.825 291.104L128.996 289.274L96.2566 286.58C96.2566 286.58 93.0595 284.614 90.3018 286.046C87.5318 287.478 87.6416 291.036 87.6416 291.036L72.7791 318.352L74.5362 319.182Z" fill="#FFC23A"/>
<path d="M78.1472 317.853C77.9763 317.944 87.0793 317.421 87.0793 317.421C103.675 308.293 92.8267 290.332 92.8267 290.332C92.8267 290.332 91.6675 310.725 78.1472 317.853Z" fill="#D8D6D6"/>
<path d="M89.2401 321.433C89.1181 321.57 97.3304 318.069 97.3304 318.069C108.788 303.746 92.8276 290.344 92.8276 290.344C92.8276 290.344 99.1363 310.157 89.2401 321.433Z" fill="#C3C1C1"/>
<path d="M101.659 288.877L102.257 287.081L96.253 286.581C96.253 286.581 93.3245 284.501 90.2983 286.047C90.2983 286.047 87.6137 287.627 87.6381 291.037L84.8438 296.175L86.6741 296.63L90.103 290.571C90.103 290.571 91.1036 288.366 94.5203 288.275L101.659 288.877Z" fill="#F9A431"/>
<defs>
<linearGradient id="paint0_linear_1_175" x1="131.125" y1="452.141" x2="131.125" y2="77.2406" gradientUnits="userSpaceOnUse">
<stop stop-color="white" stop-opacity="0"/>
<stop offset="1" stop-color="white"/>
</linearGradient>
<linearGradient id="paint1_linear_1_175" x1="131.215" y1="452.141" x2="131.215" y2="77.2403" gradientUnits="userSpaceOnUse">
<stop stop-color="white" stop-opacity="0"/>
<stop offset="1" stop-color="white"/>
</linearGradient>
<linearGradient id="paint2_linear_1_175" x1="95.2151" y1="119.922" x2="109.472" y2="119.922" gradientUnits="userSpaceOnUse">
<stop stop-color="white" stop-opacity="0"/>
<stop offset="1" stop-color="white"/>
</linearGradient>
<linearGradient id="paint3_linear_1_175" x1="128.158" y1="25.5419" x2="92.5867" y2="-2.88765" gradientUnits="userSpaceOnUse">
<stop stop-color="white" stop-opacity="0"/>
<stop offset="1" stop-color="white"/>
</linearGradient>
<linearGradient id="paint4_linear_1_175" x1="131.291" y1="251.11" x2="131.291" y2="108.909" gradientUnits="userSpaceOnUse">
<stop stop-color="white" stop-opacity="0"/>
<stop offset="1" stop-color="white"/>
</linearGradient>
<linearGradient id="paint5_linear_1_175" x1="179.099" y1="446.126" x2="173.533" y2="440.564" gradientUnits="userSpaceOnUse">
<stop offset="0.0335" stop-color="#C7C7C7"/>
<stop offset="0.9829" stop-color="#DADADA"/>
</linearGradient>
<linearGradient id="paint6_linear_1_175" x1="190.44" y1="434.527" x2="175.865" y2="419.964" gradientUnits="userSpaceOnUse">
<stop offset="0.0335" stop-color="#FFDECE"/>
<stop offset="0.9829" stop-color="#F0CECC"/>
</linearGradient>
<linearGradient id="paint7_linear_1_175" x1="147.612" y1="205.232" x2="146.008" y2="209.067" gradientUnits="userSpaceOnUse">
<stop offset="0.0335" stop-color="#E3DBBE"/>
<stop offset="0.9829" stop-color="#F3E1D1"/>
</linearGradient>
<linearGradient id="paint8_linear_1_175" x1="133.791" y1="199.42" x2="130.645" y2="206.941" gradientUnits="userSpaceOnUse">
<stop offset="0.0335" stop-color="#FFDECE"/>
<stop offset="0.9829" stop-color="#F0CECC"/>
</linearGradient>
</defs>
</svg>
